<?xml version="1.0" standalone="no" ?>
<!DOCTYPE svg PUBLIC "-//W3C//DTD SVG 1.1//EN" "http://www.w3.org/Graphics/SVG/1.1/DTD/svg11.dtd">
<svg width="2570px" height="18410px" xmlns="http://www.w3.org/2000/svg" version="1.1" >
	<polygon points="50,250 50,450 130,450 130,4250 210,4250 210,4450 290,4450 290,10650 370,10650 370,12050 450,12050 450,14250 530,14250 530,15950 610,15950 610,17050 690,17050 690,17150 770,17150 770,17750 850,17750 850,18050 930,18050 930,18250 1010,18250 1010,18350 1090,18350 1090,18400 1170,18400 1770,18400 1770,18350 1170,18350 1120,18350 1120,18350 1120,18300 1120,18300 1170,18300 1770,18300 1770,18250 1170,18250 1090,18250 1090,18300 1040,18300 1040,18250 1040,18200 1040,18150 1090,18150 1090,18200 1170,18200 1770,18200 1770,18150 1170,18150 1120,18150 1120,18150 1120,18100 1120,18100 1170,18100 1770,18100 1770,18050 1170,18050 1090,18050 1090,18100 1010,18100 1010,18200 960,18200 960,18050 960,18000 960,17850 1010,17850 1010,17950 1090,17950 1090,18000 1170,18000 1770,18000 1770,17950 1170,17950 1120,17950 1120,17950 1120,17900 1120,17900 1170,17900 1770,17900 1770,17850 1170,17850 1090,17850 1090,17900 1040,17900 1040,17850 1040,17800 1040,17800 1090,17800 1770,17800 1770,17750 1090,17750 1010,17750 1010,17800 930,17800 930,18000 880,18000 880,17750 880,17700 880,17350 930,17350 930,17450 1010,17450 1010,17550 1090,17550 1090,17650 1170,17650 1170,17700 1250,17700 1770,17700 1770,17650 1250,17650 1200,17650 1200,17650 1200,17600 1200,17600 1250,17600 1770,17600 1770,17550 1250,17550 1170,17550 1170,17600 1120,17600 1120,17550 1120,17500 1120,17500 1170,17500 1770,17500 1770,17450 1170,17450 1090,17450 1090,17500 1040,17500 1040,17450 1040,17400 1040,17400 1090,17400 1770,17400 1770,17350 1090,17350 1010,17350 1010,17400 960,17400 960,17350 960,17300 960,17250 1010,17250 1010,17300 1090,17300 1770,17300 1770,17250 1090,17250 1040,17250 1040,17250 1040,17200 1040,17200 1090,17200 1770,17200 1770,17150 1090,17150 1010,17150 1010,17200 930,17200 930,17300 850,17300 850,17700 800,17700 800,17150 800,17100 800,17100 850,17100 1770,17100 1770,17050 850,17050 770,17050 770,17100 720,17100 720,17050 720,17000 720,16450 770,16450 770,16550 850,16550 850,16750 930,16750 930,16850 1010,16850 1010,16950 1090,16950 1090,17000 1170,17000 1770,17000 1770,16950 1170,16950 1120,16950 1120,16950 1120,16900 1120,16900 1170,16900 1770,16900 1770,16850 1170,16850 1090,16850 1090,16900 1040,16900 1040,16850 1040,16800 1040,16800 1090,16800 1770,16800 1770,16750 1090,16750 1010,16750 1010,16800 960,16800 960,16750 960,16700 960,16650 1010,16650 1010,16700 1090,16700 1770,16700 1770,16650 1090,16650 1040,16650 1040,16650 1040,16600 1040,16600 1090,16600 1770,16600 1770,16550 1090,16550 1010,16550 1010,16600 930,16600 930,16700 880,16700 880,16550 880,16500 880,16500 930,16500 1770,16500 1770,16450 930,16450 850,16450 850,16500 800,16500 800,16450 800,16400 800,16150 850,16150 850,16250 930,16250 930,16350 1010,16350 1010,16400 1090,16400 1770,16400 1770,16350 1090,16350 1040,16350 1040,16350 1040,16300 1040,16300 1090,16300 1770,16300 1770,16250 1090,16250 1010,16250 1010,16300 960,16300 960,16250 960,16200 960,16200 1010,16200 1770,16200 1770,16150 1010,16150 930,16150 930,16200 880,16200 880,16150 880,16100 880,16050 930,16050 930,16100 1010,16100 1770,16100 1770,16050 1010,16050 960,16050 960,16050 960,16000 960,16000 1010,16000 1770,16000 1770,15950 1010,15950 930,15950 930,16000 850,16000 850,16100 770,16100 770,16400 690,16400 690,17000 640,17000 640,15950 640,15900 640,14850 690,14850 690,14950 770,14950 770,15050 850,15050 850,15350 930,15350 930,15450 1010,15450 1010,15550 1090,15550 1090,15750 1170,15750 1170,15850 1250,15850 1250,15900 1330,15900 1770,15900 1770,15850 1330,15850 1280,15850 1280,15850 1280,15800 1280,15800 1330,15800 1770,15800 1770,15750 1330,15750 1250,15750 1250,15800 1200,15800 1200,15750 1200,15700 1200,15650 1250,15650 1250,15700 1330,15700 1770,15700 1770,15650 1330,15650 1280,15650 1280,15650 1280,15600 1280,15600 1330,15600 1770,15600 1770,15550 1330,15550 1250,15550 1250,15600 1170,15600 1170,15700 1120,15700 1120,15550 1120,15500 1120,15500 1170,15500 1770,15500 1770,15450 1170,15450 1090,15450 1090,15500 1040,15500 1040,15450 1040,15400 1040,15400 1090,15400 1770,15400 1770,15350 1090,15350 1010,15350 1010,15400 960,15400 960,15350 960,15300 960,15150 1010,15150 1010,15250 1090,15250 1090,15300 1170,15300 1770,15300 1770,15250 1170,15250 1120,15250 1120,15250 1120,15200 1120,15200 1170,15200 1770,15200 1770,15150 1170,15150 1090,15150 1090,15200 1040,15200 1040,15150 1040,15100 1040,15100 1090,15100 1770,15100 1770,15050 1090,15050 1010,15050 1010,15100 930,15100 930,15300 880,15300 880,15050 880,15000 880,15000 930,15000 1770,15000 1770,14950 930,14950 850,14950 850,15000 800,15000 800,14950 800,14900 800,14900 850,14900 1770,14900 1770,14850 850,14850 770,14850 770,14900 720,14900 720,14850 720,14800 720,14350 770,14350 770,14550 850,14550 850,14650 930,14650 930,14750 1010,14750 1010,14800 1090,14800 1770,14800 1770,14750 1090,14750 1040,14750 1040,14750 1040,14700 1040,14700 1090,14700 1770,14700 1770,14650 1090,14650 1010,14650 1010,14700 960,14700 960,14650 960,14600 960,14600 1010,14600 1770,14600 1770,14550 1010,14550 930,14550 930,14600 880,14600 880,14550 880,14500 880,14450 930,14450 930,14500 1010,14500 1770,14500 1770,14450 1010,14450 960,14450 960,14450 960,14400 960,14400 1010,14400 1770,14400 1770,14350 1010,14350 930,14350 930,14400 850,14400 850,14500 800,14500 800,14350 800,14300 800,14300 850,14300 1770,14300 1770,14250 850,14250 770,14250 770,14300 690,14300 690,14800 610,14800 610,15900 560,15900 560,14250 560,14200 560,12450 610,12450 610,12650 690,12650 690,13350 770,13350 770,13650 850,13650 850,13950 930,13950 930,14050 1010,14050 1010,14150 1090,14150 1090,14200 1170,14200 1770,14200 1770,14150 1170,14150 1120,14150 1120,14150 1120,14100 1120,14100 1170,14100 1770,14100 1770,14050 1170,14050 1090,14050 1090,14100 1040,14100 1040,14050 1040,14000 1040,14000 1090,14000 1770,14000 1770,13950 1090,13950 1010,13950 1010,14000 960,14000 960,13950 960,13900 960,13750 1010,13750 1010,13850 1090,13850 1090,13900 1170,13900 1770,13900 1770,13850 1170,13850 1120,13850 1120,13850 1120,13800 1120,13800 1170,13800 1770,13800 1770,13750 1170,13750 1090,13750 1090,13800 1040,13800 1040,13750 1040,13700 1040,13700 1090,13700 1770,13700 1770,13650 1090,13650 1010,13650 1010,13700 930,13700 930,13900 880,13900 880,13650 880,13600 880,13450 930,13450 930,13550 1010,13550 1010,13600 1090,13600 1770,13600 1770,13550 1090,13550 1040,13550 1040,13550 1040,13500 1040,13500 1090,13500 1770,13500 1770,13450 1090,13450 1010,13450 1010,13500 960,13500 960,13450 960,13400 960,13400 1010,13400 1770,13400 1770,13350 1010,13350 930,13350 930,13400 850,13400 850,13600 800,13600 800,13350 800,13300 800,12950 850,12950 850,13050 930,13050 930,13150 1010,13150 1010,13250 1090,13250 1090,13300 1170,13300 1770,13300 1770,13250 1170,13250 1120,13250 1120,13250 1120,13200 1120,13200 1170,13200 1770,13200 1770,13150 1170,13150 1090,13150 1090,13200 1040,13200 1040,13150 1040,13100 1040,13100 1090,13100 1770,13100 1770,13050 1090,13050 1010,13050 1010,13100 960,13100 960,13050 960,13000 960,13000 1010,13000 1770,13000 1770,12950 1010,12950 930,12950 930,13000 880,13000 880,12950 880,12900 880,12750 930,12750 930,12850 1010,12850 1010,12900 1090,12900 1770,12900 1770,12850 1090,12850 1040,12850 1040,12850 1040,12800 1040,12800 1090,12800 1770,12800 1770,12750 1090,12750 1010,12750 1010,12800 960,12800 960,12750 960,12700 960,12700 1010,12700 1770,12700 1770,12650 1010,12650 930,12650 930,12700 850,12700 850,12900 770,12900 770,13300 720,13300 720,12650 720,12600 720,12550 770,12550 770,12600 850,12600 1770,12600 1770,12550 850,12550 800,12550 800,12550 800,12500 800,12500 850,12500 1770,12500 1770,12450 850,12450 770,12450 770,12500 690,12500 690,12600 640,12600 640,12450 640,12400 640,12150 690,12150 690,12250 770,12250 770,12350 850,12350 850,12400 930,12400 1770,12400 1770,12350 930,12350 880,12350 880,12350 880,12300 880,12300 930,12300 1770,12300 1770,12250 930,12250 850,12250 850,12300 800,12300 800,12250 800,12200 800,12200 850,12200 1770,12200 1770,12150 850,12150 770,12150 770,12200 720,12200 720,12150 720,12100 720,12100 770,12100 1770,12100 1770,12050 770,12050 690,12050 690,12100 610,12100 610,12400 530,12400 530,14200 480,14200 480,12050 480,12000 480,11250 530,11250 530,11650 610,11650 610,11750 690,11750 690,11850 770,11850 770,11950 850,11950 850,12000 930,12000 1770,12000 1770,11950 930,11950 880,11950 880,11950 880,11900 880,11900 930,11900 1770,11900 1770,11850 930,11850 850,11850 850,11900 800,11900 800,11850 800,11800 800,11800 850,11800 1770,11800 1770,11750 850,11750 770,11750 770,11800 720,11800 720,11750 720,11700 720,11700 770,11700 1770,11700 1770,11650 770,11650 690,11650 690,11700 640,11700 640,11650 640,11600 640,11450 690,11450 690,11550 770,11550 770,11600 850,11600 1770,11600 1770,11550 850,11550 800,11550 800,11550 800,11500 800,11500 850,11500 1770,11500 1770,11450 850,11450 770,11450 770,11500 720,11500 720,11450 720,11400 720,11350 770,11350 770,11400 850,11400 1770,11400 1770,11350 850,11350 800,11350 800,11350 800,11300 800,11300 850,11300 1770,11300 1770,11250 850,11250 770,11250 770,11300 690,11300 690,11400 610,11400 610,11600 560,11600 560,11250 560,11200 560,10850 610,10850 610,10950 690,10950 690,11050 770,11050 770,11150 850,11150 850,11200 930,11200 1770,11200 1770,11150 930,11150 880,11150 880,11150 880,11100 880,11100 930,11100 1770,11100 1770,11050 930,11050 850,11050 850,11100 800,11100 800,11050 800,11000 800,11000 850,11000 1770,11000 1770,10950 850,10950 770,10950 770,11000 720,11000 720,10950 720,10900 720,10900 770,10900 1770,10900 1770,10850 770,10850 690,10850 690,10900 640,10900 640,10850 640,10800 640,10750 690,10750 690,10800 770,10800 1770,10800 1770,10750 770,10750 720,10750 720,10750 720,10700 720,10700 770,10700 1770,10700 1770,10650 770,10650 690,10650 690,10700 610,10700 610,10800 530,10800 530,11200 450,11200 450,12000 400,12000 400,10650 400,10600 400,5850 450,5850 450,7250 530,7250 530,8250 610,8250 610,8650 720,8650 720,9550 830,9550 830,9750 940,9750 940,9850 1050,9850 1050,10150 1160,10150 1160,10250 1270,10250 1270,10350 1380,10350 1380,10450 1490,10450 1490,10550 1600,10550 1600,10600 1710,10600 1770,10600 1770,10550 1710,10550 1660,10550 1660,10550 1660,10500 1660,10500 1710,10500 1770,10500 1770,10450 1710,10450 1600,10450 1600,10500 1550,10500 1550,10450 1550,10400 1550,10400 1600,10400 1770,10400 1770,10350 1600,10350 1490,10350 1490,10400 1440,10400 1440,10350 1440,10300 1440,10300 1490,10300 1770,10300 1770,10250 1490,10250 1380,10250 1380,10300 1330,10300 1330,10250 1330,10200 1330,10200 1380,10200 1770,10200 1770,10150 1380,10150 1270,10150 1270,10200 1220,10200 1220,10150 1220,10100 1220,9950 1270,9950 1270,10050 1380,10050 1380,10100 1460,10100 1770,10100 1770,10050 1460,10050 1410,10050 1410,10050 1410,10000 1410,10000 1460,10000 1770,10000 1770,9950 1460,9950 1380,9950 1380,10000 1330,10000 1330,9950 1330,9900 1330,9900 1380,9900 1770,9900 1770,9850 1380,9850 1270,9850 1270,9900 1160,9900 1160,10100 1110,10100 1110,9850 1110,9800 1110,9800 1160,9800 1770,9800 1770,9750 1160,9750 1050,9750 1050,9800 1000,9800 1000,9750 1000,9700 1000,9650 1050,9650 1050,9700 1160,9700 1770,9700 1770,9650 1160,9650 1110,9650 1110,9650 1110,9600 1110,9600 1160,9600 1770,9600 1770,9550 1160,9550 1050,9550 1050,9600 940,9600 940,9700 890,9700 890,9550 890,9500 890,8750 940,8750 940,9050 1050,9050 1050,9250 1130,9250 1130,9350 1210,9350 1210,9450 1290,9450 1290,9500 1370,9500 1770,9500 1770,9450 1370,9450 1320,9450 1320,9450 1320,9400 1320,9400 1370,9400 1770,9400 1770,9350 1370,9350 1290,9350 1290,9400 1240,9400 1240,9350 1240,9300 1240,9300 1290,9300 1770,9300 1770,9250 1290,9250 1210,9250 1210,9300 1160,9300 1160,9250 1160,9200 1160,9150 1210,9150 1210,9200 1290,9200 1770,9200 1770,9150 1290,9150 1240,9150 1240,9150 1240,9100 1240,9100 1290,9100 1770,9100 1770,9050 1290,9050 1210,9050 1210,9100 1130,9100 1130,9200 1080,9200 1080,9050 1080,9000 1080,8850 1130,8850 1130,8950 1210,8950 1210,9000 1290,9000 1770,9000 1770,8950 1290,8950 1240,8950 1240,8950 1240,8900 1240,8900 1290,8900 1770,8900 1770,8850 1290,8850 1210,8850 1210,8900 1160,8900 1160,8850 1160,8800 1160,8800 1210,8800 1770,8800 1770,8750 1210,8750 1130,8750 1130,8800 1050,8800 1050,9000 1000,9000 1000,8750 1000,8700 1000,8700 1050,8700 1770,8700 1770,8650 1050,8650 940,8650 940,8700 830,8700 830,9500 780,9500 780,8650 780,8600 780,8450 830,8450 830,8550 940,8550 940,8600 1050,8600 1770,8600 1770,8550 1050,8550 1000,8550 1000,8550 1000,8500 1000,8500 1050,8500 1770,8500 1770,8450 1050,8450 940,8450 940,8500 890,8500 890,8450 890,8400 890,8350 940,8350 940,8400 1050,8400 1770,8400 1770,8350 1050,8350 1000,8350 1000,8350 1000,8300 1000,8300 1050,8300 1770,8300 1770,8250 1050,8250 940,8250 940,8300 830,8300 830,8400 720,8400 720,8600 670,8600 670,8250 670,8200 670,7650 720,7650 720,7950 830,7950 830,8050 940,8050 940,8150 1050,8150 1050,8200 1130,8200 1770,8200 1770,8150 1130,8150 1080,8150 1080,8150 1080,8100 1080,8100 1130,8100 1770,8100 1770,8050 1130,8050 1050,8050 1050,8100 1000,8100 1000,8050 1000,8000 1000,8000 1050,8000 1770,8000 1770,7950 1050,7950 940,7950 940,8000 890,8000 890,7950 890,7900 890,7750 940,7750 940,7850 1050,7850 1050,7900 1160,7900 1770,7900 1770,7850 1160,7850 1110,7850 1110,7850 1110,7800 1110,7800 1160,7800 1770,7800 1770,7750 1160,7750 1050,7750 1050,7800 1000,7800 1000,7750 1000,7700 1000,7700 1050,7700 1770,7700 1770,7650 1050,7650 940,7650 940,7700 830,7700 830,7900 780,7900 780,7650 780,7600 780,7350 830,7350 830,7450 940,7450 940,7550 1050,7550 1050,7600 1130,7600 1770,7600 1770,7550 1130,7550 1080,7550 1080,7550 1080,7500 1080,7500 1130,7500 1770,7500 1770,7450 1130,7450 1050,7450 1050,7500 1000,7500 1000,7450 1000,7400 1000,7400 1050,7400 1770,7400 1770,7350 1050,7350 940,7350 940,7400 890,7400 890,7350 890,7300 890,7300 940,7300 1770,7300 1770,7250 940,7250 830,7250 830,7300 720,7300 720,7600 610,7600 610,8200 560,8200 560,7250 560,7200 560,6250 610,6250 610,6650 690,6650 690,6850 770,6850 770,6950 850,6950 850,7050 930,7050 930,7150 1010,7150 1010,7200 1090,7200 1770,7200 1770,7150 1090,7150 1040,7150 1040,7150 1040,7100 1040,7100 1090,7100 1770,7100 1770,7050 1090,7050 1010,7050 1010,7100 960,7100 960,7050 960,7000 960,7000 1010,7000 1770,7000 1770,6950 1010,6950 930,6950 930,7000 880,7000 880,6950 880,6900 880,6900 930,6900 1770,6900 1770,6850 930,6850 850,6850 850,6900 800,6900 800,6850 800,6800 800,6750 850,6750 850,6800 930,6800 1770,6800 1770,6750 930,6750 880,6750 880,6750 880,6700 880,6700 930,6700 1770,6700 1770,6650 930,6650 850,6650 850,6700 770,6700 770,6800 720,6800 720,6650 720,6600 720,6450 770,6450 770,6550 850,6550 850,6600 930,6600 1770,6600 1770,6550 930,6550 880,6550 880,6550 880,6500 880,6500 930,6500 1770,6500 1770,6450 930,6450 850,6450 850,6500 800,6500 800,6450 800,6400 800,6350 850,6350 850,6400 930,6400 1770,6400 1770,6350 930,6350 880,6350 880,6350 880,6300 880,6300 930,6300 1770,6300 1770,6250 930,6250 850,6250 850,6300 770,6300 770,6400 690,6400 690,6600 640,6600 640,6250 640,6200 640,5950 690,5950 690,6050 770,6050 770,6150 850,6150 850,6200 930,6200 1770,6200 1770,6150 930,6150 880,6150 880,6150 880,6100 880,6100 930,6100 1770,6100 1770,6050 930,6050 850,6050 850,6100 800,6100 800,6050 800,6000 800,6000 850,6000 1770,6000 1770,5950 850,5950 770,5950 770,6000 720,6000 720,5950 720,5900 720,5900 770,5900 1770,5900 1770,5850 770,5850 690,5850 690,5900 610,5900 610,6200 530,6200 530,7200 480,7200 480,5850 480,5800 480,5050 530,5050 530,5350 610,5350 610,5550 690,5550 690,5650 770,5650 770,5750 850,5750 850,5800 930,5800 1770,5800 1770,5750 930,5750 880,5750 880,5750 880,5700 880,5700 930,5700 1770,5700 1770,5650 930,5650 850,5650 850,5700 800,5700 800,5650 800,5600 800,5600 850,5600 1770,5600 1770,5550 850,5550 770,5550 770,5600 720,5600 720,5550 720,5500 720,5450 770,5450 770,5500 850,5500 1770,5500 1770,5450 850,5450 800,5450 800,5450 800,5400 800,5400 850,5400 1770,5400 1770,5350 850,5350 770,5350 770,5400 690,5400 690,5500 640,5500 640,5350 640,5300 640,5150 690,5150 690,5250 770,5250 770,5300 850,5300 1770,5300 1770,5250 850,5250 800,5250 800,5250 800,5200 800,5200 850,5200 1770,5200 1770,5150 850,5150 770,5150 770,5200 720,5200 720,5150 720,5100 720,5100 770,5100 1770,5100 1770,5050 770,5050 690,5050 690,5100 610,5100 610,5300 560,5300 560,5050 560,5000 560,4650 610,4650 610,4850 690,4850 690,4950 770,4950 770,5000 850,5000 1770,5000 1770,4950 850,4950 800,4950 800,4950 800,4900 800,4900 850,4900 1770,4900 1770,4850 850,4850 770,4850 770,4900 720,4900 720,4850 720,4800 720,4750 770,4750 770,4800 850,4800 1770,4800 1770,4750 850,4750 800,4750 800,4750 800,4700 800,4700 850,4700 1770,4700 1770,4650 850,4650 770,4650 770,4700 690,4700 690,4800 640,4800 640,4650 640,4600 640,4550 690,4550 690,4600 770,4600 1770,4600 1770,4550 770,4550 720,4550 720,4550 720,4500 720,4500 770,4500 1770,4500 1770,4450 770,4450 690,4450 690,4500 610,4500 610,4600 530,4600 530,5000 450,5000 450,5800 370,5800 370,10600 320,10600 320,4450 320,4400 320,4350 370,4350 370,4400 450,4400 1770,4400 1770,4350 450,4350 400,4350 400,4350 400,4300 400,4300 450,4300 1770,4300 1770,4250 450,4250 370,4250 370,4300 290,4300 290,4400 240,4400 240,4250 240,4200 240,1550 290,1550 290,1650 370,1650 370,2950 450,2950 450,3050 530,3050 530,3350 610,3350 610,3450 690,3450 690,3650 770,3650 770,3750 850,3750 850,3950 930,3950 930,4050 1010,4050 1010,4150 1090,4150 1090,4200 1170,4200 1770,4200 1770,4150 1170,4150 1120,4150 1120,4150 1120,4100 1120,4100 1170,4100 1770,4100 1770,4050 1170,4050 1090,4050 1090,4100 1040,4100 1040,4050 1040,4000 1040,4000 1090,4000 1770,4000 1770,3950 1090,3950 1010,3950 1010,4000 960,4000 960,3950 960,3900 960,3850 1010,3850 1010,3900 1090,3900 1770,3900 1770,3850 1090,3850 1040,3850 1040,3850 1040,3800 1040,3800 1090,3800 1770,3800 1770,3750 1090,3750 1010,3750 1010,3800 930,3800 930,3900 880,3900 880,3750 880,3700 880,3700 930,3700 1770,3700 1770,3650 930,3650 850,3650 850,3700 800,3700 800,3650 800,3600 800,3550 850,3550 850,3600 930,3600 1770,3600 1770,3550 930,3550 880,3550 880,3550 880,3500 880,3500 930,3500 1770,3500 1770,3450 930,3450 850,3450 850,3500 770,3500 770,3600 720,3600 720,3450 720,3400 720,3400 770,3400 1770,3400 1770,3350 770,3350 690,3350 690,3400 640,3400 640,3350 640,3300 640,3150 690,3150 690,3250 770,3250 770,3300 850,3300 1770,3300 1770,3250 850,3250 800,3250 800,3250 800,3200 800,3200 850,3200 1770,3200 1770,3150 850,3150 770,3150 770,3200 720,3200 720,3150 720,3100 720,3100 770,3100 1770,3100 1770,3050 770,3050 690,3050 690,3100 610,3100 610,3300 560,3300 560,3050 560,3000 560,3000 610,3000 1770,3000 1770,2950 610,2950 530,2950 530,3000 480,3000 480,2950 480,2900 480,2150 530,2150 530,2450 610,2450 610,2550 690,2550 690,2650 770,2650 770,2750 850,2750 850,2850 930,2850 930,2900 1010,2900 1770,2900 1770,2850 1010,2850 960,2850 960,2850 960,2800 960,2800 1010,2800 1770,2800 1770,2750 1010,2750 930,2750 930,2800 880,2800 880,2750 880,2700 880,2700 930,2700 1770,2700 1770,2650 930,2650 850,2650 850,2700 800,2700 800,2650 800,2600 800,2600 850,2600 1770,2600 1770,2550 850,2550 770,2550 770,2600 720,2600 720,2550 720,2500 720,2500 770,2500 1770,2500 1770,2450 770,2450 690,2450 690,2500 640,2500 640,2450 640,2400 640,2250 690,2250 690,2350 770,2350 770,2400 850,2400 1770,2400 1770,2350 850,2350 800,2350 800,2350 800,2300 800,2300 850,2300 1770,2300 1770,2250 850,2250 770,2250 770,2300 720,2300 720,2250 720,2200 720,2200 770,2200 1770,2200 1770,2150 770,2150 690,2150 690,2200 610,2200 610,2400 560,2400 560,2150 560,2100 560,1750 610,1750 610,1950 690,1950 690,2050 770,2050 770,2100 850,2100 1770,2100 1770,2050 850,2050 800,2050 800,2050 800,2000 800,2000 850,2000 1770,2000 1770,1950 850,1950 770,1950 770,2000 720,2000 720,1950 720,1900 720,1850 770,1850 770,1900 850,1900 1770,1900 1770,1850 850,1850 800,1850 800,1850 800,1800 800,1800 850,1800 1770,1800 1770,1750 850,1750 770,1750 770,1800 690,1800 690,1900 640,1900 640,1750 640,1700 640,1700 690,1700 1770,1700 1770,1650 690,1650 610,1650 610,1700 530,1700 530,2100 450,2100 450,2900 400,2900 400,1650 400,1600 400,1600 450,1600 1770,1600 1770,1550 450,1550 370,1550 370,1600 320,1600 320,1550 320,1500 320,950 370,950 370,1150 450,1150 450,1250 530,1250 530,1350 610,1350 610,1450 690,1450 690,1500 770,1500 1770,1500 1770,1450 770,1450 720,1450 720,1450 720,1400 720,1400 770,1400 1770,1400 1770,1350 770,1350 690,1350 690,1400 640,1400 640,1350 640,1300 640,1300 690,1300 1770,1300 1770,1250 690,1250 610,1250 610,1300 560,1300 560,1250 560,1200 560,1200 610,1200 1770,1200 1770,1150 610,1150 530,1150 530,1200 480,1200 480,1150 480,1100 480,1050 530,1050 530,1100 610,1100 1770,1100 1770,1050 610,1050 560,1050 560,1050 560,1000 560,1000 610,1000 1770,1000 1770,950 610,950 530,950 530,1000 450,1000 450,1100 400,1100 400,950 400,900 400,550 450,550 450,750 530,750 530,850 610,850 610,900 690,900 1770,900 1770,850 690,850 640,850 640,850 640,800 640,800 690,800 1770,800 1770,750 690,750 610,750 610,800 560,800 560,750 560,700 560,650 610,650 610,700 690,700 1770,700 1770,650 690,650 640,650 640,650 640,600 640,600 690,600 1770,600 1770,550 690,550 610,550 610,600 530,600 530,700 480,700 480,550 480,500 480,500 530,500 1770,500 1770,450 530,450 450,450 450,500 370,500 370,900 290,900 290,1500 210,1500 210,4200 160,4200 160,450 160,400 160,350 210,350 210,400 290,400 1770,400 1770,350 290,350 240,350 240,350 240,300 240,300 290,300 1770,300 1770,250 290,250 210,250 210,300 130,300 130,400 80,400 80,250 80,200 80,150 130,150 130,200 210,200 1770,200 1770,150 210,150 160,150 160,150 160,100 160,100 210,100 1770,100 1770,50 210,50 130,50 130,100 50,100 50,200 " fill="rgb(255,255,255)" stroke-width="10" stroke="rgb(120,120,120)" />
	<text x="1692" y="18332" fill="rgb(0,0,0)" font-size="24" font-family="Verdana" >macNig</text>
	<text x="1692" y="18232" fill="rgb(0,0,0)" font-size="24" font-family="Verdana" >macOrc</text>
	<text x="1692" y="18132" fill="rgb(0,0,0)" font-size="24" font-family="Verdana" >macMau</text>
	<text x="1692" y="18032" fill="rgb(0,0,0)" font-size="24" font-family="Verdana" >macTon</text>
	<text x="1692" y="17932" fill="rgb(0,0,0)" font-size="24" font-family="Verdana" >macNem</text>
	<text x="1692" y="17832" fill="rgb(0,0,0)" font-size="24" font-family="Verdana" >macSil</text>
	<text x="1692" y="17732" fill="rgb(0,0,0)" font-size="24" font-family="Verdana" >macSib</text>
	<text x="1692" y="17632" fill="rgb(0,0,0)" font-size="24" font-family="Verdana" >macMul</text>
	<text x="1692" y="17532" fill="rgb(0,0,0)" font-size="24" font-family="Verdana" >macFus</text>
	<text x="1692" y="17432" fill="rgb(0,0,0)" font-size="24" font-family="Verdana" >macCyc</text>
	<text x="1692" y="17332" fill="rgb(0,0,0)" font-size="24" font-family="Verdana" >macFas</text>
	<text x="1692" y="17232" fill="rgb(0,0,0)" font-size="24" font-family="Verdana" >macArc</text>
	<text x="1692" y="17132" fill="rgb(0,0,0)" font-size="24" font-family="Verdana" >macThi</text>
	<text x="1692" y="17032" fill="rgb(0,0,0)" font-size="24" font-family="Verdana" >macSyl</text>
	<text x="1692" y="16932" fill="rgb(0,0,0)" font-size="24" font-family="Verdana" >papHam</text>
	<text x="1692" y="16832" fill="rgb(0,0,0)" font-size="24" font-family="Verdana" >papAnu</text>
	<text x="1692" y="16732" fill="rgb(0,0,0)" font-size="24" font-family="Verdana" >papPap</text>
	<text x="1692" y="16632" fill="rgb(0,0,0)" font-size="24" font-family="Verdana" >lopAte</text>
	<text x="1692" y="16532" fill="rgb(0,0,0)" font-size="24" font-family="Verdana" >lopAlb</text>
	<text x="1692" y="16432" fill="rgb(0,0,0)" font-size="24" font-family="Verdana" >theGel</text>
	<text x="1692" y="16332" fill="rgb(0,0,0)" font-size="24" font-family="Verdana" >cerAgi</text>
	<text x="1692" y="16232" fill="rgb(0,0,0)" font-size="24" font-family="Verdana" >cerChr</text>
	<text x="1692" y="16132" fill="rgb(0,0,0)" font-size="24" font-family="Verdana" >cerTor</text>
	<text x="1692" y="16032" fill="rgb(0,0,0)" font-size="24" font-family="Verdana" >manLeu</text>
	<text x="1692" y="15932" fill="rgb(0,0,0)" font-size="24" font-family="Verdana" >manSph</text>
	<text x="1692" y="15832" fill="rgb(0,0,0)" font-size="24" font-family="Verdana" >cerMit</text>
	<text x="1692" y="15732" fill="rgb(0,0,0)" font-size="24" font-family="Verdana" >cerAlb</text>
	<text x="1692" y="15632" fill="rgb(0,0,0)" font-size="24" font-family="Verdana" >cerCep</text>
	<text x="1692" y="15532" fill="rgb(0,0,0)" font-size="24" font-family="Verdana" >cerAsc</text>
	<text x="1692" y="15432" fill="rgb(0,0,0)" font-size="24" font-family="Verdana" >cerPet</text>
	<text x="1692" y="15332" fill="rgb(0,0,0)" font-size="24" font-family="Verdana" >cerDia</text>
	<text x="1692" y="15232" fill="rgb(0,0,0)" font-size="24" font-family="Verdana" >cerWol</text>
	<text x="1692" y="15132" fill="rgb(0,0,0)" font-size="24" font-family="Verdana" >cerMon</text>
	<text x="1692" y="15032" fill="rgb(0,0,0)" font-size="24" font-family="Verdana" >cerNeg</text>
	<text x="1692" y="14932" fill="rgb(0,0,0)" font-size="24" font-family="Verdana" >cerHam</text>
	<text x="1692" y="14832" fill="rgb(0,0,0)" font-size="24" font-family="Verdana" >mioOgo</text>
	<text x="1692" y="14732" fill="rgb(0,0,0)" font-size="24" font-family="Verdana" >chlAet</text>
	<text x="1692" y="14632" fill="rgb(0,0,0)" font-size="24" font-family="Verdana" >chlSab</text>
	<text x="1692" y="14532" fill="rgb(0,0,0)" font-size="24" font-family="Verdana" >chlCyn</text>
	<text x="1692" y="14432" fill="rgb(0,0,0)" font-size="24" font-family="Verdana" >eryPat</text>
	<text x="1692" y="14332" fill="rgb(0,0,0)" font-size="24" font-family="Verdana" >cerLho</text>
	<text x="1692" y="14232" fill="rgb(0,0,0)" font-size="24" font-family="Verdana" >allNig</text>
	<text x="1692" y="14132" fill="rgb(0,0,0)" font-size="24" font-family="Verdana" >traFra</text>
	<text x="1692" y="14032" fill="rgb(0,0,0)" font-size="24" font-family="Verdana" >traDel</text>
	<text x="1692" y="13932" fill="rgb(0,0,0)" font-size="24" font-family="Verdana" >traHat</text>
	<text x="1692" y="13832" fill="rgb(0,0,0)" font-size="24" font-family="Verdana" >traObs</text>
	<text x="1692" y="13732" fill="rgb(0,0,0)" font-size="24" font-family="Verdana" >traPha</text>
	<text x="1692" y="13632" fill="rgb(0,0,0)" font-size="24" font-family="Verdana" >traAur</text>
	<text x="1692" y="13532" fill="rgb(0,0,0)" font-size="24" font-family="Verdana" >semHec</text>
	<text x="1692" y="13432" fill="rgb(0,0,0)" font-size="24" font-family="Verdana" >semEnt</text>
	<text x="1692" y="13332" fill="rgb(0,0,0)" font-size="24" font-family="Verdana" >traVet</text>
	<text x="1692" y="13232" fill="rgb(0,0,0)" font-size="24" font-family="Verdana" >pygCin</text>
	<text x="1692" y="13132" fill="rgb(0,0,0)" font-size="24" font-family="Verdana" >pygNem</text>
	<text x="1692" y="13032" fill="rgb(0,0,0)" font-size="24" font-family="Verdana" >pygNig</text>
	<text x="1692" y="12932" fill="rgb(0,0,0)" font-size="24" font-family="Verdana" >nasLar</text>
	<text x="1692" y="12832" fill="rgb(0,0,0)" font-size="24" font-family="Verdana" >rhiRox</text>
	<text x="1692" y="12732" fill="rgb(0,0,0)" font-size="24" font-family="Verdana" >rhiBie</text>
	<text x="1692" y="12632" fill="rgb(0,0,0)" font-size="24" font-family="Verdana" >rhiBre</text>
	<text x="1692" y="12532" fill="rgb(0,0,0)" font-size="24" font-family="Verdana" >preMel</text>
	<text x="1692" y="12432" fill="rgb(0,0,0)" font-size="24" font-family="Verdana" >preCom</text>
	<text x="1692" y="12332" fill="rgb(0,0,0)" font-size="24" font-family="Verdana" >colGue</text>
	<text x="1692" y="12232" fill="rgb(0,0,0)" font-size="24" font-family="Verdana" >colPol</text>
	<text x="1692" y="12132" fill="rgb(0,0,0)" font-size="24" font-family="Verdana" >colAng</text>
	<text x="1692" y="12032" fill="rgb(0,0,0)" font-size="24" font-family="Verdana" >pilTep</text>
	<text x="1692" y="11932" fill="rgb(0,0,0)" font-size="24" font-family="Verdana" >hylMue</text>
	<text x="1692" y="11832" fill="rgb(0,0,0)" font-size="24" font-family="Verdana" >hylAgi</text>
	<text x="1692" y="11732" fill="rgb(0,0,0)" font-size="24" font-family="Verdana" >hylLar</text>
	<text x="1692" y="11632" fill="rgb(0,0,0)" font-size="24" font-family="Verdana" >symSyn</text>
	<text x="1692" y="11532" fill="rgb(0,0,0)" font-size="24" font-family="Verdana" >nomLeu</text>
	<text x="1692" y="11432" fill="rgb(0,0,0)" font-size="24" font-family="Verdana" >nomSik</text>
	<text x="1692" y="11332" fill="rgb(0,0,0)" font-size="24" font-family="Verdana" >nomGab</text>
	<text x="1692" y="11232" fill="rgb(0,0,0)" font-size="24" font-family="Verdana" >nomCon</text>
	<text x="1692" y="11132" fill="rgb(0,0,0)" font-size="24" font-family="Verdana" >panTro</text>
	<text x="1692" y="11032" fill="rgb(0,0,0)" font-size="24" font-family="Verdana" >panPan</text>
	<text x="1692" y="10932" fill="rgb(0,0,0)" font-size="24" font-family="Verdana" >homSap</text>
	<text x="1692" y="10832" fill="rgb(0,0,0)" font-size="24" font-family="Verdana" >gorGor</text>
	<text x="1692" y="10732" fill="rgb(0,0,0)" font-size="24" font-family="Verdana" >ponPyg</text>
	<text x="1692" y="10632" fill="rgb(0,0,0)" font-size="24" font-family="Verdana" >ponAbe</text>
	<text x="1692" y="10532" fill="rgb(0,0,0)" font-size="24" font-family="Verdana" >calJac</text>
	<text x="1692" y="10432" fill="rgb(0,0,0)" font-size="24" font-family="Verdana" >calPen</text>
	<text x="1692" y="10332" fill="rgb(0,0,0)" font-size="24" font-family="Verdana" >calKuh</text>
	<text x="1692" y="10232" fill="rgb(0,0,0)" font-size="24" font-family="Verdana" >calGeo</text>
	<text x="1692" y="10132" fill="rgb(0,0,0)" font-size="24" font-family="Verdana" >calAur</text>
	<text x="1692" y="10032" fill="rgb(0,0,0)" font-size="24" font-family="Verdana" >micArg</text>
	<text x="1692" y="9932" fill="rgb(0,0,0)" font-size="24" font-family="Verdana" >micHum</text>
	<text x="1692" y="9832" fill="rgb(0,0,0)" font-size="24" font-family="Verdana" >cebPyg</text>
	<text x="1692" y="9732" fill="rgb(0,0,0)" font-size="24" font-family="Verdana" >calGoe</text>
	<text x="1692" y="9632" fill="rgb(0,0,0)" font-size="24" font-family="Verdana" >leoRos</text>
	<text x="1692" y="9532" fill="rgb(0,0,0)" font-size="24" font-family="Verdana" >leoChr</text>
	<text x="1692" y="9432" fill="rgb(0,0,0)" font-size="24" font-family="Verdana" >sagMar</text>
	<text x="1692" y="9332" fill="rgb(0,0,0)" font-size="24" font-family="Verdana" >sagBic</text>
	<text x="1692" y="9232" fill="rgb(0,0,0)" font-size="24" font-family="Verdana" >sagMid</text>
	<text x="1692" y="9132" fill="rgb(0,0,0)" font-size="24" font-family="Verdana" >sagOed</text>
	<text x="1692" y="9032" fill="rgb(0,0,0)" font-size="24" font-family="Verdana" >sagGeo</text>
	<text x="1692" y="8932" fill="rgb(0,0,0)" font-size="24" font-family="Verdana" >sagMys</text>
	<text x="1692" y="8832" fill="rgb(0,0,0)" font-size="24" font-family="Verdana" >sagLab</text>
	<text x="1692" y="8732" fill="rgb(0,0,0)" font-size="24" font-family="Verdana" >sagImp</text>
	<text x="1692" y="8632" fill="rgb(0,0,0)" font-size="24" font-family="Verdana" >sagFus</text>
	<text x="1692" y="8532" fill="rgb(0,0,0)" font-size="24" font-family="Verdana" >aotAza</text>
	<text x="1692" y="8432" fill="rgb(0,0,0)" font-size="24" font-family="Verdana" >aotNan</text>
	<text x="1692" y="8332" fill="rgb(0,0,0)" font-size="24" font-family="Verdana" >aotTri</text>
	<text x="1692" y="8232" fill="rgb(0,0,0)" font-size="24" font-family="Verdana" >aotLem</text>
	<text x="1692" y="8132" fill="rgb(0,0,0)" font-size="24" font-family="Verdana" >cebXan</text>
	<text x="1692" y="8032" fill="rgb(0,0,0)" font-size="24" font-family="Verdana" >cebRob</text>
	<text x="1692" y="7932" fill="rgb(0,0,0)" font-size="24" font-family="Verdana" >cebApe</text>
	<text x="1692" y="7832" fill="rgb(0,0,0)" font-size="24" font-family="Verdana" >cebCap</text>
	<text x="1692" y="7732" fill="rgb(0,0,0)" font-size="24" font-family="Verdana" >cebAlb</text>
	<text x="1692" y="7632" fill="rgb(0,0,0)" font-size="24" font-family="Verdana" >cebOli</text>
	<text x="1692" y="7532" fill="rgb(0,0,0)" font-size="24" font-family="Verdana" >saiOer</text>
	<text x="1692" y="7432" fill="rgb(0,0,0)" font-size="24" font-family="Verdana" >saiSci</text>
	<text x="1692" y="7332" fill="rgb(0,0,0)" font-size="24" font-family="Verdana" >saiUst</text>
	<text x="1692" y="7232" fill="rgb(0,0,0)" font-size="24" font-family="Verdana" >saiBol</text>
	<text x="1692" y="7132" fill="rgb(0,0,0)" font-size="24" font-family="Verdana" >ateBel</text>
	<text x="1692" y="7032" fill="rgb(0,0,0)" font-size="24" font-family="Verdana" >ateGeo</text>
	<text x="1692" y="6932" fill="rgb(0,0,0)" font-size="24" font-family="Verdana" >ateHyb</text>
	<text x="1692" y="6832" fill="rgb(0,0,0)" font-size="24" font-family="Verdana" >ateFus</text>
	<text x="1692" y="6732" fill="rgb(0,0,0)" font-size="24" font-family="Verdana" >ateCha</text>
	<text x="1692" y="6632" fill="rgb(0,0,0)" font-size="24" font-family="Verdana" >atePan</text>
	<text x="1692" y="6532" fill="rgb(0,0,0)" font-size="24" font-family="Verdana" >braHyp</text>
	<text x="1692" y="6432" fill="rgb(0,0,0)" font-size="24" font-family="Verdana" >braAra</text>
	<text x="1692" y="6332" fill="rgb(0,0,0)" font-size="24" font-family="Verdana" >lagLag</text>
	<text x="1692" y="6232" fill="rgb(0,0,0)" font-size="24" font-family="Verdana" >lagCan</text>
	<text x="1692" y="6132" fill="rgb(0,0,0)" font-size="24" font-family="Verdana" >aloSar</text>
	<text x="1692" y="6032" fill="rgb(0,0,0)" font-size="24" font-family="Verdana" >aloCar</text>
	<text x="1692" y="5932" fill="rgb(0,0,0)" font-size="24" font-family="Verdana" >aloBel</text>
	<text x="1692" y="5832" fill="rgb(0,0,0)" font-size="24" font-family="Verdana" >aloPal</text>
	<text x="1692" y="5732" fill="rgb(0,0,0)" font-size="24" font-family="Verdana" >calMol</text>
	<text x="1692" y="5632" fill="rgb(0,0,0)" font-size="24" font-family="Verdana" >calBru</text>
	<text x="1692" y="5532" fill="rgb(0,0,0)" font-size="24" font-family="Verdana" >calCup</text>
	<text x="1692" y="5432" fill="rgb(0,0,0)" font-size="24" font-family="Verdana" >calCal</text>
	<text x="1692" y="5332" fill="rgb(0,0,0)" font-size="24" font-family="Verdana" >calDon</text>
	<text x="1692" y="5232" fill="rgb(0,0,0)" font-size="24" font-family="Verdana" >calCoi</text>
	<text x="1692" y="5132" fill="rgb(0,0,0)" font-size="24" font-family="Verdana" >calPer</text>
	<text x="1692" y="5032" fill="rgb(0,0,0)" font-size="24" font-family="Verdana" >calNig</text>
	<text x="1692" y="4932" fill="rgb(0,0,0)" font-size="24" font-family="Verdana" >chiIsr</text>
	<text x="1692" y="4832" fill="rgb(0,0,0)" font-size="24" font-family="Verdana" >chiSat</text>
	<text x="1692" y="4732" fill="rgb(0,0,0)" font-size="24" font-family="Verdana" >cacMel</text>
	<text x="1692" y="4632" fill="rgb(0,0,0)" font-size="24" font-family="Verdana" >cacCal</text>
	<text x="1692" y="4532" fill="rgb(0,0,0)" font-size="24" font-family="Verdana" >pitIrr</text>
	<text x="1692" y="4432" fill="rgb(0,0,0)" font-size="24" font-family="Verdana" >pitPit</text>
	<text x="1692" y="4332" fill="rgb(0,0,0)" font-size="24" font-family="Verdana" >carSyr</text>
	<text x="1692" y="4232" fill="rgb(0,0,0)" font-size="24" font-family="Verdana" >tarBan</text>
	<text x="1692" y="4132" fill="rgb(0,0,0)" font-size="24" font-family="Verdana" >eulRuf</text>
	<text x="1692" y="4032" fill="rgb(0,0,0)" font-size="24" font-family="Verdana" >eulCol</text>
	<text x="1692" y="3932" fill="rgb(0,0,0)" font-size="24" font-family="Verdana" >eulFul</text>
	<text x="1692" y="3832" fill="rgb(0,0,0)" font-size="24" font-family="Verdana" >eulSan</text>
	<text x="1692" y="3732" fill="rgb(0,0,0)" font-size="24" font-family="Verdana" >eulAlb</text>
	<text x="1692" y="3632" fill="rgb(0,0,0)" font-size="24" font-family="Verdana" >eulMon</text>
	<text x="1692" y="3532" fill="rgb(0,0,0)" font-size="24" font-family="Verdana" >eulMac</text>
	<text x="1692" y="3432" fill="rgb(0,0,0)" font-size="24" font-family="Verdana" >eulCor</text>
	<text x="1692" y="3332" fill="rgb(0,0,0)" font-size="24" font-family="Verdana" >eulRub</text>
	<text x="1692" y="3232" fill="rgb(0,0,0)" font-size="24" font-family="Verdana" >hapOcc</text>
	<text x="1692" y="3132" fill="rgb(0,0,0)" font-size="24" font-family="Verdana" >hapGri</text>
	<text x="1692" y="3032" fill="rgb(0,0,0)" font-size="24" font-family="Verdana" >lemCat</text>
	<text x="1692" y="2932" fill="rgb(0,0,0)" font-size="24" font-family="Verdana" >varVar</text>
	<text x="1692" y="2832" fill="rgb(0,0,0)" font-size="24" font-family="Verdana" >lepSep</text>
	<text x="1692" y="2732" fill="rgb(0,0,0)" font-size="24" font-family="Verdana" >lepAnk</text>
	<text x="1692" y="2632" fill="rgb(0,0,0)" font-size="24" font-family="Verdana" >lepDor</text>
	<text x="1692" y="2532" fill="rgb(0,0,0)" font-size="24" font-family="Verdana" >lepRuf</text>
	<text x="1692" y="2432" fill="rgb(0,0,0)" font-size="24" font-family="Verdana" >lepJam</text>
	<text x="1692" y="2332" fill="rgb(0,0,0)" font-size="24" font-family="Verdana" >micMur</text>
	<text x="1692" y="2232" fill="rgb(0,0,0)" font-size="24" font-family="Verdana" >mirZaz</text>
	<text x="1692" y="2132" fill="rgb(0,0,0)" font-size="24" font-family="Verdana" >cheMed</text>
	<text x="1692" y="2032" fill="rgb(0,0,0)" font-size="24" font-family="Verdana" >proVer</text>
	<text x="1692" y="1932" fill="rgb(0,0,0)" font-size="24" font-family="Verdana" >proTat</text>
	<text x="1692" y="1832" fill="rgb(0,0,0)" font-size="24" font-family="Verdana" >proDia</text>
	<text x="1692" y="1732" fill="rgb(0,0,0)" font-size="24" font-family="Verdana" >proEdw</text>
	<text x="1692" y="1632" fill="rgb(0,0,0)" font-size="24" font-family="Verdana" >avaLan</text>
	<text x="1692" y="1532" fill="rgb(0,0,0)" font-size="24" font-family="Verdana" >dauMad</text>
	<text x="1692" y="1432" fill="rgb(0,0,0)" font-size="24" font-family="Verdana" >nycBen</text>
	<text x="1692" y="1332" fill="rgb(0,0,0)" font-size="24" font-family="Verdana" >nycCou</text>
	<text x="1692" y="1232" fill="rgb(0,0,0)" font-size="24" font-family="Verdana" >nycPyg</text>
	<text x="1692" y="1132" fill="rgb(0,0,0)" font-size="24" font-family="Verdana" >lorTar</text>
	<text x="1692" y="1032" fill="rgb(0,0,0)" font-size="24" font-family="Verdana" >arcCal</text>
	<text x="1692" y="932" fill="rgb(0,0,0)" font-size="24" font-family="Verdana" >perPot</text>
	<text x="1692" y="832" fill="rgb(0,0,0)" font-size="24" font-family="Verdana" >galSen</text>
	<text x="1692" y="732" fill="rgb(0,0,0)" font-size="24" font-family="Verdana" >galMoh</text>
	<text x="1692" y="632" fill="rgb(0,0,0)" font-size="24" font-family="Verdana" >otoGar</text>
	<text x="1692" y="532" fill="rgb(0,0,0)" font-size="24" font-family="Verdana" >otoCra</text>
	<text x="1692" y="432" fill="rgb(0,0,0)" font-size="24" font-family="Verdana" >galTho</text>
	<text x="1692" y="332" fill="rgb(0,0,0)" font-size="24" font-family="Verdana" >galVar</text>
	<text x="1692" y="232" fill="rgb(0,0,0)" font-size="24" font-family="Verdana" >cynVol</text>
	<text x="1692" y="132" fill="rgb(0,0,0)" font-size="24" font-family="Verdana" >tupGli</text>
	<text x="1692" y="32" fill="rgb(0,0,0)" font-size="24" font-family="Verdana" >tupMin</text>
	<line x1="640" y1="8225" x2="640" y2="7625" stroke-width="3" stroke="rgb(65,170,190)" />
	<line x1="640" y1="7625" x2="750" y2="7625" stroke-width="3" stroke="rgb(65,170,190)" />
	<line x1="750" y1="7625" x2="750" y2="7925" stroke-width="3" stroke="rgb(65,170,190)" />
	<line x1="750" y1="7925" x2="860" y2="7925" stroke-width="3" stroke="rgb(65,170,190)" />
	<line x1="860" y1="7925" x2="860" y2="8025" stroke-width="3" stroke="rgb(65,170,190)" />
	<line x1="860" y1="8025" x2="970" y2="8025" stroke-width="3" stroke="rgb(65,170,190)" />
	<line x1="982.5" y1="8012.5" x2="957.5" y2="8037.5" stroke-width="8.33333" stroke="rgb(65,170,190)" />
	<line x1="982.5" y1="8037.5" x2="957.5" y2="8012.5" stroke-width="8.33333" stroke="rgb(65,170,190)" />
	<line x1="860" y1="7925" x2="860" y2="7725" stroke-width="3" stroke="rgb(65,170,190)" />
	<line x1="860" y1="7725" x2="970" y2="7725" stroke-width="3" stroke="rgb(65,170,190)" />
	<line x1="970" y1="7725" x2="970" y2="7825" stroke-width="3" stroke="rgb(65,170,190)" />
	<line x1="970" y1="7825" x2="1080" y2="7825" stroke-width="3" stroke="rgb(65,170,190)" />
	<line x1="1080" y1="7825" x2="1080" y2="7875" stroke-width="3" stroke="rgb(65,170,190)" />
	<line x1="1080" y1="7875" x2="1770" y2="7875" stroke-width="3" stroke="rgb(65,170,190)" />
	<text x="1795" y="7875" fill="rgb(65,170,190)" font-size="18" font-family="Verdana" >cebCapImi_GADD45B_XM_017507472</text>
	<line x1="1080" y1="7825" x2="1080" y2="7775" stroke-width="3" stroke="rgb(65,170,190)" />
	<line x1="1080" y1="7775" x2="1190" y2="7775" stroke-width="3" stroke="rgb(65,170,190)" />
	<line x1="1202.5" y1="7762.5" x2="1177.5" y2="7787.5" stroke-width="8.33333" stroke="rgb(65,170,190)" />
	<line x1="1202.5" y1="7787.5" x2="1177.5" y2="7762.5" stroke-width="8.33333" stroke="rgb(65,170,190)" />
	<line x1="970" y1="7725" x2="970" y2="7675" stroke-width="3" stroke="rgb(65,170,190)" />
	<line x1="970" y1="7675" x2="1080" y2="7675" stroke-width="3" stroke="rgb(65,170,190)" />
	<line x1="1092.5" y1="7662.5" x2="1067.5" y2="7687.5" stroke-width="8.33333" stroke="rgb(65,170,190)" />
	<line x1="1092.5" y1="7687.5" x2="1067.5" y2="7662.5" stroke-width="8.33333" stroke="rgb(65,170,190)" />
	<line x1="750" y1="7625" x2="750" y2="7325" stroke-width="3" stroke="rgb(65,170,190)" />
	<line x1="750" y1="7325" x2="860" y2="7325" stroke-width="3" stroke="rgb(65,170,190)" />
	<line x1="860" y1="7325" x2="860" y2="7275" stroke-width="3" stroke="rgb(65,170,190)" />
	<line x1="860" y1="7275" x2="1770" y2="7275" stroke-width="3" stroke="rgb(65,170,190)" />
	<text x="1795" y="7275" fill="rgb(65,170,190)" font-size="18" font-family="Verdana" >saiBolBol_GADD45B_XM_003928609</text>
	<line x1="860" y1="7325" x2="860" y2="7425" stroke-width="3" stroke="rgb(65,170,190)" />
	<line x1="860" y1="7425" x2="970" y2="7425" stroke-width="3" stroke="rgb(65,170,190)" />
	<line x1="982.5" y1="7412.5" x2="957.5" y2="7437.5" stroke-width="8.33333" stroke="rgb(65,170,190)" />
	<line x1="982.5" y1="7437.5" x2="957.5" y2="7412.5" stroke-width="8.33333" stroke="rgb(65,170,190)" />
	<line x1="640" y1="8225" x2="640" y2="8625" stroke-width="3" stroke="rgb(65,170,190)" />
	<line x1="640" y1="8625" x2="750" y2="8625" stroke-width="3" stroke="rgb(65,170,190)" />
	<line x1="750" y1="8625" x2="750" y2="9525" stroke-width="3" stroke="rgb(65,170,190)" />
	<line x1="750" y1="9525" x2="860" y2="9525" stroke-width="3" stroke="rgb(65,170,190)" />
	<line x1="860" y1="9525" x2="860" y2="9725" stroke-width="3" stroke="rgb(65,170,190)" />
	<line x1="860" y1="9725" x2="970" y2="9725" stroke-width="3" stroke="rgb(65,170,190)" />
	<line x1="970" y1="9725" x2="970" y2="9825" stroke-width="3" stroke="rgb(65,170,190)" />
	<line x1="970" y1="9825" x2="1080" y2="9825" stroke-width="3" stroke="rgb(65,170,190)" />
	<line x1="1080" y1="9825" x2="1080" y2="10125" stroke-width="3" stroke="rgb(65,170,190)" />
	<line x1="1080" y1="10125" x2="1190" y2="10125" stroke-width="3" stroke="rgb(65,170,190)" />
	<line x1="1190" y1="10125" x2="1190" y2="10225" stroke-width="3" stroke="rgb(65,170,190)" />
	<line x1="1190" y1="10225" x2="1300" y2="10225" stroke-width="3" stroke="rgb(65,170,190)" />
	<line x1="1300" y1="10225" x2="1300" y2="10325" stroke-width="3" stroke="rgb(65,170,190)" />
	<line x1="1300" y1="10325" x2="1410" y2="10325" stroke-width="3" stroke="rgb(65,170,190)" />
	<line x1="1410" y1="10325" x2="1410" y2="10425" stroke-width="3" stroke="rgb(65,170,190)" />
	<line x1="1410" y1="10425" x2="1520" y2="10425" stroke-width="3" stroke="rgb(65,170,190)" />
	<line x1="1520" y1="10425" x2="1520" y2="10525" stroke-width="3" stroke="rgb(65,170,190)" />
	<line x1="1520" y1="10525" x2="1630" y2="10525" stroke-width="3" stroke="rgb(65,170,190)" />
	<line x1="1630" y1="10525" x2="1630" y2="10575" stroke-width="3" stroke="rgb(65,170,190)" />
	<line x1="1630" y1="10575" x2="1770" y2="10575" stroke-width="3" stroke="rgb(65,170,190)" />
	<text x="1795" y="10575" fill="rgb(65,170,190)" font-size="18" font-family="Verdana" >calJac_Gadd45b_AB863011</text>
	<line x1="1630" y1="10525" x2="1630" y2="10475" stroke-width="3" stroke="rgb(65,170,190)" />
	<line x1="1630" y1="10475" x2="1740" y2="10475" stroke-width="3" stroke="rgb(65,170,190)" />
	<line x1="1752.5" y1="10462.5" x2="1727.5" y2="10487.5" stroke-width="8.33333" stroke="rgb(65,170,190)" />
	<line x1="1752.5" y1="10487.5" x2="1727.5" y2="10462.5" stroke-width="8.33333" stroke="rgb(65,170,190)" />
	<line x1="1520" y1="10425" x2="1520" y2="10375" stroke-width="3" stroke="rgb(65,170,190)" />
	<line x1="1520" y1="10375" x2="1630" y2="10375" stroke-width="3" stroke="rgb(65,170,190)" />
	<line x1="1642.5" y1="10362.5" x2="1617.5" y2="10387.5" stroke-width="8.33333" stroke="rgb(65,170,190)" />
	<line x1="1642.5" y1="10387.5" x2="1617.5" y2="10362.5" stroke-width="8.33333" stroke="rgb(65,170,190)" />
	<line x1="1410" y1="10325" x2="1410" y2="10275" stroke-width="3" stroke="rgb(65,170,190)" />
	<line x1="1410" y1="10275" x2="1520" y2="10275" stroke-width="3" stroke="rgb(65,170,190)" />
	<line x1="1532.5" y1="10262.5" x2="1507.5" y2="10287.5" stroke-width="8.33333" stroke="rgb(65,170,190)" />
	<line x1="1532.5" y1="10287.5" x2="1507.5" y2="10262.5" stroke-width="8.33333" stroke="rgb(65,170,190)" />
	<line x1="1300" y1="10225" x2="1300" y2="10175" stroke-width="3" stroke="rgb(65,170,190)" />
	<line x1="1300" y1="10175" x2="1410" y2="10175" stroke-width="3" stroke="rgb(65,170,190)" />
	<line x1="1422.5" y1="10162.5" x2="1397.5" y2="10187.5" stroke-width="8.33333" stroke="rgb(65,170,190)" />
	<line x1="1422.5" y1="10187.5" x2="1397.5" y2="10162.5" stroke-width="8.33333" stroke="rgb(65,170,190)" />
	<line x1="1190" y1="10125" x2="1190" y2="9925" stroke-width="3" stroke="rgb(65,170,190)" />
	<line x1="1190" y1="9925" x2="1300" y2="9925" stroke-width="3" stroke="rgb(65,170,190)" />
	<line x1="1312.5" y1="9912.5" x2="1287.5" y2="9937.5" stroke-width="8.33333" stroke="rgb(65,170,190)" />
	<line x1="1312.5" y1="9937.5" x2="1287.5" y2="9912.5" stroke-width="8.33333" stroke="rgb(65,170,190)" />
	<line x1="1080" y1="9825" x2="1080" y2="9775" stroke-width="3" stroke="rgb(65,170,190)" />
	<line x1="1080" y1="9775" x2="1190" y2="9775" stroke-width="3" stroke="rgb(65,170,190)" />
	<line x1="1202.5" y1="9762.5" x2="1177.5" y2="9787.5" stroke-width="8.33333" stroke="rgb(65,170,190)" />
	<line x1="1202.5" y1="9787.5" x2="1177.5" y2="9762.5" stroke-width="8.33333" stroke="rgb(65,170,190)" />
	<line x1="970" y1="9725" x2="970" y2="9625" stroke-width="3" stroke="rgb(65,170,190)" />
	<line x1="970" y1="9625" x2="1080" y2="9625" stroke-width="3" stroke="rgb(65,170,190)" />
	<line x1="1092.5" y1="9612.5" x2="1067.5" y2="9637.5" stroke-width="8.33333" stroke="rgb(65,170,190)" />
	<line x1="1092.5" y1="9637.5" x2="1067.5" y2="9612.5" stroke-width="8.33333" stroke="rgb(65,170,190)" />
	<line x1="860" y1="9525" x2="860" y2="8725" stroke-width="3" stroke="rgb(65,170,190)" />
	<line x1="860" y1="8725" x2="970" y2="8725" stroke-width="3" stroke="rgb(65,170,190)" />
	<line x1="982.5" y1="8712.5" x2="957.5" y2="8737.5" stroke-width="8.33333" stroke="rgb(65,170,190)" />
	<line x1="982.5" y1="8737.5" x2="957.5" y2="8712.5" stroke-width="8.33333" stroke="rgb(65,170,190)" />
	<line x1="750" y1="8625" x2="750" y2="8425" stroke-width="3" stroke="rgb(65,170,190)" />
	<line x1="750" y1="8425" x2="860" y2="8425" stroke-width="3" stroke="rgb(65,170,190)" />
	<line x1="860" y1="8425" x2="860" y2="8525" stroke-width="3" stroke="rgb(65,170,190)" />
	<line x1="860" y1="8525" x2="970" y2="8525" stroke-width="3" stroke="rgb(65,170,190)" />
	<line x1="970" y1="8525" x2="970" y2="8475" stroke-width="3" stroke="rgb(65,170,190)" />
	<line x1="970" y1="8475" x2="1770" y2="8475" stroke-width="3" stroke="rgb(65,170,190)" />
	<text x="1795" y="8475" fill="rgb(65,170,190)" font-size="18" font-family="Verdana" >aotNan_GADD45B_XM_012436386</text>
	<line x1="970" y1="8525" x2="970" y2="8575" stroke-width="3" stroke="rgb(65,170,190)" />
	<line x1="970" y1="8575" x2="1080" y2="8575" stroke-width="3" stroke="rgb(65,170,190)" />
	<line x1="1092.5" y1="8562.5" x2="1067.5" y2="8587.5" stroke-width="8.33333" stroke="rgb(65,170,190)" />
	<line x1="1092.5" y1="8587.5" x2="1067.5" y2="8562.5" stroke-width="8.33333" stroke="rgb(65,170,190)" />
	<line x1="860" y1="8425" x2="860" y2="8325" stroke-width="3" stroke="rgb(65,170,190)" />
	<line x1="860" y1="8325" x2="970" y2="8325" stroke-width="3" stroke="rgb(65,170,190)" />
	<line x1="982.5" y1="8312.5" x2="957.5" y2="8337.5" stroke-width="8.33333" stroke="rgb(65,170,190)" />
	<line x1="982.5" y1="8337.5" x2="957.5" y2="8312.5" stroke-width="8.33333" stroke="rgb(65,170,190)" />
	<polygon points="655.625,8225 646.32,8220.41 644.828,8210.14 637.586,8217.57 627.359,8215.82 632.188,8225 627.359,8234.18 637.586,8232.43 644.828,8239.86 646.32,8229.59 655.625,8225 " fill="rgb(255,255,255)" stroke-width="6.25" stroke="rgb(65,170,190)" />
</svg>
