<?xml version="1.0" standalone="no" ?>
<!DOCTYPE svg PUBLIC "-//W3C//DTD SVG 1.1//EN" "http://www.w3.org/Graphics/SVG/1.1/DTD/svg11.dtd">
<svg width="2230px" height="18635px" xmlns="http://www.w3.org/2000/svg" version="1.1" >
	<polygon points="50,250 50,450 130,450 130,4250 210,4250 210,4450 290,4450 290,10650 370,10650 370,12150 450,12150 450,14400 560,14400 560,16100 670,16100 670,17275 780,17275 780,17375 890,17375 890,17975 1000,17975 1000,18275 1080,18275 1080,18475 1160,18475 1160,18575 1240,18575 1240,18625 1320,18625 1480,18625 1480,18575 1320,18575 1270,18575 1270,18575 1270,18525 1270,18525 1320,18525 1480,18525 1480,18475 1320,18475 1240,18475 1240,18525 1190,18525 1190,18475 1190,18425 1190,18375 1240,18375 1240,18425 1320,18425 1480,18425 1480,18375 1320,18375 1270,18375 1270,18375 1270,18325 1270,18325 1320,18325 1480,18325 1480,18275 1320,18275 1240,18275 1240,18325 1160,18325 1160,18425 1110,18425 1110,18275 1110,18225 1110,18075 1160,18075 1160,18175 1240,18175 1240,18225 1320,18225 1480,18225 1480,18175 1320,18175 1270,18175 1270,18175 1270,18125 1270,18125 1320,18125 1480,18125 1480,18075 1320,18075 1240,18075 1240,18125 1190,18125 1190,18075 1190,18025 1190,18025 1240,18025 1480,18025 1480,17975 1240,17975 1160,17975 1160,18025 1080,18025 1080,18225 1030,18225 1030,17975 1030,17925 1030,17575 1080,17575 1080,17675 1160,17675 1160,17775 1240,17775 1240,17875 1320,17875 1320,17925 1400,17925 1480,17925 1480,17875 1400,17875 1350,17875 1350,17875 1350,17825 1350,17825 1400,17825 1480,17825 1480,17775 1400,17775 1320,17775 1320,17825 1270,17825 1270,17775 1270,17725 1270,17725 1320,17725 1480,17725 1480,17675 1320,17675 1240,17675 1240,17725 1190,17725 1190,17675 1190,17625 1190,17625 1240,17625 1480,17625 1480,17575 1240,17575 1160,17575 1160,17625 1110,17625 1110,17575 1110,17525 1110,17475 1160,17475 1160,17525 1240,17525 1480,17525 1480,17475 1240,17475 1190,17475 1190,17475 1190,17425 1190,17425 1240,17425 1480,17425 1480,17375 1240,17375 1160,17375 1160,17425 1080,17425 1080,17525 1000,17525 1000,17925 950,17925 950,17375 950,17325 950,17325 1000,17325 1480,17325 1480,17275 1000,17275 890,17275 890,17325 840,17325 840,17275 840,17225 840,16600 890,16600 890,16775 1000,16775 1000,16975 1110,16975 1110,17075 1220,17075 1220,17175 1300,17175 1300,17225 1380,17225 1480,17225 1480,17175 1380,17175 1330,17175 1330,17175 1330,17125 1330,17125 1380,17125 1480,17125 1480,17075 1380,17075 1300,17075 1300,17125 1250,17125 1250,17075 1250,17025 1250,17025 1300,17025 1480,17025 1480,16975 1300,16975 1220,16975 1220,17025 1170,17025 1170,16975 1170,16925 1170,16875 1220,16875 1220,16925 1300,16925 1480,16925 1480,16875 1300,16875 1250,16875 1250,16875 1250,16825 1250,16825 1300,16825 1480,16825 1480,16775 1300,16775 1220,16775 1220,16825 1110,16825 1110,16925 1060,16925 1060,16775 1060,16725 1060,16725 1110,16725 1480,16725 1480,16600 1110,16600 1000,16600 1000,16725 950,16725 950,16600 950,16550 950,16300 1000,16300 1000,16400 1110,16400 1110,16500 1190,16500 1190,16550 1270,16550 1480,16550 1480,16500 1270,16500 1220,16500 1220,16500 1220,16450 1220,16450 1270,16450 1480,16450 1480,16400 1270,16400 1190,16400 1190,16450 1140,16450 1140,16400 1140,16350 1140,16350 1190,16350 1480,16350 1480,16300 1190,16300 1110,16300 1110,16350 1060,16350 1060,16300 1060,16250 1060,16200 1110,16200 1110,16250 1190,16250 1480,16250 1480,16200 1190,16200 1140,16200 1140,16200 1140,16150 1140,16150 1190,16150 1480,16150 1480,16100 1190,16100 1110,16100 1110,16150 1000,16150 1000,16250 890,16250 890,16550 780,16550 780,17225 730,17225 730,16100 730,16050 730,15000 780,15000 780,15100 890,15100 890,15200 970,15200 970,15500 1050,15500 1050,15600 1130,15600 1130,15700 1210,15700 1210,15900 1290,15900 1290,16000 1370,16000 1370,16050 1450,16050 1480,16050 1480,16000 1450,16000 1400,16000 1400,16000 1400,15950 1400,15950 1450,15950 1480,15950 1480,15900 1450,15900 1370,15900 1370,15950 1320,15950 1320,15900 1320,15850 1320,15800 1370,15800 1370,15850 1450,15850 1480,15850 1480,15800 1450,15800 1400,15800 1400,15800 1400,15750 1400,15750 1450,15750 1480,15750 1480,15700 1450,15700 1370,15700 1370,15750 1290,15750 1290,15850 1240,15850 1240,15700 1240,15650 1240,15650 1290,15650 1480,15650 1480,15600 1290,15600 1210,15600 1210,15650 1160,15650 1160,15600 1160,15550 1160,15550 1210,15550 1480,15550 1480,15500 1210,15500 1130,15500 1130,15550 1080,15550 1080,15500 1080,15450 1080,15300 1130,15300 1130,15400 1210,15400 1210,15450 1290,15450 1480,15450 1480,15400 1290,15400 1240,15400 1240,15400 1240,15350 1240,15350 1290,15350 1480,15350 1480,15300 1290,15300 1210,15300 1210,15350 1160,15350 1160,15300 1160,15250 1160,15250 1210,15250 1480,15250 1480,15200 1210,15200 1130,15200 1130,15250 1050,15250 1050,15450 1000,15450 1000,15200 1000,15150 1000,15150 1050,15150 1480,15150 1480,15100 1050,15100 970,15100 970,15150 920,15150 920,15100 920,15050 920,15050 970,15050 1480,15050 1480,15000 970,15000 890,15000 890,15050 840,15050 840,15000 840,14950 840,14500 890,14500 890,14700 970,14700 970,14800 1050,14800 1050,14900 1130,14900 1130,14950 1210,14950 1480,14950 1480,14900 1210,14900 1160,14900 1160,14900 1160,14850 1160,14850 1210,14850 1480,14850 1480,14800 1210,14800 1130,14800 1130,14850 1080,14850 1080,14800 1080,14750 1080,14750 1130,14750 1480,14750 1480,14700 1130,14700 1050,14700 1050,14750 1000,14750 1000,14700 1000,14650 1000,14600 1050,14600 1050,14650 1130,14650 1480,14650 1480,14600 1130,14600 1080,14600 1080,14600 1080,14550 1080,14550 1130,14550 1480,14550 1480,14500 1130,14500 1050,14500 1050,14550 970,14550 970,14650 920,14650 920,14500 920,14450 920,14450 970,14450 1480,14450 1480,14400 970,14400 890,14400 890,14450 780,14450 780,14950 670,14950 670,16050 620,16050 620,14400 620,14350 620,12600 670,12600 670,12800 780,12800 780,13500 890,13500 890,13800 1000,13800 1000,14100 1110,14100 1110,14200 1190,14200 1190,14300 1270,14300 1270,14350 1350,14350 1480,14350 1480,14300 1350,14300 1300,14300 1300,14300 1300,14250 1300,14250 1350,14250 1480,14250 1480,14200 1350,14200 1270,14200 1270,14250 1220,14250 1220,14200 1220,14150 1220,14150 1270,14150 1480,14150 1480,14100 1270,14100 1190,14100 1190,14150 1140,14150 1140,14100 1140,14050 1140,13900 1190,13900 1190,14000 1270,14000 1270,14050 1350,14050 1480,14050 1480,14000 1350,14000 1300,14000 1300,14000 1300,13950 1300,13950 1350,13950 1480,13950 1480,13900 1350,13900 1270,13900 1270,13950 1220,13950 1220,13900 1220,13850 1220,13850 1270,13850 1480,13850 1480,13800 1270,13800 1190,13800 1190,13850 1110,13850 1110,14050 1060,14050 1060,13800 1060,13750 1060,13600 1110,13600 1110,13700 1190,13700 1190,13750 1270,13750 1480,13750 1480,13700 1270,13700 1220,13700 1220,13700 1220,13650 1220,13650 1270,13650 1480,13650 1480,13600 1270,13600 1190,13600 1190,13650 1140,13650 1140,13600 1140,13550 1140,13550 1190,13550 1480,13550 1480,13500 1190,13500 1110,13500 1110,13550 1000,13550 1000,13750 950,13750 950,13500 950,13450 950,13100 1000,13100 1000,13200 1110,13200 1110,13300 1220,13300 1220,13400 1300,13400 1300,13450 1380,13450 1480,13450 1480,13400 1380,13400 1330,13400 1330,13400 1330,13350 1330,13350 1380,13350 1480,13350 1480,13300 1380,13300 1300,13300 1300,13350 1250,13350 1250,13300 1250,13250 1250,13250 1300,13250 1480,13250 1480,13200 1300,13200 1220,13200 1220,13250 1170,13250 1170,13200 1170,13150 1170,13150 1220,13150 1480,13150 1480,13100 1220,13100 1110,13100 1110,13150 1060,13150 1060,13100 1060,13050 1060,12900 1110,12900 1110,13000 1220,13000 1220,13050 1330,13050 1480,13050 1480,13000 1330,13000 1280,13000 1280,13000 1280,12950 1280,12950 1330,12950 1480,12950 1480,12900 1330,12900 1220,12900 1220,12950 1170,12950 1170,12900 1170,12850 1170,12850 1220,12850 1480,12850 1480,12800 1220,12800 1110,12800 1110,12850 1000,12850 1000,13050 890,13050 890,13450 840,13450 840,12800 840,12750 840,12700 890,12700 890,12750 1000,12750 1480,12750 1480,12700 1000,12700 950,12700 950,12700 950,12650 950,12650 1000,12650 1480,12650 1480,12600 1000,12600 890,12600 890,12650 780,12650 780,12750 730,12750 730,12600 730,12550 730,12250 780,12250 780,12400 890,12400 890,12500 1000,12500 1000,12550 1110,12550 1480,12550 1480,12500 1110,12500 1060,12500 1060,12500 1060,12450 1060,12450 1110,12450 1480,12450 1480,12400 1110,12400 1000,12400 1000,12450 950,12450 950,12400 950,12350 950,12350 1000,12350 1480,12350 1480,12250 1000,12250 890,12250 890,12350 840,12350 840,12250 840,12200 840,12200 890,12200 1480,12200 1480,12150 890,12150 780,12150 780,12200 670,12200 670,12550 560,12550 560,14350 510,14350 510,12150 510,12100 510,11350 560,11350 560,11750 670,11750 670,11850 780,11850 780,11950 860,11950 860,12050 940,12050 940,12100 1020,12100 1480,12100 1480,12050 1020,12050 970,12050 970,12050 970,12000 970,12000 1020,12000 1480,12000 1480,11950 1020,11950 940,11950 940,12000 890,12000 890,11950 890,11900 890,11900 940,11900 1480,11900 1480,11850 940,11850 860,11850 860,11900 810,11900 810,11850 810,11800 810,11800 860,11800 1480,11800 1480,11750 860,11750 780,11750 780,11800 730,11800 730,11750 730,11700 730,11550 780,11550 780,11650 860,11650 860,11700 940,11700 1480,11700 1480,11650 940,11650 890,11650 890,11650 890,11600 890,11600 940,11600 1480,11600 1480,11550 940,11550 860,11550 860,11600 810,11600 810,11550 810,11500 810,11450 860,11450 860,11500 940,11500 1480,11500 1480,11450 940,11450 890,11450 890,11450 890,11400 890,11400 940,11400 1480,11400 1480,11350 940,11350 860,11350 860,11400 780,11400 780,11500 670,11500 670,11700 620,11700 620,11350 620,11300 620,10850 670,10850 670,10950 780,10950 780,11150 890,11150 890,11250 1000,11250 1000,11300 1110,11300 1480,11300 1480,11250 1110,11250 1060,11250 1060,11250 1060,11200 1060,11200 1110,11200 1480,11200 1480,11150 1110,11150 1000,11150 1000,11200 950,11200 950,11150 950,11100 950,11100 1000,11100 1480,11100 1480,10950 1000,10950 890,10950 890,11100 840,11100 840,10950 840,10900 840,10900 890,10900 1480,10900 1480,10850 890,10850 780,10850 780,10900 730,10900 730,10850 730,10800 730,10750 780,10750 780,10800 890,10800 1480,10800 1480,10750 890,10750 840,10750 840,10750 840,10700 840,10700 890,10700 1480,10700 1480,10650 890,10650 780,10650 780,10700 670,10700 670,10800 560,10800 560,11300 450,11300 450,12100 400,12100 400,10650 400,10600 400,5850 450,5850 450,7250 530,7250 530,8250 610,8250 610,8650 690,8650 690,9550 770,9550 770,9750 850,9750 850,9850 930,9850 930,10150 1010,10150 1010,10250 1090,10250 1090,10350 1170,10350 1170,10450 1250,10450 1250,10550 1330,10550 1330,10600 1410,10600 1480,10600 1480,10550 1410,10550 1360,10550 1360,10550 1360,10500 1360,10500 1410,10500 1480,10500 1480,10450 1410,10450 1330,10450 1330,10500 1280,10500 1280,10450 1280,10400 1280,10400 1330,10400 1480,10400 1480,10350 1330,10350 1250,10350 1250,10400 1200,10400 1200,10350 1200,10300 1200,10300 1250,10300 1480,10300 1480,10250 1250,10250 1170,10250 1170,10300 1120,10300 1120,10250 1120,10200 1120,10200 1170,10200 1480,10200 1480,10150 1170,10150 1090,10150 1090,10200 1040,10200 1040,10150 1040,10100 1040,9950 1090,9950 1090,10050 1170,10050 1170,10100 1250,10100 1480,10100 1480,10050 1250,10050 1200,10050 1200,10050 1200,10000 1200,10000 1250,10000 1480,10000 1480,9950 1250,9950 1170,9950 1170,10000 1120,10000 1120,9950 1120,9900 1120,9900 1170,9900 1480,9900 1480,9850 1170,9850 1090,9850 1090,9900 1010,9900 1010,10100 960,10100 960,9850 960,9800 960,9800 1010,9800 1480,9800 1480,9750 1010,9750 930,9750 930,9800 880,9800 880,9750 880,9700 880,9650 930,9650 930,9700 1010,9700 1480,9700 1480,9650 1010,9650 960,9650 960,9650 960,9600 960,9600 1010,9600 1480,9600 1480,9550 1010,9550 930,9550 930,9600 850,9600 850,9700 800,9700 800,9550 800,9500 800,8750 850,8750 850,9050 930,9050 930,9250 1010,9250 1010,9350 1090,9350 1090,9450 1170,9450 1170,9500 1250,9500 1480,9500 1480,9450 1250,9450 1200,9450 1200,9450 1200,9400 1200,9400 1250,9400 1480,9400 1480,9350 1250,9350 1170,9350 1170,9400 1120,9400 1120,9350 1120,9300 1120,9300 1170,9300 1480,9300 1480,9250 1170,9250 1090,9250 1090,9300 1040,9300 1040,9250 1040,9200 1040,9150 1090,9150 1090,9200 1170,9200 1480,9200 1480,9150 1170,9150 1120,9150 1120,9150 1120,9100 1120,9100 1170,9100 1480,9100 1480,9050 1170,9050 1090,9050 1090,9100 1010,9100 1010,9200 960,9200 960,9050 960,9000 960,8850 1010,8850 1010,8950 1090,8950 1090,9000 1170,9000 1480,9000 1480,8950 1170,8950 1120,8950 1120,8950 1120,8900 1120,8900 1170,8900 1480,8900 1480,8850 1170,8850 1090,8850 1090,8900 1040,8900 1040,8850 1040,8800 1040,8800 1090,8800 1480,8800 1480,8750 1090,8750 1010,8750 1010,8800 930,8800 930,9000 880,9000 880,8750 880,8700 880,8700 930,8700 1480,8700 1480,8650 930,8650 850,8650 850,8700 770,8700 770,9500 720,9500 720,8650 720,8600 720,8450 770,8450 770,8550 850,8550 850,8600 930,8600 1480,8600 1480,8550 930,8550 880,8550 880,8550 880,8500 880,8500 930,8500 1480,8500 1480,8450 930,8450 850,8450 850,8500 800,8500 800,8450 800,8400 800,8350 850,8350 850,8400 930,8400 1480,8400 1480,8350 930,8350 880,8350 880,8350 880,8300 880,8300 930,8300 1480,8300 1480,8250 930,8250 850,8250 850,8300 770,8300 770,8400 690,8400 690,8600 640,8600 640,8250 640,8200 640,7650 690,7650 690,7950 770,7950 770,8050 850,8050 850,8150 930,8150 930,8200 1010,8200 1480,8200 1480,8150 1010,8150 960,8150 960,8150 960,8100 960,8100 1010,8100 1480,8100 1480,8050 1010,8050 930,8050 930,8100 880,8100 880,8050 880,8000 880,8000 930,8000 1480,8000 1480,7950 930,7950 850,7950 850,8000 800,8000 800,7950 800,7900 800,7750 850,7750 850,7850 930,7850 930,7900 1010,7900 1480,7900 1480,7850 1010,7850 960,7850 960,7850 960,7800 960,7800 1010,7800 1480,7800 1480,7750 1010,7750 930,7750 930,7800 880,7800 880,7750 880,7700 880,7700 930,7700 1480,7700 1480,7650 930,7650 850,7650 850,7700 770,7700 770,7900 720,7900 720,7650 720,7600 720,7350 770,7350 770,7450 850,7450 850,7550 930,7550 930,7600 1010,7600 1480,7600 1480,7550 1010,7550 960,7550 960,7550 960,7500 960,7500 1010,7500 1480,7500 1480,7450 1010,7450 930,7450 930,7500 880,7500 880,7450 880,7400 880,7400 930,7400 1480,7400 1480,7350 930,7350 850,7350 850,7400 800,7400 800,7350 800,7300 800,7300 850,7300 1480,7300 1480,7250 850,7250 770,7250 770,7300 690,7300 690,7600 610,7600 610,8200 560,8200 560,7250 560,7200 560,6250 610,6250 610,6650 690,6650 690,6850 770,6850 770,6950 850,6950 850,7050 930,7050 930,7150 1010,7150 1010,7200 1090,7200 1480,7200 1480,7150 1090,7150 1040,7150 1040,7150 1040,7100 1040,7100 1090,7100 1480,7100 1480,7050 1090,7050 1010,7050 1010,7100 960,7100 960,7050 960,7000 960,7000 1010,7000 1480,7000 1480,6950 1010,6950 930,6950 930,7000 880,7000 880,6950 880,6900 880,6900 930,6900 1480,6900 1480,6850 930,6850 850,6850 850,6900 800,6900 800,6850 800,6800 800,6750 850,6750 850,6800 930,6800 1480,6800 1480,6750 930,6750 880,6750 880,6750 880,6700 880,6700 930,6700 1480,6700 1480,6650 930,6650 850,6650 850,6700 770,6700 770,6800 720,6800 720,6650 720,6600 720,6450 770,6450 770,6550 850,6550 850,6600 930,6600 1480,6600 1480,6550 930,6550 880,6550 880,6550 880,6500 880,6500 930,6500 1480,6500 1480,6450 930,6450 850,6450 850,6500 800,6500 800,6450 800,6400 800,6350 850,6350 850,6400 930,6400 1480,6400 1480,6350 930,6350 880,6350 880,6350 880,6300 880,6300 930,6300 1480,6300 1480,6250 930,6250 850,6250 850,6300 770,6300 770,6400 690,6400 690,6600 640,6600 640,6250 640,6200 640,5950 690,5950 690,6050 770,6050 770,6150 850,6150 850,6200 930,6200 1480,6200 1480,6150 930,6150 880,6150 880,6150 880,6100 880,6100 930,6100 1480,6100 1480,6050 930,6050 850,6050 850,6100 800,6100 800,6050 800,6000 800,6000 850,6000 1480,6000 1480,5950 850,5950 770,5950 770,6000 720,6000 720,5950 720,5900 720,5900 770,5900 1480,5900 1480,5850 770,5850 690,5850 690,5900 610,5900 610,6200 530,6200 530,7200 480,7200 480,5850 480,5800 480,5050 530,5050 530,5350 610,5350 610,5550 690,5550 690,5650 770,5650 770,5750 850,5750 850,5800 930,5800 1480,5800 1480,5750 930,5750 880,5750 880,5750 880,5700 880,5700 930,5700 1480,5700 1480,5650 930,5650 850,5650 850,5700 800,5700 800,5650 800,5600 800,5600 850,5600 1480,5600 1480,5550 850,5550 770,5550 770,5600 720,5600 720,5550 720,5500 720,5450 770,5450 770,5500 850,5500 1480,5500 1480,5450 850,5450 800,5450 800,5450 800,5400 800,5400 850,5400 1480,5400 1480,5350 850,5350 770,5350 770,5400 690,5400 690,5500 640,5500 640,5350 640,5300 640,5150 690,5150 690,5250 770,5250 770,5300 850,5300 1480,5300 1480,5250 850,5250 800,5250 800,5250 800,5200 800,5200 850,5200 1480,5200 1480,5150 850,5150 770,5150 770,5200 720,5200 720,5150 720,5100 720,5100 770,5100 1480,5100 1480,5050 770,5050 690,5050 690,5100 610,5100 610,5300 560,5300 560,5050 560,5000 560,4650 610,4650 610,4850 690,4850 690,4950 770,4950 770,5000 850,5000 1480,5000 1480,4950 850,4950 800,4950 800,4950 800,4900 800,4900 850,4900 1480,4900 1480,4850 850,4850 770,4850 770,4900 720,4900 720,4850 720,4800 720,4750 770,4750 770,4800 850,4800 1480,4800 1480,4750 850,4750 800,4750 800,4750 800,4700 800,4700 850,4700 1480,4700 1480,4650 850,4650 770,4650 770,4700 690,4700 690,4800 640,4800 640,4650 640,4600 640,4550 690,4550 690,4600 770,4600 1480,4600 1480,4550 770,4550 720,4550 720,4550 720,4500 720,4500 770,4500 1480,4500 1480,4450 770,4450 690,4450 690,4500 610,4500 610,4600 530,4600 530,5000 450,5000 450,5800 370,5800 370,10600 320,10600 320,4450 320,4400 320,4350 370,4350 370,4400 450,4400 1480,4400 1480,4350 450,4350 400,4350 400,4350 400,4300 400,4300 450,4300 1480,4300 1480,4250 450,4250 370,4250 370,4300 290,4300 290,4400 240,4400 240,4250 240,4200 240,1550 290,1550 290,1650 370,1650 370,2950 450,2950 450,3050 530,3050 530,3350 610,3350 610,3450 690,3450 690,3650 770,3650 770,3750 850,3750 850,3950 930,3950 930,4050 1010,4050 1010,4150 1090,4150 1090,4200 1170,4200 1480,4200 1480,4150 1170,4150 1120,4150 1120,4150 1120,4100 1120,4100 1170,4100 1480,4100 1480,4050 1170,4050 1090,4050 1090,4100 1040,4100 1040,4050 1040,4000 1040,4000 1090,4000 1480,4000 1480,3950 1090,3950 1010,3950 1010,4000 960,4000 960,3950 960,3900 960,3850 1010,3850 1010,3900 1090,3900 1480,3900 1480,3850 1090,3850 1040,3850 1040,3850 1040,3800 1040,3800 1090,3800 1480,3800 1480,3750 1090,3750 1010,3750 1010,3800 930,3800 930,3900 880,3900 880,3750 880,3700 880,3700 930,3700 1480,3700 1480,3650 930,3650 850,3650 850,3700 800,3700 800,3650 800,3600 800,3550 850,3550 850,3600 930,3600 1480,3600 1480,3550 930,3550 880,3550 880,3550 880,3500 880,3500 930,3500 1480,3500 1480,3450 930,3450 850,3450 850,3500 770,3500 770,3600 720,3600 720,3450 720,3400 720,3400 770,3400 1480,3400 1480,3350 770,3350 690,3350 690,3400 640,3400 640,3350 640,3300 640,3150 690,3150 690,3250 770,3250 770,3300 850,3300 1480,3300 1480,3250 850,3250 800,3250 800,3250 800,3200 800,3200 850,3200 1480,3200 1480,3150 850,3150 770,3150 770,3200 720,3200 720,3150 720,3100 720,3100 770,3100 1480,3100 1480,3050 770,3050 690,3050 690,3100 610,3100 610,3300 560,3300 560,3050 560,3000 560,3000 610,3000 1480,3000 1480,2950 610,2950 530,2950 530,3000 480,3000 480,2950 480,2900 480,2150 530,2150 530,2450 610,2450 610,2550 690,2550 690,2650 770,2650 770,2750 850,2750 850,2850 930,2850 930,2900 1010,2900 1480,2900 1480,2850 1010,2850 960,2850 960,2850 960,2800 960,2800 1010,2800 1480,2800 1480,2750 1010,2750 930,2750 930,2800 880,2800 880,2750 880,2700 880,2700 930,2700 1480,2700 1480,2650 930,2650 850,2650 850,2700 800,2700 800,2650 800,2600 800,2600 850,2600 1480,2600 1480,2550 850,2550 770,2550 770,2600 720,2600 720,2550 720,2500 720,2500 770,2500 1480,2500 1480,2450 770,2450 690,2450 690,2500 640,2500 640,2450 640,2400 640,2250 690,2250 690,2350 770,2350 770,2400 850,2400 1480,2400 1480,2350 850,2350 800,2350 800,2350 800,2300 800,2300 850,2300 1480,2300 1480,2250 850,2250 770,2250 770,2300 720,2300 720,2250 720,2200 720,2200 770,2200 1480,2200 1480,2150 770,2150 690,2150 690,2200 610,2200 610,2400 560,2400 560,2150 560,2100 560,1750 610,1750 610,1950 690,1950 690,2050 770,2050 770,2100 850,2100 1480,2100 1480,2050 850,2050 800,2050 800,2050 800,2000 800,2000 850,2000 1480,2000 1480,1950 850,1950 770,1950 770,2000 720,2000 720,1950 720,1900 720,1850 770,1850 770,1900 850,1900 1480,1900 1480,1850 850,1850 800,1850 800,1850 800,1800 800,1800 850,1800 1480,1800 1480,1750 850,1750 770,1750 770,1800 690,1800 690,1900 640,1900 640,1750 640,1700 640,1700 690,1700 1480,1700 1480,1650 690,1650 610,1650 610,1700 530,1700 530,2100 450,2100 450,2900 400,2900 400,1650 400,1600 400,1600 450,1600 1480,1600 1480,1550 450,1550 370,1550 370,1600 320,1600 320,1550 320,1500 320,950 370,950 370,1150 450,1150 450,1250 530,1250 530,1350 610,1350 610,1450 690,1450 690,1500 770,1500 1480,1500 1480,1450 770,1450 720,1450 720,1450 720,1400 720,1400 770,1400 1480,1400 1480,1350 770,1350 690,1350 690,1400 640,1400 640,1350 640,1300 640,1300 690,1300 1480,1300 1480,1250 690,1250 610,1250 610,1300 560,1300 560,1250 560,1200 560,1200 610,1200 1480,1200 1480,1150 610,1150 530,1150 530,1200 480,1200 480,1150 480,1100 480,1050 530,1050 530,1100 610,1100 1480,1100 1480,1050 610,1050 560,1050 560,1050 560,1000 560,1000 610,1000 1480,1000 1480,950 610,950 530,950 530,1000 450,1000 450,1100 400,1100 400,950 400,900 400,550 450,550 450,750 530,750 530,850 610,850 610,900 690,900 1480,900 1480,850 690,850 640,850 640,850 640,800 640,800 690,800 1480,800 1480,750 690,750 610,750 610,800 560,800 560,750 560,700 560,650 610,650 610,700 690,700 1480,700 1480,650 690,650 640,650 640,650 640,600 640,600 690,600 1480,600 1480,550 690,550 610,550 610,600 530,600 530,700 480,700 480,550 480,500 480,500 530,500 1480,500 1480,450 530,450 450,450 450,500 370,500 370,900 290,900 290,1500 210,1500 210,4200 160,4200 160,450 160,400 160,350 210,350 210,400 290,400 1480,400 1480,350 290,350 240,350 240,350 240,300 240,300 290,300 1480,300 1480,250 290,250 210,250 210,300 130,300 130,400 80,400 80,250 80,200 80,150 130,150 130,200 210,200 1480,200 1480,150 210,150 160,150 160,150 160,100 160,100 210,100 1480,100 1480,50 210,50 130,50 130,100 50,100 50,200 " fill="rgb(255,255,255)" stroke-width="10" stroke="rgb(120,120,120)" />
	<text x="1402" y="18557" fill="rgb(0,0,0)" font-size="24" font-family="Verdana" >macNig</text>
	<text x="1402" y="18457" fill="rgb(0,0,0)" font-size="24" font-family="Verdana" >macOrc</text>
	<text x="1402" y="18357" fill="rgb(0,0,0)" font-size="24" font-family="Verdana" >macMau</text>
	<text x="1402" y="18257" fill="rgb(0,0,0)" font-size="24" font-family="Verdana" >macTon</text>
	<text x="1402" y="18157" fill="rgb(0,0,0)" font-size="24" font-family="Verdana" >macNem</text>
	<text x="1402" y="18057" fill="rgb(0,0,0)" font-size="24" font-family="Verdana" >macSil</text>
	<text x="1402" y="17957" fill="rgb(0,0,0)" font-size="24" font-family="Verdana" >macSib</text>
	<text x="1402" y="17857" fill="rgb(0,0,0)" font-size="24" font-family="Verdana" >macMul</text>
	<text x="1402" y="17757" fill="rgb(0,0,0)" font-size="24" font-family="Verdana" >macFus</text>
	<text x="1402" y="17657" fill="rgb(0,0,0)" font-size="24" font-family="Verdana" >macCyc</text>
	<text x="1402" y="17557" fill="rgb(0,0,0)" font-size="24" font-family="Verdana" >macFas</text>
	<text x="1402" y="17457" fill="rgb(0,0,0)" font-size="24" font-family="Verdana" >macArc</text>
	<text x="1402" y="17357" fill="rgb(0,0,0)" font-size="24" font-family="Verdana" >macThi</text>
	<text x="1402" y="17257" fill="rgb(0,0,0)" font-size="24" font-family="Verdana" >macSyl</text>
	<text x="1402" y="17157" fill="rgb(0,0,0)" font-size="24" font-family="Verdana" >papHam</text>
	<text x="1402" y="17057" fill="rgb(0,0,0)" font-size="24" font-family="Verdana" >papAnu</text>
	<text x="1402" y="16957" fill="rgb(0,0,0)" font-size="24" font-family="Verdana" >papPap</text>
	<text x="1402" y="16857" fill="rgb(0,0,0)" font-size="24" font-family="Verdana" >lopAte</text>
	<text x="1402" y="16757" fill="rgb(0,0,0)" font-size="24" font-family="Verdana" >lopAlb</text>
	<text x="1402" y="16582" fill="rgb(0,0,0)" font-size="24" font-family="Verdana" >theGel</text>
	<text x="1402" y="16482" fill="rgb(0,0,0)" font-size="24" font-family="Verdana" >cerAgi</text>
	<text x="1402" y="16382" fill="rgb(0,0,0)" font-size="24" font-family="Verdana" >cerChr</text>
	<text x="1402" y="16282" fill="rgb(0,0,0)" font-size="24" font-family="Verdana" >cerTor</text>
	<text x="1402" y="16182" fill="rgb(0,0,0)" font-size="24" font-family="Verdana" >manLeu</text>
	<text x="1402" y="16082" fill="rgb(0,0,0)" font-size="24" font-family="Verdana" >manSph</text>
	<text x="1402" y="15982" fill="rgb(0,0,0)" font-size="24" font-family="Verdana" >cerMit</text>
	<text x="1402" y="15882" fill="rgb(0,0,0)" font-size="24" font-family="Verdana" >cerAlb</text>
	<text x="1402" y="15782" fill="rgb(0,0,0)" font-size="24" font-family="Verdana" >cerCep</text>
	<text x="1402" y="15682" fill="rgb(0,0,0)" font-size="24" font-family="Verdana" >cerAsc</text>
	<text x="1402" y="15582" fill="rgb(0,0,0)" font-size="24" font-family="Verdana" >cerPet</text>
	<text x="1402" y="15482" fill="rgb(0,0,0)" font-size="24" font-family="Verdana" >cerDia</text>
	<text x="1402" y="15382" fill="rgb(0,0,0)" font-size="24" font-family="Verdana" >cerWol</text>
	<text x="1402" y="15282" fill="rgb(0,0,0)" font-size="24" font-family="Verdana" >cerMon</text>
	<text x="1402" y="15182" fill="rgb(0,0,0)" font-size="24" font-family="Verdana" >cerNeg</text>
	<text x="1402" y="15082" fill="rgb(0,0,0)" font-size="24" font-family="Verdana" >cerHam</text>
	<text x="1402" y="14982" fill="rgb(0,0,0)" font-size="24" font-family="Verdana" >mioOgo</text>
	<text x="1402" y="14882" fill="rgb(0,0,0)" font-size="24" font-family="Verdana" >chlAet</text>
	<text x="1402" y="14782" fill="rgb(0,0,0)" font-size="24" font-family="Verdana" >chlSab</text>
	<text x="1402" y="14682" fill="rgb(0,0,0)" font-size="24" font-family="Verdana" >chlCyn</text>
	<text x="1402" y="14582" fill="rgb(0,0,0)" font-size="24" font-family="Verdana" >eryPat</text>
	<text x="1402" y="14482" fill="rgb(0,0,0)" font-size="24" font-family="Verdana" >cerLho</text>
	<text x="1402" y="14382" fill="rgb(0,0,0)" font-size="24" font-family="Verdana" >allNig</text>
	<text x="1402" y="14282" fill="rgb(0,0,0)" font-size="24" font-family="Verdana" >traFra</text>
	<text x="1402" y="14182" fill="rgb(0,0,0)" font-size="24" font-family="Verdana" >traDel</text>
	<text x="1402" y="14082" fill="rgb(0,0,0)" font-size="24" font-family="Verdana" >traHat</text>
	<text x="1402" y="13982" fill="rgb(0,0,0)" font-size="24" font-family="Verdana" >traObs</text>
	<text x="1402" y="13882" fill="rgb(0,0,0)" font-size="24" font-family="Verdana" >traPha</text>
	<text x="1402" y="13782" fill="rgb(0,0,0)" font-size="24" font-family="Verdana" >traAur</text>
	<text x="1402" y="13682" fill="rgb(0,0,0)" font-size="24" font-family="Verdana" >semHec</text>
	<text x="1402" y="13582" fill="rgb(0,0,0)" font-size="24" font-family="Verdana" >semEnt</text>
	<text x="1402" y="13482" fill="rgb(0,0,0)" font-size="24" font-family="Verdana" >traVet</text>
	<text x="1402" y="13382" fill="rgb(0,0,0)" font-size="24" font-family="Verdana" >pygCin</text>
	<text x="1402" y="13282" fill="rgb(0,0,0)" font-size="24" font-family="Verdana" >pygNem</text>
	<text x="1402" y="13182" fill="rgb(0,0,0)" font-size="24" font-family="Verdana" >pygNig</text>
	<text x="1402" y="13082" fill="rgb(0,0,0)" font-size="24" font-family="Verdana" >nasLar</text>
	<text x="1402" y="12982" fill="rgb(0,0,0)" font-size="24" font-family="Verdana" >rhiRox</text>
	<text x="1402" y="12882" fill="rgb(0,0,0)" font-size="24" font-family="Verdana" >rhiBie</text>
	<text x="1402" y="12782" fill="rgb(0,0,0)" font-size="24" font-family="Verdana" >rhiBre</text>
	<text x="1402" y="12682" fill="rgb(0,0,0)" font-size="24" font-family="Verdana" >preMel</text>
	<text x="1402" y="12582" fill="rgb(0,0,0)" font-size="24" font-family="Verdana" >preCom</text>
	<text x="1402" y="12482" fill="rgb(0,0,0)" font-size="24" font-family="Verdana" >colGue</text>
	<text x="1402" y="12382" fill="rgb(0,0,0)" font-size="24" font-family="Verdana" >colPol</text>
	<text x="1402" y="12232" fill="rgb(0,0,0)" font-size="24" font-family="Verdana" >colAng</text>
	<text x="1402" y="12132" fill="rgb(0,0,0)" font-size="24" font-family="Verdana" >pilTep</text>
	<text x="1402" y="12032" fill="rgb(0,0,0)" font-size="24" font-family="Verdana" >hylMue</text>
	<text x="1402" y="11932" fill="rgb(0,0,0)" font-size="24" font-family="Verdana" >hylAgi</text>
	<text x="1402" y="11832" fill="rgb(0,0,0)" font-size="24" font-family="Verdana" >hylLar</text>
	<text x="1402" y="11732" fill="rgb(0,0,0)" font-size="24" font-family="Verdana" >symSyn</text>
	<text x="1402" y="11632" fill="rgb(0,0,0)" font-size="24" font-family="Verdana" >nomLeu</text>
	<text x="1402" y="11532" fill="rgb(0,0,0)" font-size="24" font-family="Verdana" >nomSik</text>
	<text x="1402" y="11432" fill="rgb(0,0,0)" font-size="24" font-family="Verdana" >nomGab</text>
	<text x="1402" y="11332" fill="rgb(0,0,0)" font-size="24" font-family="Verdana" >nomCon</text>
	<text x="1402" y="11232" fill="rgb(0,0,0)" font-size="24" font-family="Verdana" >panTro</text>
	<text x="1402" y="11132" fill="rgb(0,0,0)" font-size="24" font-family="Verdana" >panPan</text>
	<text x="1402" y="10932" fill="rgb(0,0,0)" font-size="24" font-family="Verdana" >homSap</text>
	<text x="1402" y="10832" fill="rgb(0,0,0)" font-size="24" font-family="Verdana" >gorGor</text>
	<text x="1402" y="10732" fill="rgb(0,0,0)" font-size="24" font-family="Verdana" >ponPyg</text>
	<text x="1402" y="10632" fill="rgb(0,0,0)" font-size="24" font-family="Verdana" >ponAbe</text>
	<text x="1402" y="10532" fill="rgb(0,0,0)" font-size="24" font-family="Verdana" >calJac</text>
	<text x="1402" y="10432" fill="rgb(0,0,0)" font-size="24" font-family="Verdana" >calPen</text>
	<text x="1402" y="10332" fill="rgb(0,0,0)" font-size="24" font-family="Verdana" >calKuh</text>
	<text x="1402" y="10232" fill="rgb(0,0,0)" font-size="24" font-family="Verdana" >calGeo</text>
	<text x="1402" y="10132" fill="rgb(0,0,0)" font-size="24" font-family="Verdana" >calAur</text>
	<text x="1402" y="10032" fill="rgb(0,0,0)" font-size="24" font-family="Verdana" >micArg</text>
	<text x="1402" y="9932" fill="rgb(0,0,0)" font-size="24" font-family="Verdana" >micHum</text>
	<text x="1402" y="9832" fill="rgb(0,0,0)" font-size="24" font-family="Verdana" >cebPyg</text>
	<text x="1402" y="9732" fill="rgb(0,0,0)" font-size="24" font-family="Verdana" >calGoe</text>
	<text x="1402" y="9632" fill="rgb(0,0,0)" font-size="24" font-family="Verdana" >leoRos</text>
	<text x="1402" y="9532" fill="rgb(0,0,0)" font-size="24" font-family="Verdana" >leoChr</text>
	<text x="1402" y="9432" fill="rgb(0,0,0)" font-size="24" font-family="Verdana" >sagMar</text>
	<text x="1402" y="9332" fill="rgb(0,0,0)" font-size="24" font-family="Verdana" >sagBic</text>
	<text x="1402" y="9232" fill="rgb(0,0,0)" font-size="24" font-family="Verdana" >sagMid</text>
	<text x="1402" y="9132" fill="rgb(0,0,0)" font-size="24" font-family="Verdana" >sagOed</text>
	<text x="1402" y="9032" fill="rgb(0,0,0)" font-size="24" font-family="Verdana" >sagGeo</text>
	<text x="1402" y="8932" fill="rgb(0,0,0)" font-size="24" font-family="Verdana" >sagMys</text>
	<text x="1402" y="8832" fill="rgb(0,0,0)" font-size="24" font-family="Verdana" >sagLab</text>
	<text x="1402" y="8732" fill="rgb(0,0,0)" font-size="24" font-family="Verdana" >sagImp</text>
	<text x="1402" y="8632" fill="rgb(0,0,0)" font-size="24" font-family="Verdana" >sagFus</text>
	<text x="1402" y="8532" fill="rgb(0,0,0)" font-size="24" font-family="Verdana" >aotAza</text>
	<text x="1402" y="8432" fill="rgb(0,0,0)" font-size="24" font-family="Verdana" >aotNan</text>
	<text x="1402" y="8332" fill="rgb(0,0,0)" font-size="24" font-family="Verdana" >aotTri</text>
	<text x="1402" y="8232" fill="rgb(0,0,0)" font-size="24" font-family="Verdana" >aotLem</text>
	<text x="1402" y="8132" fill="rgb(0,0,0)" font-size="24" font-family="Verdana" >cebXan</text>
	<text x="1402" y="8032" fill="rgb(0,0,0)" font-size="24" font-family="Verdana" >cebRob</text>
	<text x="1402" y="7932" fill="rgb(0,0,0)" font-size="24" font-family="Verdana" >cebApe</text>
	<text x="1402" y="7832" fill="rgb(0,0,0)" font-size="24" font-family="Verdana" >cebCap</text>
	<text x="1402" y="7732" fill="rgb(0,0,0)" font-size="24" font-family="Verdana" >cebAlb</text>
	<text x="1402" y="7632" fill="rgb(0,0,0)" font-size="24" font-family="Verdana" >cebOli</text>
	<text x="1402" y="7532" fill="rgb(0,0,0)" font-size="24" font-family="Verdana" >saiOer</text>
	<text x="1402" y="7432" fill="rgb(0,0,0)" font-size="24" font-family="Verdana" >saiSci</text>
	<text x="1402" y="7332" fill="rgb(0,0,0)" font-size="24" font-family="Verdana" >saiUst</text>
	<text x="1402" y="7232" fill="rgb(0,0,0)" font-size="24" font-family="Verdana" >saiBol</text>
	<text x="1402" y="7132" fill="rgb(0,0,0)" font-size="24" font-family="Verdana" >ateBel</text>
	<text x="1402" y="7032" fill="rgb(0,0,0)" font-size="24" font-family="Verdana" >ateGeo</text>
	<text x="1402" y="6932" fill="rgb(0,0,0)" font-size="24" font-family="Verdana" >ateHyb</text>
	<text x="1402" y="6832" fill="rgb(0,0,0)" font-size="24" font-family="Verdana" >ateFus</text>
	<text x="1402" y="6732" fill="rgb(0,0,0)" font-size="24" font-family="Verdana" >ateCha</text>
	<text x="1402" y="6632" fill="rgb(0,0,0)" font-size="24" font-family="Verdana" >atePan</text>
	<text x="1402" y="6532" fill="rgb(0,0,0)" font-size="24" font-family="Verdana" >braHyp</text>
	<text x="1402" y="6432" fill="rgb(0,0,0)" font-size="24" font-family="Verdana" >braAra</text>
	<text x="1402" y="6332" fill="rgb(0,0,0)" font-size="24" font-family="Verdana" >lagLag</text>
	<text x="1402" y="6232" fill="rgb(0,0,0)" font-size="24" font-family="Verdana" >lagCan</text>
	<text x="1402" y="6132" fill="rgb(0,0,0)" font-size="24" font-family="Verdana" >aloSar</text>
	<text x="1402" y="6032" fill="rgb(0,0,0)" font-size="24" font-family="Verdana" >aloCar</text>
	<text x="1402" y="5932" fill="rgb(0,0,0)" font-size="24" font-family="Verdana" >aloBel</text>
	<text x="1402" y="5832" fill="rgb(0,0,0)" font-size="24" font-family="Verdana" >aloPal</text>
	<text x="1402" y="5732" fill="rgb(0,0,0)" font-size="24" font-family="Verdana" >calMol</text>
	<text x="1402" y="5632" fill="rgb(0,0,0)" font-size="24" font-family="Verdana" >calBru</text>
	<text x="1402" y="5532" fill="rgb(0,0,0)" font-size="24" font-family="Verdana" >calCup</text>
	<text x="1402" y="5432" fill="rgb(0,0,0)" font-size="24" font-family="Verdana" >calCal</text>
	<text x="1402" y="5332" fill="rgb(0,0,0)" font-size="24" font-family="Verdana" >calDon</text>
	<text x="1402" y="5232" fill="rgb(0,0,0)" font-size="24" font-family="Verdana" >calCoi</text>
	<text x="1402" y="5132" fill="rgb(0,0,0)" font-size="24" font-family="Verdana" >calPer</text>
	<text x="1402" y="5032" fill="rgb(0,0,0)" font-size="24" font-family="Verdana" >calNig</text>
	<text x="1402" y="4932" fill="rgb(0,0,0)" font-size="24" font-family="Verdana" >chiIsr</text>
	<text x="1402" y="4832" fill="rgb(0,0,0)" font-size="24" font-family="Verdana" >chiSat</text>
	<text x="1402" y="4732" fill="rgb(0,0,0)" font-size="24" font-family="Verdana" >cacMel</text>
	<text x="1402" y="4632" fill="rgb(0,0,0)" font-size="24" font-family="Verdana" >cacCal</text>
	<text x="1402" y="4532" fill="rgb(0,0,0)" font-size="24" font-family="Verdana" >pitIrr</text>
	<text x="1402" y="4432" fill="rgb(0,0,0)" font-size="24" font-family="Verdana" >pitPit</text>
	<text x="1402" y="4332" fill="rgb(0,0,0)" font-size="24" font-family="Verdana" >carSyr</text>
	<text x="1402" y="4232" fill="rgb(0,0,0)" font-size="24" font-family="Verdana" >tarBan</text>
	<text x="1402" y="4132" fill="rgb(0,0,0)" font-size="24" font-family="Verdana" >eulRuf</text>
	<text x="1402" y="4032" fill="rgb(0,0,0)" font-size="24" font-family="Verdana" >eulCol</text>
	<text x="1402" y="3932" fill="rgb(0,0,0)" font-size="24" font-family="Verdana" >eulFul</text>
	<text x="1402" y="3832" fill="rgb(0,0,0)" font-size="24" font-family="Verdana" >eulSan</text>
	<text x="1402" y="3732" fill="rgb(0,0,0)" font-size="24" font-family="Verdana" >eulAlb</text>
	<text x="1402" y="3632" fill="rgb(0,0,0)" font-size="24" font-family="Verdana" >eulMon</text>
	<text x="1402" y="3532" fill="rgb(0,0,0)" font-size="24" font-family="Verdana" >eulMac</text>
	<text x="1402" y="3432" fill="rgb(0,0,0)" font-size="24" font-family="Verdana" >eulCor</text>
	<text x="1402" y="3332" fill="rgb(0,0,0)" font-size="24" font-family="Verdana" >eulRub</text>
	<text x="1402" y="3232" fill="rgb(0,0,0)" font-size="24" font-family="Verdana" >hapOcc</text>
	<text x="1402" y="3132" fill="rgb(0,0,0)" font-size="24" font-family="Verdana" >hapGri</text>
	<text x="1402" y="3032" fill="rgb(0,0,0)" font-size="24" font-family="Verdana" >lemCat</text>
	<text x="1402" y="2932" fill="rgb(0,0,0)" font-size="24" font-family="Verdana" >varVar</text>
	<text x="1402" y="2832" fill="rgb(0,0,0)" font-size="24" font-family="Verdana" >lepSep</text>
	<text x="1402" y="2732" fill="rgb(0,0,0)" font-size="24" font-family="Verdana" >lepAnk</text>
	<text x="1402" y="2632" fill="rgb(0,0,0)" font-size="24" font-family="Verdana" >lepDor</text>
	<text x="1402" y="2532" fill="rgb(0,0,0)" font-size="24" font-family="Verdana" >lepRuf</text>
	<text x="1402" y="2432" fill="rgb(0,0,0)" font-size="24" font-family="Verdana" >lepJam</text>
	<text x="1402" y="2332" fill="rgb(0,0,0)" font-size="24" font-family="Verdana" >micMur</text>
	<text x="1402" y="2232" fill="rgb(0,0,0)" font-size="24" font-family="Verdana" >mirZaz</text>
	<text x="1402" y="2132" fill="rgb(0,0,0)" font-size="24" font-family="Verdana" >cheMed</text>
	<text x="1402" y="2032" fill="rgb(0,0,0)" font-size="24" font-family="Verdana" >proVer</text>
	<text x="1402" y="1932" fill="rgb(0,0,0)" font-size="24" font-family="Verdana" >proTat</text>
	<text x="1402" y="1832" fill="rgb(0,0,0)" font-size="24" font-family="Verdana" >proDia</text>
	<text x="1402" y="1732" fill="rgb(0,0,0)" font-size="24" font-family="Verdana" >proEdw</text>
	<text x="1402" y="1632" fill="rgb(0,0,0)" font-size="24" font-family="Verdana" >avaLan</text>
	<text x="1402" y="1532" fill="rgb(0,0,0)" font-size="24" font-family="Verdana" >dauMad</text>
	<text x="1402" y="1432" fill="rgb(0,0,0)" font-size="24" font-family="Verdana" >nycBen</text>
	<text x="1402" y="1332" fill="rgb(0,0,0)" font-size="24" font-family="Verdana" >nycCou</text>
	<text x="1402" y="1232" fill="rgb(0,0,0)" font-size="24" font-family="Verdana" >nycPyg</text>
	<text x="1402" y="1132" fill="rgb(0,0,0)" font-size="24" font-family="Verdana" >lorTar</text>
	<text x="1402" y="1032" fill="rgb(0,0,0)" font-size="24" font-family="Verdana" >arcCal</text>
	<text x="1402" y="932" fill="rgb(0,0,0)" font-size="24" font-family="Verdana" >perPot</text>
	<text x="1402" y="832" fill="rgb(0,0,0)" font-size="24" font-family="Verdana" >galSen</text>
	<text x="1402" y="732" fill="rgb(0,0,0)" font-size="24" font-family="Verdana" >galMoh</text>
	<text x="1402" y="632" fill="rgb(0,0,0)" font-size="24" font-family="Verdana" >otoGar</text>
	<text x="1402" y="532" fill="rgb(0,0,0)" font-size="24" font-family="Verdana" >otoCra</text>
	<text x="1402" y="432" fill="rgb(0,0,0)" font-size="24" font-family="Verdana" >galTho</text>
	<text x="1402" y="332" fill="rgb(0,0,0)" font-size="24" font-family="Verdana" >galVar</text>
	<text x="1402" y="232" fill="rgb(0,0,0)" font-size="24" font-family="Verdana" >cynVol</text>
	<text x="1402" y="132" fill="rgb(0,0,0)" font-size="24" font-family="Verdana" >tupGli</text>
	<text x="1402" y="32" fill="rgb(0,0,0)" font-size="24" font-family="Verdana" >tupMin</text>
	<line x1="480" y1="12125" x2="480" y2="14375" stroke-width="3" stroke="rgb(65,170,190)" />
	<line x1="480" y1="14375" x2="590" y2="14375" stroke-width="3" stroke="rgb(65,170,190)" />
	<line x1="590" y1="14375" x2="590" y2="12575" stroke-width="3" stroke="rgb(65,170,190)" />
	<line x1="590" y1="12575" x2="700" y2="12575" stroke-width="3" stroke="rgb(65,170,190)" />
	<line x1="700" y1="12575" x2="700" y2="12775" stroke-width="3" stroke="rgb(65,170,190)" />
	<line x1="700" y1="12775" x2="810" y2="12775" stroke-width="3" stroke="rgb(65,170,190)" />
	<line x1="810" y1="12775" x2="810" y2="13475" stroke-width="3" stroke="rgb(65,170,190)" />
	<line x1="810" y1="13475" x2="920" y2="13475" stroke-width="3" stroke="rgb(65,170,190)" />
	<line x1="920" y1="13475" x2="920" y2="13775" stroke-width="3" stroke="rgb(65,170,190)" />
	<line x1="920" y1="13775" x2="1030" y2="13775" stroke-width="3" stroke="rgb(65,170,190)" />
	<line x1="1042.5" y1="13762.5" x2="1017.5" y2="13787.5" stroke-width="8.33333" stroke="rgb(65,170,190)" />
	<line x1="1042.5" y1="13787.5" x2="1017.5" y2="13762.5" stroke-width="8.33333" stroke="rgb(65,170,190)" />
	<line x1="920" y1="13475" x2="920" y2="13075" stroke-width="3" stroke="rgb(65,170,190)" />
	<line x1="920" y1="13075" x2="1030" y2="13075" stroke-width="3" stroke="rgb(65,170,190)" />
	<line x1="1030" y1="13075" x2="1030" y2="13175" stroke-width="3" stroke="rgb(65,170,190)" />
	<line x1="1030" y1="13175" x2="1140" y2="13175" stroke-width="3" stroke="rgb(65,170,190)" />
	<line x1="1152.5" y1="13162.5" x2="1127.5" y2="13187.5" stroke-width="8.33333" stroke="rgb(65,170,190)" />
	<line x1="1152.5" y1="13187.5" x2="1127.5" y2="13162.5" stroke-width="8.33333" stroke="rgb(65,170,190)" />
	<line x1="1030" y1="13075" x2="1030" y2="12875" stroke-width="3" stroke="rgb(65,170,190)" />
	<line x1="1030" y1="12875" x2="1140" y2="12875" stroke-width="3" stroke="rgb(65,170,190)" />
	<line x1="1140" y1="12875" x2="1140" y2="12975" stroke-width="3" stroke="rgb(65,170,190)" />
	<line x1="1140" y1="12975" x2="1250" y2="12975" stroke-width="3" stroke="rgb(65,170,190)" />
	<line x1="1250" y1="12975" x2="1250" y2="13025" stroke-width="3" stroke="rgb(65,170,190)" />
	<line x1="1250" y1="13025" x2="1480" y2="13025" stroke-width="3" stroke="rgb(65,170,190)" />
	<text x="1505" y="13025" fill="rgb(65,170,190)" font-size="18" font-family="Verdana" >rhiRox_ATRIP_XR_004052920</text>
	<line x1="1250" y1="12975" x2="1250" y2="12925" stroke-width="3" stroke="rgb(65,170,190)" />
	<line x1="1250" y1="12925" x2="1360" y2="12925" stroke-width="3" stroke="rgb(65,170,190)" />
	<line x1="1372.5" y1="12912.5" x2="1347.5" y2="12937.5" stroke-width="8.33333" stroke="rgb(65,170,190)" />
	<line x1="1372.5" y1="12937.5" x2="1347.5" y2="12912.5" stroke-width="8.33333" stroke="rgb(65,170,190)" />
	<line x1="1140" y1="12875" x2="1140" y2="12825" stroke-width="3" stroke="rgb(65,170,190)" />
	<line x1="1140" y1="12825" x2="1250" y2="12825" stroke-width="3" stroke="rgb(65,170,190)" />
	<line x1="1262.5" y1="12812.5" x2="1237.5" y2="12837.5" stroke-width="8.33333" stroke="rgb(65,170,190)" />
	<line x1="1262.5" y1="12837.5" x2="1237.5" y2="12812.5" stroke-width="8.33333" stroke="rgb(65,170,190)" />
	<line x1="810" y1="12775" x2="810" y2="12675" stroke-width="3" stroke="rgb(65,170,190)" />
	<line x1="810" y1="12675" x2="920" y2="12675" stroke-width="3" stroke="rgb(65,170,190)" />
	<line x1="932.5" y1="12662.5" x2="907.5" y2="12687.5" stroke-width="8.33333" stroke="rgb(65,170,190)" />
	<line x1="932.5" y1="12687.5" x2="907.5" y2="12662.5" stroke-width="8.33333" stroke="rgb(65,170,190)" />
	<line x1="700" y1="12575" x2="700" y2="12225" stroke-width="3" stroke="rgb(65,170,190)" />
	<line x1="700" y1="12225" x2="810" y2="12225" stroke-width="3" stroke="rgb(65,170,190)" />
	<line x1="810" y1="12225" x2="810" y2="12375" stroke-width="3" stroke="rgb(65,170,190)" />
	<line x1="810" y1="12375" x2="920" y2="12375" stroke-width="3" stroke="rgb(65,170,190)" />
	<line x1="920" y1="12375" x2="920" y2="12325" stroke-width="3" stroke="rgb(65,170,190)" />
	<line x1="920" y1="12325" x2="1030" y2="12325" stroke-width="3" stroke="rgb(65,170,190)" />
	<line x1="1030" y1="12325" x2="1030" y2="12275" stroke-width="3" stroke="rgb(65,170,190)" />
	<line x1="1030" y1="12275" x2="1480" y2="12275" stroke-width="3" stroke="rgb(65,170,190)" />
	<text x="1505" y="12275" fill="rgb(65,170,190)" font-size="18" font-family="Verdana" >colAngPal_ATRIP_XM_011939170</text>
	<line x1="1030" y1="12325" x2="1030" y2="12325" stroke-width="3" stroke="rgb(65,170,190)" />
	<line x1="1030" y1="12325" x2="1060" y2="12325" stroke-width="3" stroke="rgb(65,170,190)" />
	<line x1="1060" y1="12325" x2="1060" y2="12300" stroke-width="3" stroke="rgb(65,170,190)" />
	<line x1="1060" y1="12300" x2="1480" y2="12300" stroke-width="3" stroke="rgb(65,170,190)" />
	<text x="1505" y="12300" fill="rgb(65,170,190)" font-size="18" font-family="Verdana" >colAngPal_ATRIP_XM_011939169</text>
	<line x1="1060" y1="12325" x2="1060" y2="12325" stroke-width="3" stroke="rgb(65,170,190)" />
	<line x1="1060" y1="12325" x2="1480" y2="12325" stroke-width="3" stroke="rgb(65,170,190)" />
	<text x="1505" y="12325" fill="rgb(65,170,190)" font-size="18" font-family="Verdana" >colAngPal_ATRIP_XM_011939168</text>
	<rect x="1047.5" y="12312.5" width="25" height="25" fill="rgb(65,170,190)" stroke-width="3" stroke="rgb(65,170,190)" />
	<rect x="1017.5" y="12312.5" width="25" height="25" fill="rgb(65,170,190)" stroke-width="3" stroke="rgb(65,170,190)" />
	<line x1="920" y1="12375" x2="920" y2="12475" stroke-width="3" stroke="rgb(65,170,190)" />
	<line x1="920" y1="12475" x2="1030" y2="12475" stroke-width="3" stroke="rgb(65,170,190)" />
	<line x1="1042.5" y1="12462.5" x2="1017.5" y2="12487.5" stroke-width="8.33333" stroke="rgb(65,170,190)" />
	<line x1="1042.5" y1="12487.5" x2="1017.5" y2="12462.5" stroke-width="8.33333" stroke="rgb(65,170,190)" />
	<line x1="810" y1="12225" x2="810" y2="12175" stroke-width="3" stroke="rgb(65,170,190)" />
	<line x1="810" y1="12175" x2="920" y2="12175" stroke-width="3" stroke="rgb(65,170,190)" />
	<line x1="932.5" y1="12162.5" x2="907.5" y2="12187.5" stroke-width="8.33333" stroke="rgb(65,170,190)" />
	<line x1="932.5" y1="12187.5" x2="907.5" y2="12162.5" stroke-width="8.33333" stroke="rgb(65,170,190)" />
	<line x1="590" y1="14375" x2="590" y2="16075" stroke-width="3" stroke="rgb(65,170,190)" />
	<line x1="590" y1="16075" x2="700" y2="16075" stroke-width="3" stroke="rgb(65,170,190)" />
	<line x1="700" y1="16075" x2="700" y2="17250" stroke-width="3" stroke="rgb(65,170,190)" />
	<line x1="700" y1="17250" x2="810" y2="17250" stroke-width="3" stroke="rgb(65,170,190)" />
	<line x1="810" y1="17250" x2="810" y2="17350" stroke-width="3" stroke="rgb(65,170,190)" />
	<line x1="810" y1="17350" x2="920" y2="17350" stroke-width="3" stroke="rgb(65,170,190)" />
	<line x1="932.5" y1="17337.5" x2="907.5" y2="17362.5" stroke-width="8.33333" stroke="rgb(65,170,190)" />
	<line x1="932.5" y1="17362.5" x2="907.5" y2="17337.5" stroke-width="8.33333" stroke="rgb(65,170,190)" />
	<line x1="810" y1="17250" x2="810" y2="16575" stroke-width="3" stroke="rgb(65,170,190)" />
	<line x1="810" y1="16575" x2="920" y2="16575" stroke-width="3" stroke="rgb(65,170,190)" />
	<line x1="920" y1="16575" x2="920" y2="16750" stroke-width="3" stroke="rgb(65,170,190)" />
	<line x1="920" y1="16750" x2="1030" y2="16750" stroke-width="3" stroke="rgb(65,170,190)" />
	<line x1="1030" y1="16750" x2="1030" y2="16700" stroke-width="3" stroke="rgb(65,170,190)" />
	<line x1="1030" y1="16700" x2="1140" y2="16700" stroke-width="3" stroke="rgb(65,170,190)" />
	<line x1="1140" y1="16700" x2="1140" y2="16625" stroke-width="3" stroke="rgb(65,170,190)" />
	<line x1="1140" y1="16625" x2="1480" y2="16625" stroke-width="3" stroke="rgb(65,170,190)" />
	<text x="1505" y="16625" fill="rgb(65,170,190)" font-size="18" font-family="Verdana" >theGel_ATRIP_XM_025377285</text>
	<line x1="1140" y1="16700" x2="1140" y2="16700" stroke-width="3" stroke="rgb(65,170,190)" />
	<line x1="1140" y1="16700" x2="1170" y2="16700" stroke-width="3" stroke="rgb(65,170,190)" />
	<line x1="1170" y1="16700" x2="1170" y2="16650" stroke-width="3" stroke="rgb(65,170,190)" />
	<line x1="1170" y1="16650" x2="1480" y2="16650" stroke-width="3" stroke="rgb(65,170,190)" />
	<text x="1505" y="16650" fill="rgb(65,170,190)" font-size="18" font-family="Verdana" >theGel_ATRIP_XM_025377284</text>
	<line x1="1170" y1="16700" x2="1170" y2="16700" stroke-width="3" stroke="rgb(65,170,190)" />
	<line x1="1170" y1="16700" x2="1200" y2="16700" stroke-width="3" stroke="rgb(65,170,190)" />
	<line x1="1200" y1="16700" x2="1200" y2="16675" stroke-width="3" stroke="rgb(65,170,190)" />
	<line x1="1200" y1="16675" x2="1480" y2="16675" stroke-width="3" stroke="rgb(65,170,190)" />
	<text x="1505" y="16675" fill="rgb(65,170,190)" font-size="18" font-family="Verdana" >theGel_ATRIP_XM_025377283</text>
	<line x1="1200" y1="16700" x2="1200" y2="16700" stroke-width="3" stroke="rgb(65,170,190)" />
	<line x1="1200" y1="16700" x2="1480" y2="16700" stroke-width="3" stroke="rgb(65,170,190)" />
	<text x="1505" y="16700" fill="rgb(65,170,190)" font-size="18" font-family="Verdana" >theGel_ATRIP_XM_025377282</text>
	<rect x="1187.5" y="16687.5" width="25" height="25" fill="rgb(65,170,190)" stroke-width="3" stroke="rgb(65,170,190)" />
	<rect x="1157.5" y="16687.5" width="25" height="25" fill="rgb(65,170,190)" stroke-width="3" stroke="rgb(65,170,190)" />
	<rect x="1127.5" y="16687.5" width="25" height="25" fill="rgb(65,170,190)" stroke-width="3" stroke="rgb(65,170,190)" />
	<line x1="1030" y1="16750" x2="1030" y2="16950" stroke-width="3" stroke="rgb(65,170,190)" />
	<line x1="1030" y1="16950" x2="1140" y2="16950" stroke-width="3" stroke="rgb(65,170,190)" />
	<line x1="1152.5" y1="16937.5" x2="1127.5" y2="16962.5" stroke-width="8.33333" stroke="rgb(65,170,190)" />
	<line x1="1152.5" y1="16962.5" x2="1127.5" y2="16937.5" stroke-width="8.33333" stroke="rgb(65,170,190)" />
	<line x1="920" y1="16575" x2="920" y2="16275" stroke-width="3" stroke="rgb(65,170,190)" />
	<line x1="920" y1="16275" x2="1030" y2="16275" stroke-width="3" stroke="rgb(65,170,190)" />
	<line x1="1042.5" y1="16262.5" x2="1017.5" y2="16287.5" stroke-width="8.33333" stroke="rgb(65,170,190)" />
	<line x1="1042.5" y1="16287.5" x2="1017.5" y2="16262.5" stroke-width="8.33333" stroke="rgb(65,170,190)" />
	<line x1="700" y1="16075" x2="700" y2="14975" stroke-width="3" stroke="rgb(65,170,190)" />
	<line x1="700" y1="14975" x2="810" y2="14975" stroke-width="3" stroke="rgb(65,170,190)" />
	<line x1="822.5" y1="14962.5" x2="797.5" y2="14987.5" stroke-width="8.33333" stroke="rgb(65,170,190)" />
	<line x1="822.5" y1="14987.5" x2="797.5" y2="14962.5" stroke-width="8.33333" stroke="rgb(65,170,190)" />
	<line x1="480" y1="12125" x2="480" y2="11325" stroke-width="3" stroke="rgb(65,170,190)" />
	<line x1="480" y1="11325" x2="590" y2="11325" stroke-width="3" stroke="rgb(65,170,190)" />
	<line x1="590" y1="11325" x2="590" y2="11725" stroke-width="3" stroke="rgb(65,170,190)" />
	<line x1="590" y1="11725" x2="700" y2="11725" stroke-width="3" stroke="rgb(65,170,190)" />
	<line x1="712.5" y1="11712.5" x2="687.5" y2="11737.5" stroke-width="8.33333" stroke="rgb(65,170,190)" />
	<line x1="712.5" y1="11737.5" x2="687.5" y2="11712.5" stroke-width="8.33333" stroke="rgb(65,170,190)" />
	<line x1="590" y1="11325" x2="590" y2="10825" stroke-width="3" stroke="rgb(65,170,190)" />
	<line x1="590" y1="10825" x2="700" y2="10825" stroke-width="3" stroke="rgb(65,170,190)" />
	<line x1="700" y1="10825" x2="700" y2="10925" stroke-width="3" stroke="rgb(65,170,190)" />
	<line x1="700" y1="10925" x2="810" y2="10925" stroke-width="3" stroke="rgb(65,170,190)" />
	<line x1="810" y1="10925" x2="810" y2="10875" stroke-width="3" stroke="rgb(65,170,190)" />
	<line x1="810" y1="10875" x2="1480" y2="10875" stroke-width="3" stroke="rgb(65,170,190)" />
	<text x="1505" y="10875" fill="rgb(65,170,190)" font-size="18" font-family="Verdana" >gorGorGor_ATRIP_XM_019023468</text>
	<line x1="810" y1="10925" x2="810" y2="11125" stroke-width="3" stroke="rgb(65,170,190)" />
	<line x1="810" y1="11125" x2="920" y2="11125" stroke-width="3" stroke="rgb(65,170,190)" />
	<line x1="920" y1="11125" x2="920" y2="11075" stroke-width="3" stroke="rgb(65,170,190)" />
	<line x1="920" y1="11075" x2="1030" y2="11075" stroke-width="3" stroke="rgb(65,170,190)" />
	<line x1="1030" y1="11075" x2="1030" y2="10975" stroke-width="3" stroke="rgb(65,170,190)" />
	<line x1="1030" y1="10975" x2="1480" y2="10975" stroke-width="3" stroke="rgb(65,170,190)" />
	<text x="1505" y="10975" fill="rgb(65,170,190)" font-size="18" font-family="Verdana" >homSap_TREX1_AF319566</text>
	<line x1="1030" y1="11075" x2="1030" y2="11075" stroke-width="3" stroke="rgb(65,170,190)" />
	<line x1="1030" y1="11075" x2="1060" y2="11075" stroke-width="3" stroke="rgb(65,170,190)" />
	<line x1="1060" y1="11075" x2="1060" y2="11000" stroke-width="3" stroke="rgb(65,170,190)" />
	<line x1="1060" y1="11000" x2="1480" y2="11000" stroke-width="3" stroke="rgb(65,170,190)" />
	<text x="1505" y="11000" fill="rgb(65,170,190)" font-size="18" font-family="Verdana" >homSap_potTREX1_NR_153405</text>
	<line x1="1060" y1="11075" x2="1060" y2="11075" stroke-width="3" stroke="rgb(65,170,190)" />
	<line x1="1060" y1="11075" x2="1090" y2="11075" stroke-width="3" stroke="rgb(65,170,190)" />
	<line x1="1090" y1="11075" x2="1090" y2="11025" stroke-width="3" stroke="rgb(65,170,190)" />
	<line x1="1090" y1="11025" x2="1480" y2="11025" stroke-width="3" stroke="rgb(65,170,190)" />
	<text x="1505" y="11025" fill="rgb(65,170,190)" font-size="18" font-family="Verdana" >homSap_ATRIP_NM_130384</text>
	<line x1="1090" y1="11075" x2="1090" y2="11075" stroke-width="3" stroke="rgb(65,170,190)" />
	<line x1="1090" y1="11075" x2="1120" y2="11075" stroke-width="3" stroke="rgb(65,170,190)" />
	<line x1="1120" y1="11075" x2="1120" y2="11050" stroke-width="3" stroke="rgb(65,170,190)" />
	<line x1="1120" y1="11050" x2="1480" y2="11050" stroke-width="3" stroke="rgb(65,170,190)" />
	<text x="1505" y="11050" fill="rgb(65,170,190)" font-size="18" font-family="Verdana" >homSap_ATRIP_NM_032166</text>
	<line x1="1120" y1="11075" x2="1120" y2="11075" stroke-width="3" stroke="rgb(65,170,190)" />
	<line x1="1120" y1="11075" x2="1480" y2="11075" stroke-width="3" stroke="rgb(65,170,190)" />
	<text x="1505" y="11075" fill="rgb(65,170,190)" font-size="18" font-family="Verdana" >homSap_ATRIP_NM_001271023</text>
	<rect x="1107.5" y="11062.5" width="25" height="25" fill="rgb(65,170,190)" stroke-width="3" stroke="rgb(65,170,190)" />
	<rect x="1077.5" y="11062.5" width="25" height="25" fill="rgb(65,170,190)" stroke-width="3" stroke="rgb(65,170,190)" />
	<rect x="1047.5" y="11062.5" width="25" height="25" fill="rgb(65,170,190)" stroke-width="3" stroke="rgb(65,170,190)" />
	<rect x="1017.5" y="11062.5" width="25" height="25" fill="rgb(65,170,190)" stroke-width="3" stroke="rgb(65,170,190)" />
	<line x1="920" y1="11125" x2="920" y2="11225" stroke-width="3" stroke="rgb(65,170,190)" />
	<line x1="920" y1="11225" x2="1030" y2="11225" stroke-width="3" stroke="rgb(65,170,190)" />
	<line x1="1042.5" y1="11212.5" x2="1017.5" y2="11237.5" stroke-width="8.33333" stroke="rgb(65,170,190)" />
	<line x1="1042.5" y1="11237.5" x2="1017.5" y2="11212.5" stroke-width="8.33333" stroke="rgb(65,170,190)" />
	<line x1="700" y1="10825" x2="700" y2="10725" stroke-width="3" stroke="rgb(65,170,190)" />
	<line x1="700" y1="10725" x2="810" y2="10725" stroke-width="3" stroke="rgb(65,170,190)" />
	<line x1="822.5" y1="10712.5" x2="797.5" y2="10737.5" stroke-width="8.33333" stroke="rgb(65,170,190)" />
	<line x1="822.5" y1="10737.5" x2="797.5" y2="10712.5" stroke-width="8.33333" stroke="rgb(65,170,190)" />
	<polygon points="495.625,12125 486.32,12120.4 484.828,12110.1 477.586,12117.6 467.359,12115.8 472.188,12125 467.359,12134.2 477.586,12132.4 484.828,12139.9 486.32,12129.6 495.625,12125 " fill="rgb(255,255,255)" stroke-width="6.25" stroke="rgb(65,170,190)" />
</svg>
