<?xml version="1.0" standalone="no" ?>
<!DOCTYPE svg PUBLIC "-//W3C//DTD SVG 1.1//EN" "http://www.w3.org/Graphics/SVG/1.1/DTD/svg11.dtd">
<svg width="2815px" height="18710px" xmlns="http://www.w3.org/2000/svg" version="1.1" >
	<polygon points="50,250 50,450 130,450 130,4250 210,4250 210,4450 320,4450 320,10825 430,10825 430,12225 540,12225 540,14425 650,14425 650,16125 760,16125 760,17325 870,17325 870,17450 1065,17450 1065,18050 1230,18050 1230,18350 1340,18350 1340,18550 1450,18550 1450,18650 1560,18650 1560,18700 1640,18700 2115,18700 2115,18650 1640,18650 1590,18650 1590,18650 1590,18600 1590,18600 1640,18600 2115,18600 2115,18550 1640,18550 1560,18550 1560,18600 1510,18600 1510,18550 1510,18500 1510,18450 1560,18450 1560,18500 1640,18500 2115,18500 2115,18450 1640,18450 1590,18450 1590,18450 1590,18400 1590,18400 1640,18400 2115,18400 2115,18350 1640,18350 1560,18350 1560,18400 1450,18400 1450,18500 1400,18500 1400,18350 1400,18300 1400,18150 1450,18150 1450,18250 1560,18250 1560,18300 1670,18300 2115,18300 2115,18250 1670,18250 1620,18250 1620,18250 1620,18200 1620,18200 1670,18200 2115,18200 2115,18150 1670,18150 1560,18150 1560,18200 1510,18200 1510,18150 1510,18100 1510,18100 1560,18100 2115,18100 2115,18050 1560,18050 1450,18050 1450,18100 1340,18100 1340,18300 1290,18300 1290,18050 1290,18000 1290,17650 1340,17650 1340,17750 1450,17750 1450,17850 1560,17850 1560,17950 1670,17950 1670,18000 1780,18000 2115,18000 2115,17950 1780,17950 1730,17950 1730,17950 1730,17900 1730,17900 1780,17900 2115,17900 2115,17850 1780,17850 1670,17850 1670,17900 1620,17900 1620,17850 1620,17800 1620,17800 1670,17800 2115,17800 2115,17750 1670,17750 1560,17750 1560,17800 1510,17800 1510,17750 1510,17700 1510,17700 1560,17700 2115,17700 2115,17650 1560,17650 1450,17650 1450,17700 1400,17700 1400,17650 1400,17600 1400,17550 1450,17550 1450,17600 1560,17600 2115,17600 2115,17550 1560,17550 1510,17550 1510,17550 1510,17500 1510,17500 1560,17500 2115,17500 2115,17450 1560,17450 1450,17450 1450,17500 1340,17500 1340,17600 1230,17600 1230,18000 1155,18000 1155,17450 1155,17375 1155,17375 1230,17375 2115,17375 2115,17325 1230,17325 1065,17325 1065,17375 990,17375 990,17325 990,17250 990,16675 1065,16675 1065,16800 1230,16800 1230,17000 1395,17000 1395,17100 1505,17100 1505,17200 1585,17200 1585,17250 1665,17250 2115,17250 2115,17200 1665,17200 1615,17200 1615,17200 1615,17150 1615,17150 1665,17150 2115,17150 2115,17100 1665,17100 1585,17100 1585,17150 1535,17150 1535,17100 1535,17050 1535,17050 1585,17050 2115,17050 2115,17000 1585,17000 1505,17000 1505,17050 1455,17050 1455,17000 1455,16950 1455,16900 1505,16900 1505,16950 1585,16950 2115,16950 2115,16900 1585,16900 1535,16900 1535,16900 1535,16850 1535,16850 1585,16850 2115,16850 2115,16800 1585,16800 1505,16800 1505,16850 1395,16850 1395,16950 1320,16950 1320,16800 1320,16725 1320,16725 1395,16725 2115,16725 2115,16675 1395,16675 1230,16675 1230,16725 1155,16725 1155,16675 1155,16600 1155,16350 1230,16350 1230,16450 1395,16450 1395,16550 1505,16550 1505,16600 1585,16600 2115,16600 2115,16550 1585,16550 1535,16550 1535,16550 1535,16500 1535,16500 1585,16500 2115,16500 2115,16450 1585,16450 1505,16450 1505,16500 1455,16500 1455,16450 1455,16400 1455,16400 1505,16400 2115,16400 2115,16350 1505,16350 1395,16350 1395,16400 1320,16400 1320,16350 1320,16275 1320,16225 1395,16225 1395,16275 1505,16275 2115,16275 2115,16225 1505,16225 1455,16225 1455,16225 1455,16175 1455,16175 1505,16175 2115,16175 2115,16125 1505,16125 1395,16125 1395,16175 1230,16175 1230,16275 1065,16275 1065,16600 870,16600 870,17250 820,17250 820,16125 820,16075 820,15025 870,15025 870,15125 980,15125 980,15225 1090,15225 1090,15525 1170,15525 1170,15625 1250,15625 1250,15725 1330,15725 1330,15925 1410,15925 1410,16025 1490,16025 1490,16075 1570,16075 2115,16075 2115,16025 1570,16025 1520,16025 1520,16025 1520,15975 1520,15975 1570,15975 2115,15975 2115,15925 1570,15925 1490,15925 1490,15975 1440,15975 1440,15925 1440,15875 1440,15825 1490,15825 1490,15875 1570,15875 2115,15875 2115,15825 1570,15825 1520,15825 1520,15825 1520,15775 1520,15775 1570,15775 2115,15775 2115,15725 1570,15725 1490,15725 1490,15775 1410,15775 1410,15875 1360,15875 1360,15725 1360,15675 1360,15675 1410,15675 2115,15675 2115,15625 1410,15625 1330,15625 1330,15675 1280,15675 1280,15625 1280,15575 1280,15575 1330,15575 2115,15575 2115,15525 1330,15525 1250,15525 1250,15575 1200,15575 1200,15525 1200,15475 1200,15325 1250,15325 1250,15425 1330,15425 1330,15475 1410,15475 2115,15475 2115,15425 1410,15425 1360,15425 1360,15425 1360,15375 1360,15375 1410,15375 2115,15375 2115,15325 1410,15325 1330,15325 1330,15375 1280,15375 1280,15325 1280,15275 1280,15275 1330,15275 2115,15275 2115,15225 1330,15225 1250,15225 1250,15275 1170,15275 1170,15475 1120,15475 1120,15225 1120,15175 1120,15175 1170,15175 2115,15175 2115,15125 1170,15125 1090,15125 1090,15175 1040,15175 1040,15125 1040,15075 1040,15075 1090,15075 2115,15075 2115,15025 1090,15025 980,15025 980,15075 930,15075 930,15025 930,14975 930,14525 980,14525 980,14725 1090,14725 1090,14825 1200,14825 1200,14925 1310,14925 1310,14975 1420,14975 2115,14975 2115,14925 1420,14925 1370,14925 1370,14925 1370,14875 1370,14875 1420,14875 2115,14875 2115,14825 1420,14825 1310,14825 1310,14875 1260,14875 1260,14825 1260,14775 1260,14775 1310,14775 2115,14775 2115,14725 1310,14725 1200,14725 1200,14775 1150,14775 1150,14725 1150,14675 1150,14625 1200,14625 1200,14675 1310,14675 2115,14675 2115,14625 1310,14625 1260,14625 1260,14625 1260,14575 1260,14575 1310,14575 2115,14575 2115,14525 1310,14525 1200,14525 1200,14575 1090,14575 1090,14675 1040,14675 1040,14525 1040,14475 1040,14475 1090,14475 2115,14475 2115,14425 1090,14425 980,14425 980,14475 870,14475 870,14975 760,14975 760,16075 710,16075 710,14425 710,14375 710,12625 760,12625 760,12825 870,12825 870,13525 980,13525 980,13825 1090,13825 1090,14125 1200,14125 1200,14225 1280,14225 1280,14325 1360,14325 1360,14375 1440,14375 2115,14375 2115,14325 1440,14325 1390,14325 1390,14325 1390,14275 1390,14275 1440,14275 2115,14275 2115,14225 1440,14225 1360,14225 1360,14275 1310,14275 1310,14225 1310,14175 1310,14175 1360,14175 2115,14175 2115,14125 1360,14125 1280,14125 1280,14175 1230,14175 1230,14125 1230,14075 1230,13925 1280,13925 1280,14025 1360,14025 1360,14075 1440,14075 2115,14075 2115,14025 1440,14025 1390,14025 1390,14025 1390,13975 1390,13975 1440,13975 2115,13975 2115,13925 1440,13925 1360,13925 1360,13975 1310,13975 1310,13925 1310,13875 1310,13875 1360,13875 2115,13875 2115,13825 1360,13825 1280,13825 1280,13875 1200,13875 1200,14075 1150,14075 1150,13825 1150,13775 1150,13625 1200,13625 1200,13725 1280,13725 1280,13775 1360,13775 2115,13775 2115,13725 1360,13725 1310,13725 1310,13725 1310,13675 1310,13675 1360,13675 2115,13675 2115,13625 1360,13625 1280,13625 1280,13675 1230,13675 1230,13625 1230,13575 1230,13575 1280,13575 2115,13575 2115,13525 1280,13525 1200,13525 1200,13575 1090,13575 1090,13775 1040,13775 1040,13525 1040,13475 1040,13125 1090,13125 1090,13225 1200,13225 1200,13325 1310,13325 1310,13425 1390,13425 1390,13475 1470,13475 2115,13475 2115,13425 1470,13425 1420,13425 1420,13425 1420,13375 1420,13375 1470,13375 2115,13375 2115,13325 1470,13325 1390,13325 1390,13375 1340,13375 1340,13325 1340,13275 1340,13275 1390,13275 2115,13275 2115,13225 1390,13225 1310,13225 1310,13275 1260,13275 1260,13225 1260,13175 1260,13175 1310,13175 2115,13175 2115,13125 1310,13125 1200,13125 1200,13175 1150,13175 1150,13125 1150,13075 1150,12925 1200,12925 1200,13025 1310,13025 1310,13075 1420,13075 2115,13075 2115,13025 1420,13025 1370,13025 1370,13025 1370,12975 1370,12975 1420,12975 2115,12975 2115,12925 1420,12925 1310,12925 1310,12975 1260,12975 1260,12925 1260,12875 1260,12875 1310,12875 2115,12875 2115,12825 1310,12825 1200,12825 1200,12875 1090,12875 1090,13075 980,13075 980,13475 930,13475 930,12825 930,12775 930,12725 980,12725 980,12775 1090,12775 2115,12775 2115,12725 1090,12725 1040,12725 1040,12725 1040,12675 1040,12675 1090,12675 2115,12675 2115,12625 1090,12625 980,12625 980,12675 870,12675 870,12775 820,12775 820,12625 820,12575 820,12325 870,12325 870,12425 980,12425 980,12525 1090,12525 1090,12575 1200,12575 2115,12575 2115,12525 1200,12525 1150,12525 1150,12525 1150,12475 1150,12475 1200,12475 2115,12475 2115,12425 1200,12425 1090,12425 1090,12475 1040,12475 1040,12425 1040,12375 1040,12375 1090,12375 2115,12375 2115,12325 1090,12325 980,12325 980,12375 930,12375 930,12325 930,12275 930,12275 980,12275 2115,12275 2115,12225 980,12225 870,12225 870,12275 760,12275 760,12575 650,12575 650,14375 600,14375 600,12225 600,12175 600,11425 650,11425 650,11825 760,11825 760,11925 870,11925 870,12025 980,12025 980,12125 1060,12125 1060,12175 1140,12175 2115,12175 2115,12125 1140,12125 1090,12125 1090,12125 1090,12075 1090,12075 1140,12075 2115,12075 2115,12025 1140,12025 1060,12025 1060,12075 1010,12075 1010,12025 1010,11975 1010,11975 1060,11975 2115,11975 2115,11925 1060,11925 980,11925 980,11975 930,11975 930,11925 930,11875 930,11875 980,11875 2115,11875 2115,11825 980,11825 870,11825 870,11875 820,11875 820,11825 820,11775 820,11625 870,11625 870,11725 980,11725 980,11775 1090,11775 2115,11775 2115,11725 1090,11725 1040,11725 1040,11725 1040,11675 1040,11675 1090,11675 2115,11675 2115,11625 1090,11625 980,11625 980,11675 930,11675 930,11625 930,11575 930,11525 980,11525 980,11575 1090,11575 2115,11575 2115,11525 1090,11525 1040,11525 1040,11525 1040,11475 1040,11475 1090,11475 2115,11475 2115,11425 1090,11425 980,11425 980,11475 870,11475 870,11575 760,11575 760,11775 710,11775 710,11425 710,11375 710,11025 760,11025 760,11125 870,11125 870,11225 980,11225 980,11325 1090,11325 1090,11375 1200,11375 2115,11375 2115,11325 1200,11325 1150,11325 1150,11325 1150,11275 1150,11275 1200,11275 2115,11275 2115,11225 1200,11225 1090,11225 1090,11275 1040,11275 1040,11225 1040,11175 1040,11175 1090,11175 2115,11175 2115,11125 1090,11125 980,11125 980,11175 930,11175 930,11125 930,11075 930,11075 980,11075 2115,11075 2115,11025 980,11025 870,11025 870,11075 820,11075 820,11025 820,10975 820,10925 870,10925 870,10975 980,10975 2115,10975 2115,10925 980,10925 930,10925 930,10925 930,10875 930,10875 980,10875 2115,10875 2115,10825 980,10825 870,10825 870,10875 760,10875 760,10975 650,10975 650,11375 540,11375 540,12175 490,12175 490,10825 490,10775 490,5850 540,5850 540,7250 650,7250 650,8350 760,8350 760,8800 955,8800 955,9725 1120,9725 1120,9925 1285,9925 1285,10025 1395,10025 1395,10325 1505,10325 1505,10425 1615,10425 1615,10525 1725,10525 1725,10625 1835,10625 1835,10725 1945,10725 1945,10775 2055,10775 2115,10775 2115,10725 2055,10725 2005,10725 2005,10725 2005,10675 2005,10675 2055,10675 2115,10675 2115,10625 2055,10625 1945,10625 1945,10675 1895,10675 1895,10625 1895,10575 1895,10575 1945,10575 2115,10575 2115,10525 1945,10525 1835,10525 1835,10575 1785,10575 1785,10525 1785,10475 1785,10475 1835,10475 2115,10475 2115,10425 1835,10425 1725,10425 1725,10475 1675,10475 1675,10425 1675,10375 1675,10375 1725,10375 2115,10375 2115,10325 1725,10325 1615,10325 1615,10375 1565,10375 1565,10325 1565,10275 1565,10125 1615,10125 1615,10225 1725,10225 1725,10275 1805,10275 2115,10275 2115,10225 1805,10225 1755,10225 1755,10225 1755,10175 1755,10175 1805,10175 2115,10175 2115,10125 1805,10125 1725,10125 1725,10175 1675,10175 1675,10125 1675,10075 1675,10075 1725,10075 2115,10075 2115,10025 1725,10025 1615,10025 1615,10075 1505,10075 1505,10275 1455,10275 1455,10025 1455,9975 1455,9975 1505,9975 2115,9975 2115,9925 1505,9925 1395,9925 1395,9975 1345,9975 1345,9925 1345,9875 1345,9825 1395,9825 1395,9875 1505,9875 2115,9875 2115,9825 1505,9825 1455,9825 1455,9825 1455,9775 1455,9775 1505,9775 2115,9775 2115,9725 1505,9725 1395,9725 1395,9775 1285,9775 1285,9875 1210,9875 1210,9725 1210,9650 1210,8900 1285,8900 1285,9200 1395,9200 1395,9400 1475,9400 1475,9500 1555,9500 1555,9600 1635,9600 1635,9650 1715,9650 2115,9650 2115,9600 1715,9600 1665,9600 1665,9600 1665,9550 1665,9550 1715,9550 2115,9550 2115,9500 1715,9500 1635,9500 1635,9550 1585,9550 1585,9500 1585,9450 1585,9450 1635,9450 2115,9450 2115,9400 1635,9400 1555,9400 1555,9450 1505,9450 1505,9400 1505,9350 1505,9300 1555,9300 1555,9350 1635,9350 2115,9350 2115,9300 1635,9300 1585,9300 1585,9300 1585,9250 1585,9250 1635,9250 2115,9250 2115,9200 1635,9200 1555,9200 1555,9250 1475,9250 1475,9350 1425,9350 1425,9200 1425,9150 1425,9000 1475,9000 1475,9100 1555,9100 1555,9150 1635,9150 2115,9150 2115,9100 1635,9100 1585,9100 1585,9100 1585,9050 1585,9050 1635,9050 2115,9050 2115,9000 1635,9000 1555,9000 1555,9050 1505,9050 1505,9000 1505,8950 1505,8950 1555,8950 2115,8950 2115,8900 1555,8900 1475,8900 1475,8950 1395,8950 1395,9150 1345,9150 1345,8900 1345,8850 1345,8850 1395,8850 2115,8850 2115,8800 1395,8800 1285,8800 1285,8850 1120,8850 1120,9650 1045,9650 1045,8800 1045,8725 1045,8575 1120,8575 1120,8675 1285,8675 1285,8725 1395,8725 2115,8725 2115,8675 1395,8675 1345,8675 1345,8675 1345,8625 1345,8625 1395,8625 2115,8625 2115,8575 1395,8575 1285,8575 1285,8625 1210,8625 1210,8575 1210,8500 1210,8450 1285,8450 1285,8500 1395,8500 2115,8500 2115,8450 1395,8450 1345,8450 1345,8450 1345,8400 1345,8400 1395,8400 2115,8400 2115,8350 1395,8350 1285,8350 1285,8400 1120,8400 1120,8500 955,8500 955,8725 880,8725 880,8350 880,8275 880,7700 955,7700 955,8025 1120,8025 1120,8125 1285,8125 1285,8225 1395,8225 1395,8275 1475,8275 2115,8275 2115,8225 1475,8225 1425,8225 1425,8225 1425,8175 1425,8175 1475,8175 2115,8175 2115,8125 1475,8125 1395,8125 1395,8175 1345,8175 1345,8125 1345,8075 1345,8075 1395,8075 2115,8075 2115,8025 1395,8025 1285,8025 1285,8075 1210,8075 1210,8025 1210,7950 1210,7800 1285,7800 1285,7900 1395,7900 1395,7950 1505,7950 2115,7950 2115,7900 1505,7900 1455,7900 1455,7900 1455,7850 1455,7850 1505,7850 2115,7850 2115,7800 1505,7800 1395,7800 1395,7850 1345,7850 1345,7800 1345,7750 1345,7750 1395,7750 2115,7750 2115,7700 1395,7700 1285,7700 1285,7750 1120,7750 1120,7950 1045,7950 1045,7700 1045,7625 1045,7375 1120,7375 1120,7475 1285,7475 1285,7575 1395,7575 1395,7625 1475,7625 2115,7625 2115,7575 1475,7575 1425,7575 1425,7575 1425,7525 1425,7525 1475,7525 2115,7525 2115,7475 1475,7475 1395,7475 1395,7525 1345,7525 1345,7475 1345,7425 1345,7425 1395,7425 2115,7425 2115,7375 1395,7375 1285,7375 1285,7425 1210,7425 1210,7375 1210,7300 1210,7300 1285,7300 2115,7300 2115,7250 1285,7250 1120,7250 1120,7300 955,7300 955,7625 760,7625 760,8275 710,8275 710,7250 710,7200 710,6250 760,6250 760,6650 870,6650 870,6850 950,6850 950,6950 1030,6950 1030,7050 1110,7050 1110,7150 1190,7150 1190,7200 1270,7200 2115,7200 2115,7150 1270,7150 1220,7150 1220,7150 1220,7100 1220,7100 1270,7100 2115,7100 2115,7050 1270,7050 1190,7050 1190,7100 1140,7100 1140,7050 1140,7000 1140,7000 1190,7000 2115,7000 2115,6950 1190,6950 1110,6950 1110,7000 1060,7000 1060,6950 1060,6900 1060,6900 1110,6900 2115,6900 2115,6850 1110,6850 1030,6850 1030,6900 980,6900 980,6850 980,6800 980,6750 1030,6750 1030,6800 1110,6800 2115,6800 2115,6750 1110,6750 1060,6750 1060,6750 1060,6700 1060,6700 1110,6700 2115,6700 2115,6650 1110,6650 1030,6650 1030,6700 950,6700 950,6800 900,6800 900,6650 900,6600 900,6450 950,6450 950,6550 1030,6550 1030,6600 1110,6600 2115,6600 2115,6550 1110,6550 1060,6550 1060,6550 1060,6500 1060,6500 1110,6500 2115,6500 2115,6450 1110,6450 1030,6450 1030,6500 980,6500 980,6450 980,6400 980,6350 1030,6350 1030,6400 1110,6400 2115,6400 2115,6350 1110,6350 1060,6350 1060,6350 1060,6300 1060,6300 1110,6300 2115,6300 2115,6250 1110,6250 1030,6250 1030,6300 950,6300 950,6400 870,6400 870,6600 820,6600 820,6250 820,6200 820,5950 870,5950 870,6050 950,6050 950,6150 1030,6150 1030,6200 1110,6200 2115,6200 2115,6150 1110,6150 1060,6150 1060,6150 1060,6100 1060,6100 1110,6100 2115,6100 2115,6050 1110,6050 1030,6050 1030,6100 980,6100 980,6050 980,6000 980,6000 1030,6000 2115,6000 2115,5950 1030,5950 950,5950 950,6000 900,6000 900,5950 900,5900 900,5900 950,5900 2115,5900 2115,5850 950,5850 870,5850 870,5900 760,5900 760,6200 650,6200 650,7200 600,7200 600,5850 600,5800 600,5050 650,5050 650,5350 760,5350 760,5550 840,5550 840,5650 920,5650 920,5750 1000,5750 1000,5800 1080,5800 2115,5800 2115,5750 1080,5750 1030,5750 1030,5750 1030,5700 1030,5700 1080,5700 2115,5700 2115,5650 1080,5650 1000,5650 1000,5700 950,5700 950,5650 950,5600 950,5600 1000,5600 2115,5600 2115,5550 1000,5550 920,5550 920,5600 870,5600 870,5550 870,5500 870,5450 920,5450 920,5500 1000,5500 2115,5500 2115,5450 1000,5450 950,5450 950,5450 950,5400 950,5400 1000,5400 2115,5400 2115,5350 1000,5350 920,5350 920,5400 840,5400 840,5500 790,5500 790,5350 790,5300 790,5150 840,5150 840,5250 920,5250 920,5300 1000,5300 2115,5300 2115,5250 1000,5250 950,5250 950,5250 950,5200 950,5200 1000,5200 2115,5200 2115,5150 1000,5150 920,5150 920,5200 870,5200 870,5150 870,5100 870,5100 920,5100 2115,5100 2115,5050 920,5050 840,5050 840,5100 760,5100 760,5300 710,5300 710,5050 710,5000 710,4650 760,4650 760,4850 840,4850 840,4950 920,4950 920,5000 1000,5000 2115,5000 2115,4950 1000,4950 950,4950 950,4950 950,4900 950,4900 1000,4900 2115,4900 2115,4850 1000,4850 920,4850 920,4900 870,4900 870,4850 870,4800 870,4750 920,4750 920,4800 1000,4800 2115,4800 2115,4750 1000,4750 950,4750 950,4750 950,4700 950,4700 1000,4700 2115,4700 2115,4650 1000,4650 920,4650 920,4700 840,4700 840,4800 790,4800 790,4650 790,4600 790,4550 840,4550 840,4600 920,4600 2115,4600 2115,4550 920,4550 870,4550 870,4550 870,4500 870,4500 920,4500 2115,4500 2115,4450 920,4450 840,4450 840,4500 760,4500 760,4600 650,4600 650,5000 540,5000 540,5800 430,5800 430,10775 380,10775 380,4450 380,4400 380,4350 430,4350 430,4400 540,4400 2115,4400 2115,4350 540,4350 490,4350 490,4350 490,4300 490,4300 540,4300 2115,4300 2115,4250 540,4250 430,4250 430,4300 320,4300 320,4400 270,4400 270,4250 270,4200 270,1550 320,1550 320,1650 430,1650 430,2950 540,2950 540,3050 650,3050 650,3350 760,3350 760,3450 840,3450 840,3650 920,3650 920,3750 1000,3750 1000,3950 1080,3950 1080,4050 1160,4050 1160,4150 1240,4150 1240,4200 1320,4200 2115,4200 2115,4150 1320,4150 1270,4150 1270,4150 1270,4100 1270,4100 1320,4100 2115,4100 2115,4050 1320,4050 1240,4050 1240,4100 1190,4100 1190,4050 1190,4000 1190,4000 1240,4000 2115,4000 2115,3950 1240,3950 1160,3950 1160,4000 1110,4000 1110,3950 1110,3900 1110,3850 1160,3850 1160,3900 1240,3900 2115,3900 2115,3850 1240,3850 1190,3850 1190,3850 1190,3800 1190,3800 1240,3800 2115,3800 2115,3750 1240,3750 1160,3750 1160,3800 1080,3800 1080,3900 1030,3900 1030,3750 1030,3700 1030,3700 1080,3700 2115,3700 2115,3650 1080,3650 1000,3650 1000,3700 950,3700 950,3650 950,3600 950,3550 1000,3550 1000,3600 1080,3600 2115,3600 2115,3550 1080,3550 1030,3550 1030,3550 1030,3500 1030,3500 1080,3500 2115,3500 2115,3450 1080,3450 1000,3450 1000,3500 920,3500 920,3600 870,3600 870,3450 870,3400 870,3400 920,3400 2115,3400 2115,3350 920,3350 840,3350 840,3400 790,3400 790,3350 790,3300 790,3150 840,3150 840,3250 920,3250 920,3300 1000,3300 2115,3300 2115,3250 1000,3250 950,3250 950,3250 950,3200 950,3200 1000,3200 2115,3200 2115,3150 1000,3150 920,3150 920,3200 870,3200 870,3150 870,3100 870,3100 920,3100 2115,3100 2115,3050 920,3050 840,3050 840,3100 760,3100 760,3300 710,3300 710,3050 710,3000 710,3000 760,3000 2115,3000 2115,2950 760,2950 650,2950 650,3000 600,3000 600,2950 600,2900 600,2150 650,2150 650,2450 760,2450 760,2550 870,2550 870,2650 980,2650 980,2750 1060,2750 1060,2850 1140,2850 1140,2900 1220,2900 2115,2900 2115,2850 1220,2850 1170,2850 1170,2850 1170,2800 1170,2800 1220,2800 2115,2800 2115,2750 1220,2750 1140,2750 1140,2800 1090,2800 1090,2750 1090,2700 1090,2700 1140,2700 2115,2700 2115,2650 1140,2650 1060,2650 1060,2700 1010,2700 1010,2650 1010,2600 1010,2600 1060,2600 2115,2600 2115,2550 1060,2550 980,2550 980,2600 930,2600 930,2550 930,2500 930,2500 980,2500 2115,2500 2115,2450 980,2450 870,2450 870,2500 820,2500 820,2450 820,2400 820,2250 870,2250 870,2350 980,2350 980,2400 1090,2400 2115,2400 2115,2350 1090,2350 1040,2350 1040,2350 1040,2300 1040,2300 1090,2300 2115,2300 2115,2250 1090,2250 980,2250 980,2300 930,2300 930,2250 930,2200 930,2200 980,2200 2115,2200 2115,2150 980,2150 870,2150 870,2200 760,2200 760,2400 710,2400 710,2150 710,2100 710,1750 760,1750 760,1950 870,1950 870,2050 950,2050 950,2100 1030,2100 2115,2100 2115,2050 1030,2050 980,2050 980,2050 980,2000 980,2000 1030,2000 2115,2000 2115,1950 1030,1950 950,1950 950,2000 900,2000 900,1950 900,1900 900,1850 950,1850 950,1900 1030,1900 2115,1900 2115,1850 1030,1850 980,1850 980,1850 980,1800 980,1800 1030,1800 2115,1800 2115,1750 1030,1750 950,1750 950,1800 870,1800 870,1900 820,1900 820,1750 820,1700 820,1700 870,1700 2115,1700 2115,1650 870,1650 760,1650 760,1700 650,1700 650,2100 540,2100 540,2900 490,2900 490,1650 490,1600 490,1600 540,1600 2115,1600 2115,1550 540,1550 430,1550 430,1600 380,1600 380,1550 380,1500 380,950 430,950 430,1150 540,1150 540,1250 650,1250 650,1350 730,1350 730,1450 810,1450 810,1500 890,1500 2115,1500 2115,1450 890,1450 840,1450 840,1450 840,1400 840,1400 890,1400 2115,1400 2115,1350 890,1350 810,1350 810,1400 760,1400 760,1350 760,1300 760,1300 810,1300 2115,1300 2115,1250 810,1250 730,1250 730,1300 680,1300 680,1250 680,1200 680,1200 730,1200 2115,1200 2115,1150 730,1150 650,1150 650,1200 600,1200 600,1150 600,1100 600,1050 650,1050 650,1100 730,1100 2115,1100 2115,1050 730,1050 680,1050 680,1050 680,1000 680,1000 730,1000 2115,1000 2115,950 730,950 650,950 650,1000 540,1000 540,1100 490,1100 490,950 490,900 490,550 540,550 540,750 650,750 650,850 760,850 760,900 870,900 2115,900 2115,850 870,850 820,850 820,850 820,800 820,800 870,800 2115,800 2115,750 870,750 760,750 760,800 710,800 710,750 710,700 710,650 760,650 760,700 870,700 2115,700 2115,650 870,650 820,650 820,650 820,600 820,600 870,600 2115,600 2115,550 870,550 760,550 760,600 650,600 650,700 600,700 600,550 600,500 600,500 650,500 2115,500 2115,450 650,450 540,450 540,500 430,500 430,900 320,900 320,1500 210,1500 210,4200 160,4200 160,450 160,400 160,350 210,350 210,400 290,400 2115,400 2115,350 290,350 240,350 240,350 240,300 240,300 290,300 2115,300 2115,250 290,250 210,250 210,300 130,300 130,400 80,400 80,250 80,200 80,150 130,150 130,200 210,200 2115,200 2115,150 210,150 160,150 160,150 160,100 160,100 210,100 2115,100 2115,50 210,50 130,50 130,100 50,100 50,200 " fill="rgb(255,255,255)" stroke-width="10" stroke="rgb(120,120,120)" />
	<text x="2037" y="18632" fill="rgb(0,0,0)" font-size="24" font-family="Verdana" >macNig</text>
	<text x="2037" y="18532" fill="rgb(0,0,0)" font-size="24" font-family="Verdana" >macOrc</text>
	<text x="2037" y="18432" fill="rgb(0,0,0)" font-size="24" font-family="Verdana" >macMau</text>
	<text x="2037" y="18332" fill="rgb(0,0,0)" font-size="24" font-family="Verdana" >macTon</text>
	<text x="2037" y="18232" fill="rgb(0,0,0)" font-size="24" font-family="Verdana" >macNem</text>
	<text x="2037" y="18132" fill="rgb(0,0,0)" font-size="24" font-family="Verdana" >macSil</text>
	<text x="2037" y="18032" fill="rgb(0,0,0)" font-size="24" font-family="Verdana" >macSib</text>
	<text x="2037" y="17932" fill="rgb(0,0,0)" font-size="24" font-family="Verdana" >macMul</text>
	<text x="2037" y="17832" fill="rgb(0,0,0)" font-size="24" font-family="Verdana" >macFus</text>
	<text x="2037" y="17732" fill="rgb(0,0,0)" font-size="24" font-family="Verdana" >macCyc</text>
	<text x="2037" y="17632" fill="rgb(0,0,0)" font-size="24" font-family="Verdana" >macFas</text>
	<text x="2037" y="17532" fill="rgb(0,0,0)" font-size="24" font-family="Verdana" >macArc</text>
	<text x="2037" y="17432" fill="rgb(0,0,0)" font-size="24" font-family="Verdana" >macThi</text>
	<text x="2037" y="17307" fill="rgb(0,0,0)" font-size="24" font-family="Verdana" >macSyl</text>
	<text x="2037" y="17182" fill="rgb(0,0,0)" font-size="24" font-family="Verdana" >papHam</text>
	<text x="2037" y="17082" fill="rgb(0,0,0)" font-size="24" font-family="Verdana" >papAnu</text>
	<text x="2037" y="16982" fill="rgb(0,0,0)" font-size="24" font-family="Verdana" >papPap</text>
	<text x="2037" y="16882" fill="rgb(0,0,0)" font-size="24" font-family="Verdana" >lopAte</text>
	<text x="2037" y="16782" fill="rgb(0,0,0)" font-size="24" font-family="Verdana" >lopAlb</text>
	<text x="2037" y="16657" fill="rgb(0,0,0)" font-size="24" font-family="Verdana" >theGel</text>
	<text x="2037" y="16532" fill="rgb(0,0,0)" font-size="24" font-family="Verdana" >cerAgi</text>
	<text x="2037" y="16432" fill="rgb(0,0,0)" font-size="24" font-family="Verdana" >cerChr</text>
	<text x="2037" y="16332" fill="rgb(0,0,0)" font-size="24" font-family="Verdana" >cerTor</text>
	<text x="2037" y="16207" fill="rgb(0,0,0)" font-size="24" font-family="Verdana" >manLeu</text>
	<text x="2037" y="16107" fill="rgb(0,0,0)" font-size="24" font-family="Verdana" >manSph</text>
	<text x="2037" y="16007" fill="rgb(0,0,0)" font-size="24" font-family="Verdana" >cerMit</text>
	<text x="2037" y="15907" fill="rgb(0,0,0)" font-size="24" font-family="Verdana" >cerAlb</text>
	<text x="2037" y="15807" fill="rgb(0,0,0)" font-size="24" font-family="Verdana" >cerCep</text>
	<text x="2037" y="15707" fill="rgb(0,0,0)" font-size="24" font-family="Verdana" >cerAsc</text>
	<text x="2037" y="15607" fill="rgb(0,0,0)" font-size="24" font-family="Verdana" >cerPet</text>
	<text x="2037" y="15507" fill="rgb(0,0,0)" font-size="24" font-family="Verdana" >cerDia</text>
	<text x="2037" y="15407" fill="rgb(0,0,0)" font-size="24" font-family="Verdana" >cerWol</text>
	<text x="2037" y="15307" fill="rgb(0,0,0)" font-size="24" font-family="Verdana" >cerMon</text>
	<text x="2037" y="15207" fill="rgb(0,0,0)" font-size="24" font-family="Verdana" >cerNeg</text>
	<text x="2037" y="15107" fill="rgb(0,0,0)" font-size="24" font-family="Verdana" >cerHam</text>
	<text x="2037" y="15007" fill="rgb(0,0,0)" font-size="24" font-family="Verdana" >mioOgo</text>
	<text x="2037" y="14907" fill="rgb(0,0,0)" font-size="24" font-family="Verdana" >chlAet</text>
	<text x="2037" y="14807" fill="rgb(0,0,0)" font-size="24" font-family="Verdana" >chlSab</text>
	<text x="2037" y="14707" fill="rgb(0,0,0)" font-size="24" font-family="Verdana" >chlCyn</text>
	<text x="2037" y="14607" fill="rgb(0,0,0)" font-size="24" font-family="Verdana" >eryPat</text>
	<text x="2037" y="14507" fill="rgb(0,0,0)" font-size="24" font-family="Verdana" >cerLho</text>
	<text x="2037" y="14407" fill="rgb(0,0,0)" font-size="24" font-family="Verdana" >allNig</text>
	<text x="2037" y="14307" fill="rgb(0,0,0)" font-size="24" font-family="Verdana" >traFra</text>
	<text x="2037" y="14207" fill="rgb(0,0,0)" font-size="24" font-family="Verdana" >traDel</text>
	<text x="2037" y="14107" fill="rgb(0,0,0)" font-size="24" font-family="Verdana" >traHat</text>
	<text x="2037" y="14007" fill="rgb(0,0,0)" font-size="24" font-family="Verdana" >traObs</text>
	<text x="2037" y="13907" fill="rgb(0,0,0)" font-size="24" font-family="Verdana" >traPha</text>
	<text x="2037" y="13807" fill="rgb(0,0,0)" font-size="24" font-family="Verdana" >traAur</text>
	<text x="2037" y="13707" fill="rgb(0,0,0)" font-size="24" font-family="Verdana" >semHec</text>
	<text x="2037" y="13607" fill="rgb(0,0,0)" font-size="24" font-family="Verdana" >semEnt</text>
	<text x="2037" y="13507" fill="rgb(0,0,0)" font-size="24" font-family="Verdana" >traVet</text>
	<text x="2037" y="13407" fill="rgb(0,0,0)" font-size="24" font-family="Verdana" >pygCin</text>
	<text x="2037" y="13307" fill="rgb(0,0,0)" font-size="24" font-family="Verdana" >pygNem</text>
	<text x="2037" y="13207" fill="rgb(0,0,0)" font-size="24" font-family="Verdana" >pygNig</text>
	<text x="2037" y="13107" fill="rgb(0,0,0)" font-size="24" font-family="Verdana" >nasLar</text>
	<text x="2037" y="13007" fill="rgb(0,0,0)" font-size="24" font-family="Verdana" >rhiRox</text>
	<text x="2037" y="12907" fill="rgb(0,0,0)" font-size="24" font-family="Verdana" >rhiBie</text>
	<text x="2037" y="12807" fill="rgb(0,0,0)" font-size="24" font-family="Verdana" >rhiBre</text>
	<text x="2037" y="12707" fill="rgb(0,0,0)" font-size="24" font-family="Verdana" >preMel</text>
	<text x="2037" y="12607" fill="rgb(0,0,0)" font-size="24" font-family="Verdana" >preCom</text>
	<text x="2037" y="12507" fill="rgb(0,0,0)" font-size="24" font-family="Verdana" >colGue</text>
	<text x="2037" y="12407" fill="rgb(0,0,0)" font-size="24" font-family="Verdana" >colPol</text>
	<text x="2037" y="12307" fill="rgb(0,0,0)" font-size="24" font-family="Verdana" >colAng</text>
	<text x="2037" y="12207" fill="rgb(0,0,0)" font-size="24" font-family="Verdana" >pilTep</text>
	<text x="2037" y="12107" fill="rgb(0,0,0)" font-size="24" font-family="Verdana" >hylMue</text>
	<text x="2037" y="12007" fill="rgb(0,0,0)" font-size="24" font-family="Verdana" >hylAgi</text>
	<text x="2037" y="11907" fill="rgb(0,0,0)" font-size="24" font-family="Verdana" >hylLar</text>
	<text x="2037" y="11807" fill="rgb(0,0,0)" font-size="24" font-family="Verdana" >symSyn</text>
	<text x="2037" y="11707" fill="rgb(0,0,0)" font-size="24" font-family="Verdana" >nomLeu</text>
	<text x="2037" y="11607" fill="rgb(0,0,0)" font-size="24" font-family="Verdana" >nomSik</text>
	<text x="2037" y="11507" fill="rgb(0,0,0)" font-size="24" font-family="Verdana" >nomGab</text>
	<text x="2037" y="11407" fill="rgb(0,0,0)" font-size="24" font-family="Verdana" >nomCon</text>
	<text x="2037" y="11307" fill="rgb(0,0,0)" font-size="24" font-family="Verdana" >panTro</text>
	<text x="2037" y="11207" fill="rgb(0,0,0)" font-size="24" font-family="Verdana" >panPan</text>
	<text x="2037" y="11107" fill="rgb(0,0,0)" font-size="24" font-family="Verdana" >homSap</text>
	<text x="2037" y="11007" fill="rgb(0,0,0)" font-size="24" font-family="Verdana" >gorGor</text>
	<text x="2037" y="10907" fill="rgb(0,0,0)" font-size="24" font-family="Verdana" >ponPyg</text>
	<text x="2037" y="10807" fill="rgb(0,0,0)" font-size="24" font-family="Verdana" >ponAbe</text>
	<text x="2037" y="10707" fill="rgb(0,0,0)" font-size="24" font-family="Verdana" >calJac</text>
	<text x="2037" y="10607" fill="rgb(0,0,0)" font-size="24" font-family="Verdana" >calPen</text>
	<text x="2037" y="10507" fill="rgb(0,0,0)" font-size="24" font-family="Verdana" >calKuh</text>
	<text x="2037" y="10407" fill="rgb(0,0,0)" font-size="24" font-family="Verdana" >calGeo</text>
	<text x="2037" y="10307" fill="rgb(0,0,0)" font-size="24" font-family="Verdana" >calAur</text>
	<text x="2037" y="10207" fill="rgb(0,0,0)" font-size="24" font-family="Verdana" >micArg</text>
	<text x="2037" y="10107" fill="rgb(0,0,0)" font-size="24" font-family="Verdana" >micHum</text>
	<text x="2037" y="10007" fill="rgb(0,0,0)" font-size="24" font-family="Verdana" >cebPyg</text>
	<text x="2037" y="9907" fill="rgb(0,0,0)" font-size="24" font-family="Verdana" >calGoe</text>
	<text x="2037" y="9807" fill="rgb(0,0,0)" font-size="24" font-family="Verdana" >leoRos</text>
	<text x="2037" y="9707" fill="rgb(0,0,0)" font-size="24" font-family="Verdana" >leoChr</text>
	<text x="2037" y="9582" fill="rgb(0,0,0)" font-size="24" font-family="Verdana" >sagMar</text>
	<text x="2037" y="9482" fill="rgb(0,0,0)" font-size="24" font-family="Verdana" >sagBic</text>
	<text x="2037" y="9382" fill="rgb(0,0,0)" font-size="24" font-family="Verdana" >sagMid</text>
	<text x="2037" y="9282" fill="rgb(0,0,0)" font-size="24" font-family="Verdana" >sagOed</text>
	<text x="2037" y="9182" fill="rgb(0,0,0)" font-size="24" font-family="Verdana" >sagGeo</text>
	<text x="2037" y="9082" fill="rgb(0,0,0)" font-size="24" font-family="Verdana" >sagMys</text>
	<text x="2037" y="8982" fill="rgb(0,0,0)" font-size="24" font-family="Verdana" >sagLab</text>
	<text x="2037" y="8882" fill="rgb(0,0,0)" font-size="24" font-family="Verdana" >sagImp</text>
	<text x="2037" y="8782" fill="rgb(0,0,0)" font-size="24" font-family="Verdana" >sagFus</text>
	<text x="2037" y="8657" fill="rgb(0,0,0)" font-size="24" font-family="Verdana" >aotAza</text>
	<text x="2037" y="8557" fill="rgb(0,0,0)" font-size="24" font-family="Verdana" >aotNan</text>
	<text x="2037" y="8432" fill="rgb(0,0,0)" font-size="24" font-family="Verdana" >aotTri</text>
	<text x="2037" y="8332" fill="rgb(0,0,0)" font-size="24" font-family="Verdana" >aotLem</text>
	<text x="2037" y="8207" fill="rgb(0,0,0)" font-size="24" font-family="Verdana" >cebXan</text>
	<text x="2037" y="8107" fill="rgb(0,0,0)" font-size="24" font-family="Verdana" >cebRob</text>
	<text x="2037" y="8007" fill="rgb(0,0,0)" font-size="24" font-family="Verdana" >cebApe</text>
	<text x="2037" y="7882" fill="rgb(0,0,0)" font-size="24" font-family="Verdana" >cebCap</text>
	<text x="2037" y="7782" fill="rgb(0,0,0)" font-size="24" font-family="Verdana" >cebAlb</text>
	<text x="2037" y="7682" fill="rgb(0,0,0)" font-size="24" font-family="Verdana" >cebOli</text>
	<text x="2037" y="7557" fill="rgb(0,0,0)" font-size="24" font-family="Verdana" >saiOer</text>
	<text x="2037" y="7457" fill="rgb(0,0,0)" font-size="24" font-family="Verdana" >saiSci</text>
	<text x="2037" y="7357" fill="rgb(0,0,0)" font-size="24" font-family="Verdana" >saiUst</text>
	<text x="2037" y="7232" fill="rgb(0,0,0)" font-size="24" font-family="Verdana" >saiBol</text>
	<text x="2037" y="7132" fill="rgb(0,0,0)" font-size="24" font-family="Verdana" >ateBel</text>
	<text x="2037" y="7032" fill="rgb(0,0,0)" font-size="24" font-family="Verdana" >ateGeo</text>
	<text x="2037" y="6932" fill="rgb(0,0,0)" font-size="24" font-family="Verdana" >ateHyb</text>
	<text x="2037" y="6832" fill="rgb(0,0,0)" font-size="24" font-family="Verdana" >ateFus</text>
	<text x="2037" y="6732" fill="rgb(0,0,0)" font-size="24" font-family="Verdana" >ateCha</text>
	<text x="2037" y="6632" fill="rgb(0,0,0)" font-size="24" font-family="Verdana" >atePan</text>
	<text x="2037" y="6532" fill="rgb(0,0,0)" font-size="24" font-family="Verdana" >braHyp</text>
	<text x="2037" y="6432" fill="rgb(0,0,0)" font-size="24" font-family="Verdana" >braAra</text>
	<text x="2037" y="6332" fill="rgb(0,0,0)" font-size="24" font-family="Verdana" >lagLag</text>
	<text x="2037" y="6232" fill="rgb(0,0,0)" font-size="24" font-family="Verdana" >lagCan</text>
	<text x="2037" y="6132" fill="rgb(0,0,0)" font-size="24" font-family="Verdana" >aloSar</text>
	<text x="2037" y="6032" fill="rgb(0,0,0)" font-size="24" font-family="Verdana" >aloCar</text>
	<text x="2037" y="5932" fill="rgb(0,0,0)" font-size="24" font-family="Verdana" >aloBel</text>
	<text x="2037" y="5832" fill="rgb(0,0,0)" font-size="24" font-family="Verdana" >aloPal</text>
	<text x="2037" y="5732" fill="rgb(0,0,0)" font-size="24" font-family="Verdana" >calMol</text>
	<text x="2037" y="5632" fill="rgb(0,0,0)" font-size="24" font-family="Verdana" >calBru</text>
	<text x="2037" y="5532" fill="rgb(0,0,0)" font-size="24" font-family="Verdana" >calCup</text>
	<text x="2037" y="5432" fill="rgb(0,0,0)" font-size="24" font-family="Verdana" >calCal</text>
	<text x="2037" y="5332" fill="rgb(0,0,0)" font-size="24" font-family="Verdana" >calDon</text>
	<text x="2037" y="5232" fill="rgb(0,0,0)" font-size="24" font-family="Verdana" >calCoi</text>
	<text x="2037" y="5132" fill="rgb(0,0,0)" font-size="24" font-family="Verdana" >calPer</text>
	<text x="2037" y="5032" fill="rgb(0,0,0)" font-size="24" font-family="Verdana" >calNig</text>
	<text x="2037" y="4932" fill="rgb(0,0,0)" font-size="24" font-family="Verdana" >chiIsr</text>
	<text x="2037" y="4832" fill="rgb(0,0,0)" font-size="24" font-family="Verdana" >chiSat</text>
	<text x="2037" y="4732" fill="rgb(0,0,0)" font-size="24" font-family="Verdana" >cacMel</text>
	<text x="2037" y="4632" fill="rgb(0,0,0)" font-size="24" font-family="Verdana" >cacCal</text>
	<text x="2037" y="4532" fill="rgb(0,0,0)" font-size="24" font-family="Verdana" >pitIrr</text>
	<text x="2037" y="4432" fill="rgb(0,0,0)" font-size="24" font-family="Verdana" >pitPit</text>
	<text x="2037" y="4332" fill="rgb(0,0,0)" font-size="24" font-family="Verdana" >carSyr</text>
	<text x="2037" y="4232" fill="rgb(0,0,0)" font-size="24" font-family="Verdana" >tarBan</text>
	<text x="2037" y="4132" fill="rgb(0,0,0)" font-size="24" font-family="Verdana" >eulRuf</text>
	<text x="2037" y="4032" fill="rgb(0,0,0)" font-size="24" font-family="Verdana" >eulCol</text>
	<text x="2037" y="3932" fill="rgb(0,0,0)" font-size="24" font-family="Verdana" >eulFul</text>
	<text x="2037" y="3832" fill="rgb(0,0,0)" font-size="24" font-family="Verdana" >eulSan</text>
	<text x="2037" y="3732" fill="rgb(0,0,0)" font-size="24" font-family="Verdana" >eulAlb</text>
	<text x="2037" y="3632" fill="rgb(0,0,0)" font-size="24" font-family="Verdana" >eulMon</text>
	<text x="2037" y="3532" fill="rgb(0,0,0)" font-size="24" font-family="Verdana" >eulMac</text>
	<text x="2037" y="3432" fill="rgb(0,0,0)" font-size="24" font-family="Verdana" >eulCor</text>
	<text x="2037" y="3332" fill="rgb(0,0,0)" font-size="24" font-family="Verdana" >eulRub</text>
	<text x="2037" y="3232" fill="rgb(0,0,0)" font-size="24" font-family="Verdana" >hapOcc</text>
	<text x="2037" y="3132" fill="rgb(0,0,0)" font-size="24" font-family="Verdana" >hapGri</text>
	<text x="2037" y="3032" fill="rgb(0,0,0)" font-size="24" font-family="Verdana" >lemCat</text>
	<text x="2037" y="2932" fill="rgb(0,0,0)" font-size="24" font-family="Verdana" >varVar</text>
	<text x="2037" y="2832" fill="rgb(0,0,0)" font-size="24" font-family="Verdana" >lepSep</text>
	<text x="2037" y="2732" fill="rgb(0,0,0)" font-size="24" font-family="Verdana" >lepAnk</text>
	<text x="2037" y="2632" fill="rgb(0,0,0)" font-size="24" font-family="Verdana" >lepDor</text>
	<text x="2037" y="2532" fill="rgb(0,0,0)" font-size="24" font-family="Verdana" >lepRuf</text>
	<text x="2037" y="2432" fill="rgb(0,0,0)" font-size="24" font-family="Verdana" >lepJam</text>
	<text x="2037" y="2332" fill="rgb(0,0,0)" font-size="24" font-family="Verdana" >micMur</text>
	<text x="2037" y="2232" fill="rgb(0,0,0)" font-size="24" font-family="Verdana" >mirZaz</text>
	<text x="2037" y="2132" fill="rgb(0,0,0)" font-size="24" font-family="Verdana" >cheMed</text>
	<text x="2037" y="2032" fill="rgb(0,0,0)" font-size="24" font-family="Verdana" >proVer</text>
	<text x="2037" y="1932" fill="rgb(0,0,0)" font-size="24" font-family="Verdana" >proTat</text>
	<text x="2037" y="1832" fill="rgb(0,0,0)" font-size="24" font-family="Verdana" >proDia</text>
	<text x="2037" y="1732" fill="rgb(0,0,0)" font-size="24" font-family="Verdana" >proEdw</text>
	<text x="2037" y="1632" fill="rgb(0,0,0)" font-size="24" font-family="Verdana" >avaLan</text>
	<text x="2037" y="1532" fill="rgb(0,0,0)" font-size="24" font-family="Verdana" >dauMad</text>
	<text x="2037" y="1432" fill="rgb(0,0,0)" font-size="24" font-family="Verdana" >nycBen</text>
	<text x="2037" y="1332" fill="rgb(0,0,0)" font-size="24" font-family="Verdana" >nycCou</text>
	<text x="2037" y="1232" fill="rgb(0,0,0)" font-size="24" font-family="Verdana" >nycPyg</text>
	<text x="2037" y="1132" fill="rgb(0,0,0)" font-size="24" font-family="Verdana" >lorTar</text>
	<text x="2037" y="1032" fill="rgb(0,0,0)" font-size="24" font-family="Verdana" >arcCal</text>
	<text x="2037" y="932" fill="rgb(0,0,0)" font-size="24" font-family="Verdana" >perPot</text>
	<text x="2037" y="832" fill="rgb(0,0,0)" font-size="24" font-family="Verdana" >galSen</text>
	<text x="2037" y="732" fill="rgb(0,0,0)" font-size="24" font-family="Verdana" >galMoh</text>
	<text x="2037" y="632" fill="rgb(0,0,0)" font-size="24" font-family="Verdana" >otoGar</text>
	<text x="2037" y="532" fill="rgb(0,0,0)" font-size="24" font-family="Verdana" >otoCra</text>
	<text x="2037" y="432" fill="rgb(0,0,0)" font-size="24" font-family="Verdana" >galTho</text>
	<text x="2037" y="332" fill="rgb(0,0,0)" font-size="24" font-family="Verdana" >galVar</text>
	<text x="2037" y="232" fill="rgb(0,0,0)" font-size="24" font-family="Verdana" >cynVol</text>
	<text x="2037" y="132" fill="rgb(0,0,0)" font-size="24" font-family="Verdana" >tupGli</text>
	<text x="2037" y="32" fill="rgb(0,0,0)" font-size="24" font-family="Verdana" >tupMin</text>
	<line x1="240" y1="4225" x2="240" y2="1525" stroke-width="3" stroke="rgb(65,170,190)" />
	<line x1="240" y1="1525" x2="350" y2="1525" stroke-width="3" stroke="rgb(65,170,190)" />
	<line x1="350" y1="1525" x2="350" y2="1625" stroke-width="3" stroke="rgb(65,170,190)" />
	<line x1="350" y1="1625" x2="460" y2="1625" stroke-width="3" stroke="rgb(65,170,190)" />
	<line x1="460" y1="1625" x2="460" y2="2925" stroke-width="3" stroke="rgb(65,170,190)" />
	<line x1="460" y1="2925" x2="570" y2="2925" stroke-width="3" stroke="rgb(65,170,190)" />
	<line x1="570" y1="2925" x2="570" y2="3025" stroke-width="3" stroke="rgb(65,170,190)" />
	<line x1="570" y1="3025" x2="680" y2="3025" stroke-width="3" stroke="rgb(65,170,190)" />
	<line x1="692.5" y1="3012.5" x2="667.5" y2="3037.5" stroke-width="8.33333" stroke="rgb(65,170,190)" />
	<line x1="692.5" y1="3037.5" x2="667.5" y2="3012.5" stroke-width="8.33333" stroke="rgb(65,170,190)" />
	<line x1="570" y1="2925" x2="570" y2="2125" stroke-width="3" stroke="rgb(65,170,190)" />
	<line x1="570" y1="2125" x2="680" y2="2125" stroke-width="3" stroke="rgb(65,170,190)" />
	<line x1="680" y1="2125" x2="680" y2="2425" stroke-width="3" stroke="rgb(65,170,190)" />
	<line x1="680" y1="2425" x2="790" y2="2425" stroke-width="3" stroke="rgb(65,170,190)" />
	<line x1="790" y1="2425" x2="790" y2="2525" stroke-width="3" stroke="rgb(65,170,190)" />
	<line x1="790" y1="2525" x2="900" y2="2525" stroke-width="3" stroke="rgb(65,170,190)" />
	<line x1="912.5" y1="2512.5" x2="887.5" y2="2537.5" stroke-width="8.33333" stroke="rgb(65,170,190)" />
	<line x1="912.5" y1="2537.5" x2="887.5" y2="2512.5" stroke-width="8.33333" stroke="rgb(65,170,190)" />
	<line x1="790" y1="2425" x2="790" y2="2225" stroke-width="3" stroke="rgb(65,170,190)" />
	<line x1="790" y1="2225" x2="900" y2="2225" stroke-width="3" stroke="rgb(65,170,190)" />
	<line x1="900" y1="2225" x2="900" y2="2325" stroke-width="3" stroke="rgb(65,170,190)" />
	<line x1="900" y1="2325" x2="1010" y2="2325" stroke-width="3" stroke="rgb(65,170,190)" />
	<line x1="1010" y1="2325" x2="1010" y2="2375" stroke-width="3" stroke="rgb(65,170,190)" />
	<line x1="1010" y1="2375" x2="2115" y2="2375" stroke-width="3" stroke="rgb(65,170,190)" />
	<text x="2140" y="2375" fill="rgb(65,170,190)" font-size="18" font-family="Verdana" >micMur_RHO_XM_012785306</text>
	<line x1="1010" y1="2325" x2="1010" y2="2275" stroke-width="3" stroke="rgb(65,170,190)" />
	<line x1="1010" y1="2275" x2="1120" y2="2275" stroke-width="3" stroke="rgb(65,170,190)" />
	<line x1="1132.5" y1="2262.5" x2="1107.5" y2="2287.5" stroke-width="8.33333" stroke="rgb(65,170,190)" />
	<line x1="1132.5" y1="2287.5" x2="1107.5" y2="2262.5" stroke-width="8.33333" stroke="rgb(65,170,190)" />
	<line x1="900" y1="2225" x2="900" y2="2175" stroke-width="3" stroke="rgb(65,170,190)" />
	<line x1="900" y1="2175" x2="1010" y2="2175" stroke-width="3" stroke="rgb(65,170,190)" />
	<line x1="1022.5" y1="2162.5" x2="997.5" y2="2187.5" stroke-width="8.33333" stroke="rgb(65,170,190)" />
	<line x1="1022.5" y1="2187.5" x2="997.5" y2="2162.5" stroke-width="8.33333" stroke="rgb(65,170,190)" />
	<line x1="680" y1="2125" x2="680" y2="1725" stroke-width="3" stroke="rgb(65,170,190)" />
	<line x1="680" y1="1725" x2="790" y2="1725" stroke-width="3" stroke="rgb(65,170,190)" />
	<line x1="802.5" y1="1712.5" x2="777.5" y2="1737.5" stroke-width="8.33333" stroke="rgb(65,170,190)" />
	<line x1="802.5" y1="1737.5" x2="777.5" y2="1712.5" stroke-width="8.33333" stroke="rgb(65,170,190)" />
	<line x1="460" y1="1625" x2="460" y2="1575" stroke-width="3" stroke="rgb(65,170,190)" />
	<line x1="460" y1="1575" x2="570" y2="1575" stroke-width="3" stroke="rgb(65,170,190)" />
	<line x1="582.5" y1="1562.5" x2="557.5" y2="1587.5" stroke-width="8.33333" stroke="rgb(65,170,190)" />
	<line x1="582.5" y1="1587.5" x2="557.5" y2="1562.5" stroke-width="8.33333" stroke="rgb(65,170,190)" />
	<line x1="350" y1="1525" x2="350" y2="925" stroke-width="3" stroke="rgb(65,170,190)" />
	<line x1="350" y1="925" x2="460" y2="925" stroke-width="3" stroke="rgb(65,170,190)" />
	<line x1="460" y1="925" x2="460" y2="1125" stroke-width="3" stroke="rgb(65,170,190)" />
	<line x1="460" y1="1125" x2="570" y2="1125" stroke-width="3" stroke="rgb(65,170,190)" />
	<line x1="582.5" y1="1112.5" x2="557.5" y2="1137.5" stroke-width="8.33333" stroke="rgb(65,170,190)" />
	<line x1="582.5" y1="1137.5" x2="557.5" y2="1112.5" stroke-width="8.33333" stroke="rgb(65,170,190)" />
	<line x1="460" y1="925" x2="460" y2="525" stroke-width="3" stroke="rgb(65,170,190)" />
	<line x1="460" y1="525" x2="570" y2="525" stroke-width="3" stroke="rgb(65,170,190)" />
	<line x1="570" y1="525" x2="570" y2="725" stroke-width="3" stroke="rgb(65,170,190)" />
	<line x1="570" y1="725" x2="680" y2="725" stroke-width="3" stroke="rgb(65,170,190)" />
	<line x1="680" y1="725" x2="680" y2="625" stroke-width="3" stroke="rgb(65,170,190)" />
	<line x1="680" y1="625" x2="790" y2="625" stroke-width="3" stroke="rgb(65,170,190)" />
	<line x1="790" y1="625" x2="790" y2="575" stroke-width="3" stroke="rgb(65,170,190)" />
	<line x1="790" y1="575" x2="2115" y2="575" stroke-width="3" stroke="rgb(65,170,190)" />
	<text x="2140" y="575" fill="rgb(65,170,190)" font-size="18" font-family="Verdana" >otoCra_RH1_AB112591</text>
	<line x1="790" y1="625" x2="790" y2="675" stroke-width="3" stroke="rgb(65,170,190)" />
	<line x1="790" y1="675" x2="2115" y2="675" stroke-width="3" stroke="rgb(65,170,190)" />
	<text x="2140" y="675" fill="rgb(65,170,190)" font-size="18" font-family="Verdana" >otoGar_RHO_XM_003796229</text>
	<line x1="680" y1="725" x2="680" y2="825" stroke-width="3" stroke="rgb(65,170,190)" />
	<line x1="680" y1="825" x2="790" y2="825" stroke-width="3" stroke="rgb(65,170,190)" />
	<line x1="802.5" y1="812.5" x2="777.5" y2="837.5" stroke-width="8.33333" stroke="rgb(65,170,190)" />
	<line x1="802.5" y1="837.5" x2="777.5" y2="812.5" stroke-width="8.33333" stroke="rgb(65,170,190)" />
	<line x1="570" y1="525" x2="570" y2="475" stroke-width="3" stroke="rgb(65,170,190)" />
	<line x1="570" y1="475" x2="680" y2="475" stroke-width="3" stroke="rgb(65,170,190)" />
	<line x1="692.5" y1="462.5" x2="667.5" y2="487.5" stroke-width="8.33333" stroke="rgb(65,170,190)" />
	<line x1="692.5" y1="487.5" x2="667.5" y2="462.5" stroke-width="8.33333" stroke="rgb(65,170,190)" />
	<line x1="240" y1="4225" x2="240" y2="4425" stroke-width="3" stroke="rgb(65,170,190)" />
	<line x1="240" y1="4425" x2="350" y2="4425" stroke-width="3" stroke="rgb(65,170,190)" />
	<line x1="350" y1="4425" x2="350" y2="10800" stroke-width="3" stroke="rgb(65,170,190)" />
	<line x1="350" y1="10800" x2="460" y2="10800" stroke-width="3" stroke="rgb(65,170,190)" />
	<line x1="460" y1="10800" x2="460" y2="12200" stroke-width="3" stroke="rgb(65,170,190)" />
	<line x1="460" y1="12200" x2="570" y2="12200" stroke-width="3" stroke="rgb(65,170,190)" />
	<line x1="570" y1="12200" x2="570" y2="14400" stroke-width="3" stroke="rgb(65,170,190)" />
	<line x1="570" y1="14400" x2="680" y2="14400" stroke-width="3" stroke="rgb(65,170,190)" />
	<line x1="680" y1="14400" x2="680" y2="16100" stroke-width="3" stroke="rgb(65,170,190)" />
	<line x1="680" y1="16100" x2="790" y2="16100" stroke-width="3" stroke="rgb(65,170,190)" />
	<line x1="790" y1="16100" x2="790" y2="17300" stroke-width="3" stroke="rgb(65,170,190)" />
	<line x1="790" y1="17300" x2="900" y2="17300" stroke-width="3" stroke="rgb(65,170,190)" />
	<line x1="900" y1="17300" x2="900" y2="17275" stroke-width="3" stroke="rgb(65,170,190)" />
	<line x1="900" y1="17275" x2="930" y2="17275" stroke-width="3" stroke="rgb(65,170,190)" />
	<line x1="930" y1="17275" x2="930" y2="17400" stroke-width="3" stroke="rgb(65,170,190)" />
	<line x1="930" y1="17400" x2="1095" y2="17400" stroke-width="3" stroke="rgb(65,170,190)" />
	<line x1="1095" y1="17400" x2="1095" y2="18025" stroke-width="3" stroke="rgb(65,170,190)" />
	<line x1="1095" y1="18025" x2="1260" y2="18025" stroke-width="3" stroke="rgb(65,170,190)" />
	<line x1="1260" y1="18025" x2="1260" y2="18325" stroke-width="3" stroke="rgb(65,170,190)" />
	<line x1="1260" y1="18325" x2="1370" y2="18325" stroke-width="3" stroke="rgb(65,170,190)" />
	<line x1="1370" y1="18325" x2="1370" y2="18525" stroke-width="3" stroke="rgb(65,170,190)" />
	<line x1="1370" y1="18525" x2="1480" y2="18525" stroke-width="3" stroke="rgb(65,170,190)" />
	<line x1="1492.5" y1="18512.5" x2="1467.5" y2="18537.5" stroke-width="8.33333" stroke="rgb(65,170,190)" />
	<line x1="1492.5" y1="18537.5" x2="1467.5" y2="18512.5" stroke-width="8.33333" stroke="rgb(65,170,190)" />
	<line x1="1370" y1="18325" x2="1370" y2="18125" stroke-width="3" stroke="rgb(65,170,190)" />
	<line x1="1370" y1="18125" x2="1480" y2="18125" stroke-width="3" stroke="rgb(65,170,190)" />
	<line x1="1480" y1="18125" x2="1480" y2="18225" stroke-width="3" stroke="rgb(65,170,190)" />
	<line x1="1480" y1="18225" x2="1590" y2="18225" stroke-width="3" stroke="rgb(65,170,190)" />
	<line x1="1590" y1="18225" x2="1590" y2="18275" stroke-width="3" stroke="rgb(65,170,190)" />
	<line x1="1590" y1="18275" x2="2115" y2="18275" stroke-width="3" stroke="rgb(65,170,190)" />
	<text x="2140" y="18275" fill="rgb(65,170,190)" font-size="18" font-family="Verdana" >macNem_RHO_XM_011734526</text>
	<line x1="1590" y1="18225" x2="1590" y2="18175" stroke-width="3" stroke="rgb(65,170,190)" />
	<line x1="1590" y1="18175" x2="1700" y2="18175" stroke-width="3" stroke="rgb(65,170,190)" />
	<line x1="1712.5" y1="18162.5" x2="1687.5" y2="18187.5" stroke-width="8.33333" stroke="rgb(65,170,190)" />
	<line x1="1712.5" y1="18187.5" x2="1687.5" y2="18162.5" stroke-width="8.33333" stroke="rgb(65,170,190)" />
	<line x1="1480" y1="18125" x2="1480" y2="18075" stroke-width="3" stroke="rgb(65,170,190)" />
	<line x1="1480" y1="18075" x2="1590" y2="18075" stroke-width="3" stroke="rgb(65,170,190)" />
	<line x1="1602.5" y1="18062.5" x2="1577.5" y2="18087.5" stroke-width="8.33333" stroke="rgb(65,170,190)" />
	<line x1="1602.5" y1="18087.5" x2="1577.5" y2="18062.5" stroke-width="8.33333" stroke="rgb(65,170,190)" />
	<line x1="1260" y1="18025" x2="1260" y2="17625" stroke-width="3" stroke="rgb(65,170,190)" />
	<line x1="1260" y1="17625" x2="1370" y2="17625" stroke-width="3" stroke="rgb(65,170,190)" />
	<line x1="1370" y1="17625" x2="1370" y2="17725" stroke-width="3" stroke="rgb(65,170,190)" />
	<line x1="1370" y1="17725" x2="1480" y2="17725" stroke-width="3" stroke="rgb(65,170,190)" />
	<line x1="1480" y1="17725" x2="1480" y2="17675" stroke-width="3" stroke="rgb(65,170,190)" />
	<line x1="1480" y1="17675" x2="2115" y2="17675" stroke-width="3" stroke="rgb(65,170,190)" />
	<text x="2140" y="17675" fill="rgb(65,170,190)" font-size="18" font-family="Verdana" >macFas_RHO_S76579</text>
	<line x1="1480" y1="17725" x2="1480" y2="17825" stroke-width="3" stroke="rgb(65,170,190)" />
	<line x1="1480" y1="17825" x2="1590" y2="17825" stroke-width="3" stroke="rgb(65,170,190)" />
	<line x1="1590" y1="17825" x2="1590" y2="17925" stroke-width="3" stroke="rgb(65,170,190)" />
	<line x1="1590" y1="17925" x2="1700" y2="17925" stroke-width="3" stroke="rgb(65,170,190)" />
	<line x1="1700" y1="17925" x2="1700" y2="17975" stroke-width="3" stroke="rgb(65,170,190)" />
	<line x1="1700" y1="17975" x2="2115" y2="17975" stroke-width="3" stroke="rgb(65,170,190)" />
	<text x="2140" y="17975" fill="rgb(65,170,190)" font-size="18" font-family="Verdana" >macMul_RHO_XM_001094250</text>
	<line x1="1700" y1="17925" x2="1700" y2="17875" stroke-width="3" stroke="rgb(65,170,190)" />
	<line x1="1700" y1="17875" x2="1810" y2="17875" stroke-width="3" stroke="rgb(65,170,190)" />
	<line x1="1822.5" y1="17862.5" x2="1797.5" y2="17887.5" stroke-width="8.33333" stroke="rgb(65,170,190)" />
	<line x1="1822.5" y1="17887.5" x2="1797.5" y2="17862.5" stroke-width="8.33333" stroke="rgb(65,170,190)" />
	<line x1="1590" y1="17825" x2="1590" y2="17775" stroke-width="3" stroke="rgb(65,170,190)" />
	<line x1="1590" y1="17775" x2="1700" y2="17775" stroke-width="3" stroke="rgb(65,170,190)" />
	<line x1="1712.5" y1="17762.5" x2="1687.5" y2="17787.5" stroke-width="8.33333" stroke="rgb(65,170,190)" />
	<line x1="1712.5" y1="17787.5" x2="1687.5" y2="17762.5" stroke-width="8.33333" stroke="rgb(65,170,190)" />
	<line x1="1370" y1="17625" x2="1370" y2="17525" stroke-width="3" stroke="rgb(65,170,190)" />
	<line x1="1370" y1="17525" x2="1480" y2="17525" stroke-width="3" stroke="rgb(65,170,190)" />
	<line x1="1492.5" y1="17512.5" x2="1467.5" y2="17537.5" stroke-width="8.33333" stroke="rgb(65,170,190)" />
	<line x1="1492.5" y1="17537.5" x2="1467.5" y2="17512.5" stroke-width="8.33333" stroke="rgb(65,170,190)" />
	<line x1="1095" y1="17400" x2="1095" y2="17350" stroke-width="3" stroke="rgb(65,170,190)" />
	<line x1="1095" y1="17350" x2="1260" y2="17350" stroke-width="3" stroke="rgb(65,170,190)" />
	<line x1="1272.5" y1="17337.5" x2="1247.5" y2="17362.5" stroke-width="8.33333" stroke="rgb(65,170,190)" />
	<line x1="1272.5" y1="17362.5" x2="1247.5" y2="17337.5" stroke-width="8.33333" stroke="rgb(65,170,190)" />
	<line x1="930" y1="17275" x2="930" y2="16625" stroke-width="3" stroke="rgb(65,170,190)" />
	<line x1="930" y1="16625" x2="1095" y2="16625" stroke-width="3" stroke="rgb(65,170,190)" />
	<line x1="1095" y1="16625" x2="1095" y2="16750" stroke-width="3" stroke="rgb(65,170,190)" />
	<line x1="1095" y1="16750" x2="1260" y2="16750" stroke-width="3" stroke="rgb(65,170,190)" />
	<line x1="1260" y1="16750" x2="1260" y2="16700" stroke-width="3" stroke="rgb(65,170,190)" />
	<line x1="1260" y1="16700" x2="2115" y2="16700" stroke-width="3" stroke="rgb(65,170,190)" />
	<text x="2140" y="16700" fill="rgb(65,170,190)" font-size="18" font-family="Verdana" >theGel_RHO_XM_025377237</text>
	<line x1="1260" y1="16750" x2="1260" y2="16975" stroke-width="3" stroke="rgb(65,170,190)" />
	<line x1="1260" y1="16975" x2="1425" y2="16975" stroke-width="3" stroke="rgb(65,170,190)" />
	<line x1="1437.5" y1="16962.5" x2="1412.5" y2="16987.5" stroke-width="8.33333" stroke="rgb(65,170,190)" />
	<line x1="1437.5" y1="16987.5" x2="1412.5" y2="16962.5" stroke-width="8.33333" stroke="rgb(65,170,190)" />
	<line x1="1095" y1="16625" x2="1095" y2="16300" stroke-width="3" stroke="rgb(65,170,190)" />
	<line x1="1095" y1="16300" x2="1260" y2="16300" stroke-width="3" stroke="rgb(65,170,190)" />
	<line x1="1272.5" y1="16287.5" x2="1247.5" y2="16312.5" stroke-width="8.33333" stroke="rgb(65,170,190)" />
	<line x1="1272.5" y1="16312.5" x2="1247.5" y2="16287.5" stroke-width="8.33333" stroke="rgb(65,170,190)" />
	<line x1="900" y1="17300" x2="900" y2="17300" stroke-width="3" stroke="rgb(65,170,190)" />
	<line x1="900" y1="17300" x2="960" y2="17300" stroke-width="3" stroke="rgb(65,170,190)" />
	<line x1="960" y1="17300" x2="960" y2="17425" stroke-width="3" stroke="rgb(65,170,190)" />
	<line x1="960" y1="17425" x2="1125" y2="17425" stroke-width="3" stroke="rgb(65,170,190)" />
	<line x1="1137.5" y1="17412.5" x2="1112.5" y2="17437.5" stroke-width="8.33333" stroke="rgb(65,170,190)" />
	<line x1="1137.5" y1="17437.5" x2="1112.5" y2="17412.5" stroke-width="8.33333" stroke="rgb(65,170,190)" />
	<line x1="960" y1="17300" x2="960" y2="16650" stroke-width="3" stroke="rgb(65,170,190)" />
	<line x1="960" y1="16650" x2="1125" y2="16650" stroke-width="3" stroke="rgb(65,170,190)" />
	<line x1="1125" y1="16650" x2="1125" y2="16775" stroke-width="3" stroke="rgb(65,170,190)" />
	<line x1="1125" y1="16775" x2="1290" y2="16775" stroke-width="3" stroke="rgb(65,170,190)" />
	<line x1="1302.5" y1="16762.5" x2="1277.5" y2="16787.5" stroke-width="8.33333" stroke="rgb(65,170,190)" />
	<line x1="1302.5" y1="16787.5" x2="1277.5" y2="16762.5" stroke-width="8.33333" stroke="rgb(65,170,190)" />
	<line x1="1125" y1="16650" x2="1125" y2="16325" stroke-width="3" stroke="rgb(65,170,190)" />
	<line x1="1125" y1="16325" x2="1290" y2="16325" stroke-width="3" stroke="rgb(65,170,190)" />
	<line x1="1290" y1="16325" x2="1290" y2="16425" stroke-width="3" stroke="rgb(65,170,190)" />
	<line x1="1290" y1="16425" x2="1425" y2="16425" stroke-width="3" stroke="rgb(65,170,190)" />
	<line x1="1437.5" y1="16412.5" x2="1412.5" y2="16437.5" stroke-width="8.33333" stroke="rgb(65,170,190)" />
	<line x1="1437.5" y1="16437.5" x2="1412.5" y2="16412.5" stroke-width="8.33333" stroke="rgb(65,170,190)" />
	<line x1="1290" y1="16325" x2="1290" y2="16200" stroke-width="3" stroke="rgb(65,170,190)" />
	<line x1="1290" y1="16200" x2="1425" y2="16200" stroke-width="3" stroke="rgb(65,170,190)" />
	<line x1="1425" y1="16200" x2="1425" y2="16250" stroke-width="3" stroke="rgb(65,170,190)" />
	<line x1="1425" y1="16250" x2="2115" y2="16250" stroke-width="3" stroke="rgb(65,170,190)" />
	<text x="2140" y="16250" fill="rgb(65,170,190)" font-size="18" font-family="Verdana" >manLeu_RHO_XM_011974200</text>
	<line x1="1425" y1="16200" x2="1425" y2="16150" stroke-width="3" stroke="rgb(65,170,190)" />
	<line x1="1425" y1="16150" x2="1535" y2="16150" stroke-width="3" stroke="rgb(65,170,190)" />
	<line x1="1547.5" y1="16137.5" x2="1522.5" y2="16162.5" stroke-width="8.33333" stroke="rgb(65,170,190)" />
	<line x1="1547.5" y1="16162.5" x2="1522.5" y2="16137.5" stroke-width="8.33333" stroke="rgb(65,170,190)" />
	<rect x="887.5" y="17287.5" width="25" height="25" fill="rgb(65,170,190)" stroke-width="3" stroke="rgb(65,170,190)" />
	<line x1="790" y1="16100" x2="790" y2="15000" stroke-width="3" stroke="rgb(65,170,190)" />
	<line x1="790" y1="15000" x2="900" y2="15000" stroke-width="3" stroke="rgb(65,170,190)" />
	<line x1="900" y1="15000" x2="900" y2="15100" stroke-width="3" stroke="rgb(65,170,190)" />
	<line x1="900" y1="15100" x2="1010" y2="15100" stroke-width="3" stroke="rgb(65,170,190)" />
	<line x1="1022.5" y1="15087.5" x2="997.5" y2="15112.5" stroke-width="8.33333" stroke="rgb(65,170,190)" />
	<line x1="1022.5" y1="15112.5" x2="997.5" y2="15087.5" stroke-width="8.33333" stroke="rgb(65,170,190)" />
	<line x1="900" y1="15000" x2="900" y2="14500" stroke-width="3" stroke="rgb(65,170,190)" />
	<line x1="900" y1="14500" x2="1010" y2="14500" stroke-width="3" stroke="rgb(65,170,190)" />
	<line x1="1010" y1="14500" x2="1010" y2="14700" stroke-width="3" stroke="rgb(65,170,190)" />
	<line x1="1010" y1="14700" x2="1120" y2="14700" stroke-width="3" stroke="rgb(65,170,190)" />
	<line x1="1120" y1="14700" x2="1120" y2="14800" stroke-width="3" stroke="rgb(65,170,190)" />
	<line x1="1120" y1="14800" x2="1230" y2="14800" stroke-width="3" stroke="rgb(65,170,190)" />
	<line x1="1230" y1="14800" x2="1230" y2="14900" stroke-width="3" stroke="rgb(65,170,190)" />
	<line x1="1230" y1="14900" x2="1340" y2="14900" stroke-width="3" stroke="rgb(65,170,190)" />
	<line x1="1340" y1="14900" x2="1340" y2="14850" stroke-width="3" stroke="rgb(65,170,190)" />
	<line x1="1340" y1="14850" x2="2115" y2="14850" stroke-width="3" stroke="rgb(65,170,190)" />
	<text x="2140" y="14850" fill="rgb(65,170,190)" font-size="18" font-family="Verdana" >chlSab_RHO_XM_007985378</text>
	<line x1="1340" y1="14900" x2="1340" y2="14950" stroke-width="3" stroke="rgb(65,170,190)" />
	<line x1="1340" y1="14950" x2="1450" y2="14950" stroke-width="3" stroke="rgb(65,170,190)" />
	<line x1="1462.5" y1="14937.5" x2="1437.5" y2="14962.5" stroke-width="8.33333" stroke="rgb(65,170,190)" />
	<line x1="1462.5" y1="14962.5" x2="1437.5" y2="14937.5" stroke-width="8.33333" stroke="rgb(65,170,190)" />
	<line x1="1230" y1="14800" x2="1230" y2="14750" stroke-width="3" stroke="rgb(65,170,190)" />
	<line x1="1230" y1="14750" x2="1340" y2="14750" stroke-width="3" stroke="rgb(65,170,190)" />
	<line x1="1352.5" y1="14737.5" x2="1327.5" y2="14762.5" stroke-width="8.33333" stroke="rgb(65,170,190)" />
	<line x1="1352.5" y1="14762.5" x2="1327.5" y2="14737.5" stroke-width="8.33333" stroke="rgb(65,170,190)" />
	<line x1="1120" y1="14700" x2="1120" y2="14600" stroke-width="3" stroke="rgb(65,170,190)" />
	<line x1="1120" y1="14600" x2="1230" y2="14600" stroke-width="3" stroke="rgb(65,170,190)" />
	<line x1="1242.5" y1="14587.5" x2="1217.5" y2="14612.5" stroke-width="8.33333" stroke="rgb(65,170,190)" />
	<line x1="1242.5" y1="14612.5" x2="1217.5" y2="14587.5" stroke-width="8.33333" stroke="rgb(65,170,190)" />
	<line x1="1010" y1="14500" x2="1010" y2="14450" stroke-width="3" stroke="rgb(65,170,190)" />
	<line x1="1010" y1="14450" x2="1120" y2="14450" stroke-width="3" stroke="rgb(65,170,190)" />
	<line x1="1132.5" y1="14437.5" x2="1107.5" y2="14462.5" stroke-width="8.33333" stroke="rgb(65,170,190)" />
	<line x1="1132.5" y1="14462.5" x2="1107.5" y2="14437.5" stroke-width="8.33333" stroke="rgb(65,170,190)" />
	<line x1="680" y1="14400" x2="680" y2="12600" stroke-width="3" stroke="rgb(65,170,190)" />
	<line x1="680" y1="12600" x2="790" y2="12600" stroke-width="3" stroke="rgb(65,170,190)" />
	<line x1="790" y1="12600" x2="790" y2="12800" stroke-width="3" stroke="rgb(65,170,190)" />
	<line x1="790" y1="12800" x2="900" y2="12800" stroke-width="3" stroke="rgb(65,170,190)" />
	<line x1="900" y1="12800" x2="900" y2="13500" stroke-width="3" stroke="rgb(65,170,190)" />
	<line x1="900" y1="13500" x2="1010" y2="13500" stroke-width="3" stroke="rgb(65,170,190)" />
	<line x1="1010" y1="13500" x2="1010" y2="13800" stroke-width="3" stroke="rgb(65,170,190)" />
	<line x1="1010" y1="13800" x2="1120" y2="13800" stroke-width="3" stroke="rgb(65,170,190)" />
	<line x1="1132.5" y1="13787.5" x2="1107.5" y2="13812.5" stroke-width="8.33333" stroke="rgb(65,170,190)" />
	<line x1="1132.5" y1="13812.5" x2="1107.5" y2="13787.5" stroke-width="8.33333" stroke="rgb(65,170,190)" />
	<line x1="1010" y1="13500" x2="1010" y2="13100" stroke-width="3" stroke="rgb(65,170,190)" />
	<line x1="1010" y1="13100" x2="1120" y2="13100" stroke-width="3" stroke="rgb(65,170,190)" />
	<line x1="1120" y1="13100" x2="1120" y2="13200" stroke-width="3" stroke="rgb(65,170,190)" />
	<line x1="1120" y1="13200" x2="1230" y2="13200" stroke-width="3" stroke="rgb(65,170,190)" />
	<line x1="1242.5" y1="13187.5" x2="1217.5" y2="13212.5" stroke-width="8.33333" stroke="rgb(65,170,190)" />
	<line x1="1242.5" y1="13212.5" x2="1217.5" y2="13187.5" stroke-width="8.33333" stroke="rgb(65,170,190)" />
	<line x1="1120" y1="13100" x2="1120" y2="12900" stroke-width="3" stroke="rgb(65,170,190)" />
	<line x1="1120" y1="12900" x2="1230" y2="12900" stroke-width="3" stroke="rgb(65,170,190)" />
	<line x1="1230" y1="12900" x2="1230" y2="13000" stroke-width="3" stroke="rgb(65,170,190)" />
	<line x1="1230" y1="13000" x2="1340" y2="13000" stroke-width="3" stroke="rgb(65,170,190)" />
	<line x1="1340" y1="13000" x2="1340" y2="12950" stroke-width="3" stroke="rgb(65,170,190)" />
	<line x1="1340" y1="12950" x2="2115" y2="12950" stroke-width="3" stroke="rgb(65,170,190)" />
	<text x="2140" y="12950" fill="rgb(65,170,190)" font-size="18" font-family="Verdana" >rhiBie_RHO_XM_017885138</text>
	<line x1="1340" y1="13000" x2="1340" y2="13050" stroke-width="3" stroke="rgb(65,170,190)" />
	<line x1="1340" y1="13050" x2="2115" y2="13050" stroke-width="3" stroke="rgb(65,170,190)" />
	<text x="2140" y="13050" fill="rgb(65,170,190)" font-size="18" font-family="Verdana" >rhiRox_RHO_XM_010381505</text>
	<line x1="1230" y1="12900" x2="1230" y2="12850" stroke-width="3" stroke="rgb(65,170,190)" />
	<line x1="1230" y1="12850" x2="1340" y2="12850" stroke-width="3" stroke="rgb(65,170,190)" />
	<line x1="1352.5" y1="12837.5" x2="1327.5" y2="12862.5" stroke-width="8.33333" stroke="rgb(65,170,190)" />
	<line x1="1352.5" y1="12862.5" x2="1327.5" y2="12837.5" stroke-width="8.33333" stroke="rgb(65,170,190)" />
	<line x1="900" y1="12800" x2="900" y2="12700" stroke-width="3" stroke="rgb(65,170,190)" />
	<line x1="900" y1="12700" x2="1010" y2="12700" stroke-width="3" stroke="rgb(65,170,190)" />
	<line x1="1022.5" y1="12687.5" x2="997.5" y2="12712.5" stroke-width="8.33333" stroke="rgb(65,170,190)" />
	<line x1="1022.5" y1="12712.5" x2="997.5" y2="12687.5" stroke-width="8.33333" stroke="rgb(65,170,190)" />
	<line x1="790" y1="12600" x2="790" y2="12300" stroke-width="3" stroke="rgb(65,170,190)" />
	<line x1="790" y1="12300" x2="900" y2="12300" stroke-width="3" stroke="rgb(65,170,190)" />
	<line x1="900" y1="12300" x2="900" y2="12250" stroke-width="3" stroke="rgb(65,170,190)" />
	<line x1="900" y1="12250" x2="2115" y2="12250" stroke-width="3" stroke="rgb(65,170,190)" />
	<text x="2140" y="12250" fill="rgb(65,170,190)" font-size="18" font-family="Verdana" >pilTep_RHO_XM_023215965</text>
	<line x1="900" y1="12300" x2="900" y2="12400" stroke-width="3" stroke="rgb(65,170,190)" />
	<line x1="900" y1="12400" x2="1010" y2="12400" stroke-width="3" stroke="rgb(65,170,190)" />
	<line x1="1010" y1="12400" x2="1010" y2="12350" stroke-width="3" stroke="rgb(65,170,190)" />
	<line x1="1010" y1="12350" x2="2115" y2="12350" stroke-width="3" stroke="rgb(65,170,190)" />
	<text x="2140" y="12350" fill="rgb(65,170,190)" font-size="18" font-family="Verdana" >colAngPal_RHO_XM_011950692</text>
	<line x1="1010" y1="12400" x2="1010" y2="12500" stroke-width="3" stroke="rgb(65,170,190)" />
	<line x1="1010" y1="12500" x2="1120" y2="12500" stroke-width="3" stroke="rgb(65,170,190)" />
	<line x1="1132.5" y1="12487.5" x2="1107.5" y2="12512.5" stroke-width="8.33333" stroke="rgb(65,170,190)" />
	<line x1="1132.5" y1="12512.5" x2="1107.5" y2="12487.5" stroke-width="8.33333" stroke="rgb(65,170,190)" />
	<line x1="570" y1="12200" x2="570" y2="11400" stroke-width="3" stroke="rgb(65,170,190)" />
	<line x1="570" y1="11400" x2="680" y2="11400" stroke-width="3" stroke="rgb(65,170,190)" />
	<line x1="680" y1="11400" x2="680" y2="11800" stroke-width="3" stroke="rgb(65,170,190)" />
	<line x1="680" y1="11800" x2="790" y2="11800" stroke-width="3" stroke="rgb(65,170,190)" />
	<line x1="790" y1="11800" x2="790" y2="11900" stroke-width="3" stroke="rgb(65,170,190)" />
	<line x1="790" y1="11900" x2="900" y2="11900" stroke-width="3" stroke="rgb(65,170,190)" />
	<line x1="912.5" y1="11887.5" x2="887.5" y2="11912.5" stroke-width="8.33333" stroke="rgb(65,170,190)" />
	<line x1="912.5" y1="11912.5" x2="887.5" y2="11887.5" stroke-width="8.33333" stroke="rgb(65,170,190)" />
	<line x1="790" y1="11800" x2="790" y2="11600" stroke-width="3" stroke="rgb(65,170,190)" />
	<line x1="790" y1="11600" x2="900" y2="11600" stroke-width="3" stroke="rgb(65,170,190)" />
	<line x1="900" y1="11600" x2="900" y2="11700" stroke-width="3" stroke="rgb(65,170,190)" />
	<line x1="900" y1="11700" x2="1010" y2="11700" stroke-width="3" stroke="rgb(65,170,190)" />
	<line x1="1010" y1="11700" x2="1010" y2="11750" stroke-width="3" stroke="rgb(65,170,190)" />
	<line x1="1010" y1="11750" x2="2115" y2="11750" stroke-width="3" stroke="rgb(65,170,190)" />
	<text x="2140" y="11750" fill="rgb(65,170,190)" font-size="18" font-family="Verdana" >nomLeu_RHO_XM_003265030</text>
	<line x1="1010" y1="11700" x2="1010" y2="11650" stroke-width="3" stroke="rgb(65,170,190)" />
	<line x1="1010" y1="11650" x2="1120" y2="11650" stroke-width="3" stroke="rgb(65,170,190)" />
	<line x1="1132.5" y1="11637.5" x2="1107.5" y2="11662.5" stroke-width="8.33333" stroke="rgb(65,170,190)" />
	<line x1="1132.5" y1="11662.5" x2="1107.5" y2="11637.5" stroke-width="8.33333" stroke="rgb(65,170,190)" />
	<line x1="900" y1="11600" x2="900" y2="11500" stroke-width="3" stroke="rgb(65,170,190)" />
	<line x1="900" y1="11500" x2="1010" y2="11500" stroke-width="3" stroke="rgb(65,170,190)" />
	<line x1="1022.5" y1="11487.5" x2="997.5" y2="11512.5" stroke-width="8.33333" stroke="rgb(65,170,190)" />
	<line x1="1022.5" y1="11512.5" x2="997.5" y2="11487.5" stroke-width="8.33333" stroke="rgb(65,170,190)" />
	<line x1="680" y1="11400" x2="680" y2="11000" stroke-width="3" stroke="rgb(65,170,190)" />
	<line x1="680" y1="11000" x2="790" y2="11000" stroke-width="3" stroke="rgb(65,170,190)" />
	<line x1="790" y1="11000" x2="790" y2="11100" stroke-width="3" stroke="rgb(65,170,190)" />
	<line x1="790" y1="11100" x2="900" y2="11100" stroke-width="3" stroke="rgb(65,170,190)" />
	<line x1="900" y1="11100" x2="900" y2="11050" stroke-width="3" stroke="rgb(65,170,190)" />
	<line x1="900" y1="11050" x2="2115" y2="11050" stroke-width="3" stroke="rgb(65,170,190)" />
	<text x="2140" y="11050" fill="rgb(65,170,190)" font-size="18" font-family="Verdana" >gorGorGor_RHO_XM_004036292</text>
	<line x1="900" y1="11100" x2="900" y2="11200" stroke-width="3" stroke="rgb(65,170,190)" />
	<line x1="900" y1="11200" x2="1010" y2="11200" stroke-width="3" stroke="rgb(65,170,190)" />
	<line x1="1010" y1="11200" x2="1010" y2="11150" stroke-width="3" stroke="rgb(65,170,190)" />
	<line x1="1010" y1="11150" x2="2115" y2="11150" stroke-width="3" stroke="rgb(65,170,190)" />
	<text x="2140" y="11150" fill="rgb(65,170,190)" font-size="18" font-family="Verdana" >homSap_RHO_CCDS3063</text>
	<line x1="1010" y1="11200" x2="1010" y2="11300" stroke-width="3" stroke="rgb(65,170,190)" />
	<line x1="1010" y1="11300" x2="1120" y2="11300" stroke-width="3" stroke="rgb(65,170,190)" />
	<line x1="1120" y1="11300" x2="1120" y2="11250" stroke-width="3" stroke="rgb(65,170,190)" />
	<line x1="1120" y1="11250" x2="2115" y2="11250" stroke-width="3" stroke="rgb(65,170,190)" />
	<text x="2140" y="11250" fill="rgb(65,170,190)" font-size="18" font-family="Verdana" >panPan_RHO_XM_003829435</text>
	<line x1="1120" y1="11300" x2="1120" y2="11350" stroke-width="3" stroke="rgb(65,170,190)" />
	<line x1="1120" y1="11350" x2="2115" y2="11350" stroke-width="3" stroke="rgb(65,170,190)" />
	<text x="2140" y="11350" fill="rgb(65,170,190)" font-size="18" font-family="Verdana" >panTro_RHO_XM_516740</text>
	<line x1="790" y1="11000" x2="790" y2="10900" stroke-width="3" stroke="rgb(65,170,190)" />
	<line x1="790" y1="10900" x2="900" y2="10900" stroke-width="3" stroke="rgb(65,170,190)" />
	<line x1="900" y1="10900" x2="900" y2="10850" stroke-width="3" stroke="rgb(65,170,190)" />
	<line x1="900" y1="10850" x2="2115" y2="10850" stroke-width="3" stroke="rgb(65,170,190)" />
	<text x="2140" y="10850" fill="rgb(65,170,190)" font-size="18" font-family="Verdana" >ponAbe_RHO_XM_002813145</text>
	<line x1="900" y1="10900" x2="900" y2="10950" stroke-width="3" stroke="rgb(65,170,190)" />
	<line x1="900" y1="10950" x2="1010" y2="10950" stroke-width="3" stroke="rgb(65,170,190)" />
	<line x1="1022.5" y1="10937.5" x2="997.5" y2="10962.5" stroke-width="8.33333" stroke="rgb(65,170,190)" />
	<line x1="1022.5" y1="10962.5" x2="997.5" y2="10937.5" stroke-width="8.33333" stroke="rgb(65,170,190)" />
	<line x1="460" y1="10800" x2="460" y2="5825" stroke-width="3" stroke="rgb(65,170,190)" />
	<line x1="460" y1="5825" x2="570" y2="5825" stroke-width="3" stroke="rgb(65,170,190)" />
	<line x1="570" y1="5825" x2="570" y2="7225" stroke-width="3" stroke="rgb(65,170,190)" />
	<line x1="570" y1="7225" x2="680" y2="7225" stroke-width="3" stroke="rgb(65,170,190)" />
	<line x1="680" y1="7225" x2="680" y2="8325" stroke-width="3" stroke="rgb(65,170,190)" />
	<line x1="680" y1="8325" x2="790" y2="8325" stroke-width="3" stroke="rgb(65,170,190)" />
	<line x1="790" y1="8325" x2="790" y2="8300" stroke-width="3" stroke="rgb(65,170,190)" />
	<line x1="790" y1="8300" x2="820" y2="8300" stroke-width="3" stroke="rgb(65,170,190)" />
	<line x1="820" y1="8300" x2="820" y2="8750" stroke-width="3" stroke="rgb(65,170,190)" />
	<line x1="820" y1="8750" x2="985" y2="8750" stroke-width="3" stroke="rgb(65,170,190)" />
	<line x1="985" y1="8750" x2="985" y2="9675" stroke-width="3" stroke="rgb(65,170,190)" />
	<line x1="985" y1="9675" x2="1150" y2="9675" stroke-width="3" stroke="rgb(65,170,190)" />
	<line x1="1150" y1="9675" x2="1150" y2="9900" stroke-width="3" stroke="rgb(65,170,190)" />
	<line x1="1150" y1="9900" x2="1315" y2="9900" stroke-width="3" stroke="rgb(65,170,190)" />
	<line x1="1315" y1="9900" x2="1315" y2="10000" stroke-width="3" stroke="rgb(65,170,190)" />
	<line x1="1315" y1="10000" x2="1425" y2="10000" stroke-width="3" stroke="rgb(65,170,190)" />
	<line x1="1425" y1="10000" x2="1425" y2="10300" stroke-width="3" stroke="rgb(65,170,190)" />
	<line x1="1425" y1="10300" x2="1535" y2="10300" stroke-width="3" stroke="rgb(65,170,190)" />
	<line x1="1535" y1="10300" x2="1535" y2="10400" stroke-width="3" stroke="rgb(65,170,190)" />
	<line x1="1535" y1="10400" x2="1645" y2="10400" stroke-width="3" stroke="rgb(65,170,190)" />
	<line x1="1645" y1="10400" x2="1645" y2="10500" stroke-width="3" stroke="rgb(65,170,190)" />
	<line x1="1645" y1="10500" x2="1755" y2="10500" stroke-width="3" stroke="rgb(65,170,190)" />
	<line x1="1755" y1="10500" x2="1755" y2="10600" stroke-width="3" stroke="rgb(65,170,190)" />
	<line x1="1755" y1="10600" x2="1865" y2="10600" stroke-width="3" stroke="rgb(65,170,190)" />
	<line x1="1865" y1="10600" x2="1865" y2="10700" stroke-width="3" stroke="rgb(65,170,190)" />
	<line x1="1865" y1="10700" x2="1975" y2="10700" stroke-width="3" stroke="rgb(65,170,190)" />
	<line x1="1975" y1="10700" x2="1975" y2="10750" stroke-width="3" stroke="rgb(65,170,190)" />
	<line x1="1975" y1="10750" x2="2115" y2="10750" stroke-width="3" stroke="rgb(65,170,190)" />
	<text x="2140" y="10750" fill="rgb(65,170,190)" font-size="18" font-family="Verdana" >calJac_RHO_XM_008982215</text>
	<line x1="1975" y1="10700" x2="1975" y2="10650" stroke-width="3" stroke="rgb(65,170,190)" />
	<line x1="1975" y1="10650" x2="2085" y2="10650" stroke-width="3" stroke="rgb(65,170,190)" />
	<line x1="2097.5" y1="10637.5" x2="2072.5" y2="10662.5" stroke-width="8.33333" stroke="rgb(65,170,190)" />
	<line x1="2097.5" y1="10662.5" x2="2072.5" y2="10637.5" stroke-width="8.33333" stroke="rgb(65,170,190)" />
	<line x1="1865" y1="10600" x2="1865" y2="10550" stroke-width="3" stroke="rgb(65,170,190)" />
	<line x1="1865" y1="10550" x2="1975" y2="10550" stroke-width="3" stroke="rgb(65,170,190)" />
	<line x1="1987.5" y1="10537.5" x2="1962.5" y2="10562.5" stroke-width="8.33333" stroke="rgb(65,170,190)" />
	<line x1="1987.5" y1="10562.5" x2="1962.5" y2="10537.5" stroke-width="8.33333" stroke="rgb(65,170,190)" />
	<line x1="1755" y1="10500" x2="1755" y2="10450" stroke-width="3" stroke="rgb(65,170,190)" />
	<line x1="1755" y1="10450" x2="1865" y2="10450" stroke-width="3" stroke="rgb(65,170,190)" />
	<line x1="1877.5" y1="10437.5" x2="1852.5" y2="10462.5" stroke-width="8.33333" stroke="rgb(65,170,190)" />
	<line x1="1877.5" y1="10462.5" x2="1852.5" y2="10437.5" stroke-width="8.33333" stroke="rgb(65,170,190)" />
	<line x1="1645" y1="10400" x2="1645" y2="10350" stroke-width="3" stroke="rgb(65,170,190)" />
	<line x1="1645" y1="10350" x2="1755" y2="10350" stroke-width="3" stroke="rgb(65,170,190)" />
	<line x1="1767.5" y1="10337.5" x2="1742.5" y2="10362.5" stroke-width="8.33333" stroke="rgb(65,170,190)" />
	<line x1="1767.5" y1="10362.5" x2="1742.5" y2="10337.5" stroke-width="8.33333" stroke="rgb(65,170,190)" />
	<line x1="1535" y1="10300" x2="1535" y2="10100" stroke-width="3" stroke="rgb(65,170,190)" />
	<line x1="1535" y1="10100" x2="1645" y2="10100" stroke-width="3" stroke="rgb(65,170,190)" />
	<line x1="1657.5" y1="10087.5" x2="1632.5" y2="10112.5" stroke-width="8.33333" stroke="rgb(65,170,190)" />
	<line x1="1657.5" y1="10112.5" x2="1632.5" y2="10087.5" stroke-width="8.33333" stroke="rgb(65,170,190)" />
	<line x1="1425" y1="10000" x2="1425" y2="9950" stroke-width="3" stroke="rgb(65,170,190)" />
	<line x1="1425" y1="9950" x2="1535" y2="9950" stroke-width="3" stroke="rgb(65,170,190)" />
	<line x1="1547.5" y1="9937.5" x2="1522.5" y2="9962.5" stroke-width="8.33333" stroke="rgb(65,170,190)" />
	<line x1="1547.5" y1="9962.5" x2="1522.5" y2="9937.5" stroke-width="8.33333" stroke="rgb(65,170,190)" />
	<line x1="1315" y1="9900" x2="1315" y2="9800" stroke-width="3" stroke="rgb(65,170,190)" />
	<line x1="1315" y1="9800" x2="1425" y2="9800" stroke-width="3" stroke="rgb(65,170,190)" />
	<line x1="1437.5" y1="9787.5" x2="1412.5" y2="9812.5" stroke-width="8.33333" stroke="rgb(65,170,190)" />
	<line x1="1437.5" y1="9812.5" x2="1412.5" y2="9787.5" stroke-width="8.33333" stroke="rgb(65,170,190)" />
	<line x1="1150" y1="9675" x2="1150" y2="8875" stroke-width="3" stroke="rgb(65,170,190)" />
	<line x1="1150" y1="8875" x2="1315" y2="8875" stroke-width="3" stroke="rgb(65,170,190)" />
	<line x1="1327.5" y1="8862.5" x2="1302.5" y2="8887.5" stroke-width="8.33333" stroke="rgb(65,170,190)" />
	<line x1="1327.5" y1="8887.5" x2="1302.5" y2="8862.5" stroke-width="8.33333" stroke="rgb(65,170,190)" />
	<line x1="985" y1="8750" x2="985" y2="8525" stroke-width="3" stroke="rgb(65,170,190)" />
	<line x1="985" y1="8525" x2="1150" y2="8525" stroke-width="3" stroke="rgb(65,170,190)" />
	<line x1="1162.5" y1="8512.5" x2="1137.5" y2="8537.5" stroke-width="8.33333" stroke="rgb(65,170,190)" />
	<line x1="1162.5" y1="8537.5" x2="1137.5" y2="8512.5" stroke-width="8.33333" stroke="rgb(65,170,190)" />
	<line x1="820" y1="8300" x2="820" y2="7650" stroke-width="3" stroke="rgb(65,170,190)" />
	<line x1="820" y1="7650" x2="985" y2="7650" stroke-width="3" stroke="rgb(65,170,190)" />
	<line x1="985" y1="7650" x2="985" y2="7975" stroke-width="3" stroke="rgb(65,170,190)" />
	<line x1="985" y1="7975" x2="1150" y2="7975" stroke-width="3" stroke="rgb(65,170,190)" />
	<line x1="1150" y1="7975" x2="1150" y2="8100" stroke-width="3" stroke="rgb(65,170,190)" />
	<line x1="1150" y1="8100" x2="1315" y2="8100" stroke-width="3" stroke="rgb(65,170,190)" />
	<line x1="1327.5" y1="8087.5" x2="1302.5" y2="8112.5" stroke-width="8.33333" stroke="rgb(65,170,190)" />
	<line x1="1327.5" y1="8112.5" x2="1302.5" y2="8087.5" stroke-width="8.33333" stroke="rgb(65,170,190)" />
	<line x1="1150" y1="7975" x2="1150" y2="7775" stroke-width="3" stroke="rgb(65,170,190)" />
	<line x1="1150" y1="7775" x2="1315" y2="7775" stroke-width="3" stroke="rgb(65,170,190)" />
	<line x1="1315" y1="7775" x2="1315" y2="7875" stroke-width="3" stroke="rgb(65,170,190)" />
	<line x1="1315" y1="7875" x2="1425" y2="7875" stroke-width="3" stroke="rgb(65,170,190)" />
	<line x1="1425" y1="7875" x2="1425" y2="7925" stroke-width="3" stroke="rgb(65,170,190)" />
	<line x1="1425" y1="7925" x2="2115" y2="7925" stroke-width="3" stroke="rgb(65,170,190)" />
	<text x="2140" y="7925" fill="rgb(65,170,190)" font-size="18" font-family="Verdana" >cebCapImi_RHO_XM_017505088</text>
	<line x1="1425" y1="7875" x2="1425" y2="7825" stroke-width="3" stroke="rgb(65,170,190)" />
	<line x1="1425" y1="7825" x2="1535" y2="7825" stroke-width="3" stroke="rgb(65,170,190)" />
	<line x1="1547.5" y1="7812.5" x2="1522.5" y2="7837.5" stroke-width="8.33333" stroke="rgb(65,170,190)" />
	<line x1="1547.5" y1="7837.5" x2="1522.5" y2="7812.5" stroke-width="8.33333" stroke="rgb(65,170,190)" />
	<line x1="1315" y1="7775" x2="1315" y2="7725" stroke-width="3" stroke="rgb(65,170,190)" />
	<line x1="1315" y1="7725" x2="1425" y2="7725" stroke-width="3" stroke="rgb(65,170,190)" />
	<line x1="1437.5" y1="7712.5" x2="1412.5" y2="7737.5" stroke-width="8.33333" stroke="rgb(65,170,190)" />
	<line x1="1437.5" y1="7737.5" x2="1412.5" y2="7712.5" stroke-width="8.33333" stroke="rgb(65,170,190)" />
	<line x1="985" y1="7650" x2="985" y2="7325" stroke-width="3" stroke="rgb(65,170,190)" />
	<line x1="985" y1="7325" x2="1150" y2="7325" stroke-width="3" stroke="rgb(65,170,190)" />
	<line x1="1162.5" y1="7312.5" x2="1137.5" y2="7337.5" stroke-width="8.33333" stroke="rgb(65,170,190)" />
	<line x1="1162.5" y1="7337.5" x2="1137.5" y2="7312.5" stroke-width="8.33333" stroke="rgb(65,170,190)" />
	<line x1="790" y1="8325" x2="790" y2="8325" stroke-width="3" stroke="rgb(65,170,190)" />
	<line x1="790" y1="8325" x2="850" y2="8325" stroke-width="3" stroke="rgb(65,170,190)" />
	<line x1="850" y1="8325" x2="850" y2="8775" stroke-width="3" stroke="rgb(65,170,190)" />
	<line x1="850" y1="8775" x2="1015" y2="8775" stroke-width="3" stroke="rgb(65,170,190)" />
	<line x1="1015" y1="8775" x2="1015" y2="9700" stroke-width="3" stroke="rgb(65,170,190)" />
	<line x1="1015" y1="9700" x2="1180" y2="9700" stroke-width="3" stroke="rgb(65,170,190)" />
	<line x1="1192.5" y1="9687.5" x2="1167.5" y2="9712.5" stroke-width="8.33333" stroke="rgb(65,170,190)" />
	<line x1="1192.5" y1="9712.5" x2="1167.5" y2="9687.5" stroke-width="8.33333" stroke="rgb(65,170,190)" />
	<line x1="1015" y1="8775" x2="1015" y2="8550" stroke-width="3" stroke="rgb(65,170,190)" />
	<line x1="1015" y1="8550" x2="1180" y2="8550" stroke-width="3" stroke="rgb(65,170,190)" />
	<line x1="1180" y1="8550" x2="1180" y2="8650" stroke-width="3" stroke="rgb(65,170,190)" />
	<line x1="1180" y1="8650" x2="1315" y2="8650" stroke-width="3" stroke="rgb(65,170,190)" />
	<line x1="1315" y1="8650" x2="1315" y2="8600" stroke-width="3" stroke="rgb(65,170,190)" />
	<line x1="1315" y1="8600" x2="2115" y2="8600" stroke-width="3" stroke="rgb(65,170,190)" />
	<text x="2140" y="8600" fill="rgb(65,170,190)" font-size="18" font-family="Verdana" >aotNan_RHO_XM_012472901</text>
	<line x1="1315" y1="8650" x2="1315" y2="8700" stroke-width="3" stroke="rgb(65,170,190)" />
	<line x1="1315" y1="8700" x2="1425" y2="8700" stroke-width="3" stroke="rgb(65,170,190)" />
	<line x1="1437.5" y1="8687.5" x2="1412.5" y2="8712.5" stroke-width="8.33333" stroke="rgb(65,170,190)" />
	<line x1="1437.5" y1="8712.5" x2="1412.5" y2="8687.5" stroke-width="8.33333" stroke="rgb(65,170,190)" />
	<line x1="1180" y1="8550" x2="1180" y2="8425" stroke-width="3" stroke="rgb(65,170,190)" />
	<line x1="1180" y1="8425" x2="1315" y2="8425" stroke-width="3" stroke="rgb(65,170,190)" />
	<line x1="1327.5" y1="8412.5" x2="1302.5" y2="8437.5" stroke-width="8.33333" stroke="rgb(65,170,190)" />
	<line x1="1327.5" y1="8437.5" x2="1302.5" y2="8412.5" stroke-width="8.33333" stroke="rgb(65,170,190)" />
	<line x1="850" y1="8325" x2="850" y2="7675" stroke-width="3" stroke="rgb(65,170,190)" />
	<line x1="850" y1="7675" x2="1015" y2="7675" stroke-width="3" stroke="rgb(65,170,190)" />
	<line x1="1015" y1="7675" x2="1015" y2="8000" stroke-width="3" stroke="rgb(65,170,190)" />
	<line x1="1015" y1="8000" x2="1180" y2="8000" stroke-width="3" stroke="rgb(65,170,190)" />
	<line x1="1192.5" y1="7987.5" x2="1167.5" y2="8012.5" stroke-width="8.33333" stroke="rgb(65,170,190)" />
	<line x1="1192.5" y1="8012.5" x2="1167.5" y2="7987.5" stroke-width="8.33333" stroke="rgb(65,170,190)" />
	<line x1="1015" y1="7675" x2="1015" y2="7350" stroke-width="3" stroke="rgb(65,170,190)" />
	<line x1="1015" y1="7350" x2="1180" y2="7350" stroke-width="3" stroke="rgb(65,170,190)" />
	<line x1="1180" y1="7350" x2="1180" y2="7275" stroke-width="3" stroke="rgb(65,170,190)" />
	<line x1="1180" y1="7275" x2="2115" y2="7275" stroke-width="3" stroke="rgb(65,170,190)" />
	<text x="2140" y="7275" fill="rgb(65,170,190)" font-size="18" font-family="Verdana" >saiBolBol_RHO_XM_003926159</text>
	<line x1="1180" y1="7350" x2="1180" y2="7450" stroke-width="3" stroke="rgb(65,170,190)" />
	<line x1="1180" y1="7450" x2="1315" y2="7450" stroke-width="3" stroke="rgb(65,170,190)" />
	<line x1="1327.5" y1="7437.5" x2="1302.5" y2="7462.5" stroke-width="8.33333" stroke="rgb(65,170,190)" />
	<line x1="1327.5" y1="7462.5" x2="1302.5" y2="7437.5" stroke-width="8.33333" stroke="rgb(65,170,190)" />
	<rect x="777.5" y="8312.5" width="25" height="25" fill="rgb(65,170,190)" stroke-width="3" stroke="rgb(65,170,190)" />
	<line x1="680" y1="7225" x2="680" y2="6225" stroke-width="3" stroke="rgb(65,170,190)" />
	<line x1="680" y1="6225" x2="790" y2="6225" stroke-width="3" stroke="rgb(65,170,190)" />
	<line x1="802.5" y1="6212.5" x2="777.5" y2="6237.5" stroke-width="8.33333" stroke="rgb(65,170,190)" />
	<line x1="802.5" y1="6237.5" x2="777.5" y2="6212.5" stroke-width="8.33333" stroke="rgb(65,170,190)" />
	<line x1="570" y1="5825" x2="570" y2="5025" stroke-width="3" stroke="rgb(65,170,190)" />
	<line x1="570" y1="5025" x2="680" y2="5025" stroke-width="3" stroke="rgb(65,170,190)" />
	<line x1="692.5" y1="5012.5" x2="667.5" y2="5037.5" stroke-width="8.33333" stroke="rgb(65,170,190)" />
	<line x1="692.5" y1="5037.5" x2="667.5" y2="5012.5" stroke-width="8.33333" stroke="rgb(65,170,190)" />
	<line x1="350" y1="4425" x2="350" y2="4325" stroke-width="3" stroke="rgb(65,170,190)" />
	<line x1="350" y1="4325" x2="460" y2="4325" stroke-width="3" stroke="rgb(65,170,190)" />
	<line x1="460" y1="4325" x2="460" y2="4375" stroke-width="3" stroke="rgb(65,170,190)" />
	<line x1="460" y1="4375" x2="2115" y2="4375" stroke-width="3" stroke="rgb(65,170,190)" />
	<text x="2140" y="4375" fill="rgb(65,170,190)" font-size="18" font-family="Verdana" >carSyr_RHO_XM_008047820</text>
	<line x1="460" y1="4325" x2="460" y2="4275" stroke-width="3" stroke="rgb(65,170,190)" />
	<line x1="460" y1="4275" x2="570" y2="4275" stroke-width="3" stroke="rgb(65,170,190)" />
	<line x1="582.5" y1="4262.5" x2="557.5" y2="4287.5" stroke-width="8.33333" stroke="rgb(65,170,190)" />
	<line x1="582.5" y1="4287.5" x2="557.5" y2="4262.5" stroke-width="8.33333" stroke="rgb(65,170,190)" />
	<polygon points="255.625,4225 246.32,4220.41 244.828,4210.14 237.586,4217.57 227.359,4215.82 232.188,4225 227.359,4234.18 237.586,4232.43 244.828,4239.86 246.32,4229.59 255.625,4225 " fill="rgb(255,255,255)" stroke-width="6.25" stroke="rgb(65,170,190)" />
</svg>
