<?xml version="1.0" standalone="no" ?>
<!DOCTYPE svg PUBLIC "-//W3C//DTD SVG 1.1//EN" "http://www.w3.org/Graphics/SVG/1.1/DTD/svg11.dtd">
<svg width="2620px" height="18460px" xmlns="http://www.w3.org/2000/svg" version="1.1" >
	<polygon points="50,250 50,450 130,450 130,4250 210,4250 210,4450 320,4450 320,10650 430,10650 430,12100 540,12100 540,14300 650,14300 650,16000 760,16000 760,17100 870,17100 870,17200 980,17200 980,17800 1090,17800 1090,18100 1200,18100 1200,18300 1310,18300 1310,18400 1420,18400 1420,18450 1500,18450 1920,18450 1920,18400 1500,18400 1450,18400 1450,18400 1450,18350 1450,18350 1500,18350 1920,18350 1920,18300 1500,18300 1420,18300 1420,18350 1370,18350 1370,18300 1370,18250 1370,18200 1420,18200 1420,18250 1500,18250 1920,18250 1920,18200 1500,18200 1450,18200 1450,18200 1450,18150 1450,18150 1500,18150 1920,18150 1920,18100 1500,18100 1420,18100 1420,18150 1310,18150 1310,18250 1260,18250 1260,18100 1260,18050 1260,17900 1310,17900 1310,18000 1420,18000 1420,18050 1530,18050 1920,18050 1920,18000 1530,18000 1480,18000 1480,18000 1480,17950 1480,17950 1530,17950 1920,17950 1920,17900 1530,17900 1420,17900 1420,17950 1370,17950 1370,17900 1370,17850 1370,17850 1420,17850 1920,17850 1920,17800 1420,17800 1310,17800 1310,17850 1200,17850 1200,18050 1150,18050 1150,17800 1150,17750 1150,17400 1200,17400 1200,17500 1310,17500 1310,17600 1420,17600 1420,17700 1530,17700 1530,17750 1640,17750 1920,17750 1920,17700 1640,17700 1590,17700 1590,17700 1590,17650 1590,17650 1640,17650 1920,17650 1920,17600 1640,17600 1530,17600 1530,17650 1480,17650 1480,17600 1480,17550 1480,17550 1530,17550 1920,17550 1920,17500 1530,17500 1420,17500 1420,17550 1370,17550 1370,17500 1370,17450 1370,17450 1420,17450 1920,17450 1920,17400 1420,17400 1310,17400 1310,17450 1260,17450 1260,17400 1260,17350 1260,17300 1310,17300 1310,17350 1420,17350 1920,17350 1920,17300 1420,17300 1370,17300 1370,17300 1370,17250 1370,17250 1420,17250 1920,17250 1920,17200 1420,17200 1310,17200 1310,17250 1200,17250 1200,17350 1090,17350 1090,17750 1040,17750 1040,17200 1040,17150 1040,17150 1090,17150 1920,17150 1920,17100 1090,17100 980,17100 980,17150 930,17150 930,17100 930,17050 930,16500 980,16500 980,16600 1090,16600 1090,16800 1200,16800 1200,16900 1310,16900 1310,17000 1390,17000 1390,17050 1470,17050 1920,17050 1920,17000 1470,17000 1420,17000 1420,17000 1420,16950 1420,16950 1470,16950 1920,16950 1920,16900 1470,16900 1390,16900 1390,16950 1340,16950 1340,16900 1340,16850 1340,16850 1390,16850 1920,16850 1920,16800 1390,16800 1310,16800 1310,16850 1260,16850 1260,16800 1260,16750 1260,16700 1310,16700 1310,16750 1390,16750 1920,16750 1920,16700 1390,16700 1340,16700 1340,16700 1340,16650 1340,16650 1390,16650 1920,16650 1920,16600 1390,16600 1310,16600 1310,16650 1200,16650 1200,16750 1150,16750 1150,16600 1150,16550 1150,16550 1200,16550 1920,16550 1920,16500 1200,16500 1090,16500 1090,16550 1040,16550 1040,16500 1040,16450 1040,16200 1090,16200 1090,16300 1200,16300 1200,16400 1280,16400 1280,16450 1360,16450 1920,16450 1920,16400 1360,16400 1310,16400 1310,16400 1310,16350 1310,16350 1360,16350 1920,16350 1920,16300 1360,16300 1280,16300 1280,16350 1230,16350 1230,16300 1230,16250 1230,16250 1280,16250 1920,16250 1920,16200 1280,16200 1200,16200 1200,16250 1150,16250 1150,16200 1150,16150 1150,16100 1200,16100 1200,16150 1280,16150 1920,16150 1920,16100 1280,16100 1230,16100 1230,16100 1230,16050 1230,16050 1280,16050 1920,16050 1920,16000 1280,16000 1200,16000 1200,16050 1090,16050 1090,16150 980,16150 980,16450 870,16450 870,17050 820,17050 820,16000 820,15950 820,14900 870,14900 870,15000 980,15000 980,15100 1090,15100 1090,15400 1170,15400 1170,15500 1250,15500 1250,15600 1330,15600 1330,15800 1410,15800 1410,15900 1490,15900 1490,15950 1570,15950 1920,15950 1920,15900 1570,15900 1520,15900 1520,15900 1520,15850 1520,15850 1570,15850 1920,15850 1920,15800 1570,15800 1490,15800 1490,15850 1440,15850 1440,15800 1440,15750 1440,15700 1490,15700 1490,15750 1570,15750 1920,15750 1920,15700 1570,15700 1520,15700 1520,15700 1520,15650 1520,15650 1570,15650 1920,15650 1920,15600 1570,15600 1490,15600 1490,15650 1410,15650 1410,15750 1360,15750 1360,15600 1360,15550 1360,15550 1410,15550 1920,15550 1920,15500 1410,15500 1330,15500 1330,15550 1280,15550 1280,15500 1280,15450 1280,15450 1330,15450 1920,15450 1920,15400 1330,15400 1250,15400 1250,15450 1200,15450 1200,15400 1200,15350 1200,15200 1250,15200 1250,15300 1330,15300 1330,15350 1410,15350 1920,15350 1920,15300 1410,15300 1360,15300 1360,15300 1360,15250 1360,15250 1410,15250 1920,15250 1920,15200 1410,15200 1330,15200 1330,15250 1280,15250 1280,15200 1280,15150 1280,15150 1330,15150 1920,15150 1920,15100 1330,15100 1250,15100 1250,15150 1170,15150 1170,15350 1120,15350 1120,15100 1120,15050 1120,15050 1170,15050 1920,15050 1920,15000 1170,15000 1090,15000 1090,15050 1040,15050 1040,15000 1040,14950 1040,14950 1090,14950 1920,14950 1920,14900 1090,14900 980,14900 980,14950 930,14950 930,14900 930,14850 930,14400 980,14400 980,14600 1090,14600 1090,14700 1200,14700 1200,14800 1310,14800 1310,14850 1420,14850 1920,14850 1920,14800 1420,14800 1370,14800 1370,14800 1370,14750 1370,14750 1420,14750 1920,14750 1920,14700 1420,14700 1310,14700 1310,14750 1260,14750 1260,14700 1260,14650 1260,14650 1310,14650 1920,14650 1920,14600 1310,14600 1200,14600 1200,14650 1150,14650 1150,14600 1150,14550 1150,14500 1200,14500 1200,14550 1310,14550 1920,14550 1920,14500 1310,14500 1260,14500 1260,14500 1260,14450 1260,14450 1310,14450 1920,14450 1920,14400 1310,14400 1200,14400 1200,14450 1090,14450 1090,14550 1040,14550 1040,14400 1040,14350 1040,14350 1090,14350 1920,14350 1920,14300 1090,14300 980,14300 980,14350 870,14350 870,14850 760,14850 760,15950 710,15950 710,14300 710,14250 710,12500 760,12500 760,12700 870,12700 870,13400 980,13400 980,13700 1090,13700 1090,14000 1200,14000 1200,14100 1280,14100 1280,14200 1360,14200 1360,14250 1440,14250 1920,14250 1920,14200 1440,14200 1390,14200 1390,14200 1390,14150 1390,14150 1440,14150 1920,14150 1920,14100 1440,14100 1360,14100 1360,14150 1310,14150 1310,14100 1310,14050 1310,14050 1360,14050 1920,14050 1920,14000 1360,14000 1280,14000 1280,14050 1230,14050 1230,14000 1230,13950 1230,13800 1280,13800 1280,13900 1360,13900 1360,13950 1440,13950 1920,13950 1920,13900 1440,13900 1390,13900 1390,13900 1390,13850 1390,13850 1440,13850 1920,13850 1920,13800 1440,13800 1360,13800 1360,13850 1310,13850 1310,13800 1310,13750 1310,13750 1360,13750 1920,13750 1920,13700 1360,13700 1280,13700 1280,13750 1200,13750 1200,13950 1150,13950 1150,13700 1150,13650 1150,13500 1200,13500 1200,13600 1280,13600 1280,13650 1360,13650 1920,13650 1920,13600 1360,13600 1310,13600 1310,13600 1310,13550 1310,13550 1360,13550 1920,13550 1920,13500 1360,13500 1280,13500 1280,13550 1230,13550 1230,13500 1230,13450 1230,13450 1280,13450 1920,13450 1920,13400 1280,13400 1200,13400 1200,13450 1090,13450 1090,13650 1040,13650 1040,13400 1040,13350 1040,13000 1090,13000 1090,13100 1200,13100 1200,13200 1310,13200 1310,13300 1390,13300 1390,13350 1470,13350 1920,13350 1920,13300 1470,13300 1420,13300 1420,13300 1420,13250 1420,13250 1470,13250 1920,13250 1920,13200 1470,13200 1390,13200 1390,13250 1340,13250 1340,13200 1340,13150 1340,13150 1390,13150 1920,13150 1920,13100 1390,13100 1310,13100 1310,13150 1260,13150 1260,13100 1260,13050 1260,13050 1310,13050 1920,13050 1920,13000 1310,13000 1200,13000 1200,13050 1150,13050 1150,13000 1150,12950 1150,12800 1200,12800 1200,12900 1310,12900 1310,12950 1420,12950 1920,12950 1920,12900 1420,12900 1370,12900 1370,12900 1370,12850 1370,12850 1420,12850 1920,12850 1920,12800 1420,12800 1310,12800 1310,12850 1260,12850 1260,12800 1260,12750 1260,12750 1310,12750 1920,12750 1920,12700 1310,12700 1200,12700 1200,12750 1090,12750 1090,12950 980,12950 980,13350 930,13350 930,12700 930,12650 930,12600 980,12600 980,12650 1090,12650 1920,12650 1920,12600 1090,12600 1040,12600 1040,12600 1040,12550 1040,12550 1090,12550 1920,12550 1920,12500 1090,12500 980,12500 980,12550 870,12550 870,12650 820,12650 820,12500 820,12450 820,12200 870,12200 870,12300 980,12300 980,12400 1090,12400 1090,12450 1200,12450 1920,12450 1920,12400 1200,12400 1150,12400 1150,12400 1150,12350 1150,12350 1200,12350 1920,12350 1920,12300 1200,12300 1090,12300 1090,12350 1040,12350 1040,12300 1040,12250 1040,12250 1090,12250 1920,12250 1920,12200 1090,12200 980,12200 980,12250 930,12250 930,12200 930,12150 930,12150 980,12150 1920,12150 1920,12100 980,12100 870,12100 870,12150 760,12150 760,12450 650,12450 650,14250 600,14250 600,12100 600,12050 600,11300 650,11300 650,11700 760,11700 760,11800 870,11800 870,11900 980,11900 980,12000 1060,12000 1060,12050 1140,12050 1920,12050 1920,12000 1140,12000 1090,12000 1090,12000 1090,11950 1090,11950 1140,11950 1920,11950 1920,11900 1140,11900 1060,11900 1060,11950 1010,11950 1010,11900 1010,11850 1010,11850 1060,11850 1920,11850 1920,11800 1060,11800 980,11800 980,11850 930,11850 930,11800 930,11750 930,11750 980,11750 1920,11750 1920,11700 980,11700 870,11700 870,11750 820,11750 820,11700 820,11650 820,11500 870,11500 870,11600 980,11600 980,11650 1090,11650 1920,11650 1920,11600 1090,11600 1040,11600 1040,11600 1040,11550 1040,11550 1090,11550 1920,11550 1920,11500 1090,11500 980,11500 980,11550 930,11550 930,11500 930,11450 930,11400 980,11400 980,11450 1090,11450 1920,11450 1920,11400 1090,11400 1040,11400 1040,11400 1040,11350 1040,11350 1090,11350 1920,11350 1920,11300 1090,11300 980,11300 980,11350 870,11350 870,11450 760,11450 760,11650 710,11650 710,11300 710,11250 710,10850 760,10850 760,10950 870,10950 870,11100 980,11100 980,11200 1090,11200 1090,11250 1200,11250 1920,11250 1920,11200 1200,11200 1150,11200 1150,11200 1150,11150 1150,11150 1200,11150 1920,11150 1920,11100 1200,11100 1090,11100 1090,11150 1040,11150 1040,11100 1040,11050 1040,11050 1090,11050 1920,11050 1920,10950 1090,10950 980,10950 980,11050 930,11050 930,10950 930,10900 930,10900 980,10900 1920,10900 1920,10850 980,10850 870,10850 870,10900 820,10900 820,10850 820,10800 820,10750 870,10750 870,10800 980,10800 1920,10800 1920,10750 980,10750 930,10750 930,10750 930,10700 930,10700 980,10700 1920,10700 1920,10650 980,10650 870,10650 870,10700 760,10700 760,10800 650,10800 650,11250 540,11250 540,12050 490,12050 490,10650 490,10600 490,5850 540,5850 540,7250 650,7250 650,8250 760,8250 760,8650 870,8650 870,9550 980,9550 980,9750 1090,9750 1090,9850 1200,9850 1200,10150 1310,10150 1310,10250 1420,10250 1420,10350 1530,10350 1530,10450 1640,10450 1640,10550 1750,10550 1750,10600 1860,10600 1920,10600 1920,10550 1860,10550 1810,10550 1810,10550 1810,10500 1810,10500 1860,10500 1920,10500 1920,10450 1860,10450 1750,10450 1750,10500 1700,10500 1700,10450 1700,10400 1700,10400 1750,10400 1920,10400 1920,10350 1750,10350 1640,10350 1640,10400 1590,10400 1590,10350 1590,10300 1590,10300 1640,10300 1920,10300 1920,10250 1640,10250 1530,10250 1530,10300 1480,10300 1480,10250 1480,10200 1480,10200 1530,10200 1920,10200 1920,10150 1530,10150 1420,10150 1420,10200 1370,10200 1370,10150 1370,10100 1370,9950 1420,9950 1420,10050 1530,10050 1530,10100 1610,10100 1920,10100 1920,10050 1610,10050 1560,10050 1560,10050 1560,10000 1560,10000 1610,10000 1920,10000 1920,9950 1610,9950 1530,9950 1530,10000 1480,10000 1480,9950 1480,9900 1480,9900 1530,9900 1920,9900 1920,9850 1530,9850 1420,9850 1420,9900 1310,9900 1310,10100 1260,10100 1260,9850 1260,9800 1260,9800 1310,9800 1920,9800 1920,9750 1310,9750 1200,9750 1200,9800 1150,9800 1150,9750 1150,9700 1150,9650 1200,9650 1200,9700 1310,9700 1920,9700 1920,9650 1310,9650 1260,9650 1260,9650 1260,9600 1260,9600 1310,9600 1920,9600 1920,9550 1310,9550 1200,9550 1200,9600 1090,9600 1090,9700 1040,9700 1040,9550 1040,9500 1040,8750 1090,8750 1090,9050 1200,9050 1200,9250 1280,9250 1280,9350 1360,9350 1360,9450 1440,9450 1440,9500 1520,9500 1920,9500 1920,9450 1520,9450 1470,9450 1470,9450 1470,9400 1470,9400 1520,9400 1920,9400 1920,9350 1520,9350 1440,9350 1440,9400 1390,9400 1390,9350 1390,9300 1390,9300 1440,9300 1920,9300 1920,9250 1440,9250 1360,9250 1360,9300 1310,9300 1310,9250 1310,9200 1310,9150 1360,9150 1360,9200 1440,9200 1920,9200 1920,9150 1440,9150 1390,9150 1390,9150 1390,9100 1390,9100 1440,9100 1920,9100 1920,9050 1440,9050 1360,9050 1360,9100 1280,9100 1280,9200 1230,9200 1230,9050 1230,9000 1230,8850 1280,8850 1280,8950 1360,8950 1360,9000 1440,9000 1920,9000 1920,8950 1440,8950 1390,8950 1390,8950 1390,8900 1390,8900 1440,8900 1920,8900 1920,8850 1440,8850 1360,8850 1360,8900 1310,8900 1310,8850 1310,8800 1310,8800 1360,8800 1920,8800 1920,8750 1360,8750 1280,8750 1280,8800 1200,8800 1200,9000 1150,9000 1150,8750 1150,8700 1150,8700 1200,8700 1920,8700 1920,8650 1200,8650 1090,8650 1090,8700 980,8700 980,9500 930,9500 930,8650 930,8600 930,8450 980,8450 980,8550 1090,8550 1090,8600 1170,8600 1920,8600 1920,8550 1170,8550 1120,8550 1120,8550 1120,8500 1120,8500 1170,8500 1920,8500 1920,8450 1170,8450 1090,8450 1090,8500 1040,8500 1040,8450 1040,8400 1040,8350 1090,8350 1090,8400 1170,8400 1920,8400 1920,8350 1170,8350 1120,8350 1120,8350 1120,8300 1120,8300 1170,8300 1920,8300 1920,8250 1170,8250 1090,8250 1090,8300 980,8300 980,8400 870,8400 870,8600 820,8600 820,8250 820,8200 820,7650 870,7650 870,7950 980,7950 980,8050 1090,8050 1090,8150 1200,8150 1200,8200 1280,8200 1920,8200 1920,8150 1280,8150 1230,8150 1230,8150 1230,8100 1230,8100 1280,8100 1920,8100 1920,8050 1280,8050 1200,8050 1200,8100 1150,8100 1150,8050 1150,8000 1150,8000 1200,8000 1920,8000 1920,7950 1200,7950 1090,7950 1090,8000 1040,8000 1040,7950 1040,7900 1040,7750 1090,7750 1090,7850 1200,7850 1200,7900 1310,7900 1920,7900 1920,7850 1310,7850 1260,7850 1260,7850 1260,7800 1260,7800 1310,7800 1920,7800 1920,7750 1310,7750 1200,7750 1200,7800 1150,7800 1150,7750 1150,7700 1150,7700 1200,7700 1920,7700 1920,7650 1200,7650 1090,7650 1090,7700 980,7700 980,7900 930,7900 930,7650 930,7600 930,7350 980,7350 980,7450 1090,7450 1090,7550 1200,7550 1200,7600 1280,7600 1920,7600 1920,7550 1280,7550 1230,7550 1230,7550 1230,7500 1230,7500 1280,7500 1920,7500 1920,7450 1280,7450 1200,7450 1200,7500 1150,7500 1150,7450 1150,7400 1150,7400 1200,7400 1920,7400 1920,7350 1200,7350 1090,7350 1090,7400 1040,7400 1040,7350 1040,7300 1040,7300 1090,7300 1920,7300 1920,7250 1090,7250 980,7250 980,7300 870,7300 870,7600 760,7600 760,8200 710,8200 710,7250 710,7200 710,6250 760,6250 760,6650 870,6650 870,6850 950,6850 950,6950 1030,6950 1030,7050 1110,7050 1110,7150 1190,7150 1190,7200 1270,7200 1920,7200 1920,7150 1270,7150 1220,7150 1220,7150 1220,7100 1220,7100 1270,7100 1920,7100 1920,7050 1270,7050 1190,7050 1190,7100 1140,7100 1140,7050 1140,7000 1140,7000 1190,7000 1920,7000 1920,6950 1190,6950 1110,6950 1110,7000 1060,7000 1060,6950 1060,6900 1060,6900 1110,6900 1920,6900 1920,6850 1110,6850 1030,6850 1030,6900 980,6900 980,6850 980,6800 980,6750 1030,6750 1030,6800 1110,6800 1920,6800 1920,6750 1110,6750 1060,6750 1060,6750 1060,6700 1060,6700 1110,6700 1920,6700 1920,6650 1110,6650 1030,6650 1030,6700 950,6700 950,6800 900,6800 900,6650 900,6600 900,6450 950,6450 950,6550 1030,6550 1030,6600 1110,6600 1920,6600 1920,6550 1110,6550 1060,6550 1060,6550 1060,6500 1060,6500 1110,6500 1920,6500 1920,6450 1110,6450 1030,6450 1030,6500 980,6500 980,6450 980,6400 980,6350 1030,6350 1030,6400 1110,6400 1920,6400 1920,6350 1110,6350 1060,6350 1060,6350 1060,6300 1060,6300 1110,6300 1920,6300 1920,6250 1110,6250 1030,6250 1030,6300 950,6300 950,6400 870,6400 870,6600 820,6600 820,6250 820,6200 820,5950 870,5950 870,6050 950,6050 950,6150 1030,6150 1030,6200 1110,6200 1920,6200 1920,6150 1110,6150 1060,6150 1060,6150 1060,6100 1060,6100 1110,6100 1920,6100 1920,6050 1110,6050 1030,6050 1030,6100 980,6100 980,6050 980,6000 980,6000 1030,6000 1920,6000 1920,5950 1030,5950 950,5950 950,6000 900,6000 900,5950 900,5900 900,5900 950,5900 1920,5900 1920,5850 950,5850 870,5850 870,5900 760,5900 760,6200 650,6200 650,7200 600,7200 600,5850 600,5800 600,5050 650,5050 650,5350 760,5350 760,5550 840,5550 840,5650 920,5650 920,5750 1000,5750 1000,5800 1080,5800 1920,5800 1920,5750 1080,5750 1030,5750 1030,5750 1030,5700 1030,5700 1080,5700 1920,5700 1920,5650 1080,5650 1000,5650 1000,5700 950,5700 950,5650 950,5600 950,5600 1000,5600 1920,5600 1920,5550 1000,5550 920,5550 920,5600 870,5600 870,5550 870,5500 870,5450 920,5450 920,5500 1000,5500 1920,5500 1920,5450 1000,5450 950,5450 950,5450 950,5400 950,5400 1000,5400 1920,5400 1920,5350 1000,5350 920,5350 920,5400 840,5400 840,5500 790,5500 790,5350 790,5300 790,5150 840,5150 840,5250 920,5250 920,5300 1000,5300 1920,5300 1920,5250 1000,5250 950,5250 950,5250 950,5200 950,5200 1000,5200 1920,5200 1920,5150 1000,5150 920,5150 920,5200 870,5200 870,5150 870,5100 870,5100 920,5100 1920,5100 1920,5050 920,5050 840,5050 840,5100 760,5100 760,5300 710,5300 710,5050 710,5000 710,4650 760,4650 760,4850 840,4850 840,4950 920,4950 920,5000 1000,5000 1920,5000 1920,4950 1000,4950 950,4950 950,4950 950,4900 950,4900 1000,4900 1920,4900 1920,4850 1000,4850 920,4850 920,4900 870,4900 870,4850 870,4800 870,4750 920,4750 920,4800 1000,4800 1920,4800 1920,4750 1000,4750 950,4750 950,4750 950,4700 950,4700 1000,4700 1920,4700 1920,4650 1000,4650 920,4650 920,4700 840,4700 840,4800 790,4800 790,4650 790,4600 790,4550 840,4550 840,4600 920,4600 1920,4600 1920,4550 920,4550 870,4550 870,4550 870,4500 870,4500 920,4500 1920,4500 1920,4450 920,4450 840,4450 840,4500 760,4500 760,4600 650,4600 650,5000 540,5000 540,5800 430,5800 430,10600 380,10600 380,4450 380,4400 380,4350 430,4350 430,4400 540,4400 1920,4400 1920,4350 540,4350 490,4350 490,4350 490,4300 490,4300 540,4300 1920,4300 1920,4250 540,4250 430,4250 430,4300 320,4300 320,4400 270,4400 270,4250 270,4200 270,1550 320,1550 320,1650 430,1650 430,2950 540,2950 540,3050 650,3050 650,3350 760,3350 760,3450 840,3450 840,3650 920,3650 920,3750 1000,3750 1000,3950 1080,3950 1080,4050 1160,4050 1160,4150 1240,4150 1240,4200 1320,4200 1920,4200 1920,4150 1320,4150 1270,4150 1270,4150 1270,4100 1270,4100 1320,4100 1920,4100 1920,4050 1320,4050 1240,4050 1240,4100 1190,4100 1190,4050 1190,4000 1190,4000 1240,4000 1920,4000 1920,3950 1240,3950 1160,3950 1160,4000 1110,4000 1110,3950 1110,3900 1110,3850 1160,3850 1160,3900 1240,3900 1920,3900 1920,3850 1240,3850 1190,3850 1190,3850 1190,3800 1190,3800 1240,3800 1920,3800 1920,3750 1240,3750 1160,3750 1160,3800 1080,3800 1080,3900 1030,3900 1030,3750 1030,3700 1030,3700 1080,3700 1920,3700 1920,3650 1080,3650 1000,3650 1000,3700 950,3700 950,3650 950,3600 950,3550 1000,3550 1000,3600 1080,3600 1920,3600 1920,3550 1080,3550 1030,3550 1030,3550 1030,3500 1030,3500 1080,3500 1920,3500 1920,3450 1080,3450 1000,3450 1000,3500 920,3500 920,3600 870,3600 870,3450 870,3400 870,3400 920,3400 1920,3400 1920,3350 920,3350 840,3350 840,3400 790,3400 790,3350 790,3300 790,3150 840,3150 840,3250 920,3250 920,3300 1000,3300 1920,3300 1920,3250 1000,3250 950,3250 950,3250 950,3200 950,3200 1000,3200 1920,3200 1920,3150 1000,3150 920,3150 920,3200 870,3200 870,3150 870,3100 870,3100 920,3100 1920,3100 1920,3050 920,3050 840,3050 840,3100 760,3100 760,3300 710,3300 710,3050 710,3000 710,3000 760,3000 1920,3000 1920,2950 760,2950 650,2950 650,3000 600,3000 600,2950 600,2900 600,2150 650,2150 650,2450 760,2450 760,2550 870,2550 870,2650 980,2650 980,2750 1060,2750 1060,2850 1140,2850 1140,2900 1220,2900 1920,2900 1920,2850 1220,2850 1170,2850 1170,2850 1170,2800 1170,2800 1220,2800 1920,2800 1920,2750 1220,2750 1140,2750 1140,2800 1090,2800 1090,2750 1090,2700 1090,2700 1140,2700 1920,2700 1920,2650 1140,2650 1060,2650 1060,2700 1010,2700 1010,2650 1010,2600 1010,2600 1060,2600 1920,2600 1920,2550 1060,2550 980,2550 980,2600 930,2600 930,2550 930,2500 930,2500 980,2500 1920,2500 1920,2450 980,2450 870,2450 870,2500 820,2500 820,2450 820,2400 820,2250 870,2250 870,2350 980,2350 980,2400 1090,2400 1920,2400 1920,2350 1090,2350 1040,2350 1040,2350 1040,2300 1040,2300 1090,2300 1920,2300 1920,2250 1090,2250 980,2250 980,2300 930,2300 930,2250 930,2200 930,2200 980,2200 1920,2200 1920,2150 980,2150 870,2150 870,2200 760,2200 760,2400 710,2400 710,2150 710,2100 710,1750 760,1750 760,1950 870,1950 870,2050 950,2050 950,2100 1030,2100 1920,2100 1920,2050 1030,2050 980,2050 980,2050 980,2000 980,2000 1030,2000 1920,2000 1920,1950 1030,1950 950,1950 950,2000 900,2000 900,1950 900,1900 900,1850 950,1850 950,1900 1030,1900 1920,1900 1920,1850 1030,1850 980,1850 980,1850 980,1800 980,1800 1030,1800 1920,1800 1920,1750 1030,1750 950,1750 950,1800 870,1800 870,1900 820,1900 820,1750 820,1700 820,1700 870,1700 1920,1700 1920,1650 870,1650 760,1650 760,1700 650,1700 650,2100 540,2100 540,2900 490,2900 490,1650 490,1600 490,1600 540,1600 1920,1600 1920,1550 540,1550 430,1550 430,1600 380,1600 380,1550 380,1500 380,950 430,950 430,1150 540,1150 540,1250 650,1250 650,1350 730,1350 730,1450 810,1450 810,1500 890,1500 1920,1500 1920,1450 890,1450 840,1450 840,1450 840,1400 840,1400 890,1400 1920,1400 1920,1350 890,1350 810,1350 810,1400 760,1400 760,1350 760,1300 760,1300 810,1300 1920,1300 1920,1250 810,1250 730,1250 730,1300 680,1300 680,1250 680,1200 680,1200 730,1200 1920,1200 1920,1150 730,1150 650,1150 650,1200 600,1200 600,1150 600,1100 600,1050 650,1050 650,1100 730,1100 1920,1100 1920,1050 730,1050 680,1050 680,1050 680,1000 680,1000 730,1000 1920,1000 1920,950 730,950 650,950 650,1000 540,1000 540,1100 490,1100 490,950 490,900 490,550 540,550 540,750 650,750 650,850 760,850 760,900 870,900 1920,900 1920,850 870,850 820,850 820,850 820,800 820,800 870,800 1920,800 1920,750 870,750 760,750 760,800 710,800 710,750 710,700 710,650 760,650 760,700 870,700 1920,700 1920,650 870,650 820,650 820,650 820,600 820,600 870,600 1920,600 1920,550 870,550 760,550 760,600 650,600 650,700 600,700 600,550 600,500 600,500 650,500 1920,500 1920,450 650,450 540,450 540,500 430,500 430,900 320,900 320,1500 210,1500 210,4200 160,4200 160,450 160,400 160,350 210,350 210,400 290,400 1920,400 1920,350 290,350 240,350 240,350 240,300 240,300 290,300 1920,300 1920,250 290,250 210,250 210,300 130,300 130,400 80,400 80,250 80,200 80,150 130,150 130,200 210,200 1920,200 1920,150 210,150 160,150 160,150 160,100 160,100 210,100 1920,100 1920,50 210,50 130,50 130,100 50,100 50,200 " fill="rgb(255,255,255)" stroke-width="10" stroke="rgb(120,120,120)" />
	<text x="1842" y="18382" fill="rgb(0,0,0)" font-size="24" font-family="Verdana" >macNig</text>
	<text x="1842" y="18282" fill="rgb(0,0,0)" font-size="24" font-family="Verdana" >macOrc</text>
	<text x="1842" y="18182" fill="rgb(0,0,0)" font-size="24" font-family="Verdana" >macMau</text>
	<text x="1842" y="18082" fill="rgb(0,0,0)" font-size="24" font-family="Verdana" >macTon</text>
	<text x="1842" y="17982" fill="rgb(0,0,0)" font-size="24" font-family="Verdana" >macNem</text>
	<text x="1842" y="17882" fill="rgb(0,0,0)" font-size="24" font-family="Verdana" >macSil</text>
	<text x="1842" y="17782" fill="rgb(0,0,0)" font-size="24" font-family="Verdana" >macSib</text>
	<text x="1842" y="17682" fill="rgb(0,0,0)" font-size="24" font-family="Verdana" >macMul</text>
	<text x="1842" y="17582" fill="rgb(0,0,0)" font-size="24" font-family="Verdana" >macFus</text>
	<text x="1842" y="17482" fill="rgb(0,0,0)" font-size="24" font-family="Verdana" >macCyc</text>
	<text x="1842" y="17382" fill="rgb(0,0,0)" font-size="24" font-family="Verdana" >macFas</text>
	<text x="1842" y="17282" fill="rgb(0,0,0)" font-size="24" font-family="Verdana" >macArc</text>
	<text x="1842" y="17182" fill="rgb(0,0,0)" font-size="24" font-family="Verdana" >macThi</text>
	<text x="1842" y="17082" fill="rgb(0,0,0)" font-size="24" font-family="Verdana" >macSyl</text>
	<text x="1842" y="16982" fill="rgb(0,0,0)" font-size="24" font-family="Verdana" >papHam</text>
	<text x="1842" y="16882" fill="rgb(0,0,0)" font-size="24" font-family="Verdana" >papAnu</text>
	<text x="1842" y="16782" fill="rgb(0,0,0)" font-size="24" font-family="Verdana" >papPap</text>
	<text x="1842" y="16682" fill="rgb(0,0,0)" font-size="24" font-family="Verdana" >lopAte</text>
	<text x="1842" y="16582" fill="rgb(0,0,0)" font-size="24" font-family="Verdana" >lopAlb</text>
	<text x="1842" y="16482" fill="rgb(0,0,0)" font-size="24" font-family="Verdana" >theGel</text>
	<text x="1842" y="16382" fill="rgb(0,0,0)" font-size="24" font-family="Verdana" >cerAgi</text>
	<text x="1842" y="16282" fill="rgb(0,0,0)" font-size="24" font-family="Verdana" >cerChr</text>
	<text x="1842" y="16182" fill="rgb(0,0,0)" font-size="24" font-family="Verdana" >cerTor</text>
	<text x="1842" y="16082" fill="rgb(0,0,0)" font-size="24" font-family="Verdana" >manLeu</text>
	<text x="1842" y="15982" fill="rgb(0,0,0)" font-size="24" font-family="Verdana" >manSph</text>
	<text x="1842" y="15882" fill="rgb(0,0,0)" font-size="24" font-family="Verdana" >cerMit</text>
	<text x="1842" y="15782" fill="rgb(0,0,0)" font-size="24" font-family="Verdana" >cerAlb</text>
	<text x="1842" y="15682" fill="rgb(0,0,0)" font-size="24" font-family="Verdana" >cerCep</text>
	<text x="1842" y="15582" fill="rgb(0,0,0)" font-size="24" font-family="Verdana" >cerAsc</text>
	<text x="1842" y="15482" fill="rgb(0,0,0)" font-size="24" font-family="Verdana" >cerPet</text>
	<text x="1842" y="15382" fill="rgb(0,0,0)" font-size="24" font-family="Verdana" >cerDia</text>
	<text x="1842" y="15282" fill="rgb(0,0,0)" font-size="24" font-family="Verdana" >cerWol</text>
	<text x="1842" y="15182" fill="rgb(0,0,0)" font-size="24" font-family="Verdana" >cerMon</text>
	<text x="1842" y="15082" fill="rgb(0,0,0)" font-size="24" font-family="Verdana" >cerNeg</text>
	<text x="1842" y="14982" fill="rgb(0,0,0)" font-size="24" font-family="Verdana" >cerHam</text>
	<text x="1842" y="14882" fill="rgb(0,0,0)" font-size="24" font-family="Verdana" >mioOgo</text>
	<text x="1842" y="14782" fill="rgb(0,0,0)" font-size="24" font-family="Verdana" >chlAet</text>
	<text x="1842" y="14682" fill="rgb(0,0,0)" font-size="24" font-family="Verdana" >chlSab</text>
	<text x="1842" y="14582" fill="rgb(0,0,0)" font-size="24" font-family="Verdana" >chlCyn</text>
	<text x="1842" y="14482" fill="rgb(0,0,0)" font-size="24" font-family="Verdana" >eryPat</text>
	<text x="1842" y="14382" fill="rgb(0,0,0)" font-size="24" font-family="Verdana" >cerLho</text>
	<text x="1842" y="14282" fill="rgb(0,0,0)" font-size="24" font-family="Verdana" >allNig</text>
	<text x="1842" y="14182" fill="rgb(0,0,0)" font-size="24" font-family="Verdana" >traFra</text>
	<text x="1842" y="14082" fill="rgb(0,0,0)" font-size="24" font-family="Verdana" >traDel</text>
	<text x="1842" y="13982" fill="rgb(0,0,0)" font-size="24" font-family="Verdana" >traHat</text>
	<text x="1842" y="13882" fill="rgb(0,0,0)" font-size="24" font-family="Verdana" >traObs</text>
	<text x="1842" y="13782" fill="rgb(0,0,0)" font-size="24" font-family="Verdana" >traPha</text>
	<text x="1842" y="13682" fill="rgb(0,0,0)" font-size="24" font-family="Verdana" >traAur</text>
	<text x="1842" y="13582" fill="rgb(0,0,0)" font-size="24" font-family="Verdana" >semHec</text>
	<text x="1842" y="13482" fill="rgb(0,0,0)" font-size="24" font-family="Verdana" >semEnt</text>
	<text x="1842" y="13382" fill="rgb(0,0,0)" font-size="24" font-family="Verdana" >traVet</text>
	<text x="1842" y="13282" fill="rgb(0,0,0)" font-size="24" font-family="Verdana" >pygCin</text>
	<text x="1842" y="13182" fill="rgb(0,0,0)" font-size="24" font-family="Verdana" >pygNem</text>
	<text x="1842" y="13082" fill="rgb(0,0,0)" font-size="24" font-family="Verdana" >pygNig</text>
	<text x="1842" y="12982" fill="rgb(0,0,0)" font-size="24" font-family="Verdana" >nasLar</text>
	<text x="1842" y="12882" fill="rgb(0,0,0)" font-size="24" font-family="Verdana" >rhiRox</text>
	<text x="1842" y="12782" fill="rgb(0,0,0)" font-size="24" font-family="Verdana" >rhiBie</text>
	<text x="1842" y="12682" fill="rgb(0,0,0)" font-size="24" font-family="Verdana" >rhiBre</text>
	<text x="1842" y="12582" fill="rgb(0,0,0)" font-size="24" font-family="Verdana" >preMel</text>
	<text x="1842" y="12482" fill="rgb(0,0,0)" font-size="24" font-family="Verdana" >preCom</text>
	<text x="1842" y="12382" fill="rgb(0,0,0)" font-size="24" font-family="Verdana" >colGue</text>
	<text x="1842" y="12282" fill="rgb(0,0,0)" font-size="24" font-family="Verdana" >colPol</text>
	<text x="1842" y="12182" fill="rgb(0,0,0)" font-size="24" font-family="Verdana" >colAng</text>
	<text x="1842" y="12082" fill="rgb(0,0,0)" font-size="24" font-family="Verdana" >pilTep</text>
	<text x="1842" y="11982" fill="rgb(0,0,0)" font-size="24" font-family="Verdana" >hylMue</text>
	<text x="1842" y="11882" fill="rgb(0,0,0)" font-size="24" font-family="Verdana" >hylAgi</text>
	<text x="1842" y="11782" fill="rgb(0,0,0)" font-size="24" font-family="Verdana" >hylLar</text>
	<text x="1842" y="11682" fill="rgb(0,0,0)" font-size="24" font-family="Verdana" >symSyn</text>
	<text x="1842" y="11582" fill="rgb(0,0,0)" font-size="24" font-family="Verdana" >nomLeu</text>
	<text x="1842" y="11482" fill="rgb(0,0,0)" font-size="24" font-family="Verdana" >nomSik</text>
	<text x="1842" y="11382" fill="rgb(0,0,0)" font-size="24" font-family="Verdana" >nomGab</text>
	<text x="1842" y="11282" fill="rgb(0,0,0)" font-size="24" font-family="Verdana" >nomCon</text>
	<text x="1842" y="11182" fill="rgb(0,0,0)" font-size="24" font-family="Verdana" >panTro</text>
	<text x="1842" y="11082" fill="rgb(0,0,0)" font-size="24" font-family="Verdana" >panPan</text>
	<text x="1842" y="10932" fill="rgb(0,0,0)" font-size="24" font-family="Verdana" >homSap</text>
	<text x="1842" y="10832" fill="rgb(0,0,0)" font-size="24" font-family="Verdana" >gorGor</text>
	<text x="1842" y="10732" fill="rgb(0,0,0)" font-size="24" font-family="Verdana" >ponPyg</text>
	<text x="1842" y="10632" fill="rgb(0,0,0)" font-size="24" font-family="Verdana" >ponAbe</text>
	<text x="1842" y="10532" fill="rgb(0,0,0)" font-size="24" font-family="Verdana" >calJac</text>
	<text x="1842" y="10432" fill="rgb(0,0,0)" font-size="24" font-family="Verdana" >calPen</text>
	<text x="1842" y="10332" fill="rgb(0,0,0)" font-size="24" font-family="Verdana" >calKuh</text>
	<text x="1842" y="10232" fill="rgb(0,0,0)" font-size="24" font-family="Verdana" >calGeo</text>
	<text x="1842" y="10132" fill="rgb(0,0,0)" font-size="24" font-family="Verdana" >calAur</text>
	<text x="1842" y="10032" fill="rgb(0,0,0)" font-size="24" font-family="Verdana" >micArg</text>
	<text x="1842" y="9932" fill="rgb(0,0,0)" font-size="24" font-family="Verdana" >micHum</text>
	<text x="1842" y="9832" fill="rgb(0,0,0)" font-size="24" font-family="Verdana" >cebPyg</text>
	<text x="1842" y="9732" fill="rgb(0,0,0)" font-size="24" font-family="Verdana" >calGoe</text>
	<text x="1842" y="9632" fill="rgb(0,0,0)" font-size="24" font-family="Verdana" >leoRos</text>
	<text x="1842" y="9532" fill="rgb(0,0,0)" font-size="24" font-family="Verdana" >leoChr</text>
	<text x="1842" y="9432" fill="rgb(0,0,0)" font-size="24" font-family="Verdana" >sagMar</text>
	<text x="1842" y="9332" fill="rgb(0,0,0)" font-size="24" font-family="Verdana" >sagBic</text>
	<text x="1842" y="9232" fill="rgb(0,0,0)" font-size="24" font-family="Verdana" >sagMid</text>
	<text x="1842" y="9132" fill="rgb(0,0,0)" font-size="24" font-family="Verdana" >sagOed</text>
	<text x="1842" y="9032" fill="rgb(0,0,0)" font-size="24" font-family="Verdana" >sagGeo</text>
	<text x="1842" y="8932" fill="rgb(0,0,0)" font-size="24" font-family="Verdana" >sagMys</text>
	<text x="1842" y="8832" fill="rgb(0,0,0)" font-size="24" font-family="Verdana" >sagLab</text>
	<text x="1842" y="8732" fill="rgb(0,0,0)" font-size="24" font-family="Verdana" >sagImp</text>
	<text x="1842" y="8632" fill="rgb(0,0,0)" font-size="24" font-family="Verdana" >sagFus</text>
	<text x="1842" y="8532" fill="rgb(0,0,0)" font-size="24" font-family="Verdana" >aotAza</text>
	<text x="1842" y="8432" fill="rgb(0,0,0)" font-size="24" font-family="Verdana" >aotNan</text>
	<text x="1842" y="8332" fill="rgb(0,0,0)" font-size="24" font-family="Verdana" >aotTri</text>
	<text x="1842" y="8232" fill="rgb(0,0,0)" font-size="24" font-family="Verdana" >aotLem</text>
	<text x="1842" y="8132" fill="rgb(0,0,0)" font-size="24" font-family="Verdana" >cebXan</text>
	<text x="1842" y="8032" fill="rgb(0,0,0)" font-size="24" font-family="Verdana" >cebRob</text>
	<text x="1842" y="7932" fill="rgb(0,0,0)" font-size="24" font-family="Verdana" >cebApe</text>
	<text x="1842" y="7832" fill="rgb(0,0,0)" font-size="24" font-family="Verdana" >cebCap</text>
	<text x="1842" y="7732" fill="rgb(0,0,0)" font-size="24" font-family="Verdana" >cebAlb</text>
	<text x="1842" y="7632" fill="rgb(0,0,0)" font-size="24" font-family="Verdana" >cebOli</text>
	<text x="1842" y="7532" fill="rgb(0,0,0)" font-size="24" font-family="Verdana" >saiOer</text>
	<text x="1842" y="7432" fill="rgb(0,0,0)" font-size="24" font-family="Verdana" >saiSci</text>
	<text x="1842" y="7332" fill="rgb(0,0,0)" font-size="24" font-family="Verdana" >saiUst</text>
	<text x="1842" y="7232" fill="rgb(0,0,0)" font-size="24" font-family="Verdana" >saiBol</text>
	<text x="1842" y="7132" fill="rgb(0,0,0)" font-size="24" font-family="Verdana" >ateBel</text>
	<text x="1842" y="7032" fill="rgb(0,0,0)" font-size="24" font-family="Verdana" >ateGeo</text>
	<text x="1842" y="6932" fill="rgb(0,0,0)" font-size="24" font-family="Verdana" >ateHyb</text>
	<text x="1842" y="6832" fill="rgb(0,0,0)" font-size="24" font-family="Verdana" >ateFus</text>
	<text x="1842" y="6732" fill="rgb(0,0,0)" font-size="24" font-family="Verdana" >ateCha</text>
	<text x="1842" y="6632" fill="rgb(0,0,0)" font-size="24" font-family="Verdana" >atePan</text>
	<text x="1842" y="6532" fill="rgb(0,0,0)" font-size="24" font-family="Verdana" >braHyp</text>
	<text x="1842" y="6432" fill="rgb(0,0,0)" font-size="24" font-family="Verdana" >braAra</text>
	<text x="1842" y="6332" fill="rgb(0,0,0)" font-size="24" font-family="Verdana" >lagLag</text>
	<text x="1842" y="6232" fill="rgb(0,0,0)" font-size="24" font-family="Verdana" >lagCan</text>
	<text x="1842" y="6132" fill="rgb(0,0,0)" font-size="24" font-family="Verdana" >aloSar</text>
	<text x="1842" y="6032" fill="rgb(0,0,0)" font-size="24" font-family="Verdana" >aloCar</text>
	<text x="1842" y="5932" fill="rgb(0,0,0)" font-size="24" font-family="Verdana" >aloBel</text>
	<text x="1842" y="5832" fill="rgb(0,0,0)" font-size="24" font-family="Verdana" >aloPal</text>
	<text x="1842" y="5732" fill="rgb(0,0,0)" font-size="24" font-family="Verdana" >calMol</text>
	<text x="1842" y="5632" fill="rgb(0,0,0)" font-size="24" font-family="Verdana" >calBru</text>
	<text x="1842" y="5532" fill="rgb(0,0,0)" font-size="24" font-family="Verdana" >calCup</text>
	<text x="1842" y="5432" fill="rgb(0,0,0)" font-size="24" font-family="Verdana" >calCal</text>
	<text x="1842" y="5332" fill="rgb(0,0,0)" font-size="24" font-family="Verdana" >calDon</text>
	<text x="1842" y="5232" fill="rgb(0,0,0)" font-size="24" font-family="Verdana" >calCoi</text>
	<text x="1842" y="5132" fill="rgb(0,0,0)" font-size="24" font-family="Verdana" >calPer</text>
	<text x="1842" y="5032" fill="rgb(0,0,0)" font-size="24" font-family="Verdana" >calNig</text>
	<text x="1842" y="4932" fill="rgb(0,0,0)" font-size="24" font-family="Verdana" >chiIsr</text>
	<text x="1842" y="4832" fill="rgb(0,0,0)" font-size="24" font-family="Verdana" >chiSat</text>
	<text x="1842" y="4732" fill="rgb(0,0,0)" font-size="24" font-family="Verdana" >cacMel</text>
	<text x="1842" y="4632" fill="rgb(0,0,0)" font-size="24" font-family="Verdana" >cacCal</text>
	<text x="1842" y="4532" fill="rgb(0,0,0)" font-size="24" font-family="Verdana" >pitIrr</text>
	<text x="1842" y="4432" fill="rgb(0,0,0)" font-size="24" font-family="Verdana" >pitPit</text>
	<text x="1842" y="4332" fill="rgb(0,0,0)" font-size="24" font-family="Verdana" >carSyr</text>
	<text x="1842" y="4232" fill="rgb(0,0,0)" font-size="24" font-family="Verdana" >tarBan</text>
	<text x="1842" y="4132" fill="rgb(0,0,0)" font-size="24" font-family="Verdana" >eulRuf</text>
	<text x="1842" y="4032" fill="rgb(0,0,0)" font-size="24" font-family="Verdana" >eulCol</text>
	<text x="1842" y="3932" fill="rgb(0,0,0)" font-size="24" font-family="Verdana" >eulFul</text>
	<text x="1842" y="3832" fill="rgb(0,0,0)" font-size="24" font-family="Verdana" >eulSan</text>
	<text x="1842" y="3732" fill="rgb(0,0,0)" font-size="24" font-family="Verdana" >eulAlb</text>
	<text x="1842" y="3632" fill="rgb(0,0,0)" font-size="24" font-family="Verdana" >eulMon</text>
	<text x="1842" y="3532" fill="rgb(0,0,0)" font-size="24" font-family="Verdana" >eulMac</text>
	<text x="1842" y="3432" fill="rgb(0,0,0)" font-size="24" font-family="Verdana" >eulCor</text>
	<text x="1842" y="3332" fill="rgb(0,0,0)" font-size="24" font-family="Verdana" >eulRub</text>
	<text x="1842" y="3232" fill="rgb(0,0,0)" font-size="24" font-family="Verdana" >hapOcc</text>
	<text x="1842" y="3132" fill="rgb(0,0,0)" font-size="24" font-family="Verdana" >hapGri</text>
	<text x="1842" y="3032" fill="rgb(0,0,0)" font-size="24" font-family="Verdana" >lemCat</text>
	<text x="1842" y="2932" fill="rgb(0,0,0)" font-size="24" font-family="Verdana" >varVar</text>
	<text x="1842" y="2832" fill="rgb(0,0,0)" font-size="24" font-family="Verdana" >lepSep</text>
	<text x="1842" y="2732" fill="rgb(0,0,0)" font-size="24" font-family="Verdana" >lepAnk</text>
	<text x="1842" y="2632" fill="rgb(0,0,0)" font-size="24" font-family="Verdana" >lepDor</text>
	<text x="1842" y="2532" fill="rgb(0,0,0)" font-size="24" font-family="Verdana" >lepRuf</text>
	<text x="1842" y="2432" fill="rgb(0,0,0)" font-size="24" font-family="Verdana" >lepJam</text>
	<text x="1842" y="2332" fill="rgb(0,0,0)" font-size="24" font-family="Verdana" >micMur</text>
	<text x="1842" y="2232" fill="rgb(0,0,0)" font-size="24" font-family="Verdana" >mirZaz</text>
	<text x="1842" y="2132" fill="rgb(0,0,0)" font-size="24" font-family="Verdana" >cheMed</text>
	<text x="1842" y="2032" fill="rgb(0,0,0)" font-size="24" font-family="Verdana" >proVer</text>
	<text x="1842" y="1932" fill="rgb(0,0,0)" font-size="24" font-family="Verdana" >proTat</text>
	<text x="1842" y="1832" fill="rgb(0,0,0)" font-size="24" font-family="Verdana" >proDia</text>
	<text x="1842" y="1732" fill="rgb(0,0,0)" font-size="24" font-family="Verdana" >proEdw</text>
	<text x="1842" y="1632" fill="rgb(0,0,0)" font-size="24" font-family="Verdana" >avaLan</text>
	<text x="1842" y="1532" fill="rgb(0,0,0)" font-size="24" font-family="Verdana" >dauMad</text>
	<text x="1842" y="1432" fill="rgb(0,0,0)" font-size="24" font-family="Verdana" >nycBen</text>
	<text x="1842" y="1332" fill="rgb(0,0,0)" font-size="24" font-family="Verdana" >nycCou</text>
	<text x="1842" y="1232" fill="rgb(0,0,0)" font-size="24" font-family="Verdana" >nycPyg</text>
	<text x="1842" y="1132" fill="rgb(0,0,0)" font-size="24" font-family="Verdana" >lorTar</text>
	<text x="1842" y="1032" fill="rgb(0,0,0)" font-size="24" font-family="Verdana" >arcCal</text>
	<text x="1842" y="932" fill="rgb(0,0,0)" font-size="24" font-family="Verdana" >perPot</text>
	<text x="1842" y="832" fill="rgb(0,0,0)" font-size="24" font-family="Verdana" >galSen</text>
	<text x="1842" y="732" fill="rgb(0,0,0)" font-size="24" font-family="Verdana" >galMoh</text>
	<text x="1842" y="632" fill="rgb(0,0,0)" font-size="24" font-family="Verdana" >otoGar</text>
	<text x="1842" y="532" fill="rgb(0,0,0)" font-size="24" font-family="Verdana" >otoCra</text>
	<text x="1842" y="432" fill="rgb(0,0,0)" font-size="24" font-family="Verdana" >galTho</text>
	<text x="1842" y="332" fill="rgb(0,0,0)" font-size="24" font-family="Verdana" >galVar</text>
	<text x="1842" y="232" fill="rgb(0,0,0)" font-size="24" font-family="Verdana" >cynVol</text>
	<text x="1842" y="132" fill="rgb(0,0,0)" font-size="24" font-family="Verdana" >tupGli</text>
	<text x="1842" y="32" fill="rgb(0,0,0)" font-size="24" font-family="Verdana" >tupMin</text>
	<line x1="240" y1="4225" x2="240" y2="1525" stroke-width="3" stroke="rgb(65,170,190)" />
	<line x1="240" y1="1525" x2="350" y2="1525" stroke-width="3" stroke="rgb(65,170,190)" />
	<line x1="350" y1="1525" x2="350" y2="1625" stroke-width="3" stroke="rgb(65,170,190)" />
	<line x1="350" y1="1625" x2="460" y2="1625" stroke-width="3" stroke="rgb(65,170,190)" />
	<line x1="460" y1="1625" x2="460" y2="2925" stroke-width="3" stroke="rgb(65,170,190)" />
	<line x1="460" y1="2925" x2="570" y2="2925" stroke-width="3" stroke="rgb(65,170,190)" />
	<line x1="570" y1="2925" x2="570" y2="3025" stroke-width="3" stroke="rgb(65,170,190)" />
	<line x1="570" y1="3025" x2="680" y2="3025" stroke-width="3" stroke="rgb(65,170,190)" />
	<line x1="692.5" y1="3012.5" x2="667.5" y2="3037.5" stroke-width="8.33333" stroke="rgb(65,170,190)" />
	<line x1="692.5" y1="3037.5" x2="667.5" y2="3012.5" stroke-width="8.33333" stroke="rgb(65,170,190)" />
	<line x1="570" y1="2925" x2="570" y2="2125" stroke-width="3" stroke="rgb(65,170,190)" />
	<line x1="570" y1="2125" x2="680" y2="2125" stroke-width="3" stroke="rgb(65,170,190)" />
	<line x1="680" y1="2125" x2="680" y2="2425" stroke-width="3" stroke="rgb(65,170,190)" />
	<line x1="680" y1="2425" x2="790" y2="2425" stroke-width="3" stroke="rgb(65,170,190)" />
	<line x1="790" y1="2425" x2="790" y2="2525" stroke-width="3" stroke="rgb(65,170,190)" />
	<line x1="790" y1="2525" x2="900" y2="2525" stroke-width="3" stroke="rgb(65,170,190)" />
	<line x1="912.5" y1="2512.5" x2="887.5" y2="2537.5" stroke-width="8.33333" stroke="rgb(65,170,190)" />
	<line x1="912.5" y1="2537.5" x2="887.5" y2="2512.5" stroke-width="8.33333" stroke="rgb(65,170,190)" />
	<line x1="790" y1="2425" x2="790" y2="2225" stroke-width="3" stroke="rgb(65,170,190)" />
	<line x1="790" y1="2225" x2="900" y2="2225" stroke-width="3" stroke="rgb(65,170,190)" />
	<line x1="900" y1="2225" x2="900" y2="2325" stroke-width="3" stroke="rgb(65,170,190)" />
	<line x1="900" y1="2325" x2="1010" y2="2325" stroke-width="3" stroke="rgb(65,170,190)" />
	<line x1="1010" y1="2325" x2="1010" y2="2375" stroke-width="3" stroke="rgb(65,170,190)" />
	<line x1="1010" y1="2375" x2="1920" y2="2375" stroke-width="3" stroke="rgb(65,170,190)" />
	<text x="1945" y="2375" fill="rgb(65,170,190)" font-size="18" font-family="Verdana" >micMur_SHH_XM_012786262</text>
	<line x1="1010" y1="2325" x2="1010" y2="2275" stroke-width="3" stroke="rgb(65,170,190)" />
	<line x1="1010" y1="2275" x2="1120" y2="2275" stroke-width="3" stroke="rgb(65,170,190)" />
	<line x1="1132.5" y1="2262.5" x2="1107.5" y2="2287.5" stroke-width="8.33333" stroke="rgb(65,170,190)" />
	<line x1="1132.5" y1="2287.5" x2="1107.5" y2="2262.5" stroke-width="8.33333" stroke="rgb(65,170,190)" />
	<line x1="900" y1="2225" x2="900" y2="2175" stroke-width="3" stroke="rgb(65,170,190)" />
	<line x1="900" y1="2175" x2="1010" y2="2175" stroke-width="3" stroke="rgb(65,170,190)" />
	<line x1="1022.5" y1="2162.5" x2="997.5" y2="2187.5" stroke-width="8.33333" stroke="rgb(65,170,190)" />
	<line x1="1022.5" y1="2187.5" x2="997.5" y2="2162.5" stroke-width="8.33333" stroke="rgb(65,170,190)" />
	<line x1="680" y1="2125" x2="680" y2="1725" stroke-width="3" stroke="rgb(65,170,190)" />
	<line x1="680" y1="1725" x2="790" y2="1725" stroke-width="3" stroke="rgb(65,170,190)" />
	<line x1="802.5" y1="1712.5" x2="777.5" y2="1737.5" stroke-width="8.33333" stroke="rgb(65,170,190)" />
	<line x1="802.5" y1="1737.5" x2="777.5" y2="1712.5" stroke-width="8.33333" stroke="rgb(65,170,190)" />
	<line x1="460" y1="1625" x2="460" y2="1575" stroke-width="3" stroke="rgb(65,170,190)" />
	<line x1="460" y1="1575" x2="570" y2="1575" stroke-width="3" stroke="rgb(65,170,190)" />
	<line x1="582.5" y1="1562.5" x2="557.5" y2="1587.5" stroke-width="8.33333" stroke="rgb(65,170,190)" />
	<line x1="582.5" y1="1587.5" x2="557.5" y2="1562.5" stroke-width="8.33333" stroke="rgb(65,170,190)" />
	<line x1="350" y1="1525" x2="350" y2="925" stroke-width="3" stroke="rgb(65,170,190)" />
	<line x1="350" y1="925" x2="460" y2="925" stroke-width="3" stroke="rgb(65,170,190)" />
	<line x1="460" y1="925" x2="460" y2="1125" stroke-width="3" stroke="rgb(65,170,190)" />
	<line x1="460" y1="1125" x2="570" y2="1125" stroke-width="3" stroke="rgb(65,170,190)" />
	<line x1="582.5" y1="1112.5" x2="557.5" y2="1137.5" stroke-width="8.33333" stroke="rgb(65,170,190)" />
	<line x1="582.5" y1="1137.5" x2="557.5" y2="1112.5" stroke-width="8.33333" stroke="rgb(65,170,190)" />
	<line x1="460" y1="925" x2="460" y2="525" stroke-width="3" stroke="rgb(65,170,190)" />
	<line x1="460" y1="525" x2="570" y2="525" stroke-width="3" stroke="rgb(65,170,190)" />
	<line x1="570" y1="525" x2="570" y2="725" stroke-width="3" stroke="rgb(65,170,190)" />
	<line x1="570" y1="725" x2="680" y2="725" stroke-width="3" stroke="rgb(65,170,190)" />
	<line x1="680" y1="725" x2="680" y2="825" stroke-width="3" stroke="rgb(65,170,190)" />
	<line x1="680" y1="825" x2="790" y2="825" stroke-width="3" stroke="rgb(65,170,190)" />
	<line x1="802.5" y1="812.5" x2="777.5" y2="837.5" stroke-width="8.33333" stroke="rgb(65,170,190)" />
	<line x1="802.5" y1="837.5" x2="777.5" y2="812.5" stroke-width="8.33333" stroke="rgb(65,170,190)" />
	<line x1="680" y1="725" x2="680" y2="625" stroke-width="3" stroke="rgb(65,170,190)" />
	<line x1="680" y1="625" x2="790" y2="625" stroke-width="3" stroke="rgb(65,170,190)" />
	<line x1="790" y1="625" x2="790" y2="675" stroke-width="3" stroke="rgb(65,170,190)" />
	<line x1="790" y1="675" x2="1920" y2="675" stroke-width="3" stroke="rgb(65,170,190)" />
	<text x="1945" y="675" fill="rgb(65,170,190)" font-size="18" font-family="Verdana" >otoGar_SHH_XM_012806501</text>
	<line x1="790" y1="625" x2="790" y2="575" stroke-width="3" stroke="rgb(65,170,190)" />
	<line x1="790" y1="575" x2="900" y2="575" stroke-width="3" stroke="rgb(65,170,190)" />
	<line x1="912.5" y1="562.5" x2="887.5" y2="587.5" stroke-width="8.33333" stroke="rgb(65,170,190)" />
	<line x1="912.5" y1="587.5" x2="887.5" y2="562.5" stroke-width="8.33333" stroke="rgb(65,170,190)" />
	<line x1="570" y1="525" x2="570" y2="475" stroke-width="3" stroke="rgb(65,170,190)" />
	<line x1="570" y1="475" x2="680" y2="475" stroke-width="3" stroke="rgb(65,170,190)" />
	<line x1="692.5" y1="462.5" x2="667.5" y2="487.5" stroke-width="8.33333" stroke="rgb(65,170,190)" />
	<line x1="692.5" y1="487.5" x2="667.5" y2="462.5" stroke-width="8.33333" stroke="rgb(65,170,190)" />
	<line x1="240" y1="4225" x2="240" y2="4425" stroke-width="3" stroke="rgb(65,170,190)" />
	<line x1="240" y1="4425" x2="350" y2="4425" stroke-width="3" stroke="rgb(65,170,190)" />
	<line x1="350" y1="4425" x2="350" y2="10625" stroke-width="3" stroke="rgb(65,170,190)" />
	<line x1="350" y1="10625" x2="460" y2="10625" stroke-width="3" stroke="rgb(65,170,190)" />
	<line x1="460" y1="10625" x2="460" y2="12075" stroke-width="3" stroke="rgb(65,170,190)" />
	<line x1="460" y1="12075" x2="570" y2="12075" stroke-width="3" stroke="rgb(65,170,190)" />
	<line x1="570" y1="12075" x2="570" y2="14275" stroke-width="3" stroke="rgb(65,170,190)" />
	<line x1="570" y1="14275" x2="680" y2="14275" stroke-width="3" stroke="rgb(65,170,190)" />
	<line x1="680" y1="14275" x2="680" y2="15975" stroke-width="3" stroke="rgb(65,170,190)" />
	<line x1="680" y1="15975" x2="790" y2="15975" stroke-width="3" stroke="rgb(65,170,190)" />
	<line x1="790" y1="15975" x2="790" y2="17075" stroke-width="3" stroke="rgb(65,170,190)" />
	<line x1="790" y1="17075" x2="900" y2="17075" stroke-width="3" stroke="rgb(65,170,190)" />
	<line x1="900" y1="17075" x2="900" y2="17175" stroke-width="3" stroke="rgb(65,170,190)" />
	<line x1="900" y1="17175" x2="1010" y2="17175" stroke-width="3" stroke="rgb(65,170,190)" />
	<line x1="1010" y1="17175" x2="1010" y2="17775" stroke-width="3" stroke="rgb(65,170,190)" />
	<line x1="1010" y1="17775" x2="1120" y2="17775" stroke-width="3" stroke="rgb(65,170,190)" />
	<line x1="1120" y1="17775" x2="1120" y2="18075" stroke-width="3" stroke="rgb(65,170,190)" />
	<line x1="1120" y1="18075" x2="1230" y2="18075" stroke-width="3" stroke="rgb(65,170,190)" />
	<line x1="1230" y1="18075" x2="1230" y2="18275" stroke-width="3" stroke="rgb(65,170,190)" />
	<line x1="1230" y1="18275" x2="1340" y2="18275" stroke-width="3" stroke="rgb(65,170,190)" />
	<line x1="1352.5" y1="18262.5" x2="1327.5" y2="18287.5" stroke-width="8.33333" stroke="rgb(65,170,190)" />
	<line x1="1352.5" y1="18287.5" x2="1327.5" y2="18262.5" stroke-width="8.33333" stroke="rgb(65,170,190)" />
	<line x1="1230" y1="18075" x2="1230" y2="17875" stroke-width="3" stroke="rgb(65,170,190)" />
	<line x1="1230" y1="17875" x2="1340" y2="17875" stroke-width="3" stroke="rgb(65,170,190)" />
	<line x1="1340" y1="17875" x2="1340" y2="17975" stroke-width="3" stroke="rgb(65,170,190)" />
	<line x1="1340" y1="17975" x2="1450" y2="17975" stroke-width="3" stroke="rgb(65,170,190)" />
	<line x1="1450" y1="17975" x2="1450" y2="18025" stroke-width="3" stroke="rgb(65,170,190)" />
	<line x1="1450" y1="18025" x2="1920" y2="18025" stroke-width="3" stroke="rgb(65,170,190)" />
	<text x="1945" y="18025" fill="rgb(65,170,190)" font-size="18" font-family="Verdana" >macNem_SHH_XM_011729914</text>
	<line x1="1450" y1="17975" x2="1450" y2="17925" stroke-width="3" stroke="rgb(65,170,190)" />
	<line x1="1450" y1="17925" x2="1560" y2="17925" stroke-width="3" stroke="rgb(65,170,190)" />
	<line x1="1572.5" y1="17912.5" x2="1547.5" y2="17937.5" stroke-width="8.33333" stroke="rgb(65,170,190)" />
	<line x1="1572.5" y1="17937.5" x2="1547.5" y2="17912.5" stroke-width="8.33333" stroke="rgb(65,170,190)" />
	<line x1="1340" y1="17875" x2="1340" y2="17825" stroke-width="3" stroke="rgb(65,170,190)" />
	<line x1="1340" y1="17825" x2="1450" y2="17825" stroke-width="3" stroke="rgb(65,170,190)" />
	<line x1="1462.5" y1="17812.5" x2="1437.5" y2="17837.5" stroke-width="8.33333" stroke="rgb(65,170,190)" />
	<line x1="1462.5" y1="17837.5" x2="1437.5" y2="17812.5" stroke-width="8.33333" stroke="rgb(65,170,190)" />
	<line x1="1120" y1="17775" x2="1120" y2="17375" stroke-width="3" stroke="rgb(65,170,190)" />
	<line x1="1120" y1="17375" x2="1230" y2="17375" stroke-width="3" stroke="rgb(65,170,190)" />
	<line x1="1230" y1="17375" x2="1230" y2="17475" stroke-width="3" stroke="rgb(65,170,190)" />
	<line x1="1230" y1="17475" x2="1340" y2="17475" stroke-width="3" stroke="rgb(65,170,190)" />
	<line x1="1340" y1="17475" x2="1340" y2="17425" stroke-width="3" stroke="rgb(65,170,190)" />
	<line x1="1340" y1="17425" x2="1920" y2="17425" stroke-width="3" stroke="rgb(65,170,190)" />
	<text x="1945" y="17425" fill="rgb(65,170,190)" font-size="18" font-family="Verdana" >macFas_SHH_XM_005551269</text>
	<line x1="1340" y1="17475" x2="1340" y2="17575" stroke-width="3" stroke="rgb(65,170,190)" />
	<line x1="1340" y1="17575" x2="1450" y2="17575" stroke-width="3" stroke="rgb(65,170,190)" />
	<line x1="1450" y1="17575" x2="1450" y2="17675" stroke-width="3" stroke="rgb(65,170,190)" />
	<line x1="1450" y1="17675" x2="1560" y2="17675" stroke-width="3" stroke="rgb(65,170,190)" />
	<line x1="1560" y1="17675" x2="1560" y2="17725" stroke-width="3" stroke="rgb(65,170,190)" />
	<line x1="1560" y1="17725" x2="1920" y2="17725" stroke-width="3" stroke="rgb(65,170,190)" />
	<text x="1945" y="17725" fill="rgb(65,170,190)" font-size="18" font-family="Verdana" >macMul_SHH_XM_001106515</text>
	<line x1="1560" y1="17675" x2="1560" y2="17625" stroke-width="3" stroke="rgb(65,170,190)" />
	<line x1="1560" y1="17625" x2="1670" y2="17625" stroke-width="3" stroke="rgb(65,170,190)" />
	<line x1="1682.5" y1="17612.5" x2="1657.5" y2="17637.5" stroke-width="8.33333" stroke="rgb(65,170,190)" />
	<line x1="1682.5" y1="17637.5" x2="1657.5" y2="17612.5" stroke-width="8.33333" stroke="rgb(65,170,190)" />
	<line x1="1450" y1="17575" x2="1450" y2="17525" stroke-width="3" stroke="rgb(65,170,190)" />
	<line x1="1450" y1="17525" x2="1560" y2="17525" stroke-width="3" stroke="rgb(65,170,190)" />
	<line x1="1572.5" y1="17512.5" x2="1547.5" y2="17537.5" stroke-width="8.33333" stroke="rgb(65,170,190)" />
	<line x1="1572.5" y1="17537.5" x2="1547.5" y2="17512.5" stroke-width="8.33333" stroke="rgb(65,170,190)" />
	<line x1="1230" y1="17375" x2="1230" y2="17275" stroke-width="3" stroke="rgb(65,170,190)" />
	<line x1="1230" y1="17275" x2="1340" y2="17275" stroke-width="3" stroke="rgb(65,170,190)" />
	<line x1="1352.5" y1="17262.5" x2="1327.5" y2="17287.5" stroke-width="8.33333" stroke="rgb(65,170,190)" />
	<line x1="1352.5" y1="17287.5" x2="1327.5" y2="17262.5" stroke-width="8.33333" stroke="rgb(65,170,190)" />
	<line x1="1010" y1="17175" x2="1010" y2="17125" stroke-width="3" stroke="rgb(65,170,190)" />
	<line x1="1010" y1="17125" x2="1120" y2="17125" stroke-width="3" stroke="rgb(65,170,190)" />
	<line x1="1132.5" y1="17112.5" x2="1107.5" y2="17137.5" stroke-width="8.33333" stroke="rgb(65,170,190)" />
	<line x1="1132.5" y1="17137.5" x2="1107.5" y2="17112.5" stroke-width="8.33333" stroke="rgb(65,170,190)" />
	<line x1="900" y1="17075" x2="900" y2="16475" stroke-width="3" stroke="rgb(65,170,190)" />
	<line x1="900" y1="16475" x2="1010" y2="16475" stroke-width="3" stroke="rgb(65,170,190)" />
	<line x1="1010" y1="16475" x2="1010" y2="16575" stroke-width="3" stroke="rgb(65,170,190)" />
	<line x1="1010" y1="16575" x2="1120" y2="16575" stroke-width="3" stroke="rgb(65,170,190)" />
	<line x1="1120" y1="16575" x2="1120" y2="16525" stroke-width="3" stroke="rgb(65,170,190)" />
	<line x1="1120" y1="16525" x2="1920" y2="16525" stroke-width="3" stroke="rgb(65,170,190)" />
	<text x="1945" y="16525" fill="rgb(65,170,190)" font-size="18" font-family="Verdana" >theGel_SHH_XM_025380081</text>
	<line x1="1120" y1="16575" x2="1120" y2="16775" stroke-width="3" stroke="rgb(65,170,190)" />
	<line x1="1120" y1="16775" x2="1230" y2="16775" stroke-width="3" stroke="rgb(65,170,190)" />
	<line x1="1242.5" y1="16762.5" x2="1217.5" y2="16787.5" stroke-width="8.33333" stroke="rgb(65,170,190)" />
	<line x1="1242.5" y1="16787.5" x2="1217.5" y2="16762.5" stroke-width="8.33333" stroke="rgb(65,170,190)" />
	<line x1="1010" y1="16475" x2="1010" y2="16175" stroke-width="3" stroke="rgb(65,170,190)" />
	<line x1="1010" y1="16175" x2="1120" y2="16175" stroke-width="3" stroke="rgb(65,170,190)" />
	<line x1="1132.5" y1="16162.5" x2="1107.5" y2="16187.5" stroke-width="8.33333" stroke="rgb(65,170,190)" />
	<line x1="1132.5" y1="16187.5" x2="1107.5" y2="16162.5" stroke-width="8.33333" stroke="rgb(65,170,190)" />
	<line x1="790" y1="15975" x2="790" y2="14875" stroke-width="3" stroke="rgb(65,170,190)" />
	<line x1="790" y1="14875" x2="900" y2="14875" stroke-width="3" stroke="rgb(65,170,190)" />
	<line x1="900" y1="14875" x2="900" y2="14975" stroke-width="3" stroke="rgb(65,170,190)" />
	<line x1="900" y1="14975" x2="1010" y2="14975" stroke-width="3" stroke="rgb(65,170,190)" />
	<line x1="1022.5" y1="14962.5" x2="997.5" y2="14987.5" stroke-width="8.33333" stroke="rgb(65,170,190)" />
	<line x1="1022.5" y1="14987.5" x2="997.5" y2="14962.5" stroke-width="8.33333" stroke="rgb(65,170,190)" />
	<line x1="900" y1="14875" x2="900" y2="14375" stroke-width="3" stroke="rgb(65,170,190)" />
	<line x1="900" y1="14375" x2="1010" y2="14375" stroke-width="3" stroke="rgb(65,170,190)" />
	<line x1="1010" y1="14375" x2="1010" y2="14575" stroke-width="3" stroke="rgb(65,170,190)" />
	<line x1="1010" y1="14575" x2="1120" y2="14575" stroke-width="3" stroke="rgb(65,170,190)" />
	<line x1="1120" y1="14575" x2="1120" y2="14675" stroke-width="3" stroke="rgb(65,170,190)" />
	<line x1="1120" y1="14675" x2="1230" y2="14675" stroke-width="3" stroke="rgb(65,170,190)" />
	<line x1="1230" y1="14675" x2="1230" y2="14775" stroke-width="3" stroke="rgb(65,170,190)" />
	<line x1="1230" y1="14775" x2="1340" y2="14775" stroke-width="3" stroke="rgb(65,170,190)" />
	<line x1="1340" y1="14775" x2="1340" y2="14725" stroke-width="3" stroke="rgb(65,170,190)" />
	<line x1="1340" y1="14725" x2="1920" y2="14725" stroke-width="3" stroke="rgb(65,170,190)" />
	<text x="1945" y="14725" fill="rgb(65,170,190)" font-size="18" font-family="Verdana" >chlSab_SHH_XM_007983598</text>
	<line x1="1340" y1="14775" x2="1340" y2="14825" stroke-width="3" stroke="rgb(65,170,190)" />
	<line x1="1340" y1="14825" x2="1450" y2="14825" stroke-width="3" stroke="rgb(65,170,190)" />
	<line x1="1462.5" y1="14812.5" x2="1437.5" y2="14837.5" stroke-width="8.33333" stroke="rgb(65,170,190)" />
	<line x1="1462.5" y1="14837.5" x2="1437.5" y2="14812.5" stroke-width="8.33333" stroke="rgb(65,170,190)" />
	<line x1="1230" y1="14675" x2="1230" y2="14625" stroke-width="3" stroke="rgb(65,170,190)" />
	<line x1="1230" y1="14625" x2="1340" y2="14625" stroke-width="3" stroke="rgb(65,170,190)" />
	<line x1="1352.5" y1="14612.5" x2="1327.5" y2="14637.5" stroke-width="8.33333" stroke="rgb(65,170,190)" />
	<line x1="1352.5" y1="14637.5" x2="1327.5" y2="14612.5" stroke-width="8.33333" stroke="rgb(65,170,190)" />
	<line x1="1120" y1="14575" x2="1120" y2="14475" stroke-width="3" stroke="rgb(65,170,190)" />
	<line x1="1120" y1="14475" x2="1230" y2="14475" stroke-width="3" stroke="rgb(65,170,190)" />
	<line x1="1242.5" y1="14462.5" x2="1217.5" y2="14487.5" stroke-width="8.33333" stroke="rgb(65,170,190)" />
	<line x1="1242.5" y1="14487.5" x2="1217.5" y2="14462.5" stroke-width="8.33333" stroke="rgb(65,170,190)" />
	<line x1="1010" y1="14375" x2="1010" y2="14325" stroke-width="3" stroke="rgb(65,170,190)" />
	<line x1="1010" y1="14325" x2="1120" y2="14325" stroke-width="3" stroke="rgb(65,170,190)" />
	<line x1="1132.5" y1="14312.5" x2="1107.5" y2="14337.5" stroke-width="8.33333" stroke="rgb(65,170,190)" />
	<line x1="1132.5" y1="14337.5" x2="1107.5" y2="14312.5" stroke-width="8.33333" stroke="rgb(65,170,190)" />
	<line x1="680" y1="14275" x2="680" y2="12475" stroke-width="3" stroke="rgb(65,170,190)" />
	<line x1="680" y1="12475" x2="790" y2="12475" stroke-width="3" stroke="rgb(65,170,190)" />
	<line x1="790" y1="12475" x2="790" y2="12175" stroke-width="3" stroke="rgb(65,170,190)" />
	<line x1="790" y1="12175" x2="900" y2="12175" stroke-width="3" stroke="rgb(65,170,190)" />
	<line x1="900" y1="12175" x2="900" y2="12125" stroke-width="3" stroke="rgb(65,170,190)" />
	<line x1="900" y1="12125" x2="1920" y2="12125" stroke-width="3" stroke="rgb(65,170,190)" />
	<text x="1945" y="12125" fill="rgb(65,170,190)" font-size="18" font-family="Verdana" >pilTep_SHH_XM_023225522</text>
	<line x1="900" y1="12175" x2="900" y2="12275" stroke-width="3" stroke="rgb(65,170,190)" />
	<line x1="900" y1="12275" x2="1010" y2="12275" stroke-width="3" stroke="rgb(65,170,190)" />
	<line x1="1010" y1="12275" x2="1010" y2="12225" stroke-width="3" stroke="rgb(65,170,190)" />
	<line x1="1010" y1="12225" x2="1920" y2="12225" stroke-width="3" stroke="rgb(65,170,190)" />
	<text x="1945" y="12225" fill="rgb(65,170,190)" font-size="18" font-family="Verdana" >colAngPal_SHH_XM_011941594</text>
	<line x1="1010" y1="12275" x2="1010" y2="12375" stroke-width="3" stroke="rgb(65,170,190)" />
	<line x1="1010" y1="12375" x2="1120" y2="12375" stroke-width="3" stroke="rgb(65,170,190)" />
	<line x1="1132.5" y1="12362.5" x2="1107.5" y2="12387.5" stroke-width="8.33333" stroke="rgb(65,170,190)" />
	<line x1="1132.5" y1="12387.5" x2="1107.5" y2="12362.5" stroke-width="8.33333" stroke="rgb(65,170,190)" />
	<line x1="790" y1="12475" x2="790" y2="12675" stroke-width="3" stroke="rgb(65,170,190)" />
	<line x1="790" y1="12675" x2="900" y2="12675" stroke-width="3" stroke="rgb(65,170,190)" />
	<line x1="900" y1="12675" x2="900" y2="13375" stroke-width="3" stroke="rgb(65,170,190)" />
	<line x1="900" y1="13375" x2="1010" y2="13375" stroke-width="3" stroke="rgb(65,170,190)" />
	<line x1="1010" y1="13375" x2="1010" y2="13675" stroke-width="3" stroke="rgb(65,170,190)" />
	<line x1="1010" y1="13675" x2="1120" y2="13675" stroke-width="3" stroke="rgb(65,170,190)" />
	<line x1="1132.5" y1="13662.5" x2="1107.5" y2="13687.5" stroke-width="8.33333" stroke="rgb(65,170,190)" />
	<line x1="1132.5" y1="13687.5" x2="1107.5" y2="13662.5" stroke-width="8.33333" stroke="rgb(65,170,190)" />
	<line x1="1010" y1="13375" x2="1010" y2="12975" stroke-width="3" stroke="rgb(65,170,190)" />
	<line x1="1010" y1="12975" x2="1120" y2="12975" stroke-width="3" stroke="rgb(65,170,190)" />
	<line x1="1120" y1="12975" x2="1120" y2="13075" stroke-width="3" stroke="rgb(65,170,190)" />
	<line x1="1120" y1="13075" x2="1230" y2="13075" stroke-width="3" stroke="rgb(65,170,190)" />
	<line x1="1242.5" y1="13062.5" x2="1217.5" y2="13087.5" stroke-width="8.33333" stroke="rgb(65,170,190)" />
	<line x1="1242.5" y1="13087.5" x2="1217.5" y2="13062.5" stroke-width="8.33333" stroke="rgb(65,170,190)" />
	<line x1="1120" y1="12975" x2="1120" y2="12775" stroke-width="3" stroke="rgb(65,170,190)" />
	<line x1="1120" y1="12775" x2="1230" y2="12775" stroke-width="3" stroke="rgb(65,170,190)" />
	<line x1="1230" y1="12775" x2="1230" y2="12875" stroke-width="3" stroke="rgb(65,170,190)" />
	<line x1="1230" y1="12875" x2="1340" y2="12875" stroke-width="3" stroke="rgb(65,170,190)" />
	<line x1="1340" y1="12875" x2="1340" y2="12825" stroke-width="3" stroke="rgb(65,170,190)" />
	<line x1="1340" y1="12825" x2="1920" y2="12825" stroke-width="3" stroke="rgb(65,170,190)" />
	<text x="1945" y="12825" fill="rgb(65,170,190)" font-size="18" font-family="Verdana" >rhiBie_SHH_XM_017860555</text>
	<line x1="1340" y1="12875" x2="1340" y2="12925" stroke-width="3" stroke="rgb(65,170,190)" />
	<line x1="1340" y1="12925" x2="1920" y2="12925" stroke-width="3" stroke="rgb(65,170,190)" />
	<text x="1945" y="12925" fill="rgb(65,170,190)" font-size="18" font-family="Verdana" >rhiRox_SHH_XM_030932987</text>
	<line x1="1230" y1="12775" x2="1230" y2="12725" stroke-width="3" stroke="rgb(65,170,190)" />
	<line x1="1230" y1="12725" x2="1340" y2="12725" stroke-width="3" stroke="rgb(65,170,190)" />
	<line x1="1352.5" y1="12712.5" x2="1327.5" y2="12737.5" stroke-width="8.33333" stroke="rgb(65,170,190)" />
	<line x1="1352.5" y1="12737.5" x2="1327.5" y2="12712.5" stroke-width="8.33333" stroke="rgb(65,170,190)" />
	<line x1="900" y1="12675" x2="900" y2="12575" stroke-width="3" stroke="rgb(65,170,190)" />
	<line x1="900" y1="12575" x2="1010" y2="12575" stroke-width="3" stroke="rgb(65,170,190)" />
	<line x1="1022.5" y1="12562.5" x2="997.5" y2="12587.5" stroke-width="8.33333" stroke="rgb(65,170,190)" />
	<line x1="1022.5" y1="12587.5" x2="997.5" y2="12562.5" stroke-width="8.33333" stroke="rgb(65,170,190)" />
	<line x1="570" y1="12075" x2="570" y2="11275" stroke-width="3" stroke="rgb(65,170,190)" />
	<line x1="570" y1="11275" x2="680" y2="11275" stroke-width="3" stroke="rgb(65,170,190)" />
	<line x1="680" y1="11275" x2="680" y2="11675" stroke-width="3" stroke="rgb(65,170,190)" />
	<line x1="680" y1="11675" x2="790" y2="11675" stroke-width="3" stroke="rgb(65,170,190)" />
	<line x1="790" y1="11675" x2="790" y2="11775" stroke-width="3" stroke="rgb(65,170,190)" />
	<line x1="790" y1="11775" x2="900" y2="11775" stroke-width="3" stroke="rgb(65,170,190)" />
	<line x1="912.5" y1="11762.5" x2="887.5" y2="11787.5" stroke-width="8.33333" stroke="rgb(65,170,190)" />
	<line x1="912.5" y1="11787.5" x2="887.5" y2="11762.5" stroke-width="8.33333" stroke="rgb(65,170,190)" />
	<line x1="790" y1="11675" x2="790" y2="11475" stroke-width="3" stroke="rgb(65,170,190)" />
	<line x1="790" y1="11475" x2="900" y2="11475" stroke-width="3" stroke="rgb(65,170,190)" />
	<line x1="900" y1="11475" x2="900" y2="11575" stroke-width="3" stroke="rgb(65,170,190)" />
	<line x1="900" y1="11575" x2="1010" y2="11575" stroke-width="3" stroke="rgb(65,170,190)" />
	<line x1="1010" y1="11575" x2="1010" y2="11625" stroke-width="3" stroke="rgb(65,170,190)" />
	<line x1="1010" y1="11625" x2="1920" y2="11625" stroke-width="3" stroke="rgb(65,170,190)" />
	<text x="1945" y="11625" fill="rgb(65,170,190)" font-size="18" font-family="Verdana" >nomLeu_SHH_XM_003280860</text>
	<line x1="1010" y1="11575" x2="1010" y2="11525" stroke-width="3" stroke="rgb(65,170,190)" />
	<line x1="1010" y1="11525" x2="1120" y2="11525" stroke-width="3" stroke="rgb(65,170,190)" />
	<line x1="1132.5" y1="11512.5" x2="1107.5" y2="11537.5" stroke-width="8.33333" stroke="rgb(65,170,190)" />
	<line x1="1132.5" y1="11537.5" x2="1107.5" y2="11512.5" stroke-width="8.33333" stroke="rgb(65,170,190)" />
	<line x1="900" y1="11475" x2="900" y2="11375" stroke-width="3" stroke="rgb(65,170,190)" />
	<line x1="900" y1="11375" x2="1010" y2="11375" stroke-width="3" stroke="rgb(65,170,190)" />
	<line x1="1022.5" y1="11362.5" x2="997.5" y2="11387.5" stroke-width="8.33333" stroke="rgb(65,170,190)" />
	<line x1="1022.5" y1="11387.5" x2="997.5" y2="11362.5" stroke-width="8.33333" stroke="rgb(65,170,190)" />
	<line x1="680" y1="11275" x2="680" y2="10825" stroke-width="3" stroke="rgb(65,170,190)" />
	<line x1="680" y1="10825" x2="790" y2="10825" stroke-width="3" stroke="rgb(65,170,190)" />
	<line x1="790" y1="10825" x2="790" y2="10925" stroke-width="3" stroke="rgb(65,170,190)" />
	<line x1="790" y1="10925" x2="900" y2="10925" stroke-width="3" stroke="rgb(65,170,190)" />
	<line x1="900" y1="10925" x2="900" y2="10875" stroke-width="3" stroke="rgb(65,170,190)" />
	<line x1="900" y1="10875" x2="1920" y2="10875" stroke-width="3" stroke="rgb(65,170,190)" />
	<text x="1945" y="10875" fill="rgb(65,170,190)" font-size="18" font-family="Verdana" >gorGorGor_SHH_XM_004046549</text>
	<line x1="900" y1="10925" x2="900" y2="11075" stroke-width="3" stroke="rgb(65,170,190)" />
	<line x1="900" y1="11075" x2="1010" y2="11075" stroke-width="3" stroke="rgb(65,170,190)" />
	<line x1="1010" y1="11075" x2="1010" y2="11025" stroke-width="3" stroke="rgb(65,170,190)" />
	<line x1="1010" y1="11025" x2="1120" y2="11025" stroke-width="3" stroke="rgb(65,170,190)" />
	<line x1="1120" y1="11025" x2="1120" y2="10975" stroke-width="3" stroke="rgb(65,170,190)" />
	<line x1="1120" y1="10975" x2="1920" y2="10975" stroke-width="3" stroke="rgb(65,170,190)" />
	<text x="1945" y="10975" fill="rgb(65,170,190)" font-size="18" font-family="Verdana" >homSap_SHH_L38518</text>
	<line x1="1120" y1="11025" x2="1120" y2="11025" stroke-width="3" stroke="rgb(65,170,190)" />
	<line x1="1120" y1="11025" x2="1150" y2="11025" stroke-width="3" stroke="rgb(65,170,190)" />
	<line x1="1150" y1="11025" x2="1150" y2="11000" stroke-width="3" stroke="rgb(65,170,190)" />
	<line x1="1150" y1="11000" x2="1920" y2="11000" stroke-width="3" stroke="rgb(65,170,190)" />
	<text x="1945" y="11000" fill="rgb(65,170,190)" font-size="18" font-family="Verdana" >homSap_SHH_CCDS5942</text>
	<line x1="1150" y1="11025" x2="1150" y2="11025" stroke-width="3" stroke="rgb(65,170,190)" />
	<line x1="1150" y1="11025" x2="1920" y2="11025" stroke-width="3" stroke="rgb(65,170,190)" />
	<text x="1945" y="11025" fill="rgb(65,170,190)" font-size="18" font-family="Verdana" >homSap_SHH_XM_011516480</text>
	<rect x="1137.5" y="11012.5" width="25" height="25" fill="rgb(65,170,190)" stroke-width="3" stroke="rgb(65,170,190)" />
	<rect x="1107.5" y="11012.5" width="25" height="25" fill="rgb(65,170,190)" stroke-width="3" stroke="rgb(65,170,190)" />
	<line x1="1010" y1="11075" x2="1010" y2="11175" stroke-width="3" stroke="rgb(65,170,190)" />
	<line x1="1010" y1="11175" x2="1120" y2="11175" stroke-width="3" stroke="rgb(65,170,190)" />
	<line x1="1120" y1="11175" x2="1120" y2="11125" stroke-width="3" stroke="rgb(65,170,190)" />
	<line x1="1120" y1="11125" x2="1920" y2="11125" stroke-width="3" stroke="rgb(65,170,190)" />
	<text x="1945" y="11125" fill="rgb(65,170,190)" font-size="18" font-family="Verdana" >panPan_SHH_XM_008969436</text>
	<line x1="1120" y1="11175" x2="1120" y2="11225" stroke-width="3" stroke="rgb(65,170,190)" />
	<line x1="1120" y1="11225" x2="1920" y2="11225" stroke-width="3" stroke="rgb(65,170,190)" />
	<text x="1945" y="11225" fill="rgb(65,170,190)" font-size="18" font-family="Verdana" >panTro_SHH_XM_001147185</text>
	<line x1="790" y1="10825" x2="790" y2="10725" stroke-width="3" stroke="rgb(65,170,190)" />
	<line x1="790" y1="10725" x2="900" y2="10725" stroke-width="3" stroke="rgb(65,170,190)" />
	<line x1="900" y1="10725" x2="900" y2="10675" stroke-width="3" stroke="rgb(65,170,190)" />
	<line x1="900" y1="10675" x2="1920" y2="10675" stroke-width="3" stroke="rgb(65,170,190)" />
	<text x="1945" y="10675" fill="rgb(65,170,190)" font-size="18" font-family="Verdana" >ponAbe_SHH_XM_002818721</text>
	<line x1="900" y1="10725" x2="900" y2="10775" stroke-width="3" stroke="rgb(65,170,190)" />
	<line x1="900" y1="10775" x2="1010" y2="10775" stroke-width="3" stroke="rgb(65,170,190)" />
	<line x1="1022.5" y1="10762.5" x2="997.5" y2="10787.5" stroke-width="8.33333" stroke="rgb(65,170,190)" />
	<line x1="1022.5" y1="10787.5" x2="997.5" y2="10762.5" stroke-width="8.33333" stroke="rgb(65,170,190)" />
	<line x1="460" y1="10625" x2="460" y2="5825" stroke-width="3" stroke="rgb(65,170,190)" />
	<line x1="460" y1="5825" x2="570" y2="5825" stroke-width="3" stroke="rgb(65,170,190)" />
	<line x1="570" y1="5825" x2="570" y2="7225" stroke-width="3" stroke="rgb(65,170,190)" />
	<line x1="570" y1="7225" x2="680" y2="7225" stroke-width="3" stroke="rgb(65,170,190)" />
	<line x1="680" y1="7225" x2="680" y2="8225" stroke-width="3" stroke="rgb(65,170,190)" />
	<line x1="680" y1="8225" x2="790" y2="8225" stroke-width="3" stroke="rgb(65,170,190)" />
	<line x1="790" y1="8225" x2="790" y2="8625" stroke-width="3" stroke="rgb(65,170,190)" />
	<line x1="790" y1="8625" x2="900" y2="8625" stroke-width="3" stroke="rgb(65,170,190)" />
	<line x1="900" y1="8625" x2="900" y2="9525" stroke-width="3" stroke="rgb(65,170,190)" />
	<line x1="900" y1="9525" x2="1010" y2="9525" stroke-width="3" stroke="rgb(65,170,190)" />
	<line x1="1010" y1="9525" x2="1010" y2="9725" stroke-width="3" stroke="rgb(65,170,190)" />
	<line x1="1010" y1="9725" x2="1120" y2="9725" stroke-width="3" stroke="rgb(65,170,190)" />
	<line x1="1120" y1="9725" x2="1120" y2="9825" stroke-width="3" stroke="rgb(65,170,190)" />
	<line x1="1120" y1="9825" x2="1230" y2="9825" stroke-width="3" stroke="rgb(65,170,190)" />
	<line x1="1230" y1="9825" x2="1230" y2="10125" stroke-width="3" stroke="rgb(65,170,190)" />
	<line x1="1230" y1="10125" x2="1340" y2="10125" stroke-width="3" stroke="rgb(65,170,190)" />
	<line x1="1340" y1="10125" x2="1340" y2="10225" stroke-width="3" stroke="rgb(65,170,190)" />
	<line x1="1340" y1="10225" x2="1450" y2="10225" stroke-width="3" stroke="rgb(65,170,190)" />
	<line x1="1450" y1="10225" x2="1450" y2="10325" stroke-width="3" stroke="rgb(65,170,190)" />
	<line x1="1450" y1="10325" x2="1560" y2="10325" stroke-width="3" stroke="rgb(65,170,190)" />
	<line x1="1560" y1="10325" x2="1560" y2="10425" stroke-width="3" stroke="rgb(65,170,190)" />
	<line x1="1560" y1="10425" x2="1670" y2="10425" stroke-width="3" stroke="rgb(65,170,190)" />
	<line x1="1670" y1="10425" x2="1670" y2="10525" stroke-width="3" stroke="rgb(65,170,190)" />
	<line x1="1670" y1="10525" x2="1780" y2="10525" stroke-width="3" stroke="rgb(65,170,190)" />
	<line x1="1780" y1="10525" x2="1780" y2="10575" stroke-width="3" stroke="rgb(65,170,190)" />
	<line x1="1780" y1="10575" x2="1920" y2="10575" stroke-width="3" stroke="rgb(65,170,190)" />
	<text x="1945" y="10575" fill="rgb(65,170,190)" font-size="18" font-family="Verdana" >calJac_SHH_XM_002807047</text>
	<line x1="1780" y1="10525" x2="1780" y2="10475" stroke-width="3" stroke="rgb(65,170,190)" />
	<line x1="1780" y1="10475" x2="1890" y2="10475" stroke-width="3" stroke="rgb(65,170,190)" />
	<line x1="1902.5" y1="10462.5" x2="1877.5" y2="10487.5" stroke-width="8.33333" stroke="rgb(65,170,190)" />
	<line x1="1902.5" y1="10487.5" x2="1877.5" y2="10462.5" stroke-width="8.33333" stroke="rgb(65,170,190)" />
	<line x1="1670" y1="10425" x2="1670" y2="10375" stroke-width="3" stroke="rgb(65,170,190)" />
	<line x1="1670" y1="10375" x2="1780" y2="10375" stroke-width="3" stroke="rgb(65,170,190)" />
	<line x1="1792.5" y1="10362.5" x2="1767.5" y2="10387.5" stroke-width="8.33333" stroke="rgb(65,170,190)" />
	<line x1="1792.5" y1="10387.5" x2="1767.5" y2="10362.5" stroke-width="8.33333" stroke="rgb(65,170,190)" />
	<line x1="1560" y1="10325" x2="1560" y2="10275" stroke-width="3" stroke="rgb(65,170,190)" />
	<line x1="1560" y1="10275" x2="1670" y2="10275" stroke-width="3" stroke="rgb(65,170,190)" />
	<line x1="1682.5" y1="10262.5" x2="1657.5" y2="10287.5" stroke-width="8.33333" stroke="rgb(65,170,190)" />
	<line x1="1682.5" y1="10287.5" x2="1657.5" y2="10262.5" stroke-width="8.33333" stroke="rgb(65,170,190)" />
	<line x1="1450" y1="10225" x2="1450" y2="10175" stroke-width="3" stroke="rgb(65,170,190)" />
	<line x1="1450" y1="10175" x2="1560" y2="10175" stroke-width="3" stroke="rgb(65,170,190)" />
	<line x1="1572.5" y1="10162.5" x2="1547.5" y2="10187.5" stroke-width="8.33333" stroke="rgb(65,170,190)" />
	<line x1="1572.5" y1="10187.5" x2="1547.5" y2="10162.5" stroke-width="8.33333" stroke="rgb(65,170,190)" />
	<line x1="1340" y1="10125" x2="1340" y2="9925" stroke-width="3" stroke="rgb(65,170,190)" />
	<line x1="1340" y1="9925" x2="1450" y2="9925" stroke-width="3" stroke="rgb(65,170,190)" />
	<line x1="1462.5" y1="9912.5" x2="1437.5" y2="9937.5" stroke-width="8.33333" stroke="rgb(65,170,190)" />
	<line x1="1462.5" y1="9937.5" x2="1437.5" y2="9912.5" stroke-width="8.33333" stroke="rgb(65,170,190)" />
	<line x1="1230" y1="9825" x2="1230" y2="9775" stroke-width="3" stroke="rgb(65,170,190)" />
	<line x1="1230" y1="9775" x2="1340" y2="9775" stroke-width="3" stroke="rgb(65,170,190)" />
	<line x1="1352.5" y1="9762.5" x2="1327.5" y2="9787.5" stroke-width="8.33333" stroke="rgb(65,170,190)" />
	<line x1="1352.5" y1="9787.5" x2="1327.5" y2="9762.5" stroke-width="8.33333" stroke="rgb(65,170,190)" />
	<line x1="1120" y1="9725" x2="1120" y2="9625" stroke-width="3" stroke="rgb(65,170,190)" />
	<line x1="1120" y1="9625" x2="1230" y2="9625" stroke-width="3" stroke="rgb(65,170,190)" />
	<line x1="1242.5" y1="9612.5" x2="1217.5" y2="9637.5" stroke-width="8.33333" stroke="rgb(65,170,190)" />
	<line x1="1242.5" y1="9637.5" x2="1217.5" y2="9612.5" stroke-width="8.33333" stroke="rgb(65,170,190)" />
	<line x1="1010" y1="9525" x2="1010" y2="8725" stroke-width="3" stroke="rgb(65,170,190)" />
	<line x1="1010" y1="8725" x2="1120" y2="8725" stroke-width="3" stroke="rgb(65,170,190)" />
	<line x1="1132.5" y1="8712.5" x2="1107.5" y2="8737.5" stroke-width="8.33333" stroke="rgb(65,170,190)" />
	<line x1="1132.5" y1="8737.5" x2="1107.5" y2="8712.5" stroke-width="8.33333" stroke="rgb(65,170,190)" />
	<line x1="900" y1="8625" x2="900" y2="8425" stroke-width="3" stroke="rgb(65,170,190)" />
	<line x1="900" y1="8425" x2="1010" y2="8425" stroke-width="3" stroke="rgb(65,170,190)" />
	<line x1="1022.5" y1="8412.5" x2="997.5" y2="8437.5" stroke-width="8.33333" stroke="rgb(65,170,190)" />
	<line x1="1022.5" y1="8437.5" x2="997.5" y2="8412.5" stroke-width="8.33333" stroke="rgb(65,170,190)" />
	<line x1="790" y1="8225" x2="790" y2="7625" stroke-width="3" stroke="rgb(65,170,190)" />
	<line x1="790" y1="7625" x2="900" y2="7625" stroke-width="3" stroke="rgb(65,170,190)" />
	<line x1="900" y1="7625" x2="900" y2="7925" stroke-width="3" stroke="rgb(65,170,190)" />
	<line x1="900" y1="7925" x2="1010" y2="7925" stroke-width="3" stroke="rgb(65,170,190)" />
	<line x1="1010" y1="7925" x2="1010" y2="8025" stroke-width="3" stroke="rgb(65,170,190)" />
	<line x1="1010" y1="8025" x2="1120" y2="8025" stroke-width="3" stroke="rgb(65,170,190)" />
	<line x1="1132.5" y1="8012.5" x2="1107.5" y2="8037.5" stroke-width="8.33333" stroke="rgb(65,170,190)" />
	<line x1="1132.5" y1="8037.5" x2="1107.5" y2="8012.5" stroke-width="8.33333" stroke="rgb(65,170,190)" />
	<line x1="1010" y1="7925" x2="1010" y2="7725" stroke-width="3" stroke="rgb(65,170,190)" />
	<line x1="1010" y1="7725" x2="1120" y2="7725" stroke-width="3" stroke="rgb(65,170,190)" />
	<line x1="1120" y1="7725" x2="1120" y2="7825" stroke-width="3" stroke="rgb(65,170,190)" />
	<line x1="1120" y1="7825" x2="1230" y2="7825" stroke-width="3" stroke="rgb(65,170,190)" />
	<line x1="1230" y1="7825" x2="1230" y2="7875" stroke-width="3" stroke="rgb(65,170,190)" />
	<line x1="1230" y1="7875" x2="1920" y2="7875" stroke-width="3" stroke="rgb(65,170,190)" />
	<text x="1945" y="7875" fill="rgb(65,170,190)" font-size="18" font-family="Verdana" >cebCapImi_SHH_XM_017519603</text>
	<line x1="1230" y1="7825" x2="1230" y2="7775" stroke-width="3" stroke="rgb(65,170,190)" />
	<line x1="1230" y1="7775" x2="1340" y2="7775" stroke-width="3" stroke="rgb(65,170,190)" />
	<line x1="1352.5" y1="7762.5" x2="1327.5" y2="7787.5" stroke-width="8.33333" stroke="rgb(65,170,190)" />
	<line x1="1352.5" y1="7787.5" x2="1327.5" y2="7762.5" stroke-width="8.33333" stroke="rgb(65,170,190)" />
	<line x1="1120" y1="7725" x2="1120" y2="7675" stroke-width="3" stroke="rgb(65,170,190)" />
	<line x1="1120" y1="7675" x2="1230" y2="7675" stroke-width="3" stroke="rgb(65,170,190)" />
	<line x1="1242.5" y1="7662.5" x2="1217.5" y2="7687.5" stroke-width="8.33333" stroke="rgb(65,170,190)" />
	<line x1="1242.5" y1="7687.5" x2="1217.5" y2="7662.5" stroke-width="8.33333" stroke="rgb(65,170,190)" />
	<line x1="900" y1="7625" x2="900" y2="7325" stroke-width="3" stroke="rgb(65,170,190)" />
	<line x1="900" y1="7325" x2="1010" y2="7325" stroke-width="3" stroke="rgb(65,170,190)" />
	<line x1="1010" y1="7325" x2="1010" y2="7275" stroke-width="3" stroke="rgb(65,170,190)" />
	<line x1="1010" y1="7275" x2="1920" y2="7275" stroke-width="3" stroke="rgb(65,170,190)" />
	<text x="1945" y="7275" fill="rgb(65,170,190)" font-size="18" font-family="Verdana" >saiBolBol_SHH_XM_010329567</text>
	<line x1="1010" y1="7325" x2="1010" y2="7425" stroke-width="3" stroke="rgb(65,170,190)" />
	<line x1="1010" y1="7425" x2="1120" y2="7425" stroke-width="3" stroke="rgb(65,170,190)" />
	<line x1="1132.5" y1="7412.5" x2="1107.5" y2="7437.5" stroke-width="8.33333" stroke="rgb(65,170,190)" />
	<line x1="1132.5" y1="7437.5" x2="1107.5" y2="7412.5" stroke-width="8.33333" stroke="rgb(65,170,190)" />
	<line x1="680" y1="7225" x2="680" y2="6225" stroke-width="3" stroke="rgb(65,170,190)" />
	<line x1="680" y1="6225" x2="790" y2="6225" stroke-width="3" stroke="rgb(65,170,190)" />
	<line x1="802.5" y1="6212.5" x2="777.5" y2="6237.5" stroke-width="8.33333" stroke="rgb(65,170,190)" />
	<line x1="802.5" y1="6237.5" x2="777.5" y2="6212.5" stroke-width="8.33333" stroke="rgb(65,170,190)" />
	<line x1="570" y1="5825" x2="570" y2="5025" stroke-width="3" stroke="rgb(65,170,190)" />
	<line x1="570" y1="5025" x2="680" y2="5025" stroke-width="3" stroke="rgb(65,170,190)" />
	<line x1="692.5" y1="5012.5" x2="667.5" y2="5037.5" stroke-width="8.33333" stroke="rgb(65,170,190)" />
	<line x1="692.5" y1="5037.5" x2="667.5" y2="5012.5" stroke-width="8.33333" stroke="rgb(65,170,190)" />
	<line x1="350" y1="4425" x2="350" y2="4325" stroke-width="3" stroke="rgb(65,170,190)" />
	<line x1="350" y1="4325" x2="460" y2="4325" stroke-width="3" stroke="rgb(65,170,190)" />
	<line x1="472.5" y1="4312.5" x2="447.5" y2="4337.5" stroke-width="8.33333" stroke="rgb(65,170,190)" />
	<line x1="472.5" y1="4337.5" x2="447.5" y2="4312.5" stroke-width="8.33333" stroke="rgb(65,170,190)" />
	<polygon points="255.625,4225 246.32,4220.41 244.828,4210.14 237.586,4217.57 227.359,4215.82 232.188,4225 227.359,4234.18 237.586,4232.43 244.828,4239.86 246.32,4229.59 255.625,4225 " fill="rgb(255,255,255)" stroke-width="6.25" stroke="rgb(65,170,190)" />
</svg>
