<?xml version="1.0" standalone="no" ?>
<!DOCTYPE svg PUBLIC "-//W3C//DTD SVG 1.1//EN" "http://www.w3.org/Graphics/SVG/1.1/DTD/svg11.dtd">
<svg width="2620px" height="18685px" xmlns="http://www.w3.org/2000/svg" version="1.1" >
	<polygon points="50,250 50,450 130,450 130,4250 210,4250 210,4450 320,4450 320,10650 430,10650 430,12300 540,12300 540,14525 735,14525 735,16225 900,16225 900,17325 1010,17325 1010,17425 1120,17425 1120,18025 1230,18025 1230,18325 1340,18325 1340,18525 1450,18525 1450,18625 1560,18625 1560,18675 1640,18675 1920,18675 1920,18625 1640,18625 1590,18625 1590,18625 1590,18575 1590,18575 1640,18575 1920,18575 1920,18525 1640,18525 1560,18525 1560,18575 1510,18575 1510,18525 1510,18475 1510,18425 1560,18425 1560,18475 1640,18475 1920,18475 1920,18425 1640,18425 1590,18425 1590,18425 1590,18375 1590,18375 1640,18375 1920,18375 1920,18325 1640,18325 1560,18325 1560,18375 1450,18375 1450,18475 1400,18475 1400,18325 1400,18275 1400,18125 1450,18125 1450,18225 1560,18225 1560,18275 1670,18275 1920,18275 1920,18225 1670,18225 1620,18225 1620,18225 1620,18175 1620,18175 1670,18175 1920,18175 1920,18125 1670,18125 1560,18125 1560,18175 1510,18175 1510,18125 1510,18075 1510,18075 1560,18075 1920,18075 1920,18025 1560,18025 1450,18025 1450,18075 1340,18075 1340,18275 1290,18275 1290,18025 1290,17975 1290,17625 1340,17625 1340,17725 1450,17725 1450,17825 1560,17825 1560,17925 1670,17925 1670,17975 1780,17975 1920,17975 1920,17925 1780,17925 1730,17925 1730,17925 1730,17875 1730,17875 1780,17875 1920,17875 1920,17825 1780,17825 1670,17825 1670,17875 1620,17875 1620,17825 1620,17775 1620,17775 1670,17775 1920,17775 1920,17725 1670,17725 1560,17725 1560,17775 1510,17775 1510,17725 1510,17675 1510,17675 1560,17675 1920,17675 1920,17625 1560,17625 1450,17625 1450,17675 1400,17675 1400,17625 1400,17575 1400,17525 1450,17525 1450,17575 1560,17575 1920,17575 1920,17525 1560,17525 1510,17525 1510,17525 1510,17475 1510,17475 1560,17475 1920,17475 1920,17425 1560,17425 1450,17425 1450,17475 1340,17475 1340,17575 1230,17575 1230,17975 1180,17975 1180,17425 1180,17375 1180,17375 1230,17375 1920,17375 1920,17325 1230,17325 1120,17325 1120,17375 1070,17375 1070,17325 1070,17275 1070,16725 1120,16725 1120,16825 1230,16825 1230,17025 1340,17025 1340,17125 1450,17125 1450,17225 1560,17225 1560,17275 1670,17275 1920,17275 1920,17225 1670,17225 1620,17225 1620,17225 1620,17175 1620,17175 1670,17175 1920,17175 1920,17125 1670,17125 1560,17125 1560,17175 1510,17175 1510,17125 1510,17075 1510,17075 1560,17075 1920,17075 1920,17025 1560,17025 1450,17025 1450,17075 1400,17075 1400,17025 1400,16975 1400,16925 1450,16925 1450,16975 1560,16975 1920,16975 1920,16925 1560,16925 1510,16925 1510,16925 1510,16875 1510,16875 1560,16875 1920,16875 1920,16825 1560,16825 1450,16825 1450,16875 1340,16875 1340,16975 1290,16975 1290,16825 1290,16775 1290,16775 1340,16775 1920,16775 1920,16725 1340,16725 1230,16725 1230,16775 1180,16775 1180,16725 1180,16675 1180,16425 1230,16425 1230,16525 1340,16525 1340,16625 1450,16625 1450,16675 1530,16675 1920,16675 1920,16625 1530,16625 1480,16625 1480,16625 1480,16575 1480,16575 1530,16575 1920,16575 1920,16525 1530,16525 1450,16525 1450,16575 1400,16575 1400,16525 1400,16475 1400,16475 1450,16475 1920,16475 1920,16425 1450,16425 1340,16425 1340,16475 1290,16475 1290,16425 1290,16375 1290,16325 1340,16325 1340,16375 1450,16375 1920,16375 1920,16325 1450,16325 1400,16325 1400,16325 1400,16275 1400,16275 1450,16275 1920,16275 1920,16225 1450,16225 1340,16225 1340,16275 1230,16275 1230,16375 1120,16375 1120,16675 1010,16675 1010,17275 960,17275 960,16225 960,16175 960,15125 1010,15125 1010,15225 1120,15225 1120,15325 1230,15325 1230,15625 1310,15625 1310,15725 1390,15725 1390,15825 1470,15825 1470,16025 1550,16025 1550,16125 1630,16125 1630,16175 1710,16175 1920,16175 1920,16125 1710,16125 1660,16125 1660,16125 1660,16075 1660,16075 1710,16075 1920,16075 1920,16025 1710,16025 1630,16025 1630,16075 1580,16075 1580,16025 1580,15975 1580,15925 1630,15925 1630,15975 1710,15975 1920,15975 1920,15925 1710,15925 1660,15925 1660,15925 1660,15875 1660,15875 1710,15875 1920,15875 1920,15825 1710,15825 1630,15825 1630,15875 1550,15875 1550,15975 1500,15975 1500,15825 1500,15775 1500,15775 1550,15775 1920,15775 1920,15725 1550,15725 1470,15725 1470,15775 1420,15775 1420,15725 1420,15675 1420,15675 1470,15675 1920,15675 1920,15625 1470,15625 1390,15625 1390,15675 1340,15675 1340,15625 1340,15575 1340,15425 1390,15425 1390,15525 1470,15525 1470,15575 1550,15575 1920,15575 1920,15525 1550,15525 1500,15525 1500,15525 1500,15475 1500,15475 1550,15475 1920,15475 1920,15425 1550,15425 1470,15425 1470,15475 1420,15475 1420,15425 1420,15375 1420,15375 1470,15375 1920,15375 1920,15325 1470,15325 1390,15325 1390,15375 1310,15375 1310,15575 1260,15575 1260,15325 1260,15275 1260,15275 1310,15275 1920,15275 1920,15225 1310,15225 1230,15225 1230,15275 1180,15275 1180,15225 1180,15175 1180,15175 1230,15175 1920,15175 1920,15125 1230,15125 1120,15125 1120,15175 1070,15175 1070,15125 1070,15075 1070,14625 1120,14625 1120,14825 1230,14825 1230,14925 1340,14925 1340,15025 1450,15025 1450,15075 1560,15075 1920,15075 1920,15025 1560,15025 1510,15025 1510,15025 1510,14975 1510,14975 1560,14975 1920,14975 1920,14925 1560,14925 1450,14925 1450,14975 1400,14975 1400,14925 1400,14875 1400,14875 1450,14875 1920,14875 1920,14825 1450,14825 1340,14825 1340,14875 1290,14875 1290,14825 1290,14775 1290,14725 1340,14725 1340,14775 1450,14775 1920,14775 1920,14725 1450,14725 1400,14725 1400,14725 1400,14675 1400,14675 1450,14675 1920,14675 1920,14625 1450,14625 1340,14625 1340,14675 1230,14675 1230,14775 1180,14775 1180,14625 1180,14575 1180,14575 1230,14575 1920,14575 1920,14525 1230,14525 1120,14525 1120,14575 1010,14575 1010,15075 900,15075 900,16175 825,16175 825,14525 825,14450 825,12700 900,12700 900,12900 1010,12900 1010,13600 1120,13600 1120,13900 1230,13900 1230,14200 1340,14200 1340,14300 1420,14300 1420,14400 1500,14400 1500,14450 1580,14450 1920,14450 1920,14400 1580,14400 1530,14400 1530,14400 1530,14350 1530,14350 1580,14350 1920,14350 1920,14300 1580,14300 1500,14300 1500,14350 1450,14350 1450,14300 1450,14250 1450,14250 1500,14250 1920,14250 1920,14200 1500,14200 1420,14200 1420,14250 1370,14250 1370,14200 1370,14150 1370,14000 1420,14000 1420,14100 1500,14100 1500,14150 1580,14150 1920,14150 1920,14100 1580,14100 1530,14100 1530,14100 1530,14050 1530,14050 1580,14050 1920,14050 1920,14000 1580,14000 1500,14000 1500,14050 1450,14050 1450,14000 1450,13950 1450,13950 1500,13950 1920,13950 1920,13900 1500,13900 1420,13900 1420,13950 1340,13950 1340,14150 1290,14150 1290,13900 1290,13850 1290,13700 1340,13700 1340,13800 1420,13800 1420,13850 1500,13850 1920,13850 1920,13800 1500,13800 1450,13800 1450,13800 1450,13750 1450,13750 1500,13750 1920,13750 1920,13700 1500,13700 1420,13700 1420,13750 1370,13750 1370,13700 1370,13650 1370,13650 1420,13650 1920,13650 1920,13600 1420,13600 1340,13600 1340,13650 1230,13650 1230,13850 1180,13850 1180,13600 1180,13550 1180,13200 1230,13200 1230,13300 1340,13300 1340,13400 1450,13400 1450,13500 1530,13500 1530,13550 1610,13550 1920,13550 1920,13500 1610,13500 1560,13500 1560,13500 1560,13450 1560,13450 1610,13450 1920,13450 1920,13400 1610,13400 1530,13400 1530,13450 1480,13450 1480,13400 1480,13350 1480,13350 1530,13350 1920,13350 1920,13300 1530,13300 1450,13300 1450,13350 1400,13350 1400,13300 1400,13250 1400,13250 1450,13250 1920,13250 1920,13200 1450,13200 1340,13200 1340,13250 1290,13250 1290,13200 1290,13150 1290,13000 1340,13000 1340,13100 1450,13100 1450,13150 1560,13150 1920,13150 1920,13100 1560,13100 1510,13100 1510,13100 1510,13050 1510,13050 1560,13050 1920,13050 1920,13000 1560,13000 1450,13000 1450,13050 1400,13050 1400,13000 1400,12950 1400,12950 1450,12950 1920,12950 1920,12900 1450,12900 1340,12900 1340,12950 1230,12950 1230,13150 1120,13150 1120,13550 1070,13550 1070,12900 1070,12850 1070,12800 1120,12800 1120,12850 1230,12850 1920,12850 1920,12800 1230,12800 1180,12800 1180,12800 1180,12750 1180,12750 1230,12750 1920,12750 1920,12700 1230,12700 1120,12700 1120,12750 1010,12750 1010,12850 960,12850 960,12700 960,12650 960,12400 1010,12400 1010,12500 1120,12500 1120,12600 1230,12600 1230,12650 1340,12650 1920,12650 1920,12600 1340,12600 1290,12600 1290,12600 1290,12550 1290,12550 1340,12550 1920,12550 1920,12500 1340,12500 1230,12500 1230,12550 1180,12550 1180,12500 1180,12450 1180,12450 1230,12450 1920,12450 1920,12400 1230,12400 1120,12400 1120,12450 1070,12450 1070,12400 1070,12350 1070,12350 1120,12350 1920,12350 1920,12300 1120,12300 1010,12300 1010,12350 900,12350 900,12650 735,12650 735,14450 660,14450 660,12300 660,12225 660,11450 735,11450 735,11875 900,11875 900,11975 1065,11975 1065,12075 1175,12075 1175,12175 1255,12175 1255,12225 1335,12225 1920,12225 1920,12175 1335,12175 1285,12175 1285,12175 1285,12125 1285,12125 1335,12125 1920,12125 1920,12075 1335,12075 1255,12075 1255,12125 1205,12125 1205,12075 1205,12025 1205,12025 1255,12025 1920,12025 1920,11975 1255,11975 1175,11975 1175,12025 1125,12025 1125,11975 1125,11925 1125,11925 1175,11925 1920,11925 1920,11875 1175,11875 1065,11875 1065,11925 990,11925 990,11875 990,11800 990,11650 1065,11650 1065,11750 1175,11750 1175,11800 1285,11800 1920,11800 1920,11750 1285,11750 1235,11750 1235,11750 1235,11700 1235,11700 1285,11700 1920,11700 1920,11650 1285,11650 1175,11650 1175,11700 1125,11700 1125,11650 1125,11600 1125,11550 1175,11550 1175,11600 1285,11600 1920,11600 1920,11550 1285,11550 1235,11550 1235,11550 1235,11500 1235,11500 1285,11500 1920,11500 1920,11450 1285,11450 1175,11450 1175,11500 1065,11500 1065,11600 900,11600 900,11800 825,11800 825,11450 825,11375 825,10875 900,10875 900,11025 1065,11025 1065,11200 1260,11200 1260,11325 1425,11325 1425,11375 1590,11375 1920,11375 1920,11325 1590,11325 1515,11325 1515,11325 1515,11250 1515,11250 1590,11250 1920,11250 1920,11200 1590,11200 1425,11200 1425,11250 1350,11250 1350,11200 1350,11125 1350,11125 1425,11125 1920,11125 1920,11025 1425,11025 1260,11025 1260,11125 1185,11125 1185,11025 1185,10950 1185,10950 1260,10950 1920,10950 1920,10875 1260,10875 1065,10875 1065,10950 990,10950 990,10875 990,10800 990,10750 1065,10750 1065,10800 1175,10800 1920,10800 1920,10750 1175,10750 1125,10750 1125,10750 1125,10700 1125,10700 1175,10700 1920,10700 1920,10650 1175,10650 1065,10650 1065,10700 900,10700 900,10800 735,10800 735,11375 540,11375 540,12225 490,12225 490,10650 490,10600 490,5850 540,5850 540,7250 650,7250 650,8250 760,8250 760,8650 870,8650 870,9550 980,9550 980,9750 1090,9750 1090,9850 1200,9850 1200,10150 1310,10150 1310,10250 1420,10250 1420,10350 1530,10350 1530,10450 1640,10450 1640,10550 1750,10550 1750,10600 1860,10600 1920,10600 1920,10550 1860,10550 1810,10550 1810,10550 1810,10500 1810,10500 1860,10500 1920,10500 1920,10450 1860,10450 1750,10450 1750,10500 1700,10500 1700,10450 1700,10400 1700,10400 1750,10400 1920,10400 1920,10350 1750,10350 1640,10350 1640,10400 1590,10400 1590,10350 1590,10300 1590,10300 1640,10300 1920,10300 1920,10250 1640,10250 1530,10250 1530,10300 1480,10300 1480,10250 1480,10200 1480,10200 1530,10200 1920,10200 1920,10150 1530,10150 1420,10150 1420,10200 1370,10200 1370,10150 1370,10100 1370,9950 1420,9950 1420,10050 1530,10050 1530,10100 1610,10100 1920,10100 1920,10050 1610,10050 1560,10050 1560,10050 1560,10000 1560,10000 1610,10000 1920,10000 1920,9950 1610,9950 1530,9950 1530,10000 1480,10000 1480,9950 1480,9900 1480,9900 1530,9900 1920,9900 1920,9850 1530,9850 1420,9850 1420,9900 1310,9900 1310,10100 1260,10100 1260,9850 1260,9800 1260,9800 1310,9800 1920,9800 1920,9750 1310,9750 1200,9750 1200,9800 1150,9800 1150,9750 1150,9700 1150,9650 1200,9650 1200,9700 1310,9700 1920,9700 1920,9650 1310,9650 1260,9650 1260,9650 1260,9600 1260,9600 1310,9600 1920,9600 1920,9550 1310,9550 1200,9550 1200,9600 1090,9600 1090,9700 1040,9700 1040,9550 1040,9500 1040,8750 1090,8750 1090,9050 1200,9050 1200,9250 1280,9250 1280,9350 1360,9350 1360,9450 1440,9450 1440,9500 1520,9500 1920,9500 1920,9450 1520,9450 1470,9450 1470,9450 1470,9400 1470,9400 1520,9400 1920,9400 1920,9350 1520,9350 1440,9350 1440,9400 1390,9400 1390,9350 1390,9300 1390,9300 1440,9300 1920,9300 1920,9250 1440,9250 1360,9250 1360,9300 1310,9300 1310,9250 1310,9200 1310,9150 1360,9150 1360,9200 1440,9200 1920,9200 1920,9150 1440,9150 1390,9150 1390,9150 1390,9100 1390,9100 1440,9100 1920,9100 1920,9050 1440,9050 1360,9050 1360,9100 1280,9100 1280,9200 1230,9200 1230,9050 1230,9000 1230,8850 1280,8850 1280,8950 1360,8950 1360,9000 1440,9000 1920,9000 1920,8950 1440,8950 1390,8950 1390,8950 1390,8900 1390,8900 1440,8900 1920,8900 1920,8850 1440,8850 1360,8850 1360,8900 1310,8900 1310,8850 1310,8800 1310,8800 1360,8800 1920,8800 1920,8750 1360,8750 1280,8750 1280,8800 1200,8800 1200,9000 1150,9000 1150,8750 1150,8700 1150,8700 1200,8700 1920,8700 1920,8650 1200,8650 1090,8650 1090,8700 980,8700 980,9500 930,9500 930,8650 930,8600 930,8450 980,8450 980,8550 1090,8550 1090,8600 1200,8600 1920,8600 1920,8550 1200,8550 1150,8550 1150,8550 1150,8500 1150,8500 1200,8500 1920,8500 1920,8450 1200,8450 1090,8450 1090,8500 1040,8500 1040,8450 1040,8400 1040,8350 1090,8350 1090,8400 1200,8400 1920,8400 1920,8350 1200,8350 1150,8350 1150,8350 1150,8300 1150,8300 1200,8300 1920,8300 1920,8250 1200,8250 1090,8250 1090,8300 980,8300 980,8400 870,8400 870,8600 820,8600 820,8250 820,8200 820,7650 870,7650 870,7950 980,7950 980,8050 1090,8050 1090,8150 1200,8150 1200,8200 1280,8200 1920,8200 1920,8150 1280,8150 1230,8150 1230,8150 1230,8100 1230,8100 1280,8100 1920,8100 1920,8050 1280,8050 1200,8050 1200,8100 1150,8100 1150,8050 1150,8000 1150,8000 1200,8000 1920,8000 1920,7950 1200,7950 1090,7950 1090,8000 1040,8000 1040,7950 1040,7900 1040,7750 1090,7750 1090,7850 1200,7850 1200,7900 1310,7900 1920,7900 1920,7850 1310,7850 1260,7850 1260,7850 1260,7800 1260,7800 1310,7800 1920,7800 1920,7750 1310,7750 1200,7750 1200,7800 1150,7800 1150,7750 1150,7700 1150,7700 1200,7700 1920,7700 1920,7650 1200,7650 1090,7650 1090,7700 980,7700 980,7900 930,7900 930,7650 930,7600 930,7350 980,7350 980,7450 1090,7450 1090,7550 1200,7550 1200,7600 1280,7600 1920,7600 1920,7550 1280,7550 1230,7550 1230,7550 1230,7500 1230,7500 1280,7500 1920,7500 1920,7450 1280,7450 1200,7450 1200,7500 1150,7500 1150,7450 1150,7400 1150,7400 1200,7400 1920,7400 1920,7350 1200,7350 1090,7350 1090,7400 1040,7400 1040,7350 1040,7300 1040,7300 1090,7300 1920,7300 1920,7250 1090,7250 980,7250 980,7300 870,7300 870,7600 760,7600 760,8200 710,8200 710,7250 710,7200 710,6250 760,6250 760,6650 870,6650 870,6850 950,6850 950,6950 1030,6950 1030,7050 1110,7050 1110,7150 1190,7150 1190,7200 1270,7200 1920,7200 1920,7150 1270,7150 1220,7150 1220,7150 1220,7100 1220,7100 1270,7100 1920,7100 1920,7050 1270,7050 1190,7050 1190,7100 1140,7100 1140,7050 1140,7000 1140,7000 1190,7000 1920,7000 1920,6950 1190,6950 1110,6950 1110,7000 1060,7000 1060,6950 1060,6900 1060,6900 1110,6900 1920,6900 1920,6850 1110,6850 1030,6850 1030,6900 980,6900 980,6850 980,6800 980,6750 1030,6750 1030,6800 1110,6800 1920,6800 1920,6750 1110,6750 1060,6750 1060,6750 1060,6700 1060,6700 1110,6700 1920,6700 1920,6650 1110,6650 1030,6650 1030,6700 950,6700 950,6800 900,6800 900,6650 900,6600 900,6450 950,6450 950,6550 1030,6550 1030,6600 1110,6600 1920,6600 1920,6550 1110,6550 1060,6550 1060,6550 1060,6500 1060,6500 1110,6500 1920,6500 1920,6450 1110,6450 1030,6450 1030,6500 980,6500 980,6450 980,6400 980,6350 1030,6350 1030,6400 1110,6400 1920,6400 1920,6350 1110,6350 1060,6350 1060,6350 1060,6300 1060,6300 1110,6300 1920,6300 1920,6250 1110,6250 1030,6250 1030,6300 950,6300 950,6400 870,6400 870,6600 820,6600 820,6250 820,6200 820,5950 870,5950 870,6050 950,6050 950,6150 1030,6150 1030,6200 1110,6200 1920,6200 1920,6150 1110,6150 1060,6150 1060,6150 1060,6100 1060,6100 1110,6100 1920,6100 1920,6050 1110,6050 1030,6050 1030,6100 980,6100 980,6050 980,6000 980,6000 1030,6000 1920,6000 1920,5950 1030,5950 950,5950 950,6000 900,6000 900,5950 900,5900 900,5900 950,5900 1920,5900 1920,5850 950,5850 870,5850 870,5900 760,5900 760,6200 650,6200 650,7200 600,7200 600,5850 600,5800 600,5050 650,5050 650,5350 760,5350 760,5550 840,5550 840,5650 920,5650 920,5750 1000,5750 1000,5800 1080,5800 1920,5800 1920,5750 1080,5750 1030,5750 1030,5750 1030,5700 1030,5700 1080,5700 1920,5700 1920,5650 1080,5650 1000,5650 1000,5700 950,5700 950,5650 950,5600 950,5600 1000,5600 1920,5600 1920,5550 1000,5550 920,5550 920,5600 870,5600 870,5550 870,5500 870,5450 920,5450 920,5500 1000,5500 1920,5500 1920,5450 1000,5450 950,5450 950,5450 950,5400 950,5400 1000,5400 1920,5400 1920,5350 1000,5350 920,5350 920,5400 840,5400 840,5500 790,5500 790,5350 790,5300 790,5150 840,5150 840,5250 920,5250 920,5300 1000,5300 1920,5300 1920,5250 1000,5250 950,5250 950,5250 950,5200 950,5200 1000,5200 1920,5200 1920,5150 1000,5150 920,5150 920,5200 870,5200 870,5150 870,5100 870,5100 920,5100 1920,5100 1920,5050 920,5050 840,5050 840,5100 760,5100 760,5300 710,5300 710,5050 710,5000 710,4650 760,4650 760,4850 840,4850 840,4950 920,4950 920,5000 1000,5000 1920,5000 1920,4950 1000,4950 950,4950 950,4950 950,4900 950,4900 1000,4900 1920,4900 1920,4850 1000,4850 920,4850 920,4900 870,4900 870,4850 870,4800 870,4750 920,4750 920,4800 1000,4800 1920,4800 1920,4750 1000,4750 950,4750 950,4750 950,4700 950,4700 1000,4700 1920,4700 1920,4650 1000,4650 920,4650 920,4700 840,4700 840,4800 790,4800 790,4650 790,4600 790,4550 840,4550 840,4600 920,4600 1920,4600 1920,4550 920,4550 870,4550 870,4550 870,4500 870,4500 920,4500 1920,4500 1920,4450 920,4450 840,4450 840,4500 760,4500 760,4600 650,4600 650,5000 540,5000 540,5800 430,5800 430,10600 380,10600 380,4450 380,4400 380,4350 430,4350 430,4400 540,4400 1920,4400 1920,4350 540,4350 490,4350 490,4350 490,4300 490,4300 540,4300 1920,4300 1920,4250 540,4250 430,4250 430,4300 320,4300 320,4400 270,4400 270,4250 270,4200 270,1550 320,1550 320,1650 430,1650 430,2950 540,2950 540,3050 650,3050 650,3350 760,3350 760,3450 840,3450 840,3650 920,3650 920,3750 1000,3750 1000,3950 1080,3950 1080,4050 1160,4050 1160,4150 1240,4150 1240,4200 1320,4200 1920,4200 1920,4150 1320,4150 1270,4150 1270,4150 1270,4100 1270,4100 1320,4100 1920,4100 1920,4050 1320,4050 1240,4050 1240,4100 1190,4100 1190,4050 1190,4000 1190,4000 1240,4000 1920,4000 1920,3950 1240,3950 1160,3950 1160,4000 1110,4000 1110,3950 1110,3900 1110,3850 1160,3850 1160,3900 1240,3900 1920,3900 1920,3850 1240,3850 1190,3850 1190,3850 1190,3800 1190,3800 1240,3800 1920,3800 1920,3750 1240,3750 1160,3750 1160,3800 1080,3800 1080,3900 1030,3900 1030,3750 1030,3700 1030,3700 1080,3700 1920,3700 1920,3650 1080,3650 1000,3650 1000,3700 950,3700 950,3650 950,3600 950,3550 1000,3550 1000,3600 1080,3600 1920,3600 1920,3550 1080,3550 1030,3550 1030,3550 1030,3500 1030,3500 1080,3500 1920,3500 1920,3450 1080,3450 1000,3450 1000,3500 920,3500 920,3600 870,3600 870,3450 870,3400 870,3400 920,3400 1920,3400 1920,3350 920,3350 840,3350 840,3400 790,3400 790,3350 790,3300 790,3150 840,3150 840,3250 920,3250 920,3300 1000,3300 1920,3300 1920,3250 1000,3250 950,3250 950,3250 950,3200 950,3200 1000,3200 1920,3200 1920,3150 1000,3150 920,3150 920,3200 870,3200 870,3150 870,3100 870,3100 920,3100 1920,3100 1920,3050 920,3050 840,3050 840,3100 760,3100 760,3300 710,3300 710,3050 710,3000 710,3000 760,3000 1920,3000 1920,2950 760,2950 650,2950 650,3000 600,3000 600,2950 600,2900 600,2150 650,2150 650,2450 760,2450 760,2550 870,2550 870,2650 980,2650 980,2750 1060,2750 1060,2850 1140,2850 1140,2900 1220,2900 1920,2900 1920,2850 1220,2850 1170,2850 1170,2850 1170,2800 1170,2800 1220,2800 1920,2800 1920,2750 1220,2750 1140,2750 1140,2800 1090,2800 1090,2750 1090,2700 1090,2700 1140,2700 1920,2700 1920,2650 1140,2650 1060,2650 1060,2700 1010,2700 1010,2650 1010,2600 1010,2600 1060,2600 1920,2600 1920,2550 1060,2550 980,2550 980,2600 930,2600 930,2550 930,2500 930,2500 980,2500 1920,2500 1920,2450 980,2450 870,2450 870,2500 820,2500 820,2450 820,2400 820,2250 870,2250 870,2350 980,2350 980,2400 1090,2400 1920,2400 1920,2350 1090,2350 1040,2350 1040,2350 1040,2300 1040,2300 1090,2300 1920,2300 1920,2250 1090,2250 980,2250 980,2300 930,2300 930,2250 930,2200 930,2200 980,2200 1920,2200 1920,2150 980,2150 870,2150 870,2200 760,2200 760,2400 710,2400 710,2150 710,2100 710,1750 760,1750 760,1950 870,1950 870,2050 950,2050 950,2100 1030,2100 1920,2100 1920,2050 1030,2050 980,2050 980,2050 980,2000 980,2000 1030,2000 1920,2000 1920,1950 1030,1950 950,1950 950,2000 900,2000 900,1950 900,1900 900,1850 950,1850 950,1900 1030,1900 1920,1900 1920,1850 1030,1850 980,1850 980,1850 980,1800 980,1800 1030,1800 1920,1800 1920,1750 1030,1750 950,1750 950,1800 870,1800 870,1900 820,1900 820,1750 820,1700 820,1700 870,1700 1920,1700 1920,1650 870,1650 760,1650 760,1700 650,1700 650,2100 540,2100 540,2900 490,2900 490,1650 490,1600 490,1600 540,1600 1920,1600 1920,1550 540,1550 430,1550 430,1600 380,1600 380,1550 380,1500 380,950 430,950 430,1150 540,1150 540,1250 650,1250 650,1350 730,1350 730,1450 810,1450 810,1500 890,1500 1920,1500 1920,1450 890,1450 840,1450 840,1450 840,1400 840,1400 890,1400 1920,1400 1920,1350 890,1350 810,1350 810,1400 760,1400 760,1350 760,1300 760,1300 810,1300 1920,1300 1920,1250 810,1250 730,1250 730,1300 680,1300 680,1250 680,1200 680,1200 730,1200 1920,1200 1920,1150 730,1150 650,1150 650,1200 600,1200 600,1150 600,1100 600,1050 650,1050 650,1100 730,1100 1920,1100 1920,1050 730,1050 680,1050 680,1050 680,1000 680,1000 730,1000 1920,1000 1920,950 730,950 650,950 650,1000 540,1000 540,1100 490,1100 490,950 490,900 490,550 540,550 540,750 650,750 650,850 760,850 760,900 870,900 1920,900 1920,850 870,850 820,850 820,850 820,800 820,800 870,800 1920,800 1920,750 870,750 760,750 760,800 710,800 710,750 710,700 710,650 760,650 760,700 870,700 1920,700 1920,650 870,650 820,650 820,650 820,600 820,600 870,600 1920,600 1920,550 870,550 760,550 760,600 650,600 650,700 600,700 600,550 600,500 600,500 650,500 1920,500 1920,450 650,450 540,450 540,500 430,500 430,900 320,900 320,1500 210,1500 210,4200 160,4200 160,450 160,400 160,350 210,350 210,400 290,400 1920,400 1920,350 290,350 240,350 240,350 240,300 240,300 290,300 1920,300 1920,250 290,250 210,250 210,300 130,300 130,400 80,400 80,250 80,200 80,150 130,150 130,200 210,200 1920,200 1920,150 210,150 160,150 160,150 160,100 160,100 210,100 1920,100 1920,50 210,50 130,50 130,100 50,100 50,200 " fill="rgb(255,255,255)" stroke-width="10" stroke="rgb(120,120,120)" />
	<text x="1842" y="18607" fill="rgb(0,0,0)" font-size="24" font-family="Verdana" >macNig</text>
	<text x="1842" y="18507" fill="rgb(0,0,0)" font-size="24" font-family="Verdana" >macOrc</text>
	<text x="1842" y="18407" fill="rgb(0,0,0)" font-size="24" font-family="Verdana" >macMau</text>
	<text x="1842" y="18307" fill="rgb(0,0,0)" font-size="24" font-family="Verdana" >macTon</text>
	<text x="1842" y="18207" fill="rgb(0,0,0)" font-size="24" font-family="Verdana" >macNem</text>
	<text x="1842" y="18107" fill="rgb(0,0,0)" font-size="24" font-family="Verdana" >macSil</text>
	<text x="1842" y="18007" fill="rgb(0,0,0)" font-size="24" font-family="Verdana" >macSib</text>
	<text x="1842" y="17907" fill="rgb(0,0,0)" font-size="24" font-family="Verdana" >macMul</text>
	<text x="1842" y="17807" fill="rgb(0,0,0)" font-size="24" font-family="Verdana" >macFus</text>
	<text x="1842" y="17707" fill="rgb(0,0,0)" font-size="24" font-family="Verdana" >macCyc</text>
	<text x="1842" y="17607" fill="rgb(0,0,0)" font-size="24" font-family="Verdana" >macFas</text>
	<text x="1842" y="17507" fill="rgb(0,0,0)" font-size="24" font-family="Verdana" >macArc</text>
	<text x="1842" y="17407" fill="rgb(0,0,0)" font-size="24" font-family="Verdana" >macThi</text>
	<text x="1842" y="17307" fill="rgb(0,0,0)" font-size="24" font-family="Verdana" >macSyl</text>
	<text x="1842" y="17207" fill="rgb(0,0,0)" font-size="24" font-family="Verdana" >papHam</text>
	<text x="1842" y="17107" fill="rgb(0,0,0)" font-size="24" font-family="Verdana" >papAnu</text>
	<text x="1842" y="17007" fill="rgb(0,0,0)" font-size="24" font-family="Verdana" >papPap</text>
	<text x="1842" y="16907" fill="rgb(0,0,0)" font-size="24" font-family="Verdana" >lopAte</text>
	<text x="1842" y="16807" fill="rgb(0,0,0)" font-size="24" font-family="Verdana" >lopAlb</text>
	<text x="1842" y="16707" fill="rgb(0,0,0)" font-size="24" font-family="Verdana" >theGel</text>
	<text x="1842" y="16607" fill="rgb(0,0,0)" font-size="24" font-family="Verdana" >cerAgi</text>
	<text x="1842" y="16507" fill="rgb(0,0,0)" font-size="24" font-family="Verdana" >cerChr</text>
	<text x="1842" y="16407" fill="rgb(0,0,0)" font-size="24" font-family="Verdana" >cerTor</text>
	<text x="1842" y="16307" fill="rgb(0,0,0)" font-size="24" font-family="Verdana" >manLeu</text>
	<text x="1842" y="16207" fill="rgb(0,0,0)" font-size="24" font-family="Verdana" >manSph</text>
	<text x="1842" y="16107" fill="rgb(0,0,0)" font-size="24" font-family="Verdana" >cerMit</text>
	<text x="1842" y="16007" fill="rgb(0,0,0)" font-size="24" font-family="Verdana" >cerAlb</text>
	<text x="1842" y="15907" fill="rgb(0,0,0)" font-size="24" font-family="Verdana" >cerCep</text>
	<text x="1842" y="15807" fill="rgb(0,0,0)" font-size="24" font-family="Verdana" >cerAsc</text>
	<text x="1842" y="15707" fill="rgb(0,0,0)" font-size="24" font-family="Verdana" >cerPet</text>
	<text x="1842" y="15607" fill="rgb(0,0,0)" font-size="24" font-family="Verdana" >cerDia</text>
	<text x="1842" y="15507" fill="rgb(0,0,0)" font-size="24" font-family="Verdana" >cerWol</text>
	<text x="1842" y="15407" fill="rgb(0,0,0)" font-size="24" font-family="Verdana" >cerMon</text>
	<text x="1842" y="15307" fill="rgb(0,0,0)" font-size="24" font-family="Verdana" >cerNeg</text>
	<text x="1842" y="15207" fill="rgb(0,0,0)" font-size="24" font-family="Verdana" >cerHam</text>
	<text x="1842" y="15107" fill="rgb(0,0,0)" font-size="24" font-family="Verdana" >mioOgo</text>
	<text x="1842" y="15007" fill="rgb(0,0,0)" font-size="24" font-family="Verdana" >chlAet</text>
	<text x="1842" y="14907" fill="rgb(0,0,0)" font-size="24" font-family="Verdana" >chlSab</text>
	<text x="1842" y="14807" fill="rgb(0,0,0)" font-size="24" font-family="Verdana" >chlCyn</text>
	<text x="1842" y="14707" fill="rgb(0,0,0)" font-size="24" font-family="Verdana" >eryPat</text>
	<text x="1842" y="14607" fill="rgb(0,0,0)" font-size="24" font-family="Verdana" >cerLho</text>
	<text x="1842" y="14507" fill="rgb(0,0,0)" font-size="24" font-family="Verdana" >allNig</text>
	<text x="1842" y="14382" fill="rgb(0,0,0)" font-size="24" font-family="Verdana" >traFra</text>
	<text x="1842" y="14282" fill="rgb(0,0,0)" font-size="24" font-family="Verdana" >traDel</text>
	<text x="1842" y="14182" fill="rgb(0,0,0)" font-size="24" font-family="Verdana" >traHat</text>
	<text x="1842" y="14082" fill="rgb(0,0,0)" font-size="24" font-family="Verdana" >traObs</text>
	<text x="1842" y="13982" fill="rgb(0,0,0)" font-size="24" font-family="Verdana" >traPha</text>
	<text x="1842" y="13882" fill="rgb(0,0,0)" font-size="24" font-family="Verdana" >traAur</text>
	<text x="1842" y="13782" fill="rgb(0,0,0)" font-size="24" font-family="Verdana" >semHec</text>
	<text x="1842" y="13682" fill="rgb(0,0,0)" font-size="24" font-family="Verdana" >semEnt</text>
	<text x="1842" y="13582" fill="rgb(0,0,0)" font-size="24" font-family="Verdana" >traVet</text>
	<text x="1842" y="13482" fill="rgb(0,0,0)" font-size="24" font-family="Verdana" >pygCin</text>
	<text x="1842" y="13382" fill="rgb(0,0,0)" font-size="24" font-family="Verdana" >pygNem</text>
	<text x="1842" y="13282" fill="rgb(0,0,0)" font-size="24" font-family="Verdana" >pygNig</text>
	<text x="1842" y="13182" fill="rgb(0,0,0)" font-size="24" font-family="Verdana" >nasLar</text>
	<text x="1842" y="13082" fill="rgb(0,0,0)" font-size="24" font-family="Verdana" >rhiRox</text>
	<text x="1842" y="12982" fill="rgb(0,0,0)" font-size="24" font-family="Verdana" >rhiBie</text>
	<text x="1842" y="12882" fill="rgb(0,0,0)" font-size="24" font-family="Verdana" >rhiBre</text>
	<text x="1842" y="12782" fill="rgb(0,0,0)" font-size="24" font-family="Verdana" >preMel</text>
	<text x="1842" y="12682" fill="rgb(0,0,0)" font-size="24" font-family="Verdana" >preCom</text>
	<text x="1842" y="12582" fill="rgb(0,0,0)" font-size="24" font-family="Verdana" >colGue</text>
	<text x="1842" y="12482" fill="rgb(0,0,0)" font-size="24" font-family="Verdana" >colPol</text>
	<text x="1842" y="12382" fill="rgb(0,0,0)" font-size="24" font-family="Verdana" >colAng</text>
	<text x="1842" y="12282" fill="rgb(0,0,0)" font-size="24" font-family="Verdana" >pilTep</text>
	<text x="1842" y="12157" fill="rgb(0,0,0)" font-size="24" font-family="Verdana" >hylMue</text>
	<text x="1842" y="12057" fill="rgb(0,0,0)" font-size="24" font-family="Verdana" >hylAgi</text>
	<text x="1842" y="11957" fill="rgb(0,0,0)" font-size="24" font-family="Verdana" >hylLar</text>
	<text x="1842" y="11857" fill="rgb(0,0,0)" font-size="24" font-family="Verdana" >symSyn</text>
	<text x="1842" y="11732" fill="rgb(0,0,0)" font-size="24" font-family="Verdana" >nomLeu</text>
	<text x="1842" y="11632" fill="rgb(0,0,0)" font-size="24" font-family="Verdana" >nomSik</text>
	<text x="1842" y="11532" fill="rgb(0,0,0)" font-size="24" font-family="Verdana" >nomGab</text>
	<text x="1842" y="11432" fill="rgb(0,0,0)" font-size="24" font-family="Verdana" >nomCon</text>
	<text x="1842" y="11307" fill="rgb(0,0,0)" font-size="24" font-family="Verdana" >panTro</text>
	<text x="1842" y="11182" fill="rgb(0,0,0)" font-size="24" font-family="Verdana" >panPan</text>
	<text x="1842" y="11007" fill="rgb(0,0,0)" font-size="24" font-family="Verdana" >homSap</text>
	<text x="1842" y="10857" fill="rgb(0,0,0)" font-size="24" font-family="Verdana" >gorGor</text>
	<text x="1842" y="10732" fill="rgb(0,0,0)" font-size="24" font-family="Verdana" >ponPyg</text>
	<text x="1842" y="10632" fill="rgb(0,0,0)" font-size="24" font-family="Verdana" >ponAbe</text>
	<text x="1842" y="10532" fill="rgb(0,0,0)" font-size="24" font-family="Verdana" >calJac</text>
	<text x="1842" y="10432" fill="rgb(0,0,0)" font-size="24" font-family="Verdana" >calPen</text>
	<text x="1842" y="10332" fill="rgb(0,0,0)" font-size="24" font-family="Verdana" >calKuh</text>
	<text x="1842" y="10232" fill="rgb(0,0,0)" font-size="24" font-family="Verdana" >calGeo</text>
	<text x="1842" y="10132" fill="rgb(0,0,0)" font-size="24" font-family="Verdana" >calAur</text>
	<text x="1842" y="10032" fill="rgb(0,0,0)" font-size="24" font-family="Verdana" >micArg</text>
	<text x="1842" y="9932" fill="rgb(0,0,0)" font-size="24" font-family="Verdana" >micHum</text>
	<text x="1842" y="9832" fill="rgb(0,0,0)" font-size="24" font-family="Verdana" >cebPyg</text>
	<text x="1842" y="9732" fill="rgb(0,0,0)" font-size="24" font-family="Verdana" >calGoe</text>
	<text x="1842" y="9632" fill="rgb(0,0,0)" font-size="24" font-family="Verdana" >leoRos</text>
	<text x="1842" y="9532" fill="rgb(0,0,0)" font-size="24" font-family="Verdana" >leoChr</text>
	<text x="1842" y="9432" fill="rgb(0,0,0)" font-size="24" font-family="Verdana" >sagMar</text>
	<text x="1842" y="9332" fill="rgb(0,0,0)" font-size="24" font-family="Verdana" >sagBic</text>
	<text x="1842" y="9232" fill="rgb(0,0,0)" font-size="24" font-family="Verdana" >sagMid</text>
	<text x="1842" y="9132" fill="rgb(0,0,0)" font-size="24" font-family="Verdana" >sagOed</text>
	<text x="1842" y="9032" fill="rgb(0,0,0)" font-size="24" font-family="Verdana" >sagGeo</text>
	<text x="1842" y="8932" fill="rgb(0,0,0)" font-size="24" font-family="Verdana" >sagMys</text>
	<text x="1842" y="8832" fill="rgb(0,0,0)" font-size="24" font-family="Verdana" >sagLab</text>
	<text x="1842" y="8732" fill="rgb(0,0,0)" font-size="24" font-family="Verdana" >sagImp</text>
	<text x="1842" y="8632" fill="rgb(0,0,0)" font-size="24" font-family="Verdana" >sagFus</text>
	<text x="1842" y="8532" fill="rgb(0,0,0)" font-size="24" font-family="Verdana" >aotAza</text>
	<text x="1842" y="8432" fill="rgb(0,0,0)" font-size="24" font-family="Verdana" >aotNan</text>
	<text x="1842" y="8332" fill="rgb(0,0,0)" font-size="24" font-family="Verdana" >aotTri</text>
	<text x="1842" y="8232" fill="rgb(0,0,0)" font-size="24" font-family="Verdana" >aotLem</text>
	<text x="1842" y="8132" fill="rgb(0,0,0)" font-size="24" font-family="Verdana" >cebXan</text>
	<text x="1842" y="8032" fill="rgb(0,0,0)" font-size="24" font-family="Verdana" >cebRob</text>
	<text x="1842" y="7932" fill="rgb(0,0,0)" font-size="24" font-family="Verdana" >cebApe</text>
	<text x="1842" y="7832" fill="rgb(0,0,0)" font-size="24" font-family="Verdana" >cebCap</text>
	<text x="1842" y="7732" fill="rgb(0,0,0)" font-size="24" font-family="Verdana" >cebAlb</text>
	<text x="1842" y="7632" fill="rgb(0,0,0)" font-size="24" font-family="Verdana" >cebOli</text>
	<text x="1842" y="7532" fill="rgb(0,0,0)" font-size="24" font-family="Verdana" >saiOer</text>
	<text x="1842" y="7432" fill="rgb(0,0,0)" font-size="24" font-family="Verdana" >saiSci</text>
	<text x="1842" y="7332" fill="rgb(0,0,0)" font-size="24" font-family="Verdana" >saiUst</text>
	<text x="1842" y="7232" fill="rgb(0,0,0)" font-size="24" font-family="Verdana" >saiBol</text>
	<text x="1842" y="7132" fill="rgb(0,0,0)" font-size="24" font-family="Verdana" >ateBel</text>
	<text x="1842" y="7032" fill="rgb(0,0,0)" font-size="24" font-family="Verdana" >ateGeo</text>
	<text x="1842" y="6932" fill="rgb(0,0,0)" font-size="24" font-family="Verdana" >ateHyb</text>
	<text x="1842" y="6832" fill="rgb(0,0,0)" font-size="24" font-family="Verdana" >ateFus</text>
	<text x="1842" y="6732" fill="rgb(0,0,0)" font-size="24" font-family="Verdana" >ateCha</text>
	<text x="1842" y="6632" fill="rgb(0,0,0)" font-size="24" font-family="Verdana" >atePan</text>
	<text x="1842" y="6532" fill="rgb(0,0,0)" font-size="24" font-family="Verdana" >braHyp</text>
	<text x="1842" y="6432" fill="rgb(0,0,0)" font-size="24" font-family="Verdana" >braAra</text>
	<text x="1842" y="6332" fill="rgb(0,0,0)" font-size="24" font-family="Verdana" >lagLag</text>
	<text x="1842" y="6232" fill="rgb(0,0,0)" font-size="24" font-family="Verdana" >lagCan</text>
	<text x="1842" y="6132" fill="rgb(0,0,0)" font-size="24" font-family="Verdana" >aloSar</text>
	<text x="1842" y="6032" fill="rgb(0,0,0)" font-size="24" font-family="Verdana" >aloCar</text>
	<text x="1842" y="5932" fill="rgb(0,0,0)" font-size="24" font-family="Verdana" >aloBel</text>
	<text x="1842" y="5832" fill="rgb(0,0,0)" font-size="24" font-family="Verdana" >aloPal</text>
	<text x="1842" y="5732" fill="rgb(0,0,0)" font-size="24" font-family="Verdana" >calMol</text>
	<text x="1842" y="5632" fill="rgb(0,0,0)" font-size="24" font-family="Verdana" >calBru</text>
	<text x="1842" y="5532" fill="rgb(0,0,0)" font-size="24" font-family="Verdana" >calCup</text>
	<text x="1842" y="5432" fill="rgb(0,0,0)" font-size="24" font-family="Verdana" >calCal</text>
	<text x="1842" y="5332" fill="rgb(0,0,0)" font-size="24" font-family="Verdana" >calDon</text>
	<text x="1842" y="5232" fill="rgb(0,0,0)" font-size="24" font-family="Verdana" >calCoi</text>
	<text x="1842" y="5132" fill="rgb(0,0,0)" font-size="24" font-family="Verdana" >calPer</text>
	<text x="1842" y="5032" fill="rgb(0,0,0)" font-size="24" font-family="Verdana" >calNig</text>
	<text x="1842" y="4932" fill="rgb(0,0,0)" font-size="24" font-family="Verdana" >chiIsr</text>
	<text x="1842" y="4832" fill="rgb(0,0,0)" font-size="24" font-family="Verdana" >chiSat</text>
	<text x="1842" y="4732" fill="rgb(0,0,0)" font-size="24" font-family="Verdana" >cacMel</text>
	<text x="1842" y="4632" fill="rgb(0,0,0)" font-size="24" font-family="Verdana" >cacCal</text>
	<text x="1842" y="4532" fill="rgb(0,0,0)" font-size="24" font-family="Verdana" >pitIrr</text>
	<text x="1842" y="4432" fill="rgb(0,0,0)" font-size="24" font-family="Verdana" >pitPit</text>
	<text x="1842" y="4332" fill="rgb(0,0,0)" font-size="24" font-family="Verdana" >carSyr</text>
	<text x="1842" y="4232" fill="rgb(0,0,0)" font-size="24" font-family="Verdana" >tarBan</text>
	<text x="1842" y="4132" fill="rgb(0,0,0)" font-size="24" font-family="Verdana" >eulRuf</text>
	<text x="1842" y="4032" fill="rgb(0,0,0)" font-size="24" font-family="Verdana" >eulCol</text>
	<text x="1842" y="3932" fill="rgb(0,0,0)" font-size="24" font-family="Verdana" >eulFul</text>
	<text x="1842" y="3832" fill="rgb(0,0,0)" font-size="24" font-family="Verdana" >eulSan</text>
	<text x="1842" y="3732" fill="rgb(0,0,0)" font-size="24" font-family="Verdana" >eulAlb</text>
	<text x="1842" y="3632" fill="rgb(0,0,0)" font-size="24" font-family="Verdana" >eulMon</text>
	<text x="1842" y="3532" fill="rgb(0,0,0)" font-size="24" font-family="Verdana" >eulMac</text>
	<text x="1842" y="3432" fill="rgb(0,0,0)" font-size="24" font-family="Verdana" >eulCor</text>
	<text x="1842" y="3332" fill="rgb(0,0,0)" font-size="24" font-family="Verdana" >eulRub</text>
	<text x="1842" y="3232" fill="rgb(0,0,0)" font-size="24" font-family="Verdana" >hapOcc</text>
	<text x="1842" y="3132" fill="rgb(0,0,0)" font-size="24" font-family="Verdana" >hapGri</text>
	<text x="1842" y="3032" fill="rgb(0,0,0)" font-size="24" font-family="Verdana" >lemCat</text>
	<text x="1842" y="2932" fill="rgb(0,0,0)" font-size="24" font-family="Verdana" >varVar</text>
	<text x="1842" y="2832" fill="rgb(0,0,0)" font-size="24" font-family="Verdana" >lepSep</text>
	<text x="1842" y="2732" fill="rgb(0,0,0)" font-size="24" font-family="Verdana" >lepAnk</text>
	<text x="1842" y="2632" fill="rgb(0,0,0)" font-size="24" font-family="Verdana" >lepDor</text>
	<text x="1842" y="2532" fill="rgb(0,0,0)" font-size="24" font-family="Verdana" >lepRuf</text>
	<text x="1842" y="2432" fill="rgb(0,0,0)" font-size="24" font-family="Verdana" >lepJam</text>
	<text x="1842" y="2332" fill="rgb(0,0,0)" font-size="24" font-family="Verdana" >micMur</text>
	<text x="1842" y="2232" fill="rgb(0,0,0)" font-size="24" font-family="Verdana" >mirZaz</text>
	<text x="1842" y="2132" fill="rgb(0,0,0)" font-size="24" font-family="Verdana" >cheMed</text>
	<text x="1842" y="2032" fill="rgb(0,0,0)" font-size="24" font-family="Verdana" >proVer</text>
	<text x="1842" y="1932" fill="rgb(0,0,0)" font-size="24" font-family="Verdana" >proTat</text>
	<text x="1842" y="1832" fill="rgb(0,0,0)" font-size="24" font-family="Verdana" >proDia</text>
	<text x="1842" y="1732" fill="rgb(0,0,0)" font-size="24" font-family="Verdana" >proEdw</text>
	<text x="1842" y="1632" fill="rgb(0,0,0)" font-size="24" font-family="Verdana" >avaLan</text>
	<text x="1842" y="1532" fill="rgb(0,0,0)" font-size="24" font-family="Verdana" >dauMad</text>
	<text x="1842" y="1432" fill="rgb(0,0,0)" font-size="24" font-family="Verdana" >nycBen</text>
	<text x="1842" y="1332" fill="rgb(0,0,0)" font-size="24" font-family="Verdana" >nycCou</text>
	<text x="1842" y="1232" fill="rgb(0,0,0)" font-size="24" font-family="Verdana" >nycPyg</text>
	<text x="1842" y="1132" fill="rgb(0,0,0)" font-size="24" font-family="Verdana" >lorTar</text>
	<text x="1842" y="1032" fill="rgb(0,0,0)" font-size="24" font-family="Verdana" >arcCal</text>
	<text x="1842" y="932" fill="rgb(0,0,0)" font-size="24" font-family="Verdana" >perPot</text>
	<text x="1842" y="832" fill="rgb(0,0,0)" font-size="24" font-family="Verdana" >galSen</text>
	<text x="1842" y="732" fill="rgb(0,0,0)" font-size="24" font-family="Verdana" >galMoh</text>
	<text x="1842" y="632" fill="rgb(0,0,0)" font-size="24" font-family="Verdana" >otoGar</text>
	<text x="1842" y="532" fill="rgb(0,0,0)" font-size="24" font-family="Verdana" >otoCra</text>
	<text x="1842" y="432" fill="rgb(0,0,0)" font-size="24" font-family="Verdana" >galTho</text>
	<text x="1842" y="332" fill="rgb(0,0,0)" font-size="24" font-family="Verdana" >galVar</text>
	<text x="1842" y="232" fill="rgb(0,0,0)" font-size="24" font-family="Verdana" >cynVol</text>
	<text x="1842" y="132" fill="rgb(0,0,0)" font-size="24" font-family="Verdana" >tupGli</text>
	<text x="1842" y="32" fill="rgb(0,0,0)" font-size="24" font-family="Verdana" >tupMin</text>
	<line x1="240" y1="4225" x2="240" y2="1525" stroke-width="3" stroke="rgb(65,170,190)" />
	<line x1="240" y1="1525" x2="350" y2="1525" stroke-width="3" stroke="rgb(65,170,190)" />
	<line x1="350" y1="1525" x2="350" y2="1625" stroke-width="3" stroke="rgb(65,170,190)" />
	<line x1="350" y1="1625" x2="460" y2="1625" stroke-width="3" stroke="rgb(65,170,190)" />
	<line x1="460" y1="1625" x2="460" y2="2925" stroke-width="3" stroke="rgb(65,170,190)" />
	<line x1="460" y1="2925" x2="570" y2="2925" stroke-width="3" stroke="rgb(65,170,190)" />
	<line x1="570" y1="2925" x2="570" y2="3025" stroke-width="3" stroke="rgb(65,170,190)" />
	<line x1="570" y1="3025" x2="680" y2="3025" stroke-width="3" stroke="rgb(65,170,190)" />
	<line x1="692.5" y1="3012.5" x2="667.5" y2="3037.5" stroke-width="8.33333" stroke="rgb(65,170,190)" />
	<line x1="692.5" y1="3037.5" x2="667.5" y2="3012.5" stroke-width="8.33333" stroke="rgb(65,170,190)" />
	<line x1="570" y1="2925" x2="570" y2="2125" stroke-width="3" stroke="rgb(65,170,190)" />
	<line x1="570" y1="2125" x2="680" y2="2125" stroke-width="3" stroke="rgb(65,170,190)" />
	<line x1="680" y1="2125" x2="680" y2="2425" stroke-width="3" stroke="rgb(65,170,190)" />
	<line x1="680" y1="2425" x2="790" y2="2425" stroke-width="3" stroke="rgb(65,170,190)" />
	<line x1="790" y1="2425" x2="790" y2="2525" stroke-width="3" stroke="rgb(65,170,190)" />
	<line x1="790" y1="2525" x2="900" y2="2525" stroke-width="3" stroke="rgb(65,170,190)" />
	<line x1="912.5" y1="2512.5" x2="887.5" y2="2537.5" stroke-width="8.33333" stroke="rgb(65,170,190)" />
	<line x1="912.5" y1="2537.5" x2="887.5" y2="2512.5" stroke-width="8.33333" stroke="rgb(65,170,190)" />
	<line x1="790" y1="2425" x2="790" y2="2225" stroke-width="3" stroke="rgb(65,170,190)" />
	<line x1="790" y1="2225" x2="900" y2="2225" stroke-width="3" stroke="rgb(65,170,190)" />
	<line x1="900" y1="2225" x2="900" y2="2325" stroke-width="3" stroke="rgb(65,170,190)" />
	<line x1="900" y1="2325" x2="1010" y2="2325" stroke-width="3" stroke="rgb(65,170,190)" />
	<line x1="1010" y1="2325" x2="1010" y2="2375" stroke-width="3" stroke="rgb(65,170,190)" />
	<line x1="1010" y1="2375" x2="1920" y2="2375" stroke-width="3" stroke="rgb(65,170,190)" />
	<text x="1945" y="2375" fill="rgb(65,170,190)" font-size="18" font-family="Verdana" >micMur_IHH_XM_012740314</text>
	<line x1="1010" y1="2325" x2="1010" y2="2275" stroke-width="3" stroke="rgb(65,170,190)" />
	<line x1="1010" y1="2275" x2="1120" y2="2275" stroke-width="3" stroke="rgb(65,170,190)" />
	<line x1="1132.5" y1="2262.5" x2="1107.5" y2="2287.5" stroke-width="8.33333" stroke="rgb(65,170,190)" />
	<line x1="1132.5" y1="2287.5" x2="1107.5" y2="2262.5" stroke-width="8.33333" stroke="rgb(65,170,190)" />
	<line x1="900" y1="2225" x2="900" y2="2175" stroke-width="3" stroke="rgb(65,170,190)" />
	<line x1="900" y1="2175" x2="1010" y2="2175" stroke-width="3" stroke="rgb(65,170,190)" />
	<line x1="1022.5" y1="2162.5" x2="997.5" y2="2187.5" stroke-width="8.33333" stroke="rgb(65,170,190)" />
	<line x1="1022.5" y1="2187.5" x2="997.5" y2="2162.5" stroke-width="8.33333" stroke="rgb(65,170,190)" />
	<line x1="680" y1="2125" x2="680" y2="1725" stroke-width="3" stroke="rgb(65,170,190)" />
	<line x1="680" y1="1725" x2="790" y2="1725" stroke-width="3" stroke="rgb(65,170,190)" />
	<line x1="802.5" y1="1712.5" x2="777.5" y2="1737.5" stroke-width="8.33333" stroke="rgb(65,170,190)" />
	<line x1="802.5" y1="1737.5" x2="777.5" y2="1712.5" stroke-width="8.33333" stroke="rgb(65,170,190)" />
	<line x1="460" y1="1625" x2="460" y2="1575" stroke-width="3" stroke="rgb(65,170,190)" />
	<line x1="460" y1="1575" x2="570" y2="1575" stroke-width="3" stroke="rgb(65,170,190)" />
	<line x1="582.5" y1="1562.5" x2="557.5" y2="1587.5" stroke-width="8.33333" stroke="rgb(65,170,190)" />
	<line x1="582.5" y1="1587.5" x2="557.5" y2="1562.5" stroke-width="8.33333" stroke="rgb(65,170,190)" />
	<line x1="350" y1="1525" x2="350" y2="925" stroke-width="3" stroke="rgb(65,170,190)" />
	<line x1="350" y1="925" x2="460" y2="925" stroke-width="3" stroke="rgb(65,170,190)" />
	<line x1="460" y1="925" x2="460" y2="1125" stroke-width="3" stroke="rgb(65,170,190)" />
	<line x1="460" y1="1125" x2="570" y2="1125" stroke-width="3" stroke="rgb(65,170,190)" />
	<line x1="582.5" y1="1112.5" x2="557.5" y2="1137.5" stroke-width="8.33333" stroke="rgb(65,170,190)" />
	<line x1="582.5" y1="1137.5" x2="557.5" y2="1112.5" stroke-width="8.33333" stroke="rgb(65,170,190)" />
	<line x1="460" y1="925" x2="460" y2="525" stroke-width="3" stroke="rgb(65,170,190)" />
	<line x1="460" y1="525" x2="570" y2="525" stroke-width="3" stroke="rgb(65,170,190)" />
	<line x1="570" y1="525" x2="570" y2="725" stroke-width="3" stroke="rgb(65,170,190)" />
	<line x1="570" y1="725" x2="680" y2="725" stroke-width="3" stroke="rgb(65,170,190)" />
	<line x1="680" y1="725" x2="680" y2="825" stroke-width="3" stroke="rgb(65,170,190)" />
	<line x1="680" y1="825" x2="790" y2="825" stroke-width="3" stroke="rgb(65,170,190)" />
	<line x1="802.5" y1="812.5" x2="777.5" y2="837.5" stroke-width="8.33333" stroke="rgb(65,170,190)" />
	<line x1="802.5" y1="837.5" x2="777.5" y2="812.5" stroke-width="8.33333" stroke="rgb(65,170,190)" />
	<line x1="680" y1="725" x2="680" y2="625" stroke-width="3" stroke="rgb(65,170,190)" />
	<line x1="680" y1="625" x2="790" y2="625" stroke-width="3" stroke="rgb(65,170,190)" />
	<line x1="790" y1="625" x2="790" y2="675" stroke-width="3" stroke="rgb(65,170,190)" />
	<line x1="790" y1="675" x2="1920" y2="675" stroke-width="3" stroke="rgb(65,170,190)" />
	<text x="1945" y="675" fill="rgb(65,170,190)" font-size="18" font-family="Verdana" >otoGar_IHH_XM_003784940</text>
	<line x1="790" y1="625" x2="790" y2="575" stroke-width="3" stroke="rgb(65,170,190)" />
	<line x1="790" y1="575" x2="900" y2="575" stroke-width="3" stroke="rgb(65,170,190)" />
	<line x1="912.5" y1="562.5" x2="887.5" y2="587.5" stroke-width="8.33333" stroke="rgb(65,170,190)" />
	<line x1="912.5" y1="587.5" x2="887.5" y2="562.5" stroke-width="8.33333" stroke="rgb(65,170,190)" />
	<line x1="570" y1="525" x2="570" y2="475" stroke-width="3" stroke="rgb(65,170,190)" />
	<line x1="570" y1="475" x2="680" y2="475" stroke-width="3" stroke="rgb(65,170,190)" />
	<line x1="692.5" y1="462.5" x2="667.5" y2="487.5" stroke-width="8.33333" stroke="rgb(65,170,190)" />
	<line x1="692.5" y1="487.5" x2="667.5" y2="462.5" stroke-width="8.33333" stroke="rgb(65,170,190)" />
	<line x1="240" y1="4225" x2="240" y2="4425" stroke-width="3" stroke="rgb(65,170,190)" />
	<line x1="240" y1="4425" x2="350" y2="4425" stroke-width="3" stroke="rgb(65,170,190)" />
	<line x1="350" y1="4425" x2="350" y2="10625" stroke-width="3" stroke="rgb(65,170,190)" />
	<line x1="350" y1="10625" x2="460" y2="10625" stroke-width="3" stroke="rgb(65,170,190)" />
	<line x1="460" y1="10625" x2="460" y2="12275" stroke-width="3" stroke="rgb(65,170,190)" />
	<line x1="460" y1="12275" x2="570" y2="12275" stroke-width="3" stroke="rgb(65,170,190)" />
	<line x1="570" y1="12275" x2="570" y2="12250" stroke-width="3" stroke="rgb(65,170,190)" />
	<line x1="570" y1="12250" x2="600" y2="12250" stroke-width="3" stroke="rgb(65,170,190)" />
	<line x1="600" y1="12250" x2="600" y2="14475" stroke-width="3" stroke="rgb(65,170,190)" />
	<line x1="600" y1="14475" x2="765" y2="14475" stroke-width="3" stroke="rgb(65,170,190)" />
	<line x1="765" y1="14475" x2="765" y2="12675" stroke-width="3" stroke="rgb(65,170,190)" />
	<line x1="765" y1="12675" x2="930" y2="12675" stroke-width="3" stroke="rgb(65,170,190)" />
	<line x1="930" y1="12675" x2="930" y2="12375" stroke-width="3" stroke="rgb(65,170,190)" />
	<line x1="930" y1="12375" x2="1040" y2="12375" stroke-width="3" stroke="rgb(65,170,190)" />
	<line x1="1040" y1="12375" x2="1040" y2="12325" stroke-width="3" stroke="rgb(65,170,190)" />
	<line x1="1040" y1="12325" x2="1920" y2="12325" stroke-width="3" stroke="rgb(65,170,190)" />
	<text x="1945" y="12325" fill="rgb(65,170,190)" font-size="18" font-family="Verdana" >pilTep_IHH_XM_023217456</text>
	<line x1="1040" y1="12375" x2="1040" y2="12475" stroke-width="3" stroke="rgb(65,170,190)" />
	<line x1="1040" y1="12475" x2="1150" y2="12475" stroke-width="3" stroke="rgb(65,170,190)" />
	<line x1="1150" y1="12475" x2="1150" y2="12425" stroke-width="3" stroke="rgb(65,170,190)" />
	<line x1="1150" y1="12425" x2="1920" y2="12425" stroke-width="3" stroke="rgb(65,170,190)" />
	<text x="1945" y="12425" fill="rgb(65,170,190)" font-size="18" font-family="Verdana" >colAngPal_IHH_XM_011932236</text>
	<line x1="1150" y1="12475" x2="1150" y2="12575" stroke-width="3" stroke="rgb(65,170,190)" />
	<line x1="1150" y1="12575" x2="1260" y2="12575" stroke-width="3" stroke="rgb(65,170,190)" />
	<line x1="1272.5" y1="12562.5" x2="1247.5" y2="12587.5" stroke-width="8.33333" stroke="rgb(65,170,190)" />
	<line x1="1272.5" y1="12587.5" x2="1247.5" y2="12562.5" stroke-width="8.33333" stroke="rgb(65,170,190)" />
	<line x1="930" y1="12675" x2="930" y2="12875" stroke-width="3" stroke="rgb(65,170,190)" />
	<line x1="930" y1="12875" x2="1040" y2="12875" stroke-width="3" stroke="rgb(65,170,190)" />
	<line x1="1040" y1="12875" x2="1040" y2="13575" stroke-width="3" stroke="rgb(65,170,190)" />
	<line x1="1040" y1="13575" x2="1150" y2="13575" stroke-width="3" stroke="rgb(65,170,190)" />
	<line x1="1150" y1="13575" x2="1150" y2="13875" stroke-width="3" stroke="rgb(65,170,190)" />
	<line x1="1150" y1="13875" x2="1260" y2="13875" stroke-width="3" stroke="rgb(65,170,190)" />
	<line x1="1272.5" y1="13862.5" x2="1247.5" y2="13887.5" stroke-width="8.33333" stroke="rgb(65,170,190)" />
	<line x1="1272.5" y1="13887.5" x2="1247.5" y2="13862.5" stroke-width="8.33333" stroke="rgb(65,170,190)" />
	<line x1="1150" y1="13575" x2="1150" y2="13175" stroke-width="3" stroke="rgb(65,170,190)" />
	<line x1="1150" y1="13175" x2="1260" y2="13175" stroke-width="3" stroke="rgb(65,170,190)" />
	<line x1="1260" y1="13175" x2="1260" y2="13275" stroke-width="3" stroke="rgb(65,170,190)" />
	<line x1="1260" y1="13275" x2="1370" y2="13275" stroke-width="3" stroke="rgb(65,170,190)" />
	<line x1="1382.5" y1="13262.5" x2="1357.5" y2="13287.5" stroke-width="8.33333" stroke="rgb(65,170,190)" />
	<line x1="1382.5" y1="13287.5" x2="1357.5" y2="13262.5" stroke-width="8.33333" stroke="rgb(65,170,190)" />
	<line x1="1260" y1="13175" x2="1260" y2="12975" stroke-width="3" stroke="rgb(65,170,190)" />
	<line x1="1260" y1="12975" x2="1370" y2="12975" stroke-width="3" stroke="rgb(65,170,190)" />
	<line x1="1370" y1="12975" x2="1370" y2="13075" stroke-width="3" stroke="rgb(65,170,190)" />
	<line x1="1370" y1="13075" x2="1480" y2="13075" stroke-width="3" stroke="rgb(65,170,190)" />
	<line x1="1480" y1="13075" x2="1480" y2="13025" stroke-width="3" stroke="rgb(65,170,190)" />
	<line x1="1480" y1="13025" x2="1920" y2="13025" stroke-width="3" stroke="rgb(65,170,190)" />
	<text x="1945" y="13025" fill="rgb(65,170,190)" font-size="18" font-family="Verdana" >rhiBie_IHH_XM_017856903</text>
	<line x1="1480" y1="13075" x2="1480" y2="13125" stroke-width="3" stroke="rgb(65,170,190)" />
	<line x1="1480" y1="13125" x2="1920" y2="13125" stroke-width="3" stroke="rgb(65,170,190)" />
	<text x="1945" y="13125" fill="rgb(65,170,190)" font-size="18" font-family="Verdana" >rhiRox_IHH_XM_010360263</text>
	<line x1="1370" y1="12975" x2="1370" y2="12925" stroke-width="3" stroke="rgb(65,170,190)" />
	<line x1="1370" y1="12925" x2="1480" y2="12925" stroke-width="3" stroke="rgb(65,170,190)" />
	<line x1="1492.5" y1="12912.5" x2="1467.5" y2="12937.5" stroke-width="8.33333" stroke="rgb(65,170,190)" />
	<line x1="1492.5" y1="12937.5" x2="1467.5" y2="12912.5" stroke-width="8.33333" stroke="rgb(65,170,190)" />
	<line x1="1040" y1="12875" x2="1040" y2="12775" stroke-width="3" stroke="rgb(65,170,190)" />
	<line x1="1040" y1="12775" x2="1150" y2="12775" stroke-width="3" stroke="rgb(65,170,190)" />
	<line x1="1162.5" y1="12762.5" x2="1137.5" y2="12787.5" stroke-width="8.33333" stroke="rgb(65,170,190)" />
	<line x1="1162.5" y1="12787.5" x2="1137.5" y2="12762.5" stroke-width="8.33333" stroke="rgb(65,170,190)" />
	<line x1="765" y1="14475" x2="765" y2="16200" stroke-width="3" stroke="rgb(65,170,190)" />
	<line x1="765" y1="16200" x2="930" y2="16200" stroke-width="3" stroke="rgb(65,170,190)" />
	<line x1="930" y1="16200" x2="930" y2="17300" stroke-width="3" stroke="rgb(65,170,190)" />
	<line x1="930" y1="17300" x2="1040" y2="17300" stroke-width="3" stroke="rgb(65,170,190)" />
	<line x1="1040" y1="17300" x2="1040" y2="16700" stroke-width="3" stroke="rgb(65,170,190)" />
	<line x1="1040" y1="16700" x2="1150" y2="16700" stroke-width="3" stroke="rgb(65,170,190)" />
	<line x1="1150" y1="16700" x2="1150" y2="16800" stroke-width="3" stroke="rgb(65,170,190)" />
	<line x1="1150" y1="16800" x2="1260" y2="16800" stroke-width="3" stroke="rgb(65,170,190)" />
	<line x1="1260" y1="16800" x2="1260" y2="16750" stroke-width="3" stroke="rgb(65,170,190)" />
	<line x1="1260" y1="16750" x2="1920" y2="16750" stroke-width="3" stroke="rgb(65,170,190)" />
	<text x="1945" y="16750" fill="rgb(65,170,190)" font-size="18" font-family="Verdana" >theGel_IHH_XM_025405060</text>
	<line x1="1260" y1="16800" x2="1260" y2="17000" stroke-width="3" stroke="rgb(65,170,190)" />
	<line x1="1260" y1="17000" x2="1370" y2="17000" stroke-width="3" stroke="rgb(65,170,190)" />
	<line x1="1370" y1="17000" x2="1370" y2="17100" stroke-width="3" stroke="rgb(65,170,190)" />
	<line x1="1370" y1="17100" x2="1480" y2="17100" stroke-width="3" stroke="rgb(65,170,190)" />
	<line x1="1480" y1="17100" x2="1480" y2="17200" stroke-width="3" stroke="rgb(65,170,190)" />
	<line x1="1480" y1="17200" x2="1590" y2="17200" stroke-width="3" stroke="rgb(65,170,190)" />
	<line x1="1590" y1="17200" x2="1590" y2="17150" stroke-width="3" stroke="rgb(65,170,190)" />
	<line x1="1590" y1="17150" x2="1920" y2="17150" stroke-width="3" stroke="rgb(65,170,190)" />
	<text x="1945" y="17150" fill="rgb(65,170,190)" font-size="18" font-family="Verdana" >papAnu_IHH_XM_017947005</text>
	<line x1="1590" y1="17200" x2="1590" y2="17250" stroke-width="3" stroke="rgb(65,170,190)" />
	<line x1="1590" y1="17250" x2="1700" y2="17250" stroke-width="3" stroke="rgb(65,170,190)" />
	<line x1="1712.5" y1="17237.5" x2="1687.5" y2="17262.5" stroke-width="8.33333" stroke="rgb(65,170,190)" />
	<line x1="1712.5" y1="17262.5" x2="1687.5" y2="17237.5" stroke-width="8.33333" stroke="rgb(65,170,190)" />
	<line x1="1480" y1="17100" x2="1480" y2="17050" stroke-width="3" stroke="rgb(65,170,190)" />
	<line x1="1480" y1="17050" x2="1590" y2="17050" stroke-width="3" stroke="rgb(65,170,190)" />
	<line x1="1602.5" y1="17037.5" x2="1577.5" y2="17062.5" stroke-width="8.33333" stroke="rgb(65,170,190)" />
	<line x1="1602.5" y1="17062.5" x2="1577.5" y2="17037.5" stroke-width="8.33333" stroke="rgb(65,170,190)" />
	<line x1="1370" y1="17000" x2="1370" y2="16900" stroke-width="3" stroke="rgb(65,170,190)" />
	<line x1="1370" y1="16900" x2="1480" y2="16900" stroke-width="3" stroke="rgb(65,170,190)" />
	<line x1="1492.5" y1="16887.5" x2="1467.5" y2="16912.5" stroke-width="8.33333" stroke="rgb(65,170,190)" />
	<line x1="1492.5" y1="16912.5" x2="1467.5" y2="16887.5" stroke-width="8.33333" stroke="rgb(65,170,190)" />
	<line x1="1150" y1="16700" x2="1150" y2="16400" stroke-width="3" stroke="rgb(65,170,190)" />
	<line x1="1150" y1="16400" x2="1260" y2="16400" stroke-width="3" stroke="rgb(65,170,190)" />
	<line x1="1260" y1="16400" x2="1260" y2="16500" stroke-width="3" stroke="rgb(65,170,190)" />
	<line x1="1260" y1="16500" x2="1370" y2="16500" stroke-width="3" stroke="rgb(65,170,190)" />
	<line x1="1382.5" y1="16487.5" x2="1357.5" y2="16512.5" stroke-width="8.33333" stroke="rgb(65,170,190)" />
	<line x1="1382.5" y1="16512.5" x2="1357.5" y2="16487.5" stroke-width="8.33333" stroke="rgb(65,170,190)" />
	<line x1="1260" y1="16400" x2="1260" y2="16300" stroke-width="3" stroke="rgb(65,170,190)" />
	<line x1="1260" y1="16300" x2="1370" y2="16300" stroke-width="3" stroke="rgb(65,170,190)" />
	<line x1="1370" y1="16300" x2="1370" y2="16350" stroke-width="3" stroke="rgb(65,170,190)" />
	<line x1="1370" y1="16350" x2="1920" y2="16350" stroke-width="3" stroke="rgb(65,170,190)" />
	<text x="1945" y="16350" fill="rgb(65,170,190)" font-size="18" font-family="Verdana" >manLeu_IHH_XM_011964693</text>
	<line x1="1370" y1="16300" x2="1370" y2="16250" stroke-width="3" stroke="rgb(65,170,190)" />
	<line x1="1370" y1="16250" x2="1480" y2="16250" stroke-width="3" stroke="rgb(65,170,190)" />
	<line x1="1492.5" y1="16237.5" x2="1467.5" y2="16262.5" stroke-width="8.33333" stroke="rgb(65,170,190)" />
	<line x1="1492.5" y1="16262.5" x2="1467.5" y2="16237.5" stroke-width="8.33333" stroke="rgb(65,170,190)" />
	<line x1="1040" y1="17300" x2="1040" y2="17400" stroke-width="3" stroke="rgb(65,170,190)" />
	<line x1="1040" y1="17400" x2="1150" y2="17400" stroke-width="3" stroke="rgb(65,170,190)" />
	<line x1="1150" y1="17400" x2="1150" y2="18000" stroke-width="3" stroke="rgb(65,170,190)" />
	<line x1="1150" y1="18000" x2="1260" y2="18000" stroke-width="3" stroke="rgb(65,170,190)" />
	<line x1="1260" y1="18000" x2="1260" y2="18300" stroke-width="3" stroke="rgb(65,170,190)" />
	<line x1="1260" y1="18300" x2="1370" y2="18300" stroke-width="3" stroke="rgb(65,170,190)" />
	<line x1="1370" y1="18300" x2="1370" y2="18500" stroke-width="3" stroke="rgb(65,170,190)" />
	<line x1="1370" y1="18500" x2="1480" y2="18500" stroke-width="3" stroke="rgb(65,170,190)" />
	<line x1="1492.5" y1="18487.5" x2="1467.5" y2="18512.5" stroke-width="8.33333" stroke="rgb(65,170,190)" />
	<line x1="1492.5" y1="18512.5" x2="1467.5" y2="18487.5" stroke-width="8.33333" stroke="rgb(65,170,190)" />
	<line x1="1370" y1="18300" x2="1370" y2="18100" stroke-width="3" stroke="rgb(65,170,190)" />
	<line x1="1370" y1="18100" x2="1480" y2="18100" stroke-width="3" stroke="rgb(65,170,190)" />
	<line x1="1480" y1="18100" x2="1480" y2="18200" stroke-width="3" stroke="rgb(65,170,190)" />
	<line x1="1480" y1="18200" x2="1590" y2="18200" stroke-width="3" stroke="rgb(65,170,190)" />
	<line x1="1590" y1="18200" x2="1590" y2="18250" stroke-width="3" stroke="rgb(65,170,190)" />
	<line x1="1590" y1="18250" x2="1920" y2="18250" stroke-width="3" stroke="rgb(65,170,190)" />
	<text x="1945" y="18250" fill="rgb(65,170,190)" font-size="18" font-family="Verdana" >macNem_IHH_XM_011740687</text>
	<line x1="1590" y1="18200" x2="1590" y2="18150" stroke-width="3" stroke="rgb(65,170,190)" />
	<line x1="1590" y1="18150" x2="1700" y2="18150" stroke-width="3" stroke="rgb(65,170,190)" />
	<line x1="1712.5" y1="18137.5" x2="1687.5" y2="18162.5" stroke-width="8.33333" stroke="rgb(65,170,190)" />
	<line x1="1712.5" y1="18162.5" x2="1687.5" y2="18137.5" stroke-width="8.33333" stroke="rgb(65,170,190)" />
	<line x1="1480" y1="18100" x2="1480" y2="18050" stroke-width="3" stroke="rgb(65,170,190)" />
	<line x1="1480" y1="18050" x2="1590" y2="18050" stroke-width="3" stroke="rgb(65,170,190)" />
	<line x1="1602.5" y1="18037.5" x2="1577.5" y2="18062.5" stroke-width="8.33333" stroke="rgb(65,170,190)" />
	<line x1="1602.5" y1="18062.5" x2="1577.5" y2="18037.5" stroke-width="8.33333" stroke="rgb(65,170,190)" />
	<line x1="1260" y1="18000" x2="1260" y2="17600" stroke-width="3" stroke="rgb(65,170,190)" />
	<line x1="1260" y1="17600" x2="1370" y2="17600" stroke-width="3" stroke="rgb(65,170,190)" />
	<line x1="1370" y1="17600" x2="1370" y2="17700" stroke-width="3" stroke="rgb(65,170,190)" />
	<line x1="1370" y1="17700" x2="1480" y2="17700" stroke-width="3" stroke="rgb(65,170,190)" />
	<line x1="1480" y1="17700" x2="1480" y2="17650" stroke-width="3" stroke="rgb(65,170,190)" />
	<line x1="1480" y1="17650" x2="1920" y2="17650" stroke-width="3" stroke="rgb(65,170,190)" />
	<text x="1945" y="17650" fill="rgb(65,170,190)" font-size="18" font-family="Verdana" >macFas_IHH_XM_005574335</text>
	<line x1="1480" y1="17700" x2="1480" y2="17800" stroke-width="3" stroke="rgb(65,170,190)" />
	<line x1="1480" y1="17800" x2="1590" y2="17800" stroke-width="3" stroke="rgb(65,170,190)" />
	<line x1="1590" y1="17800" x2="1590" y2="17900" stroke-width="3" stroke="rgb(65,170,190)" />
	<line x1="1590" y1="17900" x2="1700" y2="17900" stroke-width="3" stroke="rgb(65,170,190)" />
	<line x1="1700" y1="17900" x2="1700" y2="17950" stroke-width="3" stroke="rgb(65,170,190)" />
	<line x1="1700" y1="17950" x2="1920" y2="17950" stroke-width="3" stroke="rgb(65,170,190)" />
	<text x="1945" y="17950" fill="rgb(65,170,190)" font-size="18" font-family="Verdana" >macMul_IHH_XM_001092385</text>
	<line x1="1700" y1="17900" x2="1700" y2="17850" stroke-width="3" stroke="rgb(65,170,190)" />
	<line x1="1700" y1="17850" x2="1810" y2="17850" stroke-width="3" stroke="rgb(65,170,190)" />
	<line x1="1822.5" y1="17837.5" x2="1797.5" y2="17862.5" stroke-width="8.33333" stroke="rgb(65,170,190)" />
	<line x1="1822.5" y1="17862.5" x2="1797.5" y2="17837.5" stroke-width="8.33333" stroke="rgb(65,170,190)" />
	<line x1="1590" y1="17800" x2="1590" y2="17750" stroke-width="3" stroke="rgb(65,170,190)" />
	<line x1="1590" y1="17750" x2="1700" y2="17750" stroke-width="3" stroke="rgb(65,170,190)" />
	<line x1="1712.5" y1="17737.5" x2="1687.5" y2="17762.5" stroke-width="8.33333" stroke="rgb(65,170,190)" />
	<line x1="1712.5" y1="17762.5" x2="1687.5" y2="17737.5" stroke-width="8.33333" stroke="rgb(65,170,190)" />
	<line x1="1370" y1="17600" x2="1370" y2="17500" stroke-width="3" stroke="rgb(65,170,190)" />
	<line x1="1370" y1="17500" x2="1480" y2="17500" stroke-width="3" stroke="rgb(65,170,190)" />
	<line x1="1492.5" y1="17487.5" x2="1467.5" y2="17512.5" stroke-width="8.33333" stroke="rgb(65,170,190)" />
	<line x1="1492.5" y1="17512.5" x2="1467.5" y2="17487.5" stroke-width="8.33333" stroke="rgb(65,170,190)" />
	<line x1="1150" y1="17400" x2="1150" y2="17350" stroke-width="3" stroke="rgb(65,170,190)" />
	<line x1="1150" y1="17350" x2="1260" y2="17350" stroke-width="3" stroke="rgb(65,170,190)" />
	<line x1="1272.5" y1="17337.5" x2="1247.5" y2="17362.5" stroke-width="8.33333" stroke="rgb(65,170,190)" />
	<line x1="1272.5" y1="17362.5" x2="1247.5" y2="17337.5" stroke-width="8.33333" stroke="rgb(65,170,190)" />
	<line x1="930" y1="16200" x2="930" y2="15100" stroke-width="3" stroke="rgb(65,170,190)" />
	<line x1="930" y1="15100" x2="1040" y2="15100" stroke-width="3" stroke="rgb(65,170,190)" />
	<line x1="1040" y1="15100" x2="1040" y2="15200" stroke-width="3" stroke="rgb(65,170,190)" />
	<line x1="1040" y1="15200" x2="1150" y2="15200" stroke-width="3" stroke="rgb(65,170,190)" />
	<line x1="1162.5" y1="15187.5" x2="1137.5" y2="15212.5" stroke-width="8.33333" stroke="rgb(65,170,190)" />
	<line x1="1162.5" y1="15212.5" x2="1137.5" y2="15187.5" stroke-width="8.33333" stroke="rgb(65,170,190)" />
	<line x1="1040" y1="15100" x2="1040" y2="14600" stroke-width="3" stroke="rgb(65,170,190)" />
	<line x1="1040" y1="14600" x2="1150" y2="14600" stroke-width="3" stroke="rgb(65,170,190)" />
	<line x1="1150" y1="14600" x2="1150" y2="14800" stroke-width="3" stroke="rgb(65,170,190)" />
	<line x1="1150" y1="14800" x2="1260" y2="14800" stroke-width="3" stroke="rgb(65,170,190)" />
	<line x1="1260" y1="14800" x2="1260" y2="14900" stroke-width="3" stroke="rgb(65,170,190)" />
	<line x1="1260" y1="14900" x2="1370" y2="14900" stroke-width="3" stroke="rgb(65,170,190)" />
	<line x1="1370" y1="14900" x2="1370" y2="15000" stroke-width="3" stroke="rgb(65,170,190)" />
	<line x1="1370" y1="15000" x2="1480" y2="15000" stroke-width="3" stroke="rgb(65,170,190)" />
	<line x1="1480" y1="15000" x2="1480" y2="14950" stroke-width="3" stroke="rgb(65,170,190)" />
	<line x1="1480" y1="14950" x2="1920" y2="14950" stroke-width="3" stroke="rgb(65,170,190)" />
	<text x="1945" y="14950" fill="rgb(65,170,190)" font-size="18" font-family="Verdana" >chlSab_IHH_XM_007966333</text>
	<line x1="1480" y1="15000" x2="1480" y2="15050" stroke-width="3" stroke="rgb(65,170,190)" />
	<line x1="1480" y1="15050" x2="1590" y2="15050" stroke-width="3" stroke="rgb(65,170,190)" />
	<line x1="1602.5" y1="15037.5" x2="1577.5" y2="15062.5" stroke-width="8.33333" stroke="rgb(65,170,190)" />
	<line x1="1602.5" y1="15062.5" x2="1577.5" y2="15037.5" stroke-width="8.33333" stroke="rgb(65,170,190)" />
	<line x1="1370" y1="14900" x2="1370" y2="14850" stroke-width="3" stroke="rgb(65,170,190)" />
	<line x1="1370" y1="14850" x2="1480" y2="14850" stroke-width="3" stroke="rgb(65,170,190)" />
	<line x1="1492.5" y1="14837.5" x2="1467.5" y2="14862.5" stroke-width="8.33333" stroke="rgb(65,170,190)" />
	<line x1="1492.5" y1="14862.5" x2="1467.5" y2="14837.5" stroke-width="8.33333" stroke="rgb(65,170,190)" />
	<line x1="1260" y1="14800" x2="1260" y2="14700" stroke-width="3" stroke="rgb(65,170,190)" />
	<line x1="1260" y1="14700" x2="1370" y2="14700" stroke-width="3" stroke="rgb(65,170,190)" />
	<line x1="1382.5" y1="14687.5" x2="1357.5" y2="14712.5" stroke-width="8.33333" stroke="rgb(65,170,190)" />
	<line x1="1382.5" y1="14712.5" x2="1357.5" y2="14687.5" stroke-width="8.33333" stroke="rgb(65,170,190)" />
	<line x1="1150" y1="14600" x2="1150" y2="14550" stroke-width="3" stroke="rgb(65,170,190)" />
	<line x1="1150" y1="14550" x2="1260" y2="14550" stroke-width="3" stroke="rgb(65,170,190)" />
	<line x1="1272.5" y1="14537.5" x2="1247.5" y2="14562.5" stroke-width="8.33333" stroke="rgb(65,170,190)" />
	<line x1="1272.5" y1="14562.5" x2="1247.5" y2="14537.5" stroke-width="8.33333" stroke="rgb(65,170,190)" />
	<line x1="600" y1="12250" x2="600" y2="11400" stroke-width="3" stroke="rgb(65,170,190)" />
	<line x1="600" y1="11400" x2="765" y2="11400" stroke-width="3" stroke="rgb(65,170,190)" />
	<line x1="765" y1="11400" x2="765" y2="11825" stroke-width="3" stroke="rgb(65,170,190)" />
	<line x1="765" y1="11825" x2="930" y2="11825" stroke-width="3" stroke="rgb(65,170,190)" />
	<line x1="942.5" y1="11812.5" x2="917.5" y2="11837.5" stroke-width="8.33333" stroke="rgb(65,170,190)" />
	<line x1="942.5" y1="11837.5" x2="917.5" y2="11812.5" stroke-width="8.33333" stroke="rgb(65,170,190)" />
	<line x1="765" y1="11400" x2="765" y2="10825" stroke-width="3" stroke="rgb(65,170,190)" />
	<line x1="765" y1="10825" x2="930" y2="10825" stroke-width="3" stroke="rgb(65,170,190)" />
	<line x1="930" y1="10825" x2="930" y2="11000" stroke-width="3" stroke="rgb(65,170,190)" />
	<line x1="930" y1="11000" x2="1095" y2="11000" stroke-width="3" stroke="rgb(65,170,190)" />
	<line x1="1095" y1="11000" x2="1095" y2="10975" stroke-width="3" stroke="rgb(65,170,190)" />
	<line x1="1095" y1="10975" x2="1125" y2="10975" stroke-width="3" stroke="rgb(65,170,190)" />
	<line x1="1125" y1="10975" x2="1125" y2="10900" stroke-width="3" stroke="rgb(65,170,190)" />
	<line x1="1125" y1="10900" x2="1920" y2="10900" stroke-width="3" stroke="rgb(65,170,190)" />
	<text x="1945" y="10900" fill="rgb(65,170,190)" font-size="18" font-family="Verdana" >gorGorGor_IHH_XM_031008417</text>
	<line x1="1125" y1="10975" x2="1125" y2="11150" stroke-width="3" stroke="rgb(65,170,190)" />
	<line x1="1125" y1="11150" x2="1290" y2="11150" stroke-width="3" stroke="rgb(65,170,190)" />
	<line x1="1290" y1="11150" x2="1290" y2="11275" stroke-width="3" stroke="rgb(65,170,190)" />
	<line x1="1290" y1="11275" x2="1455" y2="11275" stroke-width="3" stroke="rgb(65,170,190)" />
	<line x1="1455" y1="11275" x2="1455" y2="11225" stroke-width="3" stroke="rgb(65,170,190)" />
	<line x1="1455" y1="11225" x2="1920" y2="11225" stroke-width="3" stroke="rgb(65,170,190)" />
	<text x="1945" y="11225" fill="rgb(65,170,190)" font-size="18" font-family="Verdana" >panPan_IHH_XM_008972046</text>
	<line x1="1455" y1="11275" x2="1455" y2="11350" stroke-width="3" stroke="rgb(65,170,190)" />
	<line x1="1455" y1="11350" x2="1920" y2="11350" stroke-width="3" stroke="rgb(65,170,190)" />
	<text x="1945" y="11350" fill="rgb(65,170,190)" font-size="18" font-family="Verdana" >panTro_IHH_XM_526034</text>
	<line x1="1290" y1="11150" x2="1290" y2="11050" stroke-width="3" stroke="rgb(65,170,190)" />
	<line x1="1290" y1="11050" x2="1455" y2="11050" stroke-width="3" stroke="rgb(65,170,190)" />
	<line x1="1467.5" y1="11037.5" x2="1442.5" y2="11062.5" stroke-width="8.33333" stroke="rgb(65,170,190)" />
	<line x1="1467.5" y1="11062.5" x2="1442.5" y2="11037.5" stroke-width="8.33333" stroke="rgb(65,170,190)" />
	<line x1="1095" y1="11000" x2="1095" y2="11000" stroke-width="3" stroke="rgb(65,170,190)" />
	<line x1="1095" y1="11000" x2="1155" y2="11000" stroke-width="3" stroke="rgb(65,170,190)" />
	<line x1="1155" y1="11000" x2="1155" y2="11175" stroke-width="3" stroke="rgb(65,170,190)" />
	<line x1="1155" y1="11175" x2="1320" y2="11175" stroke-width="3" stroke="rgb(65,170,190)" />
	<line x1="1320" y1="11175" x2="1320" y2="11100" stroke-width="3" stroke="rgb(65,170,190)" />
	<line x1="1320" y1="11100" x2="1485" y2="11100" stroke-width="3" stroke="rgb(65,170,190)" />
	<line x1="1485" y1="11100" x2="1485" y2="11075" stroke-width="3" stroke="rgb(65,170,190)" />
	<line x1="1485" y1="11075" x2="1920" y2="11075" stroke-width="3" stroke="rgb(65,170,190)" />
	<text x="1945" y="11075" fill="rgb(65,170,190)" font-size="18" font-family="Verdana" >homSap_IHH_BC136587</text>
	<line x1="1485" y1="11100" x2="1485" y2="11100" stroke-width="3" stroke="rgb(65,170,190)" />
	<line x1="1485" y1="11100" x2="1920" y2="11100" stroke-width="3" stroke="rgb(65,170,190)" />
	<text x="1945" y="11100" fill="rgb(65,170,190)" font-size="18" font-family="Verdana" >homSap_IHH_NM_002181</text>
	<rect x="1472.5" y="11087.5" width="25" height="25" fill="rgb(65,170,190)" stroke-width="3" stroke="rgb(65,170,190)" />
	<line x1="1320" y1="11175" x2="1320" y2="11300" stroke-width="3" stroke="rgb(65,170,190)" />
	<line x1="1320" y1="11300" x2="1485" y2="11300" stroke-width="3" stroke="rgb(65,170,190)" />
	<line x1="1497.5" y1="11287.5" x2="1472.5" y2="11312.5" stroke-width="8.33333" stroke="rgb(65,170,190)" />
	<line x1="1497.5" y1="11312.5" x2="1472.5" y2="11287.5" stroke-width="8.33333" stroke="rgb(65,170,190)" />
	<line x1="1155" y1="11000" x2="1155" y2="10925" stroke-width="3" stroke="rgb(65,170,190)" />
	<line x1="1155" y1="10925" x2="1290" y2="10925" stroke-width="3" stroke="rgb(65,170,190)" />
	<line x1="1302.5" y1="10912.5" x2="1277.5" y2="10937.5" stroke-width="8.33333" stroke="rgb(65,170,190)" />
	<line x1="1302.5" y1="10937.5" x2="1277.5" y2="10912.5" stroke-width="8.33333" stroke="rgb(65,170,190)" />
	<rect x="1082.5" y="10987.5" width="25" height="25" fill="rgb(65,170,190)" stroke-width="3" stroke="rgb(65,170,190)" />
	<line x1="930" y1="10825" x2="930" y2="10725" stroke-width="3" stroke="rgb(65,170,190)" />
	<line x1="930" y1="10725" x2="1095" y2="10725" stroke-width="3" stroke="rgb(65,170,190)" />
	<line x1="1095" y1="10725" x2="1095" y2="10675" stroke-width="3" stroke="rgb(65,170,190)" />
	<line x1="1095" y1="10675" x2="1920" y2="10675" stroke-width="3" stroke="rgb(65,170,190)" />
	<text x="1945" y="10675" fill="rgb(65,170,190)" font-size="18" font-family="Verdana" >ponAbe_IHH_XM_024243601</text>
	<line x1="1095" y1="10725" x2="1095" y2="10775" stroke-width="3" stroke="rgb(65,170,190)" />
	<line x1="1095" y1="10775" x2="1205" y2="10775" stroke-width="3" stroke="rgb(65,170,190)" />
	<line x1="1217.5" y1="10762.5" x2="1192.5" y2="10787.5" stroke-width="8.33333" stroke="rgb(65,170,190)" />
	<line x1="1217.5" y1="10787.5" x2="1192.5" y2="10762.5" stroke-width="8.33333" stroke="rgb(65,170,190)" />
	<line x1="570" y1="12275" x2="570" y2="12275" stroke-width="3" stroke="rgb(65,170,190)" />
	<line x1="570" y1="12275" x2="630" y2="12275" stroke-width="3" stroke="rgb(65,170,190)" />
	<line x1="630" y1="12275" x2="630" y2="14500" stroke-width="3" stroke="rgb(65,170,190)" />
	<line x1="630" y1="14500" x2="795" y2="14500" stroke-width="3" stroke="rgb(65,170,190)" />
	<line x1="807.5" y1="14487.5" x2="782.5" y2="14512.5" stroke-width="8.33333" stroke="rgb(65,170,190)" />
	<line x1="807.5" y1="14512.5" x2="782.5" y2="14487.5" stroke-width="8.33333" stroke="rgb(65,170,190)" />
	<line x1="630" y1="12275" x2="630" y2="11425" stroke-width="3" stroke="rgb(65,170,190)" />
	<line x1="630" y1="11425" x2="795" y2="11425" stroke-width="3" stroke="rgb(65,170,190)" />
	<line x1="795" y1="11425" x2="795" y2="11850" stroke-width="3" stroke="rgb(65,170,190)" />
	<line x1="795" y1="11850" x2="960" y2="11850" stroke-width="3" stroke="rgb(65,170,190)" />
	<line x1="960" y1="11850" x2="960" y2="11950" stroke-width="3" stroke="rgb(65,170,190)" />
	<line x1="960" y1="11950" x2="1095" y2="11950" stroke-width="3" stroke="rgb(65,170,190)" />
	<line x1="1107.5" y1="11937.5" x2="1082.5" y2="11962.5" stroke-width="8.33333" stroke="rgb(65,170,190)" />
	<line x1="1107.5" y1="11962.5" x2="1082.5" y2="11937.5" stroke-width="8.33333" stroke="rgb(65,170,190)" />
	<line x1="960" y1="11850" x2="960" y2="11625" stroke-width="3" stroke="rgb(65,170,190)" />
	<line x1="960" y1="11625" x2="1095" y2="11625" stroke-width="3" stroke="rgb(65,170,190)" />
	<line x1="1095" y1="11625" x2="1095" y2="11725" stroke-width="3" stroke="rgb(65,170,190)" />
	<line x1="1095" y1="11725" x2="1205" y2="11725" stroke-width="3" stroke="rgb(65,170,190)" />
	<line x1="1205" y1="11725" x2="1205" y2="11775" stroke-width="3" stroke="rgb(65,170,190)" />
	<line x1="1205" y1="11775" x2="1920" y2="11775" stroke-width="3" stroke="rgb(65,170,190)" />
	<text x="1945" y="11775" fill="rgb(65,170,190)" font-size="18" font-family="Verdana" >nomLeu_IHH_XM_030803137</text>
	<line x1="1205" y1="11725" x2="1205" y2="11675" stroke-width="3" stroke="rgb(65,170,190)" />
	<line x1="1205" y1="11675" x2="1315" y2="11675" stroke-width="3" stroke="rgb(65,170,190)" />
	<line x1="1327.5" y1="11662.5" x2="1302.5" y2="11687.5" stroke-width="8.33333" stroke="rgb(65,170,190)" />
	<line x1="1327.5" y1="11687.5" x2="1302.5" y2="11662.5" stroke-width="8.33333" stroke="rgb(65,170,190)" />
	<line x1="1095" y1="11625" x2="1095" y2="11525" stroke-width="3" stroke="rgb(65,170,190)" />
	<line x1="1095" y1="11525" x2="1205" y2="11525" stroke-width="3" stroke="rgb(65,170,190)" />
	<line x1="1217.5" y1="11512.5" x2="1192.5" y2="11537.5" stroke-width="8.33333" stroke="rgb(65,170,190)" />
	<line x1="1217.5" y1="11537.5" x2="1192.5" y2="11512.5" stroke-width="8.33333" stroke="rgb(65,170,190)" />
	<line x1="795" y1="11425" x2="795" y2="10850" stroke-width="3" stroke="rgb(65,170,190)" />
	<line x1="795" y1="10850" x2="960" y2="10850" stroke-width="3" stroke="rgb(65,170,190)" />
	<line x1="972.5" y1="10837.5" x2="947.5" y2="10862.5" stroke-width="8.33333" stroke="rgb(65,170,190)" />
	<line x1="972.5" y1="10862.5" x2="947.5" y2="10837.5" stroke-width="8.33333" stroke="rgb(65,170,190)" />
	<rect x="557.5" y="12262.5" width="25" height="25" fill="rgb(65,170,190)" stroke-width="3" stroke="rgb(65,170,190)" />
	<line x1="460" y1="10625" x2="460" y2="5825" stroke-width="3" stroke="rgb(65,170,190)" />
	<line x1="460" y1="5825" x2="570" y2="5825" stroke-width="3" stroke="rgb(65,170,190)" />
	<line x1="570" y1="5825" x2="570" y2="7225" stroke-width="3" stroke="rgb(65,170,190)" />
	<line x1="570" y1="7225" x2="680" y2="7225" stroke-width="3" stroke="rgb(65,170,190)" />
	<line x1="680" y1="7225" x2="680" y2="8225" stroke-width="3" stroke="rgb(65,170,190)" />
	<line x1="680" y1="8225" x2="790" y2="8225" stroke-width="3" stroke="rgb(65,170,190)" />
	<line x1="790" y1="8225" x2="790" y2="7625" stroke-width="3" stroke="rgb(65,170,190)" />
	<line x1="790" y1="7625" x2="900" y2="7625" stroke-width="3" stroke="rgb(65,170,190)" />
	<line x1="900" y1="7625" x2="900" y2="7925" stroke-width="3" stroke="rgb(65,170,190)" />
	<line x1="900" y1="7925" x2="1010" y2="7925" stroke-width="3" stroke="rgb(65,170,190)" />
	<line x1="1010" y1="7925" x2="1010" y2="8025" stroke-width="3" stroke="rgb(65,170,190)" />
	<line x1="1010" y1="8025" x2="1120" y2="8025" stroke-width="3" stroke="rgb(65,170,190)" />
	<line x1="1132.5" y1="8012.5" x2="1107.5" y2="8037.5" stroke-width="8.33333" stroke="rgb(65,170,190)" />
	<line x1="1132.5" y1="8037.5" x2="1107.5" y2="8012.5" stroke-width="8.33333" stroke="rgb(65,170,190)" />
	<line x1="1010" y1="7925" x2="1010" y2="7725" stroke-width="3" stroke="rgb(65,170,190)" />
	<line x1="1010" y1="7725" x2="1120" y2="7725" stroke-width="3" stroke="rgb(65,170,190)" />
	<line x1="1120" y1="7725" x2="1120" y2="7825" stroke-width="3" stroke="rgb(65,170,190)" />
	<line x1="1120" y1="7825" x2="1230" y2="7825" stroke-width="3" stroke="rgb(65,170,190)" />
	<line x1="1230" y1="7825" x2="1230" y2="7875" stroke-width="3" stroke="rgb(65,170,190)" />
	<line x1="1230" y1="7875" x2="1920" y2="7875" stroke-width="3" stroke="rgb(65,170,190)" />
	<text x="1945" y="7875" fill="rgb(65,170,190)" font-size="18" font-family="Verdana" >cebCapImi_IHH_XM_017535196</text>
	<line x1="1230" y1="7825" x2="1230" y2="7775" stroke-width="3" stroke="rgb(65,170,190)" />
	<line x1="1230" y1="7775" x2="1340" y2="7775" stroke-width="3" stroke="rgb(65,170,190)" />
	<line x1="1352.5" y1="7762.5" x2="1327.5" y2="7787.5" stroke-width="8.33333" stroke="rgb(65,170,190)" />
	<line x1="1352.5" y1="7787.5" x2="1327.5" y2="7762.5" stroke-width="8.33333" stroke="rgb(65,170,190)" />
	<line x1="1120" y1="7725" x2="1120" y2="7675" stroke-width="3" stroke="rgb(65,170,190)" />
	<line x1="1120" y1="7675" x2="1230" y2="7675" stroke-width="3" stroke="rgb(65,170,190)" />
	<line x1="1242.5" y1="7662.5" x2="1217.5" y2="7687.5" stroke-width="8.33333" stroke="rgb(65,170,190)" />
	<line x1="1242.5" y1="7687.5" x2="1217.5" y2="7662.5" stroke-width="8.33333" stroke="rgb(65,170,190)" />
	<line x1="900" y1="7625" x2="900" y2="7325" stroke-width="3" stroke="rgb(65,170,190)" />
	<line x1="900" y1="7325" x2="1010" y2="7325" stroke-width="3" stroke="rgb(65,170,190)" />
	<line x1="1010" y1="7325" x2="1010" y2="7275" stroke-width="3" stroke="rgb(65,170,190)" />
	<line x1="1010" y1="7275" x2="1920" y2="7275" stroke-width="3" stroke="rgb(65,170,190)" />
	<text x="1945" y="7275" fill="rgb(65,170,190)" font-size="18" font-family="Verdana" >saiBolBol_IHH_XM_003925517</text>
	<line x1="1010" y1="7325" x2="1010" y2="7425" stroke-width="3" stroke="rgb(65,170,190)" />
	<line x1="1010" y1="7425" x2="1120" y2="7425" stroke-width="3" stroke="rgb(65,170,190)" />
	<line x1="1132.5" y1="7412.5" x2="1107.5" y2="7437.5" stroke-width="8.33333" stroke="rgb(65,170,190)" />
	<line x1="1132.5" y1="7437.5" x2="1107.5" y2="7412.5" stroke-width="8.33333" stroke="rgb(65,170,190)" />
	<line x1="790" y1="8225" x2="790" y2="8625" stroke-width="3" stroke="rgb(65,170,190)" />
	<line x1="790" y1="8625" x2="900" y2="8625" stroke-width="3" stroke="rgb(65,170,190)" />
	<line x1="900" y1="8625" x2="900" y2="9525" stroke-width="3" stroke="rgb(65,170,190)" />
	<line x1="900" y1="9525" x2="1010" y2="9525" stroke-width="3" stroke="rgb(65,170,190)" />
	<line x1="1010" y1="9525" x2="1010" y2="9725" stroke-width="3" stroke="rgb(65,170,190)" />
	<line x1="1010" y1="9725" x2="1120" y2="9725" stroke-width="3" stroke="rgb(65,170,190)" />
	<line x1="1120" y1="9725" x2="1120" y2="9825" stroke-width="3" stroke="rgb(65,170,190)" />
	<line x1="1120" y1="9825" x2="1230" y2="9825" stroke-width="3" stroke="rgb(65,170,190)" />
	<line x1="1230" y1="9825" x2="1230" y2="10125" stroke-width="3" stroke="rgb(65,170,190)" />
	<line x1="1230" y1="10125" x2="1340" y2="10125" stroke-width="3" stroke="rgb(65,170,190)" />
	<line x1="1340" y1="10125" x2="1340" y2="10225" stroke-width="3" stroke="rgb(65,170,190)" />
	<line x1="1340" y1="10225" x2="1450" y2="10225" stroke-width="3" stroke="rgb(65,170,190)" />
	<line x1="1450" y1="10225" x2="1450" y2="10325" stroke-width="3" stroke="rgb(65,170,190)" />
	<line x1="1450" y1="10325" x2="1560" y2="10325" stroke-width="3" stroke="rgb(65,170,190)" />
	<line x1="1560" y1="10325" x2="1560" y2="10425" stroke-width="3" stroke="rgb(65,170,190)" />
	<line x1="1560" y1="10425" x2="1670" y2="10425" stroke-width="3" stroke="rgb(65,170,190)" />
	<line x1="1670" y1="10425" x2="1670" y2="10525" stroke-width="3" stroke="rgb(65,170,190)" />
	<line x1="1670" y1="10525" x2="1780" y2="10525" stroke-width="3" stroke="rgb(65,170,190)" />
	<line x1="1780" y1="10525" x2="1780" y2="10575" stroke-width="3" stroke="rgb(65,170,190)" />
	<line x1="1780" y1="10575" x2="1920" y2="10575" stroke-width="3" stroke="rgb(65,170,190)" />
	<text x="1945" y="10575" fill="rgb(65,170,190)" font-size="18" font-family="Verdana" >calJac_IHH_XM_002749801</text>
	<line x1="1780" y1="10525" x2="1780" y2="10475" stroke-width="3" stroke="rgb(65,170,190)" />
	<line x1="1780" y1="10475" x2="1890" y2="10475" stroke-width="3" stroke="rgb(65,170,190)" />
	<line x1="1902.5" y1="10462.5" x2="1877.5" y2="10487.5" stroke-width="8.33333" stroke="rgb(65,170,190)" />
	<line x1="1902.5" y1="10487.5" x2="1877.5" y2="10462.5" stroke-width="8.33333" stroke="rgb(65,170,190)" />
	<line x1="1670" y1="10425" x2="1670" y2="10375" stroke-width="3" stroke="rgb(65,170,190)" />
	<line x1="1670" y1="10375" x2="1780" y2="10375" stroke-width="3" stroke="rgb(65,170,190)" />
	<line x1="1792.5" y1="10362.5" x2="1767.5" y2="10387.5" stroke-width="8.33333" stroke="rgb(65,170,190)" />
	<line x1="1792.5" y1="10387.5" x2="1767.5" y2="10362.5" stroke-width="8.33333" stroke="rgb(65,170,190)" />
	<line x1="1560" y1="10325" x2="1560" y2="10275" stroke-width="3" stroke="rgb(65,170,190)" />
	<line x1="1560" y1="10275" x2="1670" y2="10275" stroke-width="3" stroke="rgb(65,170,190)" />
	<line x1="1682.5" y1="10262.5" x2="1657.5" y2="10287.5" stroke-width="8.33333" stroke="rgb(65,170,190)" />
	<line x1="1682.5" y1="10287.5" x2="1657.5" y2="10262.5" stroke-width="8.33333" stroke="rgb(65,170,190)" />
	<line x1="1450" y1="10225" x2="1450" y2="10175" stroke-width="3" stroke="rgb(65,170,190)" />
	<line x1="1450" y1="10175" x2="1560" y2="10175" stroke-width="3" stroke="rgb(65,170,190)" />
	<line x1="1572.5" y1="10162.5" x2="1547.5" y2="10187.5" stroke-width="8.33333" stroke="rgb(65,170,190)" />
	<line x1="1572.5" y1="10187.5" x2="1547.5" y2="10162.5" stroke-width="8.33333" stroke="rgb(65,170,190)" />
	<line x1="1340" y1="10125" x2="1340" y2="9925" stroke-width="3" stroke="rgb(65,170,190)" />
	<line x1="1340" y1="9925" x2="1450" y2="9925" stroke-width="3" stroke="rgb(65,170,190)" />
	<line x1="1462.5" y1="9912.5" x2="1437.5" y2="9937.5" stroke-width="8.33333" stroke="rgb(65,170,190)" />
	<line x1="1462.5" y1="9937.5" x2="1437.5" y2="9912.5" stroke-width="8.33333" stroke="rgb(65,170,190)" />
	<line x1="1230" y1="9825" x2="1230" y2="9775" stroke-width="3" stroke="rgb(65,170,190)" />
	<line x1="1230" y1="9775" x2="1340" y2="9775" stroke-width="3" stroke="rgb(65,170,190)" />
	<line x1="1352.5" y1="9762.5" x2="1327.5" y2="9787.5" stroke-width="8.33333" stroke="rgb(65,170,190)" />
	<line x1="1352.5" y1="9787.5" x2="1327.5" y2="9762.5" stroke-width="8.33333" stroke="rgb(65,170,190)" />
	<line x1="1120" y1="9725" x2="1120" y2="9625" stroke-width="3" stroke="rgb(65,170,190)" />
	<line x1="1120" y1="9625" x2="1230" y2="9625" stroke-width="3" stroke="rgb(65,170,190)" />
	<line x1="1242.5" y1="9612.5" x2="1217.5" y2="9637.5" stroke-width="8.33333" stroke="rgb(65,170,190)" />
	<line x1="1242.5" y1="9637.5" x2="1217.5" y2="9612.5" stroke-width="8.33333" stroke="rgb(65,170,190)" />
	<line x1="1010" y1="9525" x2="1010" y2="8725" stroke-width="3" stroke="rgb(65,170,190)" />
	<line x1="1010" y1="8725" x2="1120" y2="8725" stroke-width="3" stroke="rgb(65,170,190)" />
	<line x1="1132.5" y1="8712.5" x2="1107.5" y2="8737.5" stroke-width="8.33333" stroke="rgb(65,170,190)" />
	<line x1="1132.5" y1="8737.5" x2="1107.5" y2="8712.5" stroke-width="8.33333" stroke="rgb(65,170,190)" />
	<line x1="900" y1="8625" x2="900" y2="8425" stroke-width="3" stroke="rgb(65,170,190)" />
	<line x1="900" y1="8425" x2="1010" y2="8425" stroke-width="3" stroke="rgb(65,170,190)" />
	<line x1="1010" y1="8425" x2="1010" y2="8525" stroke-width="3" stroke="rgb(65,170,190)" />
	<line x1="1010" y1="8525" x2="1120" y2="8525" stroke-width="3" stroke="rgb(65,170,190)" />
	<line x1="1120" y1="8525" x2="1120" y2="8475" stroke-width="3" stroke="rgb(65,170,190)" />
	<line x1="1120" y1="8475" x2="1920" y2="8475" stroke-width="3" stroke="rgb(65,170,190)" />
	<text x="1945" y="8475" fill="rgb(65,170,190)" font-size="18" font-family="Verdana" >aotNan_IHH_XM_012446381</text>
	<line x1="1120" y1="8525" x2="1120" y2="8575" stroke-width="3" stroke="rgb(65,170,190)" />
	<line x1="1120" y1="8575" x2="1230" y2="8575" stroke-width="3" stroke="rgb(65,170,190)" />
	<line x1="1242.5" y1="8562.5" x2="1217.5" y2="8587.5" stroke-width="8.33333" stroke="rgb(65,170,190)" />
	<line x1="1242.5" y1="8587.5" x2="1217.5" y2="8562.5" stroke-width="8.33333" stroke="rgb(65,170,190)" />
	<line x1="1010" y1="8425" x2="1010" y2="8325" stroke-width="3" stroke="rgb(65,170,190)" />
	<line x1="1010" y1="8325" x2="1120" y2="8325" stroke-width="3" stroke="rgb(65,170,190)" />
	<line x1="1132.5" y1="8312.5" x2="1107.5" y2="8337.5" stroke-width="8.33333" stroke="rgb(65,170,190)" />
	<line x1="1132.5" y1="8337.5" x2="1107.5" y2="8312.5" stroke-width="8.33333" stroke="rgb(65,170,190)" />
	<line x1="680" y1="7225" x2="680" y2="6225" stroke-width="3" stroke="rgb(65,170,190)" />
	<line x1="680" y1="6225" x2="790" y2="6225" stroke-width="3" stroke="rgb(65,170,190)" />
	<line x1="802.5" y1="6212.5" x2="777.5" y2="6237.5" stroke-width="8.33333" stroke="rgb(65,170,190)" />
	<line x1="802.5" y1="6237.5" x2="777.5" y2="6212.5" stroke-width="8.33333" stroke="rgb(65,170,190)" />
	<line x1="570" y1="5825" x2="570" y2="5025" stroke-width="3" stroke="rgb(65,170,190)" />
	<line x1="570" y1="5025" x2="680" y2="5025" stroke-width="3" stroke="rgb(65,170,190)" />
	<line x1="692.5" y1="5012.5" x2="667.5" y2="5037.5" stroke-width="8.33333" stroke="rgb(65,170,190)" />
	<line x1="692.5" y1="5037.5" x2="667.5" y2="5012.5" stroke-width="8.33333" stroke="rgb(65,170,190)" />
	<line x1="350" y1="4425" x2="350" y2="4325" stroke-width="3" stroke="rgb(65,170,190)" />
	<line x1="350" y1="4325" x2="460" y2="4325" stroke-width="3" stroke="rgb(65,170,190)" />
	<line x1="460" y1="4325" x2="460" y2="4375" stroke-width="3" stroke="rgb(65,170,190)" />
	<line x1="460" y1="4375" x2="1920" y2="4375" stroke-width="3" stroke="rgb(65,170,190)" />
	<text x="1945" y="4375" fill="rgb(65,170,190)" font-size="18" font-family="Verdana" >carSyr_IHH_XM_021712801</text>
	<line x1="460" y1="4325" x2="460" y2="4275" stroke-width="3" stroke="rgb(65,170,190)" />
	<line x1="460" y1="4275" x2="570" y2="4275" stroke-width="3" stroke="rgb(65,170,190)" />
	<line x1="582.5" y1="4262.5" x2="557.5" y2="4287.5" stroke-width="8.33333" stroke="rgb(65,170,190)" />
	<line x1="582.5" y1="4287.5" x2="557.5" y2="4262.5" stroke-width="8.33333" stroke="rgb(65,170,190)" />
	<polygon points="255.625,4225 246.32,4220.41 244.828,4210.14 237.586,4217.57 227.359,4215.82 232.188,4225 227.359,4234.18 237.586,4232.43 244.828,4239.86 246.32,4229.59 255.625,4225 " fill="rgb(255,255,255)" stroke-width="6.25" stroke="rgb(65,170,190)" />
</svg>
